<?xml version="1.0" encoding="UTF-8"?><svg id="Layer_1" xmlns="http://www.w3.org/2000/svg" viewBox="0 0 155 170"><defs><style>.cls-1{stroke:#e9f7fe;stroke-miterlimit:10;}.cls-1,.cls-2{fill:none;stroke-width:.77px;}.cls-3{fill:#e9f7fe;}.cls-4{fill:#ed1c24;}.cls-2{stroke:#fff;stroke-linejoin:round;}</style></defs><path class="cls-4" d="m153.67,85.22v-34.47c0-8.53-6.07-12.48-6.07-12.48L88.53,4.79c-11.81-8.54-22.28,0-22.28,0L7.19,38.28C-.33,42.54,1.11,51.74,1.11,51.74v31.66h-.11v34.47c0,8.54,6.08,12.48,6.08,12.48l59.07,33.48c11.81,8.54,22.28,0,22.28,0l59.07-33.48c7.51-4.26,6.08-13.46,6.08-13.46v-31.66h.11Z"/><path class="cls-1" d="m148.32,85.16v-32.05c0-7.94-5.65-11.6-5.65-11.6l-54.93-31.14c-10.99-7.94-20.72,0-20.72,0L12.1,41.5c-6.99,3.96-5.65,12.52-5.65,12.52v29.44h-.1v32.05c0,7.94,5.65,11.6,5.65,11.6l54.93,31.14c10.98,7.94,20.72,0,20.72,0l54.93-31.14c6.99-3.96,5.65-12.52,5.65-12.52v-29.44h.1Z"/><path class="cls-3" d="m30.32,82.97c.53-.02,1.06-.06,1.59-.06,20.65,0,41.29,0,61.94,0h2.05c-10.94-18.93-21.74-37.63-32.7-56.58-.38.63-.69,1.09-.97,1.56-10.19,17.62-20.38,35.25-30.58,52.87-.39.67-.89,1.27-1.34,1.89v.32Z"/><path class="cls-2" d="m30.32,82.97c.53-.02,1.06-.06,1.59-.06,20.65,0,41.29,0,61.94,0h2.05c-10.94-18.93-21.74-37.63-32.7-56.58-.38.63-.69,1.09-.97,1.56-10.19,17.62-20.38,35.25-30.58,52.87-.39.67-.89,1.27-1.34,1.89v.32Z"/><path class="cls-3" d="m118.88,90.36c-.51-.69-1.08-1.34-1.5-2.08-8.64-14.91-17.25-29.84-25.88-44.76-.28-.48-.58-.94-1.01-1.63-2.02,3.49-3.96,6.79-5.81,10.15-.2.36-.02,1.1.23,1.52,6.92,12.04,13.86,24.07,20.87,36.06.31.55,1.26.99,1.93,1.01,3.72.12,7.45.09,11.18.12v-.38Z"/><path class="cls-2" d="m118.88,90.36c-.51-.69-1.08-1.34-1.5-2.08-8.64-14.91-17.25-29.84-25.88-44.76-.28-.48-.58-.94-1.01-1.63-2.02,3.49-3.96,6.79-5.81,10.15-.2.36-.02,1.1.23,1.52,6.92,12.04,13.86,24.07,20.87,36.06.31.55,1.26.99,1.93,1.01,3.72.12,7.45.09,11.18.12v-.38Z"/><path class="cls-3" d="m126.66,82.79c-.25-.34-.52-.66-.73-1.01-4.21-7.28-8.42-14.56-12.63-21.84-.14-.23-.29-.46-.5-.79-.98,1.7-1.93,3.31-2.84,4.95-.1.17,0,.54.11.74,3.38,5.88,6.76,11.74,10.19,17.59.15.26.61.48.94.49,1.82.06,3.64.04,5.45.06v-.19Z"/><path class="cls-2" d="m126.66,82.79c-.25-.34-.52-.66-.73-1.01-4.21-7.28-8.42-14.56-12.63-21.84-.14-.23-.29-.46-.5-.79-.98,1.7-1.93,3.31-2.84,4.95-.1.17,0,.54.11.74,3.38,5.88,6.76,11.74,10.19,17.59.15.26.61.48.94.49,1.82.06,3.64.04,5.45.06v-.19Z"/><path class="cls-3" d="m50.15,113.93l-5.08-11.1-5.06,11.1h10.14Zm-4.56-14.07l10.89,23.73h-1.91l-3.72-8.15h-11.53l-3.71,8.15h-1.91l10.89-23.73h1Z"/><path class="cls-3" d="m83.55,113.93l-5.08-11.1-5.06,11.1h10.14Zm-4.56-14.07l10.89,23.73h-1.91l-3.72-8.15h-11.53l-3.71,8.15h-1.91l10.89-23.73h1Z"/><path class="cls-3" d="m116.95,113.93l-5.08-11.1-5.06,11.1h10.14Zm-4.56-14.07l10.89,23.73h-1.91l-3.72-8.15h-11.53l-3.71,8.15h-1.91l10.89-23.73h1Z"/></svg>