<?xml version="1.0" encoding="UTF-8"?><svg id="Layer_1" xmlns="http://www.w3.org/2000/svg" viewBox="0 0 155 170"><defs><style>.cls-1{fill:#00502f;}.cls-2{fill:#ffe363;}</style></defs><polygon class="cls-2" points="69.76 161.05 68 160.03 66.19 159.2 64.34 158.59 62.35 158.04 60.31 157.57 58.31 157.2 56.18 156.92 54 156.65 51.78 156.37 49.6 156.09 47.28 155.72 45.01 155.35 42.79 155.07 40.7 154.75 38.76 154.47 36.86 154.19 35.1 153.91 33.52 153.63 31.99 153.36 30.6 153.17 29.3 152.89 28.14 152.71 27.12 152.43 26.2 152.24 25.36 152.06 24.62 151.78 24.11 151.6 21.89 150.76 19.71 149.79 17.67 148.68 15.77 147.38 13.92 146.03 12.16 144.46 10.63 142.79 9.14 141.17 7.75 139.31 6.5 137.51 5.39 135.47 4.37 133.47 3.54 131.44 2.84 129.35 2.29 127.22 1.91 125.04 1.82 124.11 1.73 123.28 1.64 122.35 1.64 121.43 1.64 120.45 1.64 119.43 1.73 118.41 1.82 117.3 1.91 116.24 2.1 115.03 2.29 113.92 2.47 112.71 2.66 111.46 2.93 110.16 3.21 108.87 3.49 107.52 4.56 103.12 5.76 98.53 7.06 93.94 8.22 89.17 9.42 84.49 10.44 79.62 11.28 74.85 11.92 70.12 12.16 65.35 12.16 60.67 11.74 55.99 10.81 51.49 9.33 47 7.34 42.69 4.56 38.47 1.27 34.44 24.9 .42 31.71 2.79 38.57 4.83 45.66 6.49 52.71 7.75 59.75 8.77 66.84 9.41 73.79 9.69 80.74 9.79 87.65 9.51 94.42 8.95 100.9 8.21 107.34 7.1 113.55 5.85 119.44 4.27 125.14 2.6 130.52 .61 153.73 34.72 150.17 38.75 147.48 42.87 145.39 47.09 144 51.49 143.08 55.99 142.75 60.58 142.84 65.26 143.26 70.03 143.91 74.76 144.93 79.62 146.04 84.49 147.29 89.36 148.59 94.22 149.89 99 151.09 103.86 152.07 108.5 152.34 109.52 152.53 110.44 152.71 111.28 152.9 112.02 152.99 112.62 153.18 113.27 153.27 113.83 153.36 114.38 153.46 114.84 153.46 115.4 153.55 115.86 153.55 116.42 153.64 116.93 153.64 117.58 153.64 118.23 153.64 118.97 153.64 120.64 153.55 122.26 153.36 123.84 153.18 125.36 152.81 126.94 152.44 128.52 151.97 129.95 151.46 131.44 150.91 132.92 150.17 134.36 149.42 135.75 148.59 137.14 147.66 138.48 146.69 139.87 145.67 141.17 144.56 142.42 143.54 143.53 142.47 144.46 141.36 145.48 140.25 146.31 139.04 147.19 137.79 147.93 136.49 148.77 135.2 149.42 133.85 150.07 132.37 150.67 130.89 151.13 129.36 151.69 127.78 152.06 126.11 152.43 124.49 152.8 122.73 153.08 117.86 154 113.42 154.75 109.2 155.26 105.31 155.81 101.83 156.28 98.54 156.74 95.62 157.2 92.84 157.76 90.29 158.5 88.02 159.29 85.89 160.31 83.85 161.51 82.13 163.09 80.37 164.9 78.75 167.03 77.27 169.58 77.08 169.58 75.79 167.31 74.44 165.36 72.96 163.69 71.38 162.25 69.76 161.05"/><polygon class="cls-1" points="99 149.42 99.93 149.32 100.81 149.14 101.64 149.05 102.48 148.95 103.41 148.86 104.24 148.77 105.12 148.68 106.05 148.49 106.97 148.4 107.99 148.21 108.27 148.21 109.11 148.12 110.08 147.93 111.38 147.75 112.86 147.47 114.39 147.19 116.15 146.91 117.96 146.64 119.81 146.36 121.57 146.03 123.29 145.76 124.86 145.48 126.3 145.2 127.5 144.92 128.43 144.74 129.08 144.55 131.17 143.62 133.2 142.51 135.1 141.35 136.87 140.06 138.44 138.57 139.88 137.04 141.18 135.47 142.38 133.71 143.35 131.99 144.19 130.14 144.93 128.33 145.58 126.38 145.95 124.58 146.23 122.63 146.41 120.73 146.41 118.78 146.32 117.95 146.23 116.93 146.04 115.68 145.76 114.1 145.39 112.39 145.02 110.35 144.47 108.17 143.91 105.67 143.35 103.03 142.66 100.06 141.92 96.86 141.08 93.48 140.16 89.91 139.23 85.97 138.26 81.94 137.14 77.54 136.4 74.76 135.94 72.02 135.57 69.2 135.29 66.42 135.2 63.68 135.29 60.95 135.48 58.17 135.85 55.43 136.4 52.7 137.05 50.01 137.98 47.37 138.95 44.73 140.06 42.04 141.45 39.49 143.03 36.99 144.74 34.53 127.32 9.14 121.85 11.13 116.06 12.8 109.99 14.19 103.68 15.25 97.06 16.09 90.38 16.55 83.62 16.83 76.8 16.83 70.04 16.55 63.32 16.09 56.74 15.35 50.3 14.56 44.18 13.35 38.29 12.06 32.73 10.62 27.59 8.95 9.98 34.53 10.63 35.27 11.28 36.2 11.97 37.36 12.8 38.75 13.64 40.23 14.47 41.85 15.31 43.71 16.14 45.7 16.84 47.83 17.49 50.01 18.13 52.33 18.69 54.69 19.06 57.19 19.34 59.74 19.52 62.29 19.43 64.89 19.34 65.95 19.34 66.97 19.25 67.9 19.15 68.83 19.06 69.66 18.97 70.36 18.88 71.19 18.78 71.93 18.69 72.77 18.51 73.51 18.32 74.43 18.04 75.31 17.86 76.33 17.58 77.45 17.3 78.7 16.93 80.09 16.47 82.13 15.96 84.03 15.49 85.97 15.03 87.97 14.57 89.91 14.1 91.81 13.64 93.67 13.18 95.57 12.71 97.42 12.34 99.27 11.92 101.17 11.46 103.03 11.09 104.74 10.63 106.6 10.26 108.31 9.89 110.07 9.51 111.55 9.24 112.99 8.96 114.47 8.68 115.86 8.59 117.3 8.4 118.78 8.4 120.36 8.4 121.8 8.5 123.37 8.77 124.95 9.14 126.48 9.61 128.15 10.26 129.77 11.09 131.53 11.97 133.29 13.08 135.1 13.55 135.84 14.2 136.58 14.84 137.32 15.59 138.11 16.37 138.94 17.3 139.78 18.32 140.61 19.43 141.45 20.5 142.23 21.7 142.98 23.09 143.62 24.39 144.27 25.83 144.92 27.4 145.39 28.93 145.76 30.6 146.13 33.24 146.45 35.84 146.82 38.29 147.29 40.61 147.66 42.79 147.93 44.92 148.21 46.91 148.58 48.86 148.86 50.57 149.05 52.24 149.32 53.82 149.6 55.26 149.79 56.55 149.97 57.85 150.16 58.92 150.25 59.94 150.34 60.86 150.44 61.88 150.58 62.76 150.76 63.69 150.95 64.71 151.13 65.73 151.41 66.75 151.78 67.72 152.15 68.74 152.52 69.85 153.08 70.97 153.63 72.03 154.28 73.24 154.98 74.44 155.81 75.6 156.74 76.99 157.76 77.64 157.02 78.38 156.28 79.21 155.63 80.1 154.98 81.02 154.38 81.95 153.82 82.97 153.36 84.03 152.89 85.05 152.43 86.17 152.06 87.28 151.69 88.34 151.32 89.46 151.04 90.57 150.76 91.68 150.58 92.75 150.34 93.95 150.16 95.06 149.97 96.18 149.88 97.15 149.7 98.08 149.51 99 149.42"/><polygon class="cls-2" points="84.31 95.57 83.06 95.43 82.69 95.15 82.41 94.69 81.67 93.2 81.3 92.55 80.93 92.46 80.84 93.2 80.74 94.04 80.56 94.69 80.56 95.43 80.47 96.22 80.37 96.96 80.37 98.44 80.28 99.18 80.28 103.03 80.37 103.86 80.37 105.39 80.47 106.04 80.47 108.31 80.56 108.77 80.56 109.14 80.65 109.52 80.74 110.07 80.93 110.44 81.21 110.81 88.02 113.92 88.62 114.2 89.18 114.47 89.73 114.66 90.29 114.94 91.22 115.31 91.59 115.59 92.47 116.05 93.12 116.7 93.21 117.02 92.93 117.3 92.56 117.3 91.87 117.12 91.5 117.12 91.03 117.02 89.64 117.02 89.27 117.12 88.9 117.12 88.53 117.21 87.83 117.21 86.72 116.93 86.26 116.84 84.96 116.84 84.41 116.93 83.8 116.93 83.15 117.02 82.78 117.12 82.32 117.21 81.86 117.21 81.49 117.3 80.56 117.49 80.19 117.58 79.72 117.58 79.4 117.67 78.94 117.76 77.08 117.76 76.43 117.58 75.97 117.49 75.41 117.39 75 117.21 74.53 117.21 73.61 117.02 73.14 117.02 72.68 116.93 69.76 116.93 69.39 117.02 68.83 117.12 68.37 117.12 67.91 117.21 67.44 117.21 66.98 117.3 66.66 117.3 66.28 117.39 64.43 117.39 64.06 117.3 63.6 117.21 62.07 117.21 61.6 117.3 60.49 117.49 60.12 117.39 60.03 117.02 60.31 116.7 61.05 116.33 61.7 116.05 62.07 115.86 62.62 115.68 63.23 115.4 63.97 115.03 64.99 114.66 66.1 114.2 67.44 113.64 69.11 112.99 70.97 112.3 71.29 112.11 71.75 111.93 72.4 111.55 72.96 111.18 73.89 110.44 74.26 109.7 74.35 109.33 74.35 96.86 74.44 96.31 74.44 95.66 74.53 95.33 74.53 93.85 74.35 93.48 73.98 93.48 73.7 93.76 73.24 94.31 72.96 94.59 72.59 94.87 72.31 95.15 71.94 95.43 71.29 95.84 70.41 96.31 70.13 96.03 70.22 95.66 70.41 95.33 69.95 95.43 69.58 95.57 68.83 96.12 68.28 96.86 67.72 97.42 66.98 97.79 66.56 97.88 66.1 97.88 65.91 97.42 65.64 97.14 65.27 97.42 64.8 97.79 64.34 98.07 63.97 98.16 63.69 97.88 63.32 98.07 62.95 98.35 62.25 98.53 61.88 98.53 61.6 98.25 61.23 98.07 60.86 98.16 60.12 98.53 58.31 99 57.57 98.81 57.11 98.72 56.92 98.25 56.92 97.88 57.02 97.51 57.2 97.14 57.94 96.59 57.67 96.31 57.48 95.94 57.39 95.57 57.39 95.15 57.48 94.78 57.76 94.31 58.41 93.67 58.73 93.39 59.94 92.46 59.47 92.28 59.38 91.91 61.98 89.36 62.25 88.99 62.53 88.71 62.76 88.34 63.23 87.78 63.6 87.22 63.88 86.71 63.5 86.53 63.13 86.99 62.76 87.13 62.44 87.22 62.07 87.22 61.98 86.9 61.6 86.9 61.33 87.13 60.68 87.69 60.31 87.87 59.84 87.87 59.47 87.69 59.1 87.41 59.01 86.99 59.19 86.62 59.47 86.34 59.84 86.07 60.12 85.79 60.4 85.42 60.77 85.05 61.05 84.58 61.42 84.21 61.7 83.75 62.07 83.29 62.25 82.91 62.53 82.59 62.76 82.31 62.95 81.94 63.23 81.57 63.6 81.29 63.88 80.83 64.15 80.55 64.71 79.81 64.99 79.35 65.36 78.88 66.19 77.82 66.75 77.26 66.84 76.89 66.47 77.17 65.73 77.54 65.36 77.82 64.89 78.09 64.34 78.37 63.78 78.7 62.76 79.35 62.44 79.35 62.35 78.98 62.53 78.65 62.62 78.28 62.62 77.54 62.76 77.17 63.04 76.8 63.23 76.43 63.5 76.15 63.69 75.78 63.97 75.41 63.78 75.04 63.88 74.67 64.25 74.43 64.34 74.06 63.97 74.06 63.6 74.25 63.23 74.34 62.76 74.43 61.6 74.43 61.23 74.34 61.14 73.97 61.51 73.6 62.07 73.23 62.53 72.86 62.76 72.58 63.23 72.21 63.69 71.75 64.15 71.38 64.52 70.91 64.99 70.54 65.27 70.26 65.54 69.94 65.91 69.38 66.38 68.83 66.66 68.55 67.17 67.81 67.44 67.34 67.72 66.97 68.46 66.05 68.83 65.54 69.02 65.17 69.3 64.79 69.48 64.42 68.65 64.98 68.09 65.44 67.63 65.81 67.26 65.91 66.84 65.95 66.38 65.91 66.01 65.72 65.82 65.35 65.82 64.79 65.91 64.42 67.07 63.22 66.93 62.85 66.98 62.48 67.26 62.11 67.63 61.41 67.72 61.04 67.91 60.67 68.19 60.3 68.56 60.11 68.74 59.74 68.37 59.84 68 60.02 67.81 59.65 67.81 59.28 67.44 59.28 67.17 59 67.35 58.63 67.44 58.26 68.37 57.1 68.65 56.73 68.83 56.36 69.11 55.99 69.67 54.88 69.95 54.51 70.13 54.04 70.5 53.39 70.78 52.88 70.97 52.42 71.2 52.05 71.38 51.68 71.66 51.22 72.03 50.66 72.22 50.2 72.49 49.83 72.68 49.08 72.31 49.04 71.75 49.55 71.48 49.92 71.06 50.2 70.69 50.38 70.32 50.47 70.04 49.55 70.22 47.93 69.95 48.2 69.58 48.3 69.39 47.93 69.67 47.55 69.85 47.18 70.13 46.81 70.5 46.35 70.87 45.79 71.2 45.42 72.03 44.36 72.31 43.89 72.59 43.52 72.96 42.78 73.24 42.41 74.07 40.74 74.35 40.33 74.72 39.58 75 39.12 75.41 38.19 75.69 37.54 76.06 36.8 76.16 36.43 76.34 36.11 76.43 35.74 76.62 35.37 76.8 34.9 76.99 34.53 77.08 34.16 77.27 33.79 77.73 33.98 78.84 35.37 79.12 35.92 79.4 36.39 79.63 36.9 79.72 37.27 80 37.82 80.19 38.29 80.28 38.75 80.47 39.12 80.65 39.58 81.02 40.33 81.21 40.74 81.58 41.39 81.86 41.95 82.23 42.5 82.6 42.87 82.88 43.24 83.43 43.8 83.62 44.17 83.25 44.45 82.13 44.17 81.76 43.99 81.39 43.89 81.3 44.36 81.49 44.87 81.67 45.24 82.04 46.16 82.32 46.63 82.6 47.28 83.34 48.57 83.71 49.27 84.59 50.94 84.87 51.31 85.24 52.24 85.42 52.61 85.61 53.07 86.17 53.76 86.44 54.04 86.72 54.41 87 54.69 87.19 55.16 86.81 55.43 86.35 55.25 85.98 55.16 85.61 54.88 84.5 54.6 84.31 54.97 84.5 55.34 84.59 55.71 84.87 56.17 85.15 56.55 85.33 56.92 87.46 59 88.25 60.02 88.16 60.39 87.83 60.58 87.37 60.48 86.91 60.3 86.54 60.21 86.17 60.02 86.26 60.39 86.54 60.67 86.91 60.95 87.28 61.13 87.65 61.41 87.93 61.74 88.07 62.11 87.74 62.29 87.83 62.66 88.02 63.03 88.53 63.77 89.36 65.17 89.73 65.63 90.01 66.05 90.57 66.79 91.96 68.18 92.14 68.55 92.24 68.92 91.87 69.1 91.12 68.92 90.75 68.73 90.66 69.1 90.66 69.48 90.29 69.48 89.92 69.29 89.46 68.92 88.62 68.08 88.34 68.36 88.72 68.92 89.09 69.38 89.36 69.85 89.73 70.26 90.29 71.19 90.85 71.93 91.22 72.3 91.5 72.67 91.87 73.14 92.14 73.51 92.47 73.97 92.84 74.34 93.3 74.85 93.67 75.31 94.14 75.59 94.51 75.78 94.88 76.06 95.34 76.24 95.81 76.52 95.9 76.89 95.53 77.17 95.16 77.26 94.79 77.17 94.42 77.17 93.3 76.61 93.4 77.17 93.4 77.54 93.02 77.72 92.56 77.72 92.24 77.63 91.5 77.26 91.22 76.98 90.85 76.98 90.75 77.35 90.85 77.72 91.96 79.16 92.24 79.62 92.47 79.99 92.65 80.46 92.93 80.92 93.21 81.29 93.58 81.85 93.86 82.22 94.23 82.68 94.51 82.91 94.88 83.38 95.34 83.75 95.81 84.03 96.18 84.3 96.08 84.68 95.34 84.68 94.97 84.77 95.53 85.7 95.9 86.16 96.18 86.44 97.24 88.06 97.61 88.52 97.89 88.99 98.17 89.36 98.35 89.73 98.54 90.19 98.45 90.56 98.08 90.56 97.52 90.38 97.15 90.28 96.69 90.01 96.27 89.82 95.9 89.63 95.53 89.54 95.62 89.91 95.9 90.38 96.08 90.84 96.36 91.3 96.59 91.91 96.96 92.55 97.8 93.67 98.08 93.94 98.35 94.31 99 94.96 99.1 95.43 99.1 95.84 98.82 96.22 98.63 96.68 98.45 97.05 98.17 97.33 98.17 97.7 98.26 98.07 98.45 98.44 98.26 98.81 97.89 98.81 97.52 98.72 97.15 98.44 96.87 98.16 96.59 97.79 96.45 97.42 96.45 97.05 96.08 96.96 95.71 97.05 94.79 97.42 94.42 97.51 93.21 97.51 93.77 98.07 93.95 98.44 93.58 98.72 93.21 98.72 92.75 98.53 91.87 98.07 91.59 97.79 91.22 97.61 90.94 97.23 90.57 96.96 90.29 96.49 89.92 96.12 89.55 96.22 89.18 96.22 88.81 96.31 88.44 96.22 88.16 95.94 87.83 95.94 87.46 96.12 86.91 95.57 86.91 95.94 87.09 96.31 87.19 96.68 86.81 96.68 86.26 96.49 85.8 96.22 85.24 95.94 84.68 95.75 84.31 95.57"/><polygon class="cls-2" points="55.72 56.27 55.63 56.36 55.53 56.36 55.44 56.45 55.35 56.55 55.26 56.55 55.16 56.64 55.07 56.73 54.98 56.73 54.98 56.82 54.88 56.92 54.88 57.01 54.88 92.92 54.88 93.2 54.88 93.48 54.88 93.67 54.88 93.94 54.79 94.22 54.79 94.5 54.7 94.78 54.61 95.06 54.61 95.43 54.51 95.66 54.42 95.94 54.33 96.22 54.24 96.49 54.1 96.86 54 97.14 53.91 97.42 53.54 98.25 53.17 99 52.71 99.74 52.24 100.34 51.78 100.99 51.22 101.64 50.67 102.19 50.02 102.66 49.51 103.12 48.86 103.49 48.12 103.86 47.38 104.19 46.64 104.46 45.8 104.65 45.11 104.93 44.18 105.02 41.95 105.21 39.96 105.21 38.02 105.02 36.3 104.56 34.82 104.05 33.43 103.31 32.18 102.38 31.06 101.45 30.14 100.43 29.3 99.37 28.7 98.25 28.14 97.05 27.77 95.94 27.5 94.96 27.31 93.94 27.22 92.92 27.12 57.47 27.12 57.38 27.12 57.29 27.12 57.19 27.03 57.1 27.03 57.01 26.94 56.92 26.94 56.82 26.85 56.82 26.85 56.73 26.75 56.73 26.66 56.73 26.66 56.64 25.92 56.64 25.83 56.64 25.73 56.64 25.73 56.55 25.73 56.45 25.73 52.98 36.49 52.79 36.76 52.98 36.76 56.36 35.65 56.73 35.56 56.82 35.47 56.82 35.47 56.92 35.37 56.92 35.37 57.01 35.28 57.01 35.28 57.1 35.28 57.19 35.28 57.29 35.19 91.44 35.37 93.11 35.74 94.69 36.39 95.94 37.23 97.14 38.2 98.07 39.31 98.81 40.52 99.46 41.86 99.74 43.16 99.83 44.46 99.74 45.75 99.27 46.91 98.72 47.93 97.79 48.86 96.59 49.6 95.15 50.11 93.3 50.11 93.11 50.2 92.83 50.2 92.46 50.3 92.09 50.3 91.72 50.3 91.3 50.3 90.75 50.39 90.1 50.39 89.45 50.39 88.8 50.39 88.06 50.39 87.22 50.39 86.44 50.39 85.51 50.39 84.49 50.48 83.47 50.48 58.35 50.39 58.17 50.39 57.89 50.39 57.7 50.39 57.52 50.3 57.38 50.3 57.19 50.2 57.01 50.11 56.92 50.11 56.73 50.02 56.64 49.97 56.55 49.88 56.55 49.79 56.45 49.69 56.36 49.51 56.36 49.42 56.36 47.19 56.36 47.19 53.25 47.19 53.16 47.19 53.07 47.19 52.98 47.19 52.88 47.19 52.79 47.28 52.79 58.04 52.42 58.13 52.51 58.13 52.61 58.22 52.61 58.22 52.7 58.22 56.17 56 56.17 55.9 56.27 55.81 56.27 55.72 56.27"/><polygon class="cls-2" points="131.63 95.52 131.35 96.12 131.07 96.77 130.7 97.33 130.38 97.98 130.01 98.53 129.64 99.09 129.17 99.64 128.8 100.15 128.34 100.62 127.88 100.99 127.23 101.64 126.48 102.19 125.79 102.75 125.05 103.21 124.31 103.58 123.57 103.95 122.82 104.28 122.08 104.56 121.39 104.83 120.55 105.02 119.81 105.21 118.98 105.3 118.14 105.39 117.45 105.39 116.61 105.39 115.78 105.3 115.32 105.3 114.85 105.21 114.39 105.11 113.93 105.02 113.46 104.93 113.05 104.83 112.58 104.65 112.12 104.56 111.75 104.37 111.28 104.28 110.82 104.09 110.45 103.95 109.99 103.68 109.52 103.49 109.11 103.31 108.74 103.03 108.55 103.03 108.46 102.93 108.36 102.84 108.27 102.75 108.18 102.75 108.09 102.66 107.99 102.66 107.9 102.56 107.81 102.56 107.72 102.47 107.53 102.47 107.44 102.47 107.34 102.38 107.25 102.38 107.07 102.38 106.97 102.38 106.79 102.38 106.7 102.47 106.6 102.47 106.51 102.47 106.42 102.56 106.33 102.66 106.33 102.75 106.23 102.93 106.23 103.03 106.23 103.12 106.23 103.31 106.23 103.49 106.33 103.68 106.33 103.86 106.42 104.05 106.51 104.28 106.51 104.37 106.51 104.46 106.51 104.56 106.51 104.65 106.42 104.74 102.48 104.74 102.39 104.74 102.39 104.65 102.29 104.65 102.29 104.56 102.29 104.46 102.29 104.37 102.29 104.28 102.29 104.19 102.29 91.44 106.33 91.44 106.23 91.72 106.33 92 106.33 92.28 106.33 92.55 106.33 92.74 106.33 93.02 106.42 93.2 106.42 93.39 106.51 93.67 106.6 93.85 106.6 94.04 106.7 94.22 106.79 94.41 106.79 94.69 106.88 94.87 106.97 95.06 107.44 96.12 107.99 97.05 108.74 97.79 109.43 98.44 110.26 99.09 111.28 99.55 112.21 99.88 113.23 100.25 114.11 100.43 115.13 100.52 116.15 100.62 117.08 100.62 117.86 100.62 118.79 100.52 119.53 100.43 120.18 100.25 120.83 100.06 121.39 99.74 122.08 99.27 122.73 98.72 123.38 98.07 124.03 97.33 124.58 96.59 125.05 95.66 125.42 94.78 125.7 93.67 125.79 92.65 125.7 91.44 125.51 90.28 125.05 88.99 124.49 87.69 123.57 86.34 122.92 85.51 122.27 84.77 121.57 84.03 120.83 83.38 120.18 82.68 119.44 82.13 118.7 81.48 118.05 80.92 117.26 80.27 116.52 79.72 115.78 79.16 115.04 78.7 114.3 78.19 113.55 77.63 112.86 76.98 112.12 76.43 110.91 75.59 109.8 74.76 108.83 73.97 107.9 73.23 107.07 72.58 106.23 71.84 105.58 71.19 104.98 70.63 104.43 70.03 103.96 69.38 103.5 68.83 103.13 68.18 102.76 67.53 102.48 66.88 102.2 66.14 102.02 65.44 101.83 64.61 101.74 63.68 101.74 62.76 101.92 61.74 102.11 60.86 102.48 59.84 102.85 58.91 103.41 57.98 104.05 57.1 104.8 56.27 105.68 55.43 106.7 54.69 107.81 54.04 109.11 53.39 110.45 52.98 111.93 52.61 112.4 52.51 112.95 52.42 113.46 52.42 114.02 52.42 114.67 52.42 115.22 52.42 115.87 52.42 116.43 52.51 117.17 52.51 117.77 52.7 118.42 52.79 119.16 52.88 119.9 53.07 120.65 53.25 121.39 53.39 122.17 53.58 122.17 53.67 122.27 53.67 122.36 53.67 122.45 53.76 122.55 53.76 122.64 53.76 122.73 53.86 122.82 53.86 122.92 53.86 123.01 53.86 123.1 53.95 123.19 53.95 123.29 53.95 123.38 53.95 123.47 52.98 127.6 52.98 127.6 64.15 123.84 64.24 123.75 62.85 123.75 62.48 123.75 62.01 123.66 61.69 123.57 61.23 123.38 60.86 123.29 60.48 123.1 60.11 122.92 59.84 122.73 59.46 122.45 59.19 122.17 58.91 121.9 58.63 121.67 58.35 121.29 58.07 121.02 57.8 120.55 57.61 119.53 57.1 118.42 56.73 117.36 56.55 116.34 56.55 115.32 56.64 114.3 56.82 113.42 57.1 112.58 57.52 111.84 58.07 111.19 58.72 110.73 59.46 110.26 60.3 110.08 61.13 109.99 61.92 110.08 62.94 110.36 63.87 110.45 64.24 110.64 64.52 110.91 64.89 111.19 65.26 111.47 65.63 111.84 66.05 112.3 66.42 112.77 66.88 113.32 67.34 113.74 67.9 114.39 68.36 115.04 68.83 115.69 69.38 116.43 69.94 117.26 70.54 118.05 71.1 118.88 71.75 119.72 72.3 120.55 72.86 121.29 73.41 121.99 73.97 122.64 74.48 123.29 74.94 123.94 75.41 124.49 75.87 125.05 76.24 125.6 76.7 126.07 77.08 126.39 77.45 126.86 77.72 127.23 78.09 127.5 78.37 127.88 78.7 128.25 79.07 128.62 79.53 128.99 79.99 129.45 80.46 129.82 81.01 130.19 81.57 130.52 82.13 130.89 82.59 131.17 83.1 131.44 83.56 131.72 84.03 132 84.49 132.09 84.77 132.28 85.14 132.28 85.42 132.37 85.7 132.46 85.97 132.56 86.16 132.74 86.44 132.74 86.71 132.83 86.99 132.93 87.32 133.02 87.69 133.02 88.06 133.02 88.43 133.11 88.89 133.11 89.36 133.02 89.91 133.02 90.56 132.93 91.21 132.74 91.91 132.65 92.37 132.56 93.02 132.37 93.57 132.18 94.22 131.91 94.87 131.63 95.52"/><polygon class="cls-2" points="129.45 123.93 129.54 123.84 129.54 123.74 129.64 123.56 129.73 123.46 129.82 123.28 129.91 123.19 129.91 123.09 130.01 122.91 130.1 122.82 130.1 122.72 130.1 122.82 130.19 122.91 130.28 123 130.38 123.09 130.38 123.19 130.42 123.19 130.52 123.28 130.61 123.28 130.7 123.37 130.7 123.46 130.79 123.46 130.89 123.46 130.98 123.56 131.07 123.65 131.17 123.65 135.94 125.36 136.59 125.74 137.24 125.92 137.79 126.01 138.26 126.01 138.63 126.01 138.95 125.83 139.23 125.64 139.32 125.46 139.51 125.18 139.51 125.04 139.32 124.67 139.23 124.48 138.95 124.21 138.63 123.93 138.16 123.74 137.61 123.56 131.72 122.17 131.63 122.17 131.54 122.17 131.44 122.07 131.35 122.07 131.26 122.07 131.17 122.07 131.07 122.07 130.98 122.07 130.89 122.07 130.79 122.07 130.61 122.07 130.52 122.07 130.38 122.17 130.61 119.71 130.7 119.8 130.79 119.9 130.89 119.9 130.98 119.99 131.17 119.99 131.26 120.08 131.35 120.08 131.44 120.08 131.54 120.17 131.63 120.17 131.72 120.17 131.81 120.17 131.91 120.17 133.2 120.45 133.76 120.64 134.41 120.82 134.92 120.92 135.38 120.96 135.85 121.15 136.31 121.24 136.77 121.33 137.14 121.43 137.51 121.52 137.89 121.61 138.16 121.7 138.44 121.8 138.63 121.89 138.86 121.89 138.95 121.98 139.14 122.07 140.06 122.45 140.71 122.91 141.27 123.46 141.64 124.11 141.82 124.67 141.82 125.27 141.73 125.92 141.55 126.48 141.18 127.03 140.62 127.5 140.06 127.87 139.32 128.05 138.63 128.15 137.7 128.15 136.77 127.87 135.66 127.5 134.92 127.13 134.22 126.85 133.58 126.57 132.83 126.29 132.28 126.01 131.72 125.83 131.17 125.64 130.7 125.36 130.38 125.27 130.01 125.13 129.64 125.04 129.36 124.86 129.17 124.86 128.99 124.76 128.89 124.76 128.99 124.58 129.08 124.48 129.17 124.39 129.27 124.21 129.36 124.11 129.45 123.93"/><polygon class="cls-2" points="17.58 116.61 17.67 116.51 17.67 116.33 17.67 116.24 17.67 116.05 17.67 115.96 17.67 115.77 17.67 115.59 17.67 115.49 17.67 115.31 17.67 115.12 13.82 115.4 13.82 115.49 13.82 115.68 13.82 115.86 13.82 116.14 13.82 116.42 13.82 116.7 13.82 116.93 13.92 117.21 13.92 117.58 13.92 117.95 14.01 118.23 14.01 118.51 14.01 118.78 14.1 118.97 14.1 119.15 14.01 119.25 13.92 119.25 13.82 119.25 13.73 119.25 13.55 119.25 13.45 119.25 13.27 119.25 13.18 119.25 12.99 119.25 12.8 119.15 12.71 119.15 12.53 119.15 12.43 119.06 12.34 119.06 12.16 118.97 12.06 118.97 11.92 113.18 11.92 113.27 11.97 113.27 12.06 113.27 12.16 113.27 12.25 113.27 12.34 113.27 12.43 113.36 12.62 113.36 12.71 113.36 12.8 113.36 12.9 113.36 12.99 113.36 13.08 113.36 13.18 113.36 13.27 113.36 23.37 112.81 23.46 112.81 23.56 112.81 23.65 112.71 23.74 112.71 23.83 112.62 23.93 112.62 24.02 112.53 24.11 112.53 24.21 112.48 24.3 112.48 24.39 112.39 24.48 112.39 24.72 117.67 24.58 117.76 24.39 117.76 24.21 117.86 24.02 117.86 23.93 117.86 23.74 117.95 23.65 117.95 23.46 117.95 23.37 118.04 23.19 118.04 23.09 118.04 23 118.04 22.82 118.04 22.72 118.14 22.63 118.14 22.54 118.14 22.54 118.04 22.63 117.95 22.63 117.86 22.72 117.86 22.72 117.76 22.72 117.67 22.72 117.58 22.72 117.49 22.72 114.94 19.71 114.94 19.62 115.12 19.62 115.31 19.62 115.49 19.62 115.59 19.62 115.77 19.62 115.86 19.62 116.05 19.62 116.14 19.71 116.33 19.71 116.42 19.71 116.51 19.71 116.61 19.71 116.7 19.8 116.84 19.8 116.93 19.8 117.02 19.71 117.02 19.62 117.02 19.52 117.02 19.43 117.02 19.34 117.02 19.25 117.12 19.06 117.12 18.88 117.12 18.69 117.12 18.51 117.21 18.32 117.21 18.13 117.21 17.95 117.21 17.67 117.21 17.49 117.3 17.49 117.21 17.49 117.02 17.58 116.93 17.58 116.84 17.58 116.7 17.58 116.61"/><polygon class="cls-2" points="134.64 108.59 134.64 108.5 134.64 108.31 134.64 108.26 134.64 108.17 134.64 107.99 134.55 107.89 134.55 107.8 134.55 107.62 134.55 107.43 134.64 107.34 134.83 107.24 135.01 107.15 135.1 107.15 135.29 107.06 135.48 107.06 135.57 106.97 135.75 106.97 135.85 106.97 135.94 106.97 136.03 106.87 136.12 106.97 136.22 106.97 136.31 106.97 136.49 106.97 136.59 106.97 136.68 106.97 136.59 107.15 136.59 107.34 136.59 107.43 136.59 107.62 136.49 107.8 136.49 107.89 136.49 108.08 136.49 108.26 136.49 108.31 136.49 108.5 136.49 108.68 136.49 108.77 136.59 108.96 136.59 109.14 136.59 109.33 136.68 109.42 136.96 109.42 137.24 109.42 137.51 109.42 137.79 109.42 138.16 109.42 138.44 109.42 138.81 109.42 139.04 109.33 139.32 109.33 139.69 109.33 139.97 109.24 140.25 109.24 140.43 109.14 140.62 109.14 140.8 109.05 140.99 109.05 140.9 108.68 140.9 108.4 140.9 108.08 140.8 107.8 140.8 107.52 140.71 107.34 140.71 107.15 140.71 106.87 140.62 106.69 140.62 106.5 140.62 106.32 140.62 106.23 140.53 106.04 140.53 105.95 140.53 105.85 140.43 105.76 140.53 105.76 140.62 105.76 140.71 105.76 140.9 105.76 141.08 105.76 141.18 105.85 141.36 105.85 141.55 105.85 141.73 105.95 141.82 105.95 142.01 105.95 142.2 106.04 142.38 106.04 142.47 106.13 142.66 106.23 142.75 106.32 142.75 111.83 142.66 111.74 142.57 111.74 142.47 111.65 142.38 111.55 142.38 111.46 142.29 111.37 142.2 111.37 142.1 111.28 142.01 111.28 141.92 111.18 141.82 111.18 141.73 111.18 141.64 111.09 141.55 111.09 141.45 111.09 141.27 111 132.18 111.46 132.09 111.46 131.91 111.46 131.81 111.46 131.72 111.55 131.63 111.55 131.54 111.55 131.44 111.65 131.35 111.65 131.26 111.74 131.17 111.74 130.98 111.83 130.89 111.93 130.79 112.02 130.7 112.11 130.61 112.2 130.28 105.76 130.38 105.67 130.52 105.67 130.61 105.67 130.79 105.58 130.98 105.58 131.17 105.48 131.26 105.48 131.44 105.48 131.63 105.39 131.81 105.39 132 105.39 132.18 105.39 132.28 105.3 132.46 105.3 132.56 105.3 132.74 105.3 132.74 105.39 132.65 105.48 132.56 105.58 132.56 105.67 132.46 105.76 132.46 105.85 132.37 105.95 132.37 106.04 132.37 106.13 132.28 106.32 132.28 106.5 132.18 106.69 132.18 106.87 132.18 107.06 132.18 107.24 132.18 107.43 132.18 107.62 132.28 107.8 132.28 107.99 132.28 108.26 132.37 108.5 132.37 108.68 132.46 108.96 132.56 109.24 132.65 109.42 134.83 109.42 134.83 109.33 134.83 109.14 134.73 108.96 134.73 108.87 134.73 108.68 134.64 108.59"/><polygon class="cls-2" points="129.45 125.27 129.54 125.36 129.64 125.36 129.73 125.46 129.82 125.55 129.91 125.64 130.01 125.64 130.1 125.74 130.19 125.83 130.28 125.83 130.38 125.92 130.28 126.01 130.19 126.11 130.1 126.2 130.01 126.29 129.91 126.38 129.82 126.48 129.82 126.57 129.73 126.66 129.64 126.76 129.54 126.94 129.54 127.03 129.45 127.13 129.45 127.22 129.45 127.31 129.45 127.4 130.01 127.96 130.61 128.42 131.17 128.89 131.81 129.4 132.37 129.86 132.93 130.32 133.58 130.79 134.13 131.25 134.64 131.62 135.1 131.99 135.57 132.36 136.03 132.73 136.49 133.01 136.87 133.29 137.24 133.47 137.61 133.66 136.12 135.65 136.03 135.56 135.94 135.38 135.85 135.19 135.75 135.1 135.66 134.91 135.48 134.73 135.38 134.54 135.2 134.36 135.01 134.17 134.83 133.98 134.64 133.8 134.41 133.57 134.22 133.38 133.95 133.2 133.67 133.01 133.48 132.73 129.45 129.4 128.34 128.52 128.15 128.7 128.06 128.79 127.97 128.89 127.78 129.07 127.69 129.17 127.6 129.26 127.5 129.4 127.41 129.49 127.32 129.58 127.23 129.67 127.23 129.77 127.13 129.95 127.04 129.95 127.04 130.14 126.95 130.23 126.76 130.14 126.67 129.95 126.58 129.86 126.48 129.67 126.39 129.58 126.3 129.49 126.21 129.4 126.11 129.35 126.07 129.26 126.07 129.17 125.97 129.07 125.97 128.98 125.88 128.89 125.88 128.79 125.88 128.7 125.97 128.61 126.07 128.42 126.21 128.24 126.39 128.05 126.58 127.87 126.76 127.59 126.95 127.31 127.13 127.03 127.32 126.76 127.6 126.48 127.88 126.11 128.06 125.83 128.25 125.55 128.52 125.18 128.71 124.95 128.8 125.04 128.99 125.13 129.08 125.13 129.27 125.18 129.36 125.27 129.45 125.27"/><polygon class="cls-2" points="124.58 131.07 124.49 130.97 124.4 130.88 124.31 130.79 124.21 130.79 124.12 130.69 124.03 130.6 123.84 130.51 123.75 130.42 123.66 130.32 123.57 130.32 123.47 130.23 123.57 130.14 123.66 130.05 123.84 129.95 123.94 129.86 124.03 129.67 124.21 129.58 124.31 129.49 124.49 129.4 124.58 129.35 124.77 129.26 124.86 129.17 125.05 129.07 125.14 128.98 125.33 128.89 125.42 128.79 125.51 128.79 125.51 128.89 125.51 128.98 125.6 129.07 125.7 129.26 125.7 129.35 125.79 129.4 125.79 129.58 125.88 129.67 125.97 129.86 125.97 129.95 126.07 130.14 126.11 130.32 126.21 130.51 126.39 130.69 126.48 130.79 126.58 130.97 130.7 137.41 132.83 135.93 132.93 135.84 133.02 135.75 133.11 135.65 133.2 135.56 133.2 135.47 133.3 135.38 133.39 135.28 133.39 135.19 133.48 135.1 133.48 135 133.58 134.91 133.67 135 133.76 135.19 133.85 135.28 133.95 135.38 134.04 135.56 134.13 135.65 134.22 135.84 134.32 135.93 134.32 136.12 134.41 136.21 134.41 136.39 134.41 136.49 134.41 136.67 134.41 136.77 134.41 136.95 134.41 137.04 133.95 137.51 133.48 137.88 133.02 138.2 132.65 138.48 132.18 138.85 131.91 139.04 131.54 139.31 131.26 139.59 130.98 139.78 130.7 139.96 130.52 140.06 130.38 140.24 130.19 140.33 130.1 140.33 130.01 140.43 129.91 140.43 128.25 137.14 124.86 131.44 124.86 131.34 124.77 131.25 124.68 131.16 124.58 131.07"/><polygon class="cls-2" points="106.88 22.53 107.07 22.62 107.34 22.71 107.53 22.81 107.81 22.9 107.99 23.09 108.27 23.18 108.46 23.36 108.55 23.55 108.74 23.69 108.83 23.87 111.56 31.61 113.46 26.56 113.46 26.47 113.55 26.47 113.55 26.38 113.55 26.28 113.55 26.19 113.65 26.1 113.65 26.01 113.65 25.91 113.65 25.82 113.65 25.73 113.65 24.52 115.78 25.36 112.58 36.71 112.49 36.71 112.4 36.71 112.3 36.71 112.21 36.71 112.12 36.62 112.03 36.62 111.93 36.62 111.84 36.62 111.65 36.53 111.56 36.53 111.47 36.43 111.28 36.43 111.19 36.39 111.01 36.39 110.91 36.29 110.73 36.2 106.6 24.06 106.6 23.97 106.6 23.87 106.6 23.78 106.51 23.69 106.51 23.64 106.42 23.55 106.42 23.36 106.33 23.27 106.23 23.18 106.14 23.09 106.05 22.9 106.05 22.81 105.95 22.71 105.77 22.62 105.68 22.53 105.86 22.44 106.05 22.44 106.23 22.44 106.42 22.53 106.6 22.53 106.88 22.53"/><polygon class="cls-2" points="43.07 144.18 43.16 144.09 43.25 143.99 43.25 143.9 43.25 143.81 43.35 143.72 43.35 143.62 43.44 143.53 43.44 143.44 43.44 143.35 43.44 143.25 43.53 143.16 43.99 138.94 41.54 144.18 40.61 138.48 40.05 142.7 39.96 142.79 39.96 142.88 39.96 142.98 39.96 143.07 39.96 143.16 39.96 143.25 39.96 143.35 39.96 143.44 40.05 143.53 40.05 143.62 40.05 143.72 40.05 143.81 40.15 143.9 40.15 143.99 40.24 144.09 37.64 143.72 37.64 143.62 37.74 143.62 37.74 143.53 37.83 143.44 37.92 143.35 37.92 143.25 37.92 143.16 38.02 143.07 38.02 142.98 38.02 142.88 38.02 142.79 38.02 142.7 38.11 142.6 38.11 142.51 38.11 142.42 38.11 142.33 38.11 142.23 38.2 142.09 38.2 141.82 38.29 141.63 38.29 141.35 38.39 140.98 38.48 140.61 38.57 140.15 38.57 139.59 38.66 139.04 38.85 138.48 38.94 137.88 39.04 137.14 39.13 136.3 39.31 135.47 39.41 134.63 39.41 134.26 39.5 134.08 39.5 133.8 39.5 133.57 39.5 133.38 39.5 133.2 39.5 133.01 39.5 132.83 39.5 132.64 39.5 132.55 39.5 132.36 39.41 132.27 39.41 132.18 39.41 132.08 39.31 131.9 39.31 131.81 41.54 132.27 42.23 137.6 44.36 132.73 47.01 133.01 46.91 133.01 46.91 133.1 46.82 133.2 46.73 133.29 46.73 133.38 46.64 133.47 46.64 133.57 46.54 133.66 46.45 133.71 46.45 133.8 46.45 133.89 46.36 133.98 46.36 134.08 46.36 134.17 46.36 134.26 45.8 139.13 45.75 139.78 45.66 140.43 45.57 140.98 45.57 141.54 45.48 142 45.48 142.42 45.48 142.79 45.38 143.25 45.38 143.62 45.38 143.9 45.38 144.18 45.38 144.37 45.38 144.64 45.38 144.74 45.38 144.92 45.38 145.01 42.79 144.55 42.88 144.46 42.97 144.37 42.97 144.27 43.07 144.18"/><polygon class="cls-2" points="81.86 31.61 81.49 31.43 81.11 31.33 80.74 31.15 80.47 30.96 80.1 30.69 79.72 30.5 79.4 30.22 79.12 29.85 78.75 29.57 78.38 29.2 78.47 29.02 78.47 28.83 78.47 28.65 78.57 28.55 78.66 28.37 78.66 28.28 78.75 28.18 78.84 28 78.94 27.91 79.03 27.86 79.21 27.77 79.31 27.67 79.4 27.58 79.59 27.49 79.63 27.49 79.82 27.4 80 27.4 80 27.67 80.1 27.91 80.19 28.18 80.37 28.46 80.47 28.65 80.65 28.83 80.84 29.02 81.02 29.2 81.11 29.3 81.39 29.48 81.58 29.57 81.76 29.67 82.04 29.76 82.23 29.76 82.51 29.85 82.69 29.85 82.97 29.85 83.34 29.94 83.62 29.85 83.85 29.85 84.13 29.76 84.41 29.67 84.59 29.57 84.87 29.39 85.05 29.2 85.24 29.11 85.42 28.92 85.61 28.74 85.7 28.55 85.8 28.46 85.89 28.28 85.89 28.09 85.98 27.86 85.98 27.58 85.98 27.3 85.98 27.12 85.98 26.84 85.89 26.65 85.8 26.38 85.7 26.19 85.52 26.01 85.33 25.91 85.15 25.73 84.96 25.63 84.68 25.45 84.41 25.36 84.13 25.26 83.8 25.17 82.69 24.99 82.41 24.89 82.13 24.89 81.95 24.8 81.76 24.8 81.58 24.71 81.39 24.71 81.21 24.61 81.02 24.61 80.93 24.61 80.74 24.52 80.65 24.52 80.56 24.43 80.47 24.43 80.37 24.43 80.28 24.34 80 24.15 79.82 24.06 79.63 23.87 79.49 23.69 79.31 23.55 79.21 23.36 79.12 23.18 79.03 22.99 78.94 22.81 78.94 22.53 78.84 22.25 78.84 22.07 78.94 21.79 78.94 21.51 79.03 21.32 79.12 20.95 79.4 20.4 79.63 19.93 80.1 19.56 80.47 19.33 81.02 19.15 81.58 18.96 82.13 18.96 82.69 18.96 83.25 18.96 83.8 19.05 84.31 19.24 84.87 19.47 85.33 19.66 85.8 20.03 86.26 20.3 86.54 20.68 86.63 20.77 86.72 20.86 86.72 21.05 86.72 21.14 86.63 21.32 86.63 21.42 86.54 21.51 86.35 21.7 86.26 21.79 86.07 21.88 85.98 21.97 85.8 22.07 85.7 22.16 85.52 22.25 85.42 22.25 85.33 22.34 85.15 21.97 84.87 21.6 84.59 21.32 84.22 21.05 83.85 20.86 83.52 20.77 83.06 20.68 82.69 20.68 82.32 20.68 81.95 20.77 81.58 20.86 81.3 21.05 81.11 21.23 80.93 21.51 80.84 21.88 80.84 22.16 80.93 22.25 81.02 22.34 81.11 22.44 81.21 22.53 81.3 22.62 81.39 22.71 81.58 22.81 81.67 22.81 81.76 22.9 81.95 22.9 82.04 22.99 82.23 23.09 82.41 23.09 82.51 23.09 82.69 23.18 82.97 23.18 84.03 23.46 85.05 23.69 85.98 24.06 86.63 24.61 87.19 25.17 87.56 25.82 87.74 26.47 87.83 27.21 87.83 27.91 87.65 28.65 87.37 29.3 87 29.94 86.54 30.59 85.98 31.06 85.33 31.43 84.59 31.71 83.85 31.89 83.52 31.89 83.25 31.89 82.88 31.8 82.51 31.8 82.13 31.71 81.86 31.61"/><polygon class="cls-2" points="59.38 32.86 59.01 32.77 58.64 32.68 58.31 32.49 57.94 32.4 57.57 32.22 57.2 31.98 56.83 31.8 56.46 31.52 56.09 31.24 55.72 30.96 55.72 30.69 55.72 30.59 55.72 30.41 55.72 30.22 55.81 30.13 55.9 29.94 55.9 29.85 56 29.67 56.09 29.57 56.18 29.48 56.27 29.39 56.46 29.3 56.55 29.2 56.65 29.11 56.83 29.02 56.92 28.92 57.11 28.92 57.2 29.2 57.29 29.48 57.48 29.76 57.57 29.94 57.76 30.13 57.94 30.32 58.13 30.5 58.31 30.69 58.45 30.78 58.64 30.87 58.92 30.96 59.1 30.96 59.38 31.06 59.57 31.06 59.84 31.06 60.03 31.06 60.4 31.15 60.68 31.15 60.96 31.06 61.23 30.96 61.51 30.87 61.79 30.78 61.98 30.59 62.16 30.41 62.35 30.22 62.53 30.04 62.67 29.85 62.76 29.67 62.86 29.57 62.95 29.3 63.04 29.2 63.04 29.02 63.04 28.74 63.04 28.46 63.04 28.18 63.04 28 62.95 27.77 62.86 27.58 62.76 27.4 62.62 27.21 62.53 27.02 62.25 26.93 62.07 26.75 61.88 26.65 61.6 26.56 61.33 26.47 61.05 26.47 60.68 26.38 59.47 26.28 59.19 26.28 59.01 26.28 58.73 26.19 58.55 26.19 58.41 26.19 58.22 26.19 58.04 26.1 57.94 26.1 57.76 26.1 57.57 26.01 57.48 26.01 57.39 26.01 57.29 26.01 57.2 25.91 57.11 25.91 56.83 25.73 56.65 25.63 56.37 25.54 56.18 25.36 56 25.17 55.9 24.99 55.72 24.8 55.63 24.61 55.53 24.43 55.53 24.15 55.44 23.97 55.44 23.69 55.44 23.55 55.44 23.27 55.44 22.99 55.53 22.71 55.72 22.16 56 21.6 56.37 21.14 56.83 20.86 57.29 20.58 57.76 20.4 58.31 20.3 58.82 20.21 59.38 20.21 60.03 20.21 60.58 20.3 61.14 20.49 61.6 20.68 62.16 20.95 62.53 21.23 62.86 21.51 63.04 21.7 63.04 21.79 63.13 21.97 63.13 22.07 63.04 22.16 63.04 22.34 62.95 22.44 62.86 22.62 62.67 22.71 62.62 22.9 62.44 22.99 62.35 23.09 62.25 23.18 62.07 23.27 61.98 23.36 61.88 23.36 61.7 22.99 61.42 22.71 61.05 22.44 60.68 22.25 60.31 22.07 59.84 21.97 59.47 21.97 59.1 21.97 58.73 22.07 58.41 22.16 58.04 22.34 57.76 22.53 57.57 22.71 57.48 22.99 57.39 23.36 57.48 23.64 57.48 23.69 57.57 23.78 57.67 23.87 57.85 23.97 57.94 24.06 58.04 24.06 58.13 24.15 58.31 24.15 58.41 24.24 58.55 24.24 58.73 24.34 58.82 24.34 59.01 24.34 59.19 24.43 59.38 24.43 59.57 24.43 60.77 24.52 61.79 24.71 62.67 24.99 63.32 25.45 63.97 26.01 64.43 26.56 64.71 27.3 64.89 27.91 64.99 28.65 64.89 29.39 64.71 30.13 64.34 30.78 63.97 31.43 63.41 31.98 62.86 32.4 62.25 32.77 61.42 32.96 61.05 33.05 60.77 33.05 60.4 33.05 60.03 33.05 59.66 32.96 59.38 32.86"/><polygon class="cls-2" points="70.97 21.32 70.87 21.32 70.78 21.32 70.69 21.32 70.5 21.32 70.41 21.42 70.22 21.42 70.13 21.42 70.04 21.42 69.95 21.51 69.76 21.51 69.67 21.6 69.58 30.69 69.58 30.78 69.58 30.87 69.85 31.43 67.35 31.89 67.63 31.33 67.63 31.24 67.63 31.15 67.72 21.7 67.63 21.6 67.54 21.6 67.35 21.51 67.26 21.51 67.07 21.51 66.93 21.51 66.75 21.42 66.56 21.42 66.38 21.42 66.19 21.51 65.91 21.51 65.73 21.51 65.54 21.51 65.27 21.51 65.08 21.6 64.89 21.6 64.8 21.6 64.71 21.6 64.71 21.7 64.62 21.7 64.52 21.7 64.43 21.79 64.34 21.79 64.34 21.88 64.25 21.88 64.15 21.97 64.06 21.97 64.06 22.07 63.97 22.07 63.97 19.93 72.77 19.47 72.77 21.6 71.66 21.32 71.48 21.32 71.38 21.32 71.2 21.32 71.15 21.32 70.97 21.32"/><polygon class="cls-2" points="121.48 142.14 121.29 142 121.11 141.91 121.02 141.72 120.83 141.54 120.74 141.35 120.65 141.17 120.46 140.89 120.37 140.61 120.27 140.33 120.27 140.06 120.18 139.87 120.09 139.68 120 139.41 120 139.22 119.9 138.94 119.81 138.67 119.81 138.48 119.72 138.2 119.63 138.02 119.63 137.78 119.53 137.6 119.53 137.32 119.44 137.14 119.44 136.86 119.35 136.67 119.26 136.39 119.16 135.93 119.07 135.56 118.98 135.19 118.88 134.82 118.88 134.54 118.79 134.17 118.7 133.89 118.61 133.71 118.61 133.47 118.51 133.29 118.51 133.1 118.42 133.01 118.42 132.92 118.42 132.83 118.42 132.73 118.33 132.73 118.33 132.64 118.33 132.55 118.24 132.46 118.24 132.36 118.24 132.27 118.14 132.27 118.14 132.18 118.05 132.08 117.96 131.99 117.86 131.9 117.77 131.81 117.68 131.71 120 131.07 120 131.16 119.9 131.25 119.9 131.34 119.9 131.44 119.9 131.53 119.9 131.62 120 131.71 120 131.81 120 131.9 120 131.99 120 132.08 120.09 132.18 120.09 132.27 120.09 132.36 120.18 132.36 120.27 132.92 120.37 133.38 120.46 133.71 120.55 134.17 120.65 134.54 120.74 134.91 120.83 135.28 120.92 135.75 121.02 136.12 121.11 136.58 121.29 137.04 121.39 137.6 121.67 138.11 121.85 138.67 121.99 139.31 122.27 140.06 122.36 140.24 122.45 140.33 122.55 140.43 122.73 140.52 122.92 140.61 123.1 140.61 123.29 140.61 123.47 140.61 123.66 140.61 123.75 140.52 123.94 140.43 124.03 140.24 124.12 140.06 124.21 139.78 124.21 139.5 124.21 139.13 124.12 139.04 124.03 138.76 123.94 138.39 123.84 138.02 123.66 137.51 123.47 136.86 123.29 136.21 123.01 135.56 122.82 134.91 122.64 134.26 122.45 133.71 122.27 133.2 122.08 132.73 121.99 132.36 121.9 132.08 121.85 131.99 121.76 131.9 121.76 131.81 121.76 131.71 121.67 131.62 121.67 131.53 121.57 131.44 121.57 131.34 121.48 131.34 121.48 131.25 121.39 131.16 121.29 131.07 121.2 130.97 121.11 130.88 121.02 130.79 123.1 130.14 123.57 131.53 123.94 132.64 124.31 133.71 124.68 134.63 124.96 135.56 125.14 136.3 125.42 137.04 125.6 137.6 125.7 138.11 125.79 138.57 125.88 138.94 125.97 139.31 125.97 139.59 126.07 139.87 126.07 140.06 125.97 140.24 125.97 140.61 125.79 140.98 125.7 141.26 125.42 141.54 125.23 141.82 125.05 142 124.77 142.14 124.58 142.23 124.31 142.42 124.03 142.51 123.75 142.51 123.47 142.6 123.19 142.6 123.01 142.6 122.82 142.6 122.64 142.6 122.36 142.51 122.17 142.51 121.99 142.42 121.85 142.33 121.67 142.23 121.48 142.14"/><polygon class="cls-2" points="126.67 38.47 126.76 38.56 126.86 38.56 126.95 38.66 127.04 38.75 127.13 38.84 127.23 38.93 127.23 39.03 127.32 39.12 127.41 39.21 127.5 39.4 127.5 39.49 127.5 39.68 127.41 39.86 127.32 40.14 127.04 40.33 126.76 40.6 126.39 40.83 126.07 41.02 125.6 41.11 125.14 41.3 124.68 41.3 124.12 41.3 123.57 41.21 123.01 41.02 122.45 40.74 121.9 40.33 121.67 40.05 121.39 39.77 121.11 39.49 120.92 39.21 120.65 38.84 120.46 38.56 120.27 38.29 120.18 37.92 120 37.54 119.9 37.17 119.81 36.8 119.72 36.43 119.63 36.11 119.63 35.74 119.63 35.27 119.63 34.9 119.63 33.42 119.81 32.22 120.18 31.15 120.55 30.32 121.02 29.57 121.67 29.02 122.17 28.55 122.82 28.28 123.47 28.09 124.12 28.09 124.77 28.18 125.42 28.37 125.97 28.65 126.48 29.11 126.86 29.57 127.23 30.13 127.13 30.32 127.04 30.5 126.95 30.69 126.86 30.87 126.76 31.06 126.58 31.15 126.48 31.33 126.39 31.43 126.3 31.52 126.21 31.71 126.11 31.8 126.07 31.8 125.97 31.89 125.79 31.98 125.7 32.08 125.6 32.08 125.6 31.52 125.42 31.06 125.23 30.69 124.96 30.32 124.58 30.13 124.31 30.04 123.84 30.04 123.47 30.13 123.1 30.41 122.73 30.78 122.36 31.24 122.08 31.89 121.85 32.59 121.67 33.42 121.57 34.44 121.67 35.64 121.76 36.43 121.99 37.17 122.27 37.73 122.55 38.19 122.92 38.56 123.29 38.84 123.66 39.12 124.03 39.21 124.4 39.31 124.77 39.31 125.05 39.31 125.33 39.12 125.6 39.03 125.79 38.84 125.88 38.66 125.97 38.38 125.97 38.01 126.07 38.1 126.21 38.19 126.39 38.19 126.48 38.29 126.58 38.38 126.67 38.47"/><polygon class="cls-2" points="56.27 134.08 56.27 134.08 56.37 134.17 56.46 134.17 56.55 134.17 56.65 134.17 56.74 134.26 56.83 134.26 59.66 142.42 59.94 135.1 59.94 135 59.94 134.91 59.94 134.82 59.94 134.73 59.84 134.73 59.84 134.63 59.84 134.54 59.84 134.45 59.75 134.36 60.31 134.36 60.4 134.45 60.58 134.45 60.68 134.45 60.77 134.45 60.96 134.45 61.14 134.45 61.23 134.54 61.33 134.54 61.42 134.54 61.51 134.63 61.6 134.63 61.7 134.63 61.79 134.73 61.88 134.82 61.98 134.91 61.79 136.02 61.7 137.32 61.6 138.29 61.6 139.31 61.51 140.24 61.51 141.08 61.42 141.91 61.42 142.6 61.33 143.25 61.23 143.9 61.23 144.55 61.23 145.01 61.14 145.48 61.14 145.94 61.05 146.22 61.05 146.54 60.96 146.73 60.96 146.91 60.77 146.91 60.58 146.91 60.4 146.91 60.21 146.91 60.12 146.91 59.94 146.82 59.84 146.82 59.75 146.82 59.66 146.82 59.57 146.73 59.47 146.73 59.38 146.73 59.29 146.64 59.19 146.64 59.1 146.54 59.01 146.45 58.45 145.2 58.31 144.74 58.22 144.37 58.04 143.9 57.94 143.62 57.76 143.25 57.67 142.88 57.48 142.6 57.39 142.33 57.29 142.09 57.2 141.82 57.11 141.63 57.02 141.35 56.92 141.17 56.83 140.98 56.74 140.89 56.74 140.7 56.37 146.31 56.18 146.31 56 146.31 55.9 146.31 55.72 146.31 55.63 146.31 55.44 146.31 55.26 146.31 55.16 146.31 54.98 146.31 54.88 146.22 54.7 146.22 54.61 146.22 54.42 146.22 54.33 146.13 54.24 146.13 54.19 146.03 54.24 145.94 54.24 145.85 54.33 145.66 54.33 145.48 54.42 145.29 54.51 145.11 54.51 144.83 54.61 144.64 54.61 144.37 54.61 143.99 54.7 143.72 54.7 143.35 54.79 143.07 54.79 142.7 54.88 142.33 54.88 141.45 54.98 140.61 55.07 139.78 55.16 139.04 55.16 138.39 55.16 137.78 55.26 137.23 55.26 136.77 55.26 136.3 55.26 135.84 55.35 135.47 55.35 135.19 55.26 134.91 55.26 134.73 55.26 134.54 55.26 134.36 55.26 134.26 55.16 134.26 55.16 134.17 55.16 134.08 55.07 134.08 55.07 133.98 54.98 133.98 54.98 133.89 56.09 134.08 56.18 134.08 56.27 134.08"/><polygon class="cls-2" points="47.84 34.53 47.84 34.44 47.84 34.35 47.93 34.25 47.93 34.16 47.93 34.07 47.93 33.98 47.93 33.88 47.93 33.79 47.93 33.7 47.93 24.24 47.93 24.15 47.93 24.06 47.93 23.97 47.93 23.87 47.93 23.78 47.84 23.69 47.84 23.64 47.75 23.55 47.75 23.46 47.66 23.36 47.56 23.27 47.47 23.18 47.38 23.09 47.28 23.09 54 21.51 54 21.6 54 21.7 54 21.79 54 21.88 54 21.97 54 22.16 54 22.25 54.1 22.34 54.1 22.44 54.1 22.62 54.1 22.71 54.1 22.9 54.1 22.99 54.19 23.18 54.19 23.36 54.19 23.46 54.1 23.46 54 23.46 53.91 23.46 53.82 23.36 53.73 23.36 53.63 23.36 53.54 23.36 53.26 23.36 52.98 23.36 52.8 23.36 52.52 23.36 52.34 23.36 52.15 23.46 51.96 23.46 51.78 23.55 51.59 23.55 51.41 23.64 51.13 23.64 50.85 23.69 50.67 23.87 50.3 23.97 50.02 24.06 49.69 24.24 49.69 26.38 49.79 26.38 49.97 26.38 50.11 26.38 50.3 26.38 50.39 26.28 50.57 26.28 50.85 26.28 51.04 26.19 51.22 26.19 51.41 26.1 51.59 26.01 51.78 26.01 51.96 25.91 52.15 25.82 52.34 25.73 52.52 25.73 52.52 25.82 52.61 25.91 52.61 26.01 52.61 26.1 52.71 26.19 52.71 26.28 52.71 26.47 52.8 26.56 52.8 26.75 52.8 26.93 52.89 27.12 52.89 27.3 52.89 27.58 52.98 27.77 52.71 27.77 52.52 27.77 52.24 27.86 51.96 27.86 51.78 27.86 51.5 27.91 51.32 27.91 51.13 27.91 50.85 28 50.67 28.09 50.48 28.18 50.3 28.18 50.11 28.28 49.97 28.37 49.88 28.46 49.69 28.55 49.69 29.02 49.69 29.39 49.69 29.76 49.69 30.04 49.69 30.32 49.69 30.59 49.69 30.87 49.79 31.06 49.79 31.33 49.79 31.52 49.79 31.71 49.79 31.89 49.79 32.08 49.79 32.22 49.79 32.31 49.88 32.49 50.02 32.49 50.3 32.49 50.57 32.4 50.85 32.31 51.13 32.22 51.41 32.17 51.78 32.08 52.15 31.98 52.43 31.89 52.8 31.8 53.08 31.71 53.45 31.61 53.82 31.52 54.1 31.43 54.42 31.33 54.79 31.24 54.79 31.52 54.7 31.8 54.7 31.98 54.7 32.22 54.7 32.4 54.61 32.59 54.61 32.77 54.61 32.86 54.51 33.05 54.51 33.14 54.42 33.23 54.33 33.33 54.24 33.42 54.19 33.42 54.19 33.51 54.1 33.51 47.47 35 47.56 34.9 47.66 34.81 47.66 34.72 47.75 34.72 47.75 34.63 47.84 34.53"/><polygon class="cls-2" points="93.95 32.31 93.49 32.31 93.02 32.17 92.56 32.08 92.14 31.98 91.68 31.89 91.22 31.8 90.75 31.71 90.38 31.61 90.01 31.52 89.55 31.43 89.27 31.33 89.64 30.13 89.73 30.13 89.73 30.04 89.73 29.94 89.73 29.85 89.92 21.51 89.83 21.51 89.83 21.42 89.83 21.32 89.83 21.23 89.83 21.14 89.83 21.05 89.83 20.95 89.73 20.95 89.73 20.86 89.46 19.93 89.64 19.93 90.01 20.03 90.38 20.03 90.85 20.03 91.4 20.12 91.96 20.12 92.47 20.21 93.02 20.3 93.58 20.4 94.14 20.4 94.69 20.58 95.25 20.58 95.71 20.68 96.08 20.77 96.36 20.86 96.59 20.95 96.78 22.99 95.16 22.34 94.88 22.25 94.69 22.25 94.42 22.25 94.14 22.16 93.86 22.16 93.58 22.16 93.3 22.07 93.02 22.07 92.75 22.07 92.56 22.07 92.38 22.07 92.24 22.07 92.05 22.07 91.96 22.07 91.87 22.16 91.77 22.16 91.77 24.34 91.96 24.34 92.05 24.43 92.24 24.43 92.28 24.43 92.47 24.52 92.65 24.52 92.84 24.52 93.02 24.52 93.21 24.52 93.3 24.52 93.49 24.52 93.67 24.52 93.86 24.52 94.04 24.52 94.23 24.52 94.42 24.43 94.42 26.38 94.23 26.38 94.04 26.38 93.86 26.28 93.67 26.28 93.49 26.28 93.3 26.19 93.12 26.19 93.02 26.19 92.84 26.1 92.65 26.1 92.56 26.1 92.38 26.1 92.24 26.01 92.14 26.01 91.96 26.1 91.87 26.1 91.87 26.28 91.77 26.56 91.77 26.84 91.77 27.02 91.77 27.3 91.77 27.49 91.77 27.77 91.77 27.91 91.77 28.18 91.77 28.46 91.77 28.65 91.77 28.92 91.77 29.11 91.77 29.39 91.87 29.67 91.87 29.85 91.96 29.94 92.05 29.94 92.14 30.04 92.24 30.04 92.38 30.04 92.47 30.13 92.65 30.13 92.84 30.13 93.02 30.22 93.21 30.32 93.3 30.32 93.58 30.32 93.77 30.41 93.95 30.41 94.14 30.5 94.42 30.5 94.6 30.5 94.69 30.59 94.88 30.59 94.97 30.59 95.16 30.59 95.34 30.59 95.43 30.59 95.62 30.59 95.71 30.5 95.9 30.5 96.08 30.5 96.18 30.5 96.36 30.5 96.45 30.5 96.59 30.41 96.78 30.41 95.9 32.59 95.53 32.59 95.16 32.49 94.79 32.49 94.32 32.4 93.95 32.31"/><polygon class="cls-2" points="47.38 145.01 47.47 144.92 47.56 144.92 47.56 144.83 47.66 144.74 47.75 144.64 47.75 144.55 47.75 144.46 47.84 144.37 47.84 144.27 47.93 144.09 47.93 143.72 48.03 143.16 48.12 142.51 48.21 141.72 48.3 140.89 48.4 139.96 48.49 139.04 48.58 138.2 48.67 137.32 48.67 136.49 48.77 135.75 48.77 135 48.86 134.54 48.77 134.17 48.77 133.89 48.58 133.1 54.1 133.89 54.1 133.98 54.1 134.08 54.1 134.17 54.19 134.26 54.19 134.36 54.19 134.45 54.19 134.54 54.19 134.73 54.19 134.82 54.19 135 54.24 135.19 54.24 135.38 54.24 135.56 54.24 135.75 54.33 135.93 54.33 136.12 53.17 135.47 53.08 135.47 52.89 135.47 52.71 135.47 52.52 135.38 52.34 135.38 52.06 135.38 51.87 135.38 51.69 135.28 51.41 135.28 51.22 135.28 51.04 135.28 50.85 135.28 50.76 135.28 50.67 135.38 50.3 138.29 50.39 138.39 50.48 138.39 50.57 138.39 50.67 138.39 50.76 138.39 50.85 138.39 51.04 138.39 51.13 138.48 51.22 138.48 51.41 138.48 51.59 138.57 51.78 138.57 51.96 138.57 52.15 138.67 52.34 138.67 52.52 138.67 52.52 138.85 52.52 138.94 52.52 139.13 52.52 139.22 52.52 139.31 52.52 139.5 52.52 139.59 52.52 139.68 52.52 139.78 52.43 139.87 52.43 140.06 52.43 140.15 52.43 140.24 52.34 140.33 52.34 140.43 52.34 140.52 52.15 140.52 52.06 140.43 51.96 140.43 51.78 140.43 51.69 140.33 51.5 140.33 51.41 140.33 51.22 140.33 51.13 140.24 50.95 140.24 50.85 140.24 50.67 140.24 50.57 140.24 50.39 140.15 50.3 140.15 50.2 140.15 49.79 143.81 52.52 144.18 52.61 144.18 52.71 144.18 52.8 144.18 52.89 144.18 52.98 144.18 53.08 144.18 53.17 144.18 53.17 144.09 53.26 144.09 53.36 143.99 52.98 145.39 52.98 145.48 52.89 145.57 52.89 145.66 52.89 145.76 52.89 145.85 52.89 145.94 52.89 146.03 47.1 145.2 47.19 145.11 47.28 145.11 47.38 145.01"/><polygon class="cls-2" points="118.05 140.33 118.24 140.43 118.33 140.52 118.42 140.52 118.51 140.61 118.61 140.7 118.79 140.8 118.88 140.89 118.98 140.98 119.16 141.08 119.26 141.17 119.26 141.45 119.16 141.82 119.07 142.09 118.98 142.33 118.88 142.6 118.7 142.88 118.51 143.07 118.33 143.25 118.14 143.44 117.96 143.62 117.77 143.72 117.63 143.9 117.45 143.9 117.26 143.99 117.08 144.09 116.98 144.09 116.8 144.18 116.52 144.18 116.24 144.09 115.87 143.99 115.5 143.9 115.13 143.72 114.76 143.44 114.3 143.07 113.93 142.6 113.46 142.14 113.23 141.54 112.86 140.8 112.58 139.96 112.3 138.94 112.12 137.88 112.03 136.58 111.93 135.47 112.03 134.63 112.21 133.8 112.4 133.29 112.77 132.73 113.14 132.46 113.46 132.18 113.93 131.99 114.39 131.99 114.85 131.99 115.32 132.08 115.78 132.18 116.15 132.36 116.52 132.55 116.89 132.73 117.17 132.92 117.17 133.01 117.17 133.1 117.17 133.2 117.17 133.29 116.24 135 116.24 134.73 116.24 134.54 116.15 134.36 116.06 134.17 115.96 134.08 115.87 133.98 115.69 133.8 115.59 133.8 115.41 133.71 115.32 133.71 115.13 133.66 115.04 133.66 114.85 133.66 114.76 133.66 114.67 133.71 114.48 133.71 114.2 133.8 113.93 134.17 113.74 134.63 113.65 135.19 113.55 135.84 113.65 136.58 113.65 137.32 113.83 138.02 114.02 138.85 114.3 139.59 114.57 140.24 114.95 140.89 115.32 141.45 115.78 141.82 116.24 142.09 116.8 142.23 116.89 142.23 116.98 142.14 117.08 142.14 117.08 142.09 117.17 142.09 117.26 142 117.36 141.91 117.36 141.82 117.45 141.72 117.45 141.63 117.45 141.54 117.45 141.45 117.45 141.26 117.45 141.17 117.45 140.98 117.45 140.06 117.54 140.06 117.63 140.15 117.77 140.15 117.86 140.24 117.96 140.33 118.05 140.33"/><polygon class="cls-2" points="20.59 47 20.59 46.91 20.59 46.81 20.59 46.72 20.68 46.63 20.68 46.54 20.68 46.44 20.68 46.35 20.68 46.26 20.78 34.16 20.78 34.07 20.78 33.98 20.68 33.88 20.68 33.79 20.59 33.7 20.59 33.61 20.5 33.61 20.41 33.51 20.41 33.42 20.36 33.42 20.27 33.33 20.17 33.33 20.08 33.33 20.41 33.05 20.78 32.86 21.15 32.68 21.42 32.49 21.7 32.4 22.07 32.22 22.35 32.17 22.54 31.98 22.82 31.89 23.09 31.8 23.37 31.61 23.56 31.52 23.74 31.43 24.02 31.33 24.21 31.24 24.48 31.15 24.58 31.06 24.72 30.96 24.81 30.87 24.99 30.78 25.18 30.78 25.27 30.69 25.46 30.59 25.64 30.5 25.73 30.5 25.92 30.41 26.11 30.32 26.29 30.22 26.38 30.13 26.57 30.04 26.66 29.94 26.85 29.85 26.94 31.98 26.75 31.98 26.57 31.98 26.48 31.98 26.29 32.08 26.2 32.08 26.01 32.17 25.83 32.31 25.55 32.4 25.27 32.49 25.09 32.68 24.72 32.86 24.48 33.05 24.11 33.23 23.74 33.42 23.28 33.61 22.82 33.88 22.72 34.07 22.72 34.16 22.63 34.35 22.63 34.53 22.54 34.63 22.54 34.81 22.54 34.9 22.54 35.09 22.54 35.27 22.54 35.46 22.44 35.55 22.44 35.83 22.44 36.02 22.44 36.2 22.44 36.39 22.44 36.53 22.72 36.43 22.91 36.39 23.09 36.39 23.28 36.29 23.46 36.2 23.56 36.11 23.74 36.11 23.93 36.02 24.02 35.92 24.11 35.92 24.21 35.83 24.3 35.83 24.39 35.83 24.48 35.83 24.48 35.74 24.58 35.74 25.55 35.18 25.55 35.37 25.64 35.46 25.64 35.64 25.73 35.74 25.73 35.83 25.73 36.02 25.83 36.11 25.83 36.2 25.83 36.39 25.83 36.43 25.83 36.53 25.83 36.71 25.83 36.8 25.83 36.9 25.83 36.99 25.83 37.08 25.64 37.17 25.46 37.17 25.27 37.27 24.99 37.27 24.81 37.36 24.62 37.45 24.48 37.45 24.3 37.54 24.02 37.64 23.83 37.73 23.65 37.82 23.46 37.92 23.19 38.01 23 38.1 22.82 38.29 22.54 38.38 22.54 44.96 22.54 45.05 22.54 45.14 22.63 45.24 22.63 45.33 22.72 45.42 22.82 45.52 22.91 45.61 20.36 47.28 20.41 47.28 20.41 47.18 20.5 47.09 20.59 47"/><polygon class="cls-2" points="132.18 38.84 132.09 38.84 131.91 38.75 131.72 38.56 131.63 38.56 131.44 38.38 131.26 38.29 131.07 38.29 130.89 38.1 130.7 38.01 130.52 38.01 130.28 37.92 130.28 40.51 130.28 40.74 130.28 41.02 130.28 41.21 130.38 41.48 130.38 41.67 130.38 41.76 130.42 42.04 130.42 42.13 130.52 42.32 130.52 42.41 130.61 42.5 130.7 42.6 130.7 42.69 130.79 42.78 130.89 42.87 130.98 42.87 133.48 44.08 133.58 44.08 133.67 44.08 133.76 44.08 133.76 43.99 133.85 43.99 133.95 43.99 134.04 43.89 134.13 43.89 134.22 43.8 134.32 43.8 134.41 43.71 134.13 46.54 133.85 46.44 133.58 46.26 133.3 46.07 132.93 45.89 132.65 45.7 132.28 45.52 131.91 45.33 131.54 45.14 131.07 44.87 130.7 44.73 130.28 44.45 129.82 44.26 129.36 43.99 128.8 43.71 128.34 43.43 127.78 43.15 127.88 43.06 127.97 42.97 127.97 42.87 128.06 42.78 128.15 42.69 128.15 42.6 128.25 42.5 128.25 42.41 128.34 42.41 128.34 42.32 128.34 42.23 128.34 42.13 128.34 31.43 128.34 31.33 128.34 31.24 128.25 31.15 128.25 31.06 128.25 30.96 128.15 30.87 128.15 30.78 128.06 30.69 128.06 30.59 127.97 30.5 127.97 30.41 127.88 30.32 127.88 30.13 127.78 30.04 127.88 30.04 128.06 30.13 128.15 30.13 128.43 30.32 128.62 30.41 128.8 30.5 129.17 30.59 129.45 30.78 129.82 30.96 130.19 31.06 130.52 31.33 130.98 31.52 131.44 31.8 131.91 31.98 132.46 32.22 132.74 32.4 132.93 32.49 133.2 32.59 133.39 32.77 133.58 32.96 133.76 33.05 133.95 33.23 134.13 33.42 134.22 33.51 134.32 33.7 134.41 33.88 134.5 34.07 134.55 34.25 134.55 34.44 134.64 34.63 134.64 34.72 134.5 35.74 134.32 35.64 134.13 35.46 133.85 35.37 133.67 35.18 133.48 35 133.2 34.9 133.02 34.72 132.74 34.63 132.46 34.44 132.18 34.25 131.91 34.16 131.63 33.98 131.35 33.88 131.07 33.7 130.7 33.51 130.38 33.42 130.52 36.11 130.7 36.29 130.79 36.39 130.98 36.43 131.17 36.62 131.35 36.62 131.54 36.71 131.72 36.8 131.91 36.9 132.09 36.99 132.18 36.99 132.37 37.08 132.56 37.17 132.74 37.17 132.83 37.27 133.02 37.27 133.11 37.36 132.93 39.31 132.74 39.31 132.65 39.12 132.46 39.12 132.37 38.93 132.18 38.84"/><polygon class="cls-2" points="101 145.2 100.81 145.39 100.58 145.57 100.39 145.85 100.12 146.03 99.93 146.22 99.65 146.31 99.37 146.45 99.1 146.54 98.73 146.64 98.45 146.64 98.17 146.64 97.61 146.54 97.06 146.31 96.69 146.03 96.27 145.57 95.9 145.01 95.62 144.46 95.34 143.81 95.06 143.07 94.97 142.42 94.79 141.72 94.69 140.89 94.6 140.15 94.6 139.41 94.6 138.67 94.6 138.02 94.69 137.32 94.79 136.67 94.97 136.02 95.16 135.47 95.43 135 95.62 134.63 95.99 134.26 96.27 134.08 96.59 133.89 96.87 133.71 97.24 133.66 97.61 133.66 97.89 133.66 98.26 133.71 98.54 133.71 98.82 133.8 99 133.98 99.37 134.17 99.56 134.36 99.84 134.45 100.02 134.73 100.12 134.91 100.21 135.1 100.3 135.28 100.3 135.47 100.3 135.75 100.21 135.93 100.12 136.21 100.02 136.49 99.84 136.77 99.65 137.04 99.37 137.41 99.1 137.69 99 137.51 99 137.32 98.91 137.14 98.82 136.95 98.82 136.77 98.73 136.58 98.63 136.49 98.54 136.3 98.54 136.21 98.45 136.12 98.45 136.02 98.35 135.93 98.26 135.84 98.17 135.75 98.08 135.75 97.61 135.65 97.24 135.84 96.96 136.12 96.78 136.58 96.59 137.14 96.5 137.78 96.5 138.48 96.5 139.22 96.59 139.96 96.69 140.8 96.78 141.54 96.96 142.23 97.15 142.88 97.33 143.44 97.52 143.81 97.71 144.09 97.8 144.18 97.89 144.37 97.89 144.46 98.08 144.55 98.17 144.55 98.26 144.64 98.35 144.74 98.54 144.74 98.63 144.74 98.73 144.74 98.91 144.64 99 144.64 99.1 144.55 99.19 144.46 99.28 144.27 99.37 144.09 99.37 141.63 99.37 141.54 99.28 141.54 99.28 141.45 99.28 141.35 99.19 141.35 99.1 141.35 99 141.35 98.91 141.35 98.82 141.35 98.73 141.35 98.63 141.35 98.54 141.35 98.45 141.35 98.35 141.35 98.26 141.45 98.17 141.45 98.08 141.45 98.08 141.54 97.89 141.63 97.8 141.72 97.71 141.08 97.71 139.59 97.71 139.5 97.8 139.5 97.89 139.41 101.09 139.22 101.37 144.18 101.37 144.37 101.27 144.55 101.18 144.74 101.09 144.92 101 145.2"/><polygon class="cls-2" points="32.73 142.23 32.83 142.23 32.83 142.14 32.92 142.09 32.92 142 33.01 141.91 33.01 141.82 33.01 141.72 33.1 141.72 33.1 141.63 33.1 141.54 34.73 132.73 34.63 132.64 34.54 132.55 34.45 132.55 34.26 132.46 34.17 132.46 34.08 132.36 33.98 132.36 33.89 132.27 33.71 132.27 33.52 132.27 33.43 132.27 33.33 132.18 33.24 132.18 33.15 132.18 32.55 132.27 32.55 132.18 32.55 132.08 32.55 131.99 32.55 131.9 32.55 131.81 32.55 131.71 32.55 131.62 32.64 131.44 32.64 131.34 32.64 131.25 32.64 131.07 32.73 130.97 32.73 130.79 32.83 130.69 32.83 130.51 32.92 130.32 38.85 131.62 38.85 131.71 38.85 131.81 38.85 131.9 38.85 131.99 38.85 132.18 38.85 132.27 38.85 132.46 38.85 132.55 38.85 132.73 38.76 132.92 38.76 133.01 38.66 133.2 38.66 133.29 38.57 133.47 38.57 133.57 38.48 133.66 38.39 133.57 38.29 133.57 38.2 133.47 38.11 133.47 38.02 133.38 37.92 133.38 37.74 133.29 37.64 133.29 37.55 133.29 37.46 133.29 37.32 133.2 37.23 133.2 37.04 133.2 36.95 133.1 36.76 133.1 36.67 133.1 36.58 133.29 36.49 133.66 36.39 134.08 36.3 134.63 36.12 135.38 35.93 136.12 35.74 136.86 35.56 137.69 35.37 138.48 35.28 139.31 35.1 140.06 34.91 140.7 34.82 141.35 34.73 141.72 34.73 142.09 34.63 142.14 34.63 142.23 34.63 142.33 34.63 142.42 34.63 142.51 34.63 142.6 34.63 142.7 34.63 142.79 34.63 142.88 34.63 142.98 34.63 143.07 34.63 143.16 32.36 142.51 32.45 142.51 32.55 142.42 32.64 142.33 32.73 142.23"/><polygon class="cls-2" points="64.62 146.73 64.71 146.64 64.71 146.54 64.71 146.45 64.8 146.36 64.8 146.31 64.8 146.22 64.8 146.13 64.8 146.03 65.08 136.58 64.89 136.58 64.71 136.49 64.52 136.49 64.43 136.49 64.25 136.49 64.15 136.49 63.97 136.49 63.88 136.49 63.69 136.49 63.6 136.49 63.5 136.49 63.32 136.49 63.23 136.49 63.04 136.49 62.95 136.49 62.86 136.49 62.76 136.39 62.76 136.3 62.76 136.21 62.76 136.02 62.76 135.93 62.67 135.84 62.67 135.65 62.67 135.56 62.67 135.47 62.67 135.28 62.67 135.1 62.67 134.91 62.67 134.73 62.76 134.54 69.3 135 69.3 135.19 69.3 135.28 69.3 135.47 69.3 135.56 69.3 135.75 69.3 135.84 69.3 136.02 69.3 136.12 69.3 136.3 69.3 136.39 69.3 136.49 69.3 136.67 69.3 136.77 69.3 136.86 69.3 136.95 69.3 137.04 69.11 137.04 69.02 136.95 68.83 136.95 68.74 136.86 68.56 136.86 68.46 136.77 68.28 136.77 68.09 136.67 68 136.67 67.81 136.67 67.72 136.67 67.54 136.58 67.35 136.58 67.17 136.58 66.98 136.67 66.93 136.67 66.56 146.03 66.56 146.13 66.56 146.22 66.56 146.31 66.56 146.36 66.56 146.45 66.56 146.54 66.66 146.54 66.66 146.64 66.66 146.73 66.66 146.82 66.75 146.82 66.75 146.91 66.84 147.1 66.93 147.19 64.34 147.19 64.43 147.1 64.43 147.01 64.52 146.91 64.62 146.82 64.62 146.73"/><polygon class="cls-2" points="81.49 144.18 81.49 144.55 81.49 144.92 81.49 145.2 81.49 145.48 81.58 145.76 81.58 145.94 81.58 146.13 81.58 146.31 81.67 146.45 81.67 146.64 81.67 146.73 81.67 146.82 81.76 146.82 81.76 146.91 81.76 147.01 81.86 147.1 81.86 147.19 81.95 147.29 82.04 147.38 82.13 147.38 79.49 147.38 79.59 147.29 79.63 147.19 79.72 147.1 79.72 147.01 79.82 147.01 79.82 146.91 79.82 146.82 79.49 135.75 79.21 135 84.96 135 85.24 137.23 85.15 137.14 85.05 137.04 84.96 137.04 84.87 137.04 84.87 136.95 84.78 136.95 84.68 136.95 84.59 136.95 81.3 136.95 81.3 137.14 81.3 137.32 81.3 137.41 81.3 137.6 81.3 137.78 81.3 137.92 81.3 138.11 81.3 138.29 81.3 138.39 81.3 138.57 81.3 138.76 81.3 138.94 81.3 139.13 81.39 139.31 81.39 139.59 81.39 139.78 81.58 139.78 81.67 139.78 81.86 139.78 82.04 139.78 82.13 139.78 82.32 139.78 82.51 139.78 82.69 139.78 82.88 139.78 83.06 139.68 83.25 139.68 83.34 139.68 83.52 139.68 83.62 139.59 83.8 139.59 83.85 139.59 83.8 141.45 83.71 141.45 83.52 141.45 83.43 141.45 83.25 141.45 83.15 141.35 82.97 141.35 82.78 141.35 82.6 141.35 82.51 141.35 82.32 141.35 82.13 141.35 81.95 141.35 81.86 141.45 81.67 141.45 81.58 141.45 81.49 141.45 81.49 142.09 81.49 142.51 81.49 142.98 81.49 143.44 81.49 143.9 81.49 144.18"/><polygon class="cls-2" points="110.36 144.83 110.36 144.74 110.26 144.74 110.26 144.64 110.26 144.55 110.26 144.46 110.26 144.37 108.27 132.92 108.46 132.83 108.55 132.83 108.83 132.73 109.01 132.73 109.2 132.73 109.34 132.73 109.52 132.64 109.62 132.64 109.8 132.64 109.99 132.64 110.08 132.64 110.17 132.64 110.26 132.64 110.36 132.64 110.45 132.64 110.45 132.73 110.36 132.73 110.36 132.83 110.26 132.83 110.26 132.92 110.26 133.01 110.26 133.1 110.26 133.2 110.26 133.29 110.26 133.38 110.26 133.47 110.26 133.66 110.26 133.8 110.26 133.98 110.36 134.17 112.12 143.99 112.21 144.09 112.21 144.18 112.21 144.27 112.21 144.37 112.3 144.37 112.3 144.46 112.3 144.55 112.4 144.55 112.4 144.64 112.4 144.74 112.49 144.74 112.49 144.83 112.58 144.83 112.58 144.92 110.26 145.29 110.26 145.2 110.26 145.11 110.26 145.01 110.26 144.92 110.36 144.92 110.36 144.83"/><polygon class="cls-2" points="116.52 37.92 116.52 37.82 116.61 37.73 116.71 37.64 116.71 37.54 116.71 37.45 116.71 37.36 116.8 37.27 116.8 37.17 116.71 26.93 116.71 26.84 116.71 26.75 116.71 26.65 116.71 26.56 116.71 26.47 116.71 26.38 116.71 26.28 116.71 26.19 116.61 26.1 116.61 26.01 116.52 25.91 116.52 25.82 116.43 25.73 116.43 25.63 116.34 25.45 116.34 25.36 118.7 26.38 118.51 26.84 118.42 27.02 118.42 27.3 118.42 27.67 118.42 28.09 118.42 28.65 118.42 29.2 118.42 29.94 118.42 30.78 118.42 31.71 118.51 32.59 118.51 33.7 118.51 34.9 118.61 36.11 118.61 37.45 118.61 38.93 118.61 39.03 118.51 39.03 118.42 39.03 116.24 38.19 116.34 38.19 116.34 38.1 116.43 38.01 116.43 37.92 116.52 37.92"/><path class="cls-2" d="m24.48,109.79l-.37.56-.65.56-.74.46-.83.37-.93.28-.93.28-1.02.09-1.02.09-1.11-.09-.93-.19-.93-.28-.93-.46-.74-.56-.56-.65-.46-.83-.28-1.02-.09-.19v-.7l.09-.19v-1.11l.09-.09v-.09l.09-.09.09.09h.19l.09.09h.56l10.1.19h.28l.09-.09h.19l.09-.09h.09l.09-.09h.19l.09-.09v.28l.09.19v.28l.09.19v.28l.09.19v1.48l-.09.19v.28l-.09.28v.23Zm-10.66-1.81l.19.56.19.37.19.46.37.28.28.28.46.19.37.19.46.09.37.19.46.09h2.13l.28-.09.46-.09.37-.09.46-.09.28-.09.37-.19.28-.09.28-.09.19-.19.19-.19.19-.09.09-.19.09-.19.09-.19v-.37l-.09-.19-.46-.09h-.56l-.56-.09h-.56l-.65-.09h-1.2l-.56-.09h-2.87l-.56.09h-1.02Z"/><path class="cls-2" d="m20.5,125.74l-.28-.09-.28-.19-.37-.09-.19-.19-.28-.09-.28-.28-.19-.19-.19-.19-.28-.28-.09-.28-.19-.28-.19-.37-.09-.28-.19-.37-.09-.37-.09-.46h-2.32l-.37.09h-.28l-.28.09-.28.09h-.28l-.19.09-.28.09-.19.09-.19.09-.09-.09-.09-.19v-.19l-.09-.19v-.14l-.09-.19v-.19l-.09-.28v-.37l-.09-.19v-.56l.09.09h.83l2.36-.09,7.69-.83h.46l.09-.09h.28v-.09h.09l.09-.09h.09l.09-.09.09-.09.09-.09.56,3.29v.09l.09.09v.93l-.09.09v.19l-.09.28-.09.19-.09.28-.19.19-.09.28-.28.19-.19.19-.28.28-.28.19-.37.19-.28.09-.46.19h-.37l-.46.09h-.97Zm-.97-4.22v.46l.09.37.09.28.09.28.28.28.19.09.19.19.28.09.28.09.19.09h.28l.28-.09h.28l.19-.19.28-.09.19-.19.09-.09.09-.09.09-.19.09-.19.09-.19v-.37l.09-.19v-.28l-.09-.09v-.28h-.09l-.09-.09-3.43.37Z"/><path class="cls-2" d="m19.62,135.84l-.09-.09h-.09l-.19-.09-.09-.09-.09-.19-.19-.09-.09-.19-.19-.09-.09-.19-.09-.09-.19-.19-.09-.19-.09-.09-.09-.09-.09-.09v-.09l.09-.09.09-.09.09-.09.09-.09.09-.09.09-.09.09-.09.19-.09.09-.09.09-.09.09-.19v-.09l.09-.09.09-.09v-.19l.09-.09-.74-.83v-.09h-.09v-.05l-.09-.09-.09-.09v-.09l-.09-.09-.09-.09-.09-.19-.09-.09-.09-.19-.09-.19-.09-.09-.09-.19-.09-.19-.09-.19h-.65l-.09.09h-.46l-.09.09h-.09l-.09.09h-.19l-.09.09h-.14l-.19-.28-.09-.28-.19-.19-.09-.28-.09-.19-.09-.19-.09-.09-.09-.19v-.19l-.09-.09v-.28h-.09v-.28l-.09-.09.09.09h.19l.09.09h.19l.09.09h.28l.09.09h.37l.09-.09,8.06-1.85,1.11-.28.09-.09h.19l.09-.09h.09l.09-.09h.09l.09-.09.09-.09.09-.09.09-.09.09-.09v-.09l.09.09.09.09.19.19.09.09.09.09.09.09.09.19.09.19.09.09.09.19.09.09v.19l.09.09.09.19.09.09.09.09-.37.28-.37.37-.37.37-.46.46-.56.56-.46.56-.56.65-.65.56-.56.65-.56.65-.56.56-.46.65-.46.56-.46.56-.37.46-.28.37-.09.09-.09.09v.19l-.09.09v.28l-.09.09v.05h.05Zm4.59-8.25l-5.14,1.39v.19l.19.19.09.09.09.19.09.19.09.09.09.19.09.09.09.19.09.19.09.09.19.19.09.09.09.19.19.09.09.19.09-.09.19-.19.19-.19.19-.19.28-.28.28-.28.28-.28.28-.37.28-.28.28-.37.28-.28.28-.28.19-.28.19-.19.19-.19.05-.09h0Z"/><path class="cls-2" d="m28.24,141.45h-.09l-.09-.09h-.19l-.09-.09h-.09l-.09-.09h-.19l-.09-.09h-.19l-.19-.09-.19-.09-.19-.09-.19-.09-.19-.19h.09l.09-.09.09-.09.09-.09v-.46l.28-4.77h-.19l-.09-.09h-.19l-.09-.09h-.19v-.09h-.19v-.09h-.09l-.09-.09h-.09l-.09-.09-.09.19-.09.19-.09.09-.09.19-.09.09-.09.19-.09.09-.09.09-.09.09v.09l-.09.19h-.09v.09l-.09.09v.09l-.09.09-.19.19-.09.28-.19.19-.09.19-.09.09-.09.19-.09.19-.09.09v.09l-.09.19v.09l-.09.09v.56h-.19l-.09-.09-.09-.09h-.05l-.19-.09-.19-.19-.19-.09-.19-.09-.09-.19-.28-.09-.09-.19-.19-.09-.09-.19-.19-.09v-.19h.19l.09-.09h.09l.09-.09h.09v-.09h.09l.09-.09.09-.09.09-.09.09-.09v-.09h.09v-.09l1.39-1.85.56-.65.46-.74.37-.56.46-.65.37-.56.37-.46.28-.46.37-.46.19-.37.19-.28.28-.37.09-.19.09-.19.09-.19.09-.09v-.19l.09-.09v-.19h.09v-.74l1.95,1.58.56.56.56.46.28.56.28.56.19.56.09.56-.09.46-.09.56-.19.46-.28.37-.37.46-.37.37-.46.28-.56.28-.46.19-.65.19v.65l-.09.56v1.11l-.09.46v1.67l-.09.28v1.11l.09.09v.14h-.05Zm.37-11.22l-.09.09v.09l-.09.09-.19.19-.09.19-.19.19-.09.28-.19.19-.19.28-.19.28-.09.19-.09.19-.09.28-.09.09v.28h.09v.09l.09.09h.19l.28.19.28.09h.28l.28-.09h.28l.19-.09.28-.19.19-.19.19-.19.19-.19.09-.28.09-.19v-.83l-.09-.28h-.09l-.09-.09v-.19l-.09-.09h-.09l-.09-.09v-.09h-.09l-.09-.09-.09-.09h-.19l-.09-.09h-.19Z"/><path class="cls-2" d="m74.44,147.47l-.28-.09h-.19l-.28-.09-.19-.19-.28-.19-.19-.09-.19-.19-.19-.28-.09-.19-.19-.28-.19-.28-.09-.28-.09-.37-.19-.28-.09-.37v-.37l-.09-.37-.09-.37-.09-.37v-.65l-.09-.37v-1.85l.09-.28v-.28l.09-.28v-.28l.09-.46.19-.46.09-.46.09-.37.19-.37.19-.37.19-.28.19-.28.19-.28.28-.19.19-.19.28-.19.28-.09.28-.09.28-.09.28-.09.93.09.74.37.65.56.56.93.37,1.02.28,1.11.19,1.3v1.3l-.09,1.3-.19,1.2-.37,1.11-.46,1.02-.56.83-.65.56-.83.28-.93-.09h0Zm.28-10.61l-.28.19-.28.28-.19.46-.19.51-.19.56-.09.74-.09.74-.09.74v.83l.09.74v.74l.19.65.19.56.28.46.37.37.37.28.46-.19.37-.37.37-.46.19-.65.19-.74.09-.74.09-.83v-.83l-.09-.83-.09-.74-.19-.74-.19-.65-.28-.46-.28-.37-.37-.28-.37.05h0Z"/><path class="cls-2" d="m91.31,134.63v.37l.09.09v.46l.09.09v.37l.09.19v.19l.09.09v.28l.09.19.09.19.09.46.19.46.09.56.19.56.19.65.19.65.19.65.09.65.28.65.19.65.09.65.28.56.09.65.19.46.19.46.09.37v.09l.09.09h.09v.19h.09v.09h.09v.09l.09.09h.09l-2.36.19-.28-1.58-2.92.09-.46,1.85h-2.27l.09-.09.09-.09.09-.09.09-.09v-.09h.09v-.32h.09v-.19h.09v-.28l.09-.09,1.95-9.27v-.19l.09-.19v-1.3l-.09-.09v-.19l.09-.09h.09l.19-.09h.09l.19-.09h.46l.19-.09h.09l.09.09h.37l.05.05h0Zm-.56,5.05l-.93,3.75h.19l.19.09h1.11l.19-.09h.37l-1.11-3.75Z"/><path class="cls-2" d="m105.31,146.03l-2.73.19h.09v-.19h.09v-.19h.09v-1.95l-.09-.46v-.46l-.09-.46-.09-.65v-.65l-.09-.65-.09-.83-.09-.83-.09-.83-.19-1.02v-.65l-.09-.28v-.37l-.09-.28v-.19l-.09-.28v-.19l-.09-.28-.09-.19v-.19l-.09-.09v-.19l-.09-.09-.09-.09v-.05l1.3-.09,1.2-.09.83-.09.74.09.65.09.56.19.46.37.37.28.37.46.19.37.19.46.09.46.09.46v.46l-.09.46-.09.37-.09.37-.19.37-.09.09v.09l-.09.09-.09.09-.09.09v.19h-.09l-.09.09v.09l-.09.09-.09.09-.09.09.74,1.48,1.02,2.73.09.09v.09l.09.09v.09l.09.09.09.19v.09l.09.09v.09l.09.09.09.09v.09l.09.09.09.09h.09l-.09.09h-.32l-.19.09h-.56l-.19.09h-.37l-.19.09h-.65l-.19-.46-.09-.56-.09-.46-.19-.37-.09-.46-.19-.37-.19-.37-.09-.28-.19-.28-.09-.28-.19-.28-.19-.19-.19-.19-.19-.09-.09-.19-.28-.09v.09h-.09v2.6l.09.28v.56l.09.28.09.28.09.37v.19l.09.09v.19h.09v.19h.09v.09h.09,0Zm-1.53-10.84l.56,3.48h.83l.37-.19.28-.19.19-.28.09-.37.19-.28v-1.02l-.09-.37-.19-.28-.09-.19-.19-.19-.28-.19h-.28l-1.39.05Z"/><path class="cls-2" d="m130.61,119.34v-4.96l.19-.46.28-.46.37-.37.46-.37.46-.28.56-.19.56-.19.56-.09h.56l.56.19.56.19.56.37.46.46.37.56.28.74h.37l.09-.09h.28l.19-.09h.19l.19-.09h.19l.28-.09h.19l.28-.09.28-.09h.28l.19-.09h.09l.19-.09h.19l.19-.09h.28l.19-.09.19-.09h.19l.09-.09h.19l.09-.09.19-.09.09-.09.09-.09.09.09v2.5h-.28l-.19.09h-.46l-.28.09h-.19l-.28.09h-.37l-.28.09-.37.09-.37.09-.37.09-.37.09-.37.09h-.46l-.46.19v1.02h.74l.28.09h.83l.37.09h2.22l.28-.09h.19l.09-.09-.09,2.73-.09-.09h-.09v-.09h-.09v-.09h-.19v-.09h-.28v-.09h-.19l-9.36-.74h-.09l-.09-.09h-.83l-.09.09h-.09l-.09.09h-.19l-.09.09h0Zm3.06-5.42h-.09l-.09.09h-.19l-.09.09h-.19v.09h-.09l-.09.09h-.09v.09l-.09.09-.09.09-.09.09v.09l-.09.19v.28l-.09.19v1.02l.09.28v.28l.09.19v.28l3.11.09h.09v-.09l.09-.28v-1.58l-.09-.46-.19-.28-.09-.37-.28-.19-.28-.28-.37-.09h-.79Z"/><path class="cls-2" d="m106.6,35.09l-2.83-.83-.09-.37-.19-.37-.09-.37-.09-.28-.09-.28v-.28l-.09-.37-.09-.28-.09-.28v-.37l-.09-.37-.19-.28-.09-.46-.09-.37-.19-.46-.19-.56-.09-.09h-.28l-.19-.09h-.28l-.09-.09h-.51v.09h-.09l.09,5.05-2.55-.56.37-.56v-.09h.09s0-.09,0-.09v-.19l.09-9.36v-.28l-.09-.09v-.37l-.09-.09v-.19l-.09-.09-.09-.09v-.09l-.09-.09v-.09l-.09-.09h.56l.19.09h.46l.28.09h.65l.28.09.37.09.37.09h.37l.37.09.46.09h.46l.56.19.65.19.46.28.46.28.37.37.28.46.28.46.09.46.09.56v.46l-.19.56-.09.46-.28.56-.37.46-.46.56-.56.37.09.46.09.46.09.37.09.37v.37l.09.37.09.37.09.28.19.28.09.37.09.28.19.37.09.28.09.28.19.28.19.37.6,1.25Zm-6.02-12.1v3.29h.28l.09.09h2.13l.19-.09h.19l.09-.09.19-.09.09-.19.09-.19.09-.19.09-.19v-.28l.09-.19-.09-.28v-.19l-.09-.28-.09-.19-.19-.19-.19-.19-.19-.19h-.09l-.09-.09h-.09l-.19-.09h-.28l-.19-.09h-.28l-.19-.09h-.46l-.28-.09h-.65v.05Z"/><path class="cls-2" d="m37.74,38.38h.09l.09-.09v-.19l.09-.09v-.09l.09-.09v-.56l.09-10.57v-.19l-.09-.09v-.19l-.09-.09v-.19h-.19l-.09-.09h-.09l-.09-.09h-.19l-.09-.09.65-.19.56-.19.56-.19.46-.19.46-.19.46-.09.46-.19.37-.09.37-.09h.37l.28-.09h1.58l.28.09.28.19.28.19.28.28.19.19.19.37.19.28.09.37v1.2l-.09.37-.19.46-.19.37-.28.46-.37.37-.93.65v.19l.09.19.09.28.09.28.09.37.19.37.19.37.19.46.19.37.28.46.19.46.19.46.28.46.28.37.19.37-2.13.74-.09-.28-.09-.37v-.28l-.19-.28-.09-.37-.09-.28-.09-.37-.19-.28-.09-.37-.19-.28-.19-.37-.19-.37-.19-.37-.28-.28-.19-.37-.28-.37h-.37l-.19.09h-.09l-.19.09h-.09l-.19.09h-.09l-.09.09-.09.09-.09.09h-.09v.09l.09,6.07-.09.05h-.19l-.09.09-.19.09-.09.09h-.19l-.19.09-.19.09h-.19l-.19.09h-.19l-.09.09h-.46Zm5.24-12.28h-.83l-.19.09h-.37l-.19.09h-.19l-.19.09-.19.09h-.19l-.19.09-.19.09-.19.19-.19.09v2.13l.09.09h.65l.19-.09h.28l.19-.09h.28l.19-.09.19-.09.19-.09.19-.09h.19l.09-.09.09-.09.28-.19.19-.19.09-.09.19-.28v-.09l.09-.28v-.65l-.09-.19-.09-.09-.09-.09-.09-.09-.09-.09h-.09Z"/><path class="cls-2" d="m32.08,41.39h-1.48l-.19-.09-.28-.09-.19-.09-.19-.09-.19-.09-.28-.19-.19-.09-.19-.19-.19-.19-.19-.19-.09-.19-.09-.19-.09-.09-.09-.19-.09-.19-.09-.19-.09-.28-.09-.19-.09-.19-.09-.28v-.28l-.09-.19v-.28l-.09-.28v-.56l-.09-1.85.09-1.67.28-1.39.46-1.2.56-1.02.74-.74.74-.65.74-.37.83-.09h.83l.74.28.74.46.65.65.56.93.46,1.02.28,1.3v1.85l-.09.74v.65l-.09.74-.19.83-.28.74-.19.74-.37.65-.37.65-.46.56-.56.46-.65.28-.74.28Zm.28-11.63l-.74-.09-.65.19-.56.37-.37.56-.37.65-.28.83-.19.83-.09,1.02v1.85l.19.93.19.83.28.74.37.65.46.37.46.28h.65l.46-.19.56-.37.37-.56.37-.65.28-.74.28-.93.09-.93.09-.93v-.93l-.09-.83-.19-.83-.28-.74-.37-.65-.46-.46-.46-.28Z"/></svg>