<?xml version="1.0" encoding="UTF-8"?><svg id="b.4.7a" xmlns="http://www.w3.org/2000/svg" viewBox="0 0 394 40"><defs><style>.cls-1{fill:none;stroke:#000;stroke-miterlimit:10;}</style></defs><path d="m120.49,15.44l1.2.18c.05.37.19.64.42.81.31.23.72.34,1.25.34.57,0,1.01-.11,1.32-.34s.52-.55.63-.96c.06-.25.09-.78.09-1.58-.54.63-1.21.95-2.01.95-1,0-1.77-.36-2.32-1.08s-.82-1.58-.82-2.59c0-.69.13-1.33.38-1.92s.61-1.04,1.09-1.36,1.04-.48,1.68-.48c.86,0,1.56.35,2.12,1.04v-.88h1.13v6.28c0,1.13-.12,1.93-.35,2.4s-.59.84-1.09,1.12-1.11.41-1.84.41c-.87,0-1.57-.19-2.1-.58s-.79-.98-.77-1.76Zm1.02-4.36c0,.95.19,1.65.57,2.08s.85.66,1.42.66,1.04-.22,1.42-.65.57-1.12.57-2.05-.2-1.56-.59-2.01-.87-.68-1.43-.68-1.01.22-1.39.67-.57,1.1-.57,1.98Z"/><path d="m117.74,32.18l1.21.16c-.13.83-.47,1.49-1.02,1.96-.54.47-1.21.71-2.01.71-.99,0-1.79-.33-2.4-.97-.6-.65-.91-1.58-.91-2.79,0-.78.13-1.47.39-2.06s.66-1.03,1.19-1.32c.53-.29,1.11-.44,1.73-.44.79,0,1.43.2,1.93.6.5.4.82.96.96,1.7l-1.2.18c-.11-.49-.32-.85-.6-1.1s-.64-.37-1.05-.37c-.62,0-1.12.22-1.51.67-.39.44-.58,1.15-.58,2.11s.19,1.68.56,2.13.86.66,1.46.66c.48,0,.89-.15,1.21-.44s.53-.75.62-1.37Z"/><path d="m120,34.84v-7.26h1.1v1.02c.23-.36.53-.64.91-.86.38-.22.81-.33,1.29-.33.54,0,.98.11,1.32.33s.59.54.73.94c.57-.85,1.32-1.27,2.24-1.27.72,0,1.27.2,1.66.6.39.4.58,1.01.58,1.84v4.98h-1.22v-4.57c0-.49-.04-.85-.12-1.06-.08-.22-.22-.39-.43-.52s-.46-.2-.74-.2c-.51,0-.93.17-1.27.51-.34.34-.51.88-.51,1.63v4.22h-1.23v-4.72c0-.55-.1-.96-.3-1.23s-.53-.41-.98-.41c-.35,0-.67.09-.96.27s-.51.45-.64.8-.2.86-.2,1.52v3.77h-1.23Z"/><path d="m131.09,28.63l.72-.1c.08.41.22.7.42.88.2.18.44.27.72.27.34,0,.62-.12.85-.35s.35-.52.35-.87-.11-.6-.32-.81c-.21-.21-.49-.32-.82-.32-.14,0-.3.03-.51.08l.08-.63s.09,0,.12,0c.31,0,.58-.08.83-.24.24-.16.37-.41.37-.74,0-.26-.09-.48-.27-.65-.18-.17-.41-.26-.69-.26s-.51.09-.7.26c-.19.17-.31.44-.36.79l-.72-.13c.09-.48.29-.85.6-1.12.31-.26.7-.4,1.16-.4.32,0,.61.07.88.21s.47.32.62.56c.14.24.21.49.21.75s-.07.48-.2.69c-.14.21-.34.37-.6.49.35.08.61.25.81.5s.29.57.29.94c0,.51-.19.94-.56,1.3-.37.36-.84.53-1.41.53-.51,0-.94-.15-1.28-.46-.34-.31-.53-.7-.58-1.19Z"/><line class="cls-1" x1="112" y1="20.5" x2="134" y2="20.5"/><path d="m375.22,14.84V4.82h1.23v5.71l2.91-2.95h1.59l-2.78,2.69,3.06,4.57h-1.52l-2.4-3.71-.87.83v2.88h-1.23Z"/><path d="m381.99,15.44l1.2.18c.05.37.19.64.42.81.3.23.72.34,1.25.34.57,0,1.01-.11,1.32-.34s.52-.55.63-.96c.06-.25.09-.78.09-1.58-.54.63-1.21.95-2.01.95-1,0-1.77-.36-2.32-1.08s-.82-1.58-.82-2.59c0-.69.12-1.33.38-1.92s.61-1.04,1.09-1.36c.48-.32,1.04-.48,1.68-.48.86,0,1.56.35,2.12,1.04v-.88h1.13v6.28c0,1.13-.12,1.93-.35,2.4-.23.47-.59.84-1.09,1.12-.5.27-1.11.41-1.84.41-.87,0-1.57-.19-2.1-.58s-.79-.98-.77-1.76Zm1.02-4.36c0,.95.19,1.65.57,2.08s.85.66,1.42.66,1.04-.22,1.42-.65.57-1.12.57-2.05-.2-1.56-.59-2.01c-.39-.45-.87-.68-1.42-.68s-1.01.22-1.39.67-.57,1.1-.57,1.98Z"/><path d="m374.5,34.84v-7.26h1.1v1.02c.23-.36.53-.64.91-.86.38-.22.81-.33,1.29-.33.54,0,.98.11,1.32.33s.59.54.73.94c.57-.85,1.32-1.27,2.24-1.27.72,0,1.27.2,1.66.6.39.4.58,1.01.58,1.84v4.98h-1.22v-4.57c0-.49-.04-.85-.12-1.06-.08-.22-.22-.39-.43-.52-.21-.13-.46-.2-.74-.2-.51,0-.93.17-1.27.51-.34.34-.51.88-.51,1.63v4.22h-1.23v-4.72c0-.55-.1-.96-.3-1.23-.2-.27-.53-.41-.98-.41-.35,0-.67.09-.96.27s-.51.45-.64.8c-.13.35-.2.86-.2,1.52v3.77h-1.23Z"/><path d="m385.59,28.63l.72-.1c.08.41.22.7.42.88.2.18.44.27.72.27.34,0,.62-.12.86-.35s.35-.52.35-.87-.11-.6-.32-.81c-.21-.21-.49-.32-.82-.32-.14,0-.3.03-.51.08l.08-.63s.09,0,.12,0c.31,0,.58-.08.83-.24.24-.16.37-.41.37-.74,0-.26-.09-.48-.27-.65s-.41-.26-.69-.26-.51.09-.7.26-.31.44-.36.79l-.72-.13c.09-.48.29-.85.6-1.12.31-.26.7-.4,1.16-.4.32,0,.61.07.88.21.27.14.47.32.62.56.14.24.21.49.21.75s-.07.48-.2.69c-.13.21-.34.37-.6.49.35.08.61.25.8.5s.29.57.29.94c0,.51-.19.94-.56,1.3-.37.36-.84.53-1.41.53-.51,0-.94-.15-1.28-.46-.34-.31-.53-.7-.58-1.19Z"/><line class="cls-1" x1="374" y1="20.5" x2="389" y2="20.5"/><path d="m234.16,14.84h-1.23v-7.84c-.3.28-.68.56-1.17.85-.48.28-.91.49-1.29.64v-1.19c.69-.32,1.29-.72,1.8-1.18s.88-.91,1.09-1.34h.79v10.06Z"/><path d="m237.97,14.84v-1.4h1.4v1.4c0,.52-.09.93-.27,1.25s-.47.56-.87.73l-.34-.53c.26-.11.45-.28.57-.5s.19-.54.21-.95h-.7Z"/><path d="m241.2,9.9c0-1.19.12-2.14.37-2.86.24-.72.61-1.28,1.09-1.67.48-.39,1.09-.59,1.81-.59.54,0,1.01.11,1.42.32s.74.53,1,.94.47.9.62,1.49.23,1.38.23,2.37c0,1.18-.12,2.12-.36,2.85s-.6,1.28-1.08,1.67c-.48.39-1.09.59-1.82.59-.97,0-1.72-.35-2.28-1.04-.66-.83-.99-2.19-.99-4.07Zm1.26,0c0,1.65.19,2.74.58,3.28.39.54.86.82,1.43.82s1.04-.27,1.43-.82c.38-.55.58-1.64.58-3.28s-.19-2.75-.58-3.29c-.39-.54-.87-.81-1.44-.81s-1.02.24-1.35.72c-.42.61-.64,1.74-.64,3.38Z"/><path d="m248.98,9.9c0-1.19.12-2.14.37-2.86.24-.72.61-1.28,1.09-1.67.48-.39,1.09-.59,1.82-.59.54,0,1.01.11,1.42.32s.74.53,1,.94.47.9.62,1.49.23,1.38.23,2.37c0,1.18-.12,2.12-.36,2.85s-.6,1.28-1.08,1.67c-.48.39-1.09.59-1.82.59-.97,0-1.73-.35-2.28-1.04-.66-.83-.99-2.19-.99-4.07Zm1.26,0c0,1.65.19,2.74.58,3.28.38.54.86.82,1.42.82s1.04-.27,1.42-.82c.39-.55.58-1.64.58-3.28s-.19-2.75-.58-3.29c-.38-.54-.86-.81-1.44-.81s-1.02.24-1.35.72c-.42.61-.64,1.74-.64,3.38Z"/><path d="m256.77,9.9c0-1.19.12-2.14.37-2.86.24-.72.61-1.28,1.09-1.67.48-.39,1.09-.59,1.81-.59.54,0,1.01.11,1.42.32s.74.53,1,.94.47.9.62,1.49.23,1.38.23,2.37c0,1.18-.12,2.12-.36,2.85s-.6,1.28-1.08,1.67c-.48.39-1.09.59-1.82.59-.97,0-1.72-.35-2.28-1.04-.66-.83-.99-2.19-.99-4.07Zm1.26,0c0,1.65.19,2.74.58,3.28.39.54.86.82,1.43.82s1.04-.27,1.43-.82c.38-.55.58-1.64.58-3.28s-.19-2.75-.58-3.29c-.39-.54-.87-.81-1.44-.81s-1.02.24-1.35.72c-.42.61-.64,1.74-.64,3.38Z"/><path d="m265.22,14.84v-1.4h1.4v1.4c0,.52-.09.93-.27,1.25s-.47.56-.87.73l-.34-.53c.26-.11.45-.28.57-.5s.19-.54.21-.95h-.7Z"/><path d="m268.45,9.9c0-1.19.12-2.14.37-2.86.24-.72.61-1.28,1.09-1.67.48-.39,1.09-.59,1.81-.59.54,0,1.01.11,1.42.32s.74.53,1,.94.47.9.62,1.49.23,1.38.23,2.37c0,1.18-.12,2.12-.36,2.85s-.6,1.28-1.08,1.67c-.48.39-1.09.59-1.82.59-.97,0-1.72-.35-2.28-1.04-.66-.83-.99-2.19-.99-4.07Zm1.26,0c0,1.65.19,2.74.58,3.28.39.54.86.82,1.43.82s1.04-.27,1.43-.82c.38-.55.58-1.64.58-3.28s-.19-2.75-.58-3.29c-.39-.54-.87-.81-1.44-.81s-1.02.24-1.35.72c-.42.61-.64,1.74-.64,3.38Z"/><path d="m276.23,9.9c0-1.19.12-2.14.37-2.86.24-.72.61-1.28,1.09-1.67.48-.39,1.09-.59,1.82-.59.54,0,1.01.11,1.42.32s.74.53,1,.94.47.9.62,1.49.23,1.38.23,2.37c0,1.18-.12,2.12-.36,2.85s-.6,1.28-1.08,1.67c-.48.39-1.09.59-1.82.59-.97,0-1.73-.35-2.28-1.04-.66-.83-.99-2.19-.99-4.07Zm1.26,0c0,1.65.19,2.74.58,3.28.38.54.86.82,1.42.82s1.04-.27,1.42-.82c.39-.55.58-1.64.58-3.28s-.19-2.75-.58-3.29c-.38-.54-.86-.81-1.44-.81s-1.02.24-1.35.72c-.42.61-.64,1.74-.64,3.38Z"/><path d="m284.02,9.9c0-1.19.12-2.14.37-2.86.24-.72.61-1.28,1.09-1.67.48-.39,1.09-.59,1.81-.59.54,0,1.01.11,1.42.32s.74.53,1,.94.47.9.62,1.49.23,1.38.23,2.37c0,1.18-.12,2.12-.36,2.85s-.6,1.28-1.08,1.67c-.48.39-1.09.59-1.82.59-.97,0-1.72-.35-2.28-1.04-.66-.83-.99-2.19-.99-4.07Zm1.26,0c0,1.65.19,2.74.58,3.28.39.54.86.82,1.43.82s1.04-.27,1.43-.82c.38-.55.58-1.64.58-3.28s-.19-2.75-.58-3.29c-.39-.54-.87-.81-1.44-.81s-1.02.24-1.35.72c-.42.61-.64,1.74-.64,3.38Z"/><path d="m296.88,12.18l1.21.16c-.13.83-.47,1.49-1.01,1.96-.54.47-1.21.71-2.01.71-.99,0-1.79-.32-2.4-.97-.6-.65-.91-1.58-.91-2.79,0-.78.13-1.47.39-2.06s.66-1.03,1.19-1.32c.53-.29,1.11-.44,1.73-.44.79,0,1.43.2,1.93.6s.82.96.96,1.7l-1.2.18c-.11-.49-.32-.85-.6-1.1-.29-.25-.64-.37-1.05-.37-.62,0-1.12.22-1.51.67s-.58,1.15-.58,2.11.19,1.68.56,2.13.86.66,1.46.66c.48,0,.89-.15,1.21-.44s.53-.75.62-1.37Z"/><path d="m299.15,14.84v-7.26h1.1v1.02c.23-.36.53-.64.91-.86s.81-.32,1.29-.32c.54,0,.98.11,1.32.33.34.22.59.54.73.94.57-.85,1.32-1.27,2.24-1.27.72,0,1.27.2,1.66.6s.58,1.01.58,1.84v4.98h-1.22v-4.57c0-.49-.04-.85-.12-1.06-.08-.22-.22-.39-.43-.52s-.46-.2-.74-.2c-.51,0-.93.17-1.27.51s-.51.88-.51,1.63v4.22h-1.23v-4.72c0-.55-.1-.96-.3-1.23s-.53-.41-.98-.41c-.35,0-.67.09-.96.27-.29.18-.51.45-.64.8s-.2.86-.2,1.52v3.77h-1.23Z"/><path d="m310.23,8.63l.72-.1c.08.41.22.7.42.88s.44.27.72.27c.34,0,.62-.12.85-.35s.35-.52.35-.87-.11-.6-.32-.82c-.21-.21-.49-.32-.82-.32-.13,0-.3.03-.51.08l.08-.63s.09,0,.12,0c.3,0,.58-.08.82-.24.24-.16.37-.41.37-.74,0-.26-.09-.48-.27-.65s-.41-.26-.69-.26-.51.09-.7.26-.3.44-.36.79l-.72-.13c.09-.48.29-.85.6-1.12.31-.26.7-.4,1.16-.4.32,0,.61.07.88.21s.47.32.62.56c.14.24.21.49.21.75s-.07.48-.2.69c-.14.21-.34.37-.6.49.35.08.61.25.81.5.19.25.29.56.29.94,0,.51-.19.94-.56,1.3-.37.35-.84.53-1.41.53-.51,0-.94-.15-1.28-.46-.34-.31-.53-.7-.58-1.19Z"/><path d="m264.9,34.84h-1.23v-7.84c-.3.28-.68.56-1.17.85-.48.28-.91.49-1.29.64v-1.19c.69-.32,1.29-.72,1.8-1.18s.88-.91,1.09-1.34h.79v10.06Z"/><path d="m268.4,34.84v-7.26h1.1v1.02c.23-.36.53-.64.91-.86.38-.22.81-.33,1.29-.33.54,0,.98.11,1.32.33.34.22.59.54.73.94.57-.85,1.32-1.27,2.24-1.27.72,0,1.27.2,1.66.6.39.4.58,1.01.58,1.84v4.98h-1.22v-4.57c0-.49-.04-.85-.12-1.06-.08-.22-.22-.39-.43-.52s-.46-.2-.74-.2c-.51,0-.93.17-1.27.51-.34.34-.51.88-.51,1.63v4.22h-1.23v-4.72c0-.55-.1-.96-.3-1.23s-.53-.41-.98-.41c-.35,0-.67.09-.96.27-.29.18-.51.45-.64.8s-.2.86-.2,1.52v3.77h-1.23Z"/><path d="m279.48,28.63l.72-.1c.08.41.22.7.42.88.2.18.44.27.72.27.34,0,.62-.12.85-.35s.35-.52.35-.87-.11-.6-.32-.81c-.21-.21-.49-.32-.82-.32-.13,0-.3.03-.51.08l.08-.63s.09,0,.12,0c.3,0,.58-.08.82-.24.24-.16.37-.41.37-.74,0-.26-.09-.48-.27-.65s-.41-.26-.69-.26-.51.09-.7.26-.3.44-.36.79l-.72-.13c.09-.48.29-.85.6-1.12.31-.26.7-.4,1.16-.4.32,0,.61.07.88.21s.47.32.62.56c.14.24.21.49.21.75s-.07.48-.2.69c-.14.21-.34.37-.6.49.35.08.61.25.81.5s.29.57.29.94c0,.51-.19.94-.56,1.3-.37.36-.84.53-1.41.53-.51,0-.94-.15-1.28-.46-.34-.31-.53-.7-.58-1.19Z"/><line class="cls-1" x1="230" y1="20.5" x2="314" y2="20.5"/><path d="m16.72,6.13v-1.18h6.49v.96c-.64.68-1.27,1.58-1.9,2.71s-1.11,2.28-1.45,3.47c-.25.84-.4,1.76-.47,2.75h-1.26c.01-.79.17-1.74.46-2.86s.72-2.19,1.27-3.23,1.14-1.91,1.77-2.62h-4.91Z"/><path d="m24.43,9.9c0-1.19.12-2.14.37-2.86s.61-1.28,1.09-1.67,1.09-.59,1.81-.59c.54,0,1.01.11,1.42.32s.74.53,1,.94.47.9.62,1.49.23,1.38.23,2.37c0,1.18-.12,2.12-.36,2.85s-.6,1.28-1.08,1.67-1.09.59-1.82.59c-.97,0-1.73-.35-2.28-1.04-.66-.83-.99-2.19-.99-4.07Zm1.26,0c0,1.65.19,2.74.58,3.28s.86.82,1.43.82,1.04-.27,1.43-.82.58-1.64.58-3.28-.19-2.75-.58-3.29-.86-.81-1.44-.81-1.02.24-1.35.72c-.42.61-.64,1.74-.64,3.38Z"/><path d="m36.22,15.44l1.2.18c.05.37.19.64.42.81.31.23.72.34,1.25.34.57,0,1.01-.11,1.32-.34s.52-.55.63-.96c.06-.25.09-.78.09-1.58-.54.63-1.21.95-2.01.95-1,0-1.77-.36-2.32-1.08s-.82-1.58-.82-2.59c0-.69.13-1.33.38-1.92s.61-1.04,1.09-1.36,1.04-.48,1.68-.48c.86,0,1.56.35,2.12,1.04v-.88h1.13v6.28c0,1.13-.12,1.93-.35,2.4s-.59.84-1.09,1.12-1.11.41-1.84.41c-.87,0-1.57-.19-2.1-.58s-.79-.98-.77-1.76Zm1.02-4.36c0,.95.19,1.65.57,2.08s.85.66,1.42.66,1.04-.22,1.42-.65.57-1.12.57-2.05-.2-1.56-.59-2.01-.87-.68-1.43-.68-1.01.22-1.39.67-.57,1.1-.57,1.98Z"/><path d="m11.51,33.66v1.18h-6.62c0-.3.04-.58.14-.85.17-.45.44-.9.81-1.33s.91-.94,1.61-1.52c1.09-.89,1.83-1.6,2.21-2.12.38-.52.57-1.02.57-1.48,0-.49-.17-.9-.52-1.23-.35-.33-.8-.5-1.36-.5-.59,0-1.07.18-1.42.53s-.54.85-.54,1.48l-1.26-.13c.09-.94.41-1.66.98-2.16.56-.49,1.32-.74,2.28-.74s1.72.27,2.28.8.84,1.19.84,1.98c0,.4-.08.79-.25,1.18s-.44.8-.82,1.22-1.01,1.02-1.9,1.76c-.74.62-1.21,1.04-1.42,1.26-.21.22-.38.44-.52.67h4.92Z"/><path d="m12.82,32.21l1.29-.11c.1.63.32,1.1.67,1.42.35.32.77.47,1.26.47.59,0,1.09-.22,1.5-.67s.62-1.04.62-1.78-.2-1.26-.59-1.66-.91-.61-1.55-.61c-.4,0-.75.09-1.07.27-.32.18-.57.41-.75.7l-1.16-.15.97-5.15h4.98v1.18h-4l-.54,2.69c.6-.42,1.23-.63,1.89-.63.88,0,1.61.3,2.21.91s.9,1.38.9,2.34-.26,1.69-.79,2.35c-.64.81-1.52,1.22-2.63,1.22-.91,0-1.66-.26-2.23-.77s-.91-1.19-.99-2.03Z"/><path d="m20.61,29.9c0-1.19.12-2.14.37-2.86.24-.72.61-1.28,1.09-1.67s1.09-.59,1.81-.59c.54,0,1.01.11,1.42.33.41.22.74.53,1,.94.26.41.47.91.62,1.49.15.59.23,1.38.23,2.37,0,1.18-.12,2.12-.36,2.85-.24.72-.6,1.28-1.08,1.67-.48.39-1.09.59-1.82.59-.97,0-1.73-.35-2.28-1.04-.66-.83-.99-2.19-.99-4.07Zm1.26,0c0,1.64.19,2.74.58,3.29.39.54.86.82,1.43.82s1.04-.27,1.43-.82.58-1.64.58-3.28-.19-2.75-.58-3.29-.86-.81-1.44-.81-1.02.24-1.35.72c-.42.61-.64,1.74-.64,3.38Z"/><path d="m37.37,32.18l1.21.16c-.13.83-.47,1.49-1.02,1.96-.54.47-1.21.71-2.01.71-.99,0-1.79-.33-2.4-.97-.6-.65-.91-1.58-.91-2.79,0-.78.13-1.47.39-2.06s.66-1.03,1.19-1.32c.53-.29,1.11-.44,1.73-.44.79,0,1.43.2,1.93.6.5.4.82.96.96,1.7l-1.2.18c-.11-.49-.32-.85-.6-1.1s-.64-.37-1.05-.37c-.62,0-1.12.22-1.51.67-.39.44-.58,1.15-.58,2.11s.19,1.68.56,2.13.86.66,1.46.66c.48,0,.89-.15,1.21-.44s.53-.75.62-1.37Z"/><path d="m39.63,34.84v-7.26h1.1v1.02c.23-.36.53-.64.91-.86.38-.22.81-.33,1.29-.33.54,0,.98.11,1.32.33s.59.54.73.94c.57-.85,1.32-1.27,2.24-1.27.72,0,1.27.2,1.66.6.39.4.58,1.01.58,1.84v4.98h-1.22v-4.57c0-.49-.04-.85-.12-1.06-.08-.22-.22-.39-.43-.52s-.46-.2-.74-.2c-.51,0-.93.17-1.27.51-.34.34-.51.88-.51,1.63v4.22h-1.23v-4.72c0-.55-.1-.96-.3-1.23s-.53-.41-.98-.41c-.35,0-.67.09-.96.27s-.51.45-.64.8-.2.86-.2,1.52v3.77h-1.23Z"/><path d="m50.71,28.63l.72-.1c.08.41.22.7.42.88.2.18.44.27.72.27.34,0,.62-.12.85-.35s.35-.52.35-.87-.11-.6-.32-.81c-.21-.21-.49-.32-.82-.32-.14,0-.3.03-.51.08l.08-.63s.09,0,.12,0c.31,0,.58-.08.83-.24.24-.16.37-.41.37-.74,0-.26-.09-.48-.27-.65-.18-.17-.41-.26-.69-.26s-.51.09-.7.26c-.19.17-.31.44-.36.79l-.72-.13c.09-.48.29-.85.6-1.12.31-.26.7-.4,1.16-.4.32,0,.61.07.88.21s.47.32.62.56c.14.24.21.49.21.75s-.07.48-.2.69c-.14.21-.34.37-.6.49.35.08.61.25.81.5s.29.57.29.94c0,.51-.19.94-.56,1.3-.37.36-.84.53-1.41.53-.51,0-.94-.15-1.28-.46-.34-.31-.53-.7-.58-1.19Z"/><line class="cls-1" x1="3" y1="20.5" x2="51" y2="20.5"/><path d="m69.68,18.33h-6.62v-1.15h6.62v1.15Zm0,3.04h-6.62v-1.15h6.62v1.15Z"/><path d="m78.82,19.28c0-1.19.12-2.14.37-2.86.24-.72.61-1.28,1.09-1.67.48-.39,1.09-.59,1.82-.59.54,0,1.01.11,1.42.32s.74.53,1,.94.47.9.62,1.49.23,1.38.23,2.37c0,1.18-.12,2.12-.36,2.85-.24.72-.6,1.28-1.08,1.67-.48.39-1.09.59-1.82.59-.97,0-1.72-.35-2.28-1.04-.66-.83-.99-2.19-.99-4.07Zm1.26,0c0,1.65.19,2.74.58,3.29.38.54.86.82,1.42.82s1.04-.27,1.42-.82c.39-.55.58-1.64.58-3.28s-.19-2.75-.58-3.29c-.38-.54-.86-.81-1.44-.81s-1.02.24-1.35.72c-.42.61-.64,1.74-.64,3.38Z"/><path d="m87.3,24.22v-1.4h1.4v1.4h-1.4Z"/><path d="m96.96,23.04v1.18h-6.62c0-.3.04-.58.14-.85.17-.45.44-.9.81-1.33.37-.44.91-.94,1.61-1.52,1.09-.89,1.83-1.6,2.21-2.12s.57-1.02.57-1.48c0-.49-.17-.9-.52-1.23-.35-.33-.8-.5-1.36-.5-.59,0-1.07.18-1.42.53s-.54.85-.54,1.48l-1.26-.13c.09-.94.41-1.66.98-2.16s1.32-.74,2.28-.74,1.72.27,2.28.8.84,1.19.84,1.98c0,.4-.08.8-.25,1.18s-.44.8-.82,1.22c-.38.43-1.01,1.02-1.9,1.76-.74.62-1.21,1.04-1.42,1.26-.21.22-.38.44-.52.67h4.92Z"/><path d="m100.18,18.79c-.51-.19-.89-.45-1.13-.8s-.37-.76-.37-1.24c0-.73.26-1.34.79-1.84s1.22-.75,2.09-.75,1.58.25,2.11.76.8,1.13.8,1.86c0,.46-.12.87-.37,1.21-.24.34-.61.61-1.11.8.62.2,1.08.52,1.41.97.32.45.48.98.48,1.6,0,.86-.3,1.58-.91,2.16-.61.58-1.4.88-2.39.88s-1.79-.29-2.39-.88c-.61-.59-.91-1.32-.91-2.19,0-.65.17-1.2.5-1.64.33-.44.8-.74,1.41-.9Zm-.64,2.54c0,.35.08.69.25,1.02.17.33.41.58.74.76.33.18.68.27,1.06.27.59,0,1.07-.19,1.46-.57.38-.38.57-.86.57-1.44s-.2-1.08-.59-1.47c-.39-.39-.89-.58-1.48-.58s-1.06.19-1.44.57c-.38.38-.57.86-.57,1.44Zm.4-4.63c0,.47.15.86.46,1.16s.7.45,1.19.45.86-.15,1.17-.45c.3-.3.46-.66.46-1.1s-.16-.83-.47-1.14c-.31-.31-.7-.46-1.17-.46s-.86.15-1.17.45-.46.66-.46,1.08Z"/><path d="m175.61,14.84h-1.23v-7.84c-.3.28-.68.56-1.17.85s-.91.49-1.3.64v-1.19c.69-.32,1.29-.72,1.8-1.18s.88-.91,1.09-1.34h.79v10.06Z"/><path d="m179.11,14.84V4.82h1.23v5.71l2.91-2.95h1.59l-2.78,2.69,3.06,4.57h-1.52l-2.4-3.71-.87.83v2.88h-1.23Z"/><path d="m185.88,15.44l1.2.18c.05.37.19.64.42.81.31.23.72.34,1.25.34.57,0,1.01-.11,1.32-.34s.52-.55.63-.96c.06-.25.09-.78.09-1.58-.54.63-1.21.95-2.01.95-1,0-1.77-.36-2.32-1.08s-.82-1.58-.82-2.59c0-.69.13-1.33.38-1.92s.61-1.04,1.09-1.36,1.04-.48,1.68-.48c.86,0,1.56.35,2.12,1.04v-.88h1.13v6.28c0,1.13-.12,1.93-.35,2.4s-.59.84-1.09,1.12-1.11.41-1.84.41c-.87,0-1.57-.19-2.1-.58s-.79-.98-.77-1.76Zm1.02-4.36c0,.95.19,1.65.57,2.08s.85.66,1.42.66,1.04-.22,1.42-.65.57-1.12.57-2.05-.2-1.56-.59-2.01-.87-.68-1.43-.68-1.01.22-1.39.67-.57,1.1-.57,1.98Z"/><path d="m167.43,34.84h-1.23v-7.84c-.3.28-.68.56-1.17.85s-.91.49-1.3.64v-1.19c.69-.32,1.29-.72,1.8-1.18s.88-.91,1.09-1.34h.79v10.06Z"/><path d="m170.58,29.9c0-1.19.12-2.14.37-2.86.24-.72.61-1.28,1.09-1.67s1.09-.59,1.81-.59c.54,0,1.01.11,1.42.33.41.22.74.53,1,.94.26.41.47.91.62,1.49.15.59.23,1.38.23,2.37,0,1.18-.12,2.12-.36,2.85-.24.72-.6,1.28-1.08,1.67-.48.39-1.09.59-1.82.59-.97,0-1.73-.35-2.28-1.04-.66-.83-.99-2.19-.99-4.07Zm1.26,0c0,1.64.19,2.74.58,3.29.39.54.86.82,1.43.82s1.04-.27,1.43-.82.58-1.64.58-3.28-.19-2.75-.58-3.29-.86-.81-1.44-.81-1.02.24-1.35.72c-.42.61-.64,1.74-.64,3.38Z"/><path d="m178.37,29.9c0-1.19.12-2.14.37-2.86.24-.72.61-1.28,1.09-1.67s1.09-.59,1.81-.59c.54,0,1.01.11,1.42.33.41.22.74.53,1,.94.26.41.47.91.62,1.49.15.59.23,1.38.23,2.37,0,1.18-.12,2.12-.36,2.85-.24.72-.6,1.28-1.08,1.67-.48.39-1.09.59-1.82.59-.97,0-1.73-.35-2.28-1.04-.66-.83-.99-2.19-.99-4.07Zm1.26,0c0,1.64.19,2.74.58,3.29.39.54.86.82,1.43.82s1.04-.27,1.43-.82.58-1.64.58-3.28-.19-2.75-.58-3.29-.86-.81-1.44-.81-1.02.24-1.35.72c-.42.61-.64,1.74-.64,3.38Z"/><path d="m186.16,29.9c0-1.19.12-2.14.37-2.86.24-.72.61-1.28,1.09-1.67s1.09-.59,1.81-.59c.54,0,1.01.11,1.42.33.41.22.74.53,1,.94.26.41.47.91.62,1.49.15.59.23,1.38.23,2.37,0,1.18-.12,2.12-.36,2.85-.24.72-.6,1.28-1.08,1.67-.48.39-1.09.59-1.82.59-.97,0-1.73-.35-2.28-1.04-.66-.83-.99-2.19-.99-4.07Zm1.26,0c0,1.64.19,2.74.58,3.29.39.54.86.82,1.43.82s1.04-.27,1.43-.82.58-1.64.58-3.28-.19-2.75-.58-3.29-.86-.81-1.44-.81-1.02.24-1.35.72c-.42.61-.64,1.74-.64,3.38Z"/><path d="m194.06,35.44l1.2.18c.05.37.19.64.42.81.31.23.72.34,1.25.34.57,0,1.01-.11,1.32-.34s.52-.55.63-.96c.06-.25.09-.78.09-1.58-.54.63-1.21.95-2.01.95-1,0-1.77-.36-2.32-1.08s-.82-1.58-.82-2.59c0-.69.13-1.33.38-1.92.25-.58.61-1.04,1.09-1.36s1.04-.48,1.68-.48c.86,0,1.56.35,2.12,1.04v-.88h1.13v6.28c0,1.13-.12,1.93-.35,2.4-.23.47-.59.84-1.09,1.12s-1.11.41-1.84.41c-.87,0-1.57-.2-2.1-.58-.53-.39-.79-.98-.77-1.76Zm1.02-4.36c0,.95.19,1.65.57,2.08s.85.66,1.42.66,1.04-.22,1.42-.65c.38-.44.57-1.12.57-2.05s-.2-1.56-.59-2.01-.87-.68-1.43-.68-1.01.22-1.39.67c-.38.45-.57,1.1-.57,1.98Z"/><line class="cls-1" x1="163" y1="20.5" x2="201" y2="20.5"/><path d="m145.39,24.22l2.65-3.77-2.45-3.49h1.54l1.11,1.7c.21.32.38.59.51.81.2-.3.38-.57.55-.8l1.22-1.72h1.47l-2.51,3.42,2.7,3.84h-1.51l-1.49-2.26-.4-.61-1.91,2.86h-1.49Z"/><path d="m211.39,24.22l2.65-3.77-2.45-3.49h1.54l1.11,1.7c.21.32.38.59.51.81.2-.3.38-.57.55-.8l1.22-1.72h1.47l-2.51,3.42,2.7,3.84h-1.51l-1.49-2.26-.4-.61-1.91,2.86h-1.49Z"/><path d="m335.68,18.33h-6.62v-1.15h6.62v1.15Zm0,3.04h-6.62v-1.15h6.62v1.15Z"/><path d="m351.29,23.04v1.18h-6.62c0-.3.04-.58.14-.85.17-.45.44-.9.81-1.33.37-.44.91-.94,1.61-1.52,1.09-.89,1.83-1.6,2.21-2.12s.57-1.02.57-1.48c0-.49-.17-.9-.52-1.23-.35-.33-.8-.5-1.36-.5-.59,0-1.07.18-1.42.53s-.54.85-.54,1.48l-1.26-.13c.09-.94.41-1.66.98-2.16s1.32-.74,2.28-.74,1.72.27,2.28.8.84,1.19.84,1.98c0,.4-.08.8-.25,1.18s-.44.8-.82,1.22c-.38.43-1.01,1.02-1.9,1.76-.74.62-1.21,1.04-1.42,1.26-.21.22-.38.44-.52.67h4.92Z"/><path d="m354.5,18.79c-.51-.19-.89-.45-1.13-.8s-.37-.76-.37-1.24c0-.73.26-1.34.79-1.84s1.22-.75,2.09-.75,1.58.25,2.11.76.8,1.13.8,1.86c0,.46-.12.87-.37,1.21-.24.34-.61.61-1.11.8.62.2,1.08.52,1.41.97.32.45.48.98.48,1.6,0,.86-.3,1.58-.91,2.16-.61.58-1.4.88-2.39.88s-1.79-.29-2.39-.88c-.61-.59-.91-1.32-.91-2.19,0-.65.17-1.2.5-1.64.33-.44.8-.74,1.41-.9Zm-.64,2.54c0,.35.08.69.25,1.02.17.33.41.58.74.76.33.18.68.27,1.06.27.59,0,1.07-.19,1.46-.57.38-.38.57-.86.57-1.44s-.2-1.08-.59-1.47c-.39-.39-.89-.58-1.48-.58s-1.06.19-1.44.57c-.38.38-.57.86-.57,1.44Zm.4-4.63c0,.47.15.86.46,1.16s.7.45,1.19.45.86-.15,1.17-.45c.3-.3.46-.66.46-1.1s-.16-.83-.47-1.14c-.31-.31-.7-.46-1.17-.46s-.86.15-1.17.45-.46.66-.46,1.08Z"/><path d="m360.39,19.28c0-1.19.12-2.14.37-2.86.24-.72.61-1.28,1.09-1.67.48-.39,1.09-.59,1.82-.59.54,0,1.01.11,1.42.32s.74.53,1,.94.47.9.62,1.49.23,1.38.23,2.37c0,1.18-.12,2.12-.36,2.85-.24.72-.6,1.28-1.08,1.67-.48.39-1.09.59-1.82.59-.97,0-1.72-.35-2.28-1.04-.66-.83-.99-2.19-.99-4.07Zm1.26,0c0,1.65.19,2.74.58,3.29.38.54.86.82,1.42.82s1.04-.27,1.42-.82c.39-.55.58-1.64.58-3.28s-.19-2.75-.58-3.29c-.38-.54-.86-.81-1.44-.81s-1.02.24-1.35.72c-.42.61-.64,1.74-.64,3.38Z"/></svg>