<?xml version="1.0" encoding="UTF-8"?><svg id="b.4.1c" xmlns="http://www.w3.org/2000/svg" viewBox="0 0 610 40"><defs><style>.cls-1{fill:none;stroke:#000;stroke-miterlimit:10;}</style></defs><path d="m330.94,13.84h-1.23v-7.84c-.3.28-.69.56-1.17.85s-.91.49-1.29.64v-1.19c.69-.32,1.29-.72,1.8-1.18.51-.46.88-.91,1.09-1.34h.79v10.06Z"/><path d="m339.46,13.84h-1.14V3.82h1.23v3.58c.52-.65,1.18-.98,1.99-.98.45,0,.87.09,1.27.27s.73.43.98.76.46.72.61,1.18c.15.46.22.95.22,1.48,0,1.24-.31,2.21-.92,2.88s-1.35,1.02-2.21,1.02-1.53-.36-2.02-1.07v.91Zm-.01-3.68c0,.87.12,1.5.36,1.89.39.63.91.95,1.57.95.54,0,1-.23,1.39-.7.39-.47.59-1.16.59-2.09s-.19-1.65-.56-2.1-.83-.68-1.36-.68-1,.23-1.39.7c-.39.47-.59,1.14-.59,2.03Z"/><path d="m350.85,12.94c-.46.39-.89.66-1.32.82s-.87.24-1.36.24c-.8,0-1.41-.19-1.84-.58-.43-.39-.64-.89-.64-1.49,0-.36.08-.68.24-.97s.37-.53.64-.71.56-.31.89-.4c.24-.06.61-.13,1.09-.18.99-.12,1.72-.26,2.19-.42,0-.17,0-.28,0-.32,0-.5-.12-.85-.35-1.06-.31-.28-.78-.42-1.4-.42-.58,0-1.01.1-1.28.3s-.48.56-.61,1.08l-1.2-.16c.11-.52.29-.93.54-1.25.25-.32.61-.56,1.09-.73.47-.17,1.02-.26,1.65-.26s1.12.07,1.51.22c.39.15.67.33.86.55.18.22.31.5.38.84.04.21.06.59.06,1.13v1.64c0,1.14.03,1.87.08,2.17s.16.59.31.87h-1.29c-.13-.26-.21-.55-.25-.9Zm-.1-2.75c-.45.18-1.12.34-2.01.46-.51.07-.86.15-1.07.25-.21.09-.37.22-.49.4-.11.18-.17.37-.17.58,0,.33.12.6.37.82s.61.33,1.09.33.89-.1,1.26-.31.64-.49.81-.85c.13-.28.2-.69.2-1.23v-.45Z"/><path d="m353.88,13.84v-7.26h1.11v1.1c.28-.52.54-.85.78-1.02s.5-.25.79-.25c.41,0,.84.13,1.26.4l-.42,1.14c-.3-.18-.6-.27-.9-.27-.27,0-.51.08-.72.24-.21.16-.37.39-.46.67-.14.44-.21.92-.21,1.44v3.8h-1.23Z"/><path d="m311.09,33.84h-1.23v-7.84c-.3.28-.68.56-1.17.85-.48.28-.91.49-1.29.64v-1.19c.69-.32,1.29-.72,1.8-1.18s.88-.91,1.09-1.34h.79v10.06Z"/><path d="m314.24,28.9c0-1.19.12-2.14.37-2.86.24-.72.61-1.28,1.09-1.67.48-.39,1.09-.59,1.82-.59.54,0,1.01.11,1.42.33.41.22.74.53,1,.94.26.41.47.91.62,1.49.15.59.23,1.38.23,2.37,0,1.18-.12,2.12-.36,2.85-.24.72-.6,1.28-1.08,1.67-.48.39-1.09.59-1.82.59-.97,0-1.73-.35-2.28-1.04-.66-.83-.99-2.19-.99-4.07Zm1.26,0c0,1.64.19,2.74.58,3.29.38.54.86.82,1.42.82s1.04-.27,1.42-.82c.39-.55.58-1.64.58-3.28s-.19-2.75-.58-3.29c-.38-.54-.86-.81-1.44-.81s-1.02.24-1.35.72c-.42.61-.64,1.74-.64,3.38Z"/><path d="m322.03,28.9c0-1.19.12-2.14.37-2.86.24-.72.61-1.28,1.09-1.67.48-.39,1.09-.59,1.81-.59.54,0,1.01.11,1.42.33.41.22.74.53,1,.94.26.41.47.91.62,1.49.15.59.23,1.38.23,2.37,0,1.18-.12,2.12-.36,2.85-.24.72-.6,1.28-1.08,1.67-.48.39-1.09.59-1.82.59-.97,0-1.72-.35-2.28-1.04-.66-.83-.99-2.19-.99-4.07Zm1.26,0c0,1.64.19,2.74.58,3.29.39.54.86.82,1.43.82s1.04-.27,1.43-.82c.38-.55.58-1.64.58-3.28s-.19-2.75-.58-3.29c-.39-.54-.87-.81-1.44-.81s-1.02.24-1.35.72c-.42.61-.64,1.74-.64,3.38Z"/><path d="m330.47,33.84v-1.4h1.4v1.4c0,.51-.09.93-.27,1.25-.18.32-.47.56-.87.74l-.34-.53c.26-.11.45-.28.57-.5.12-.22.19-.54.21-.95h-.7Z"/><path d="m333.7,28.9c0-1.19.12-2.14.37-2.86.24-.72.61-1.28,1.09-1.67.48-.39,1.09-.59,1.81-.59.54,0,1.01.11,1.42.33.41.22.74.53,1,.94.26.41.47.91.62,1.49.15.59.23,1.38.23,2.37,0,1.18-.12,2.12-.36,2.85-.24.72-.6,1.28-1.08,1.67-.48.39-1.09.59-1.82.59-.97,0-1.72-.35-2.28-1.04-.66-.83-.99-2.19-.99-4.07Zm1.26,0c0,1.64.19,2.74.58,3.29.39.54.86.82,1.43.82s1.04-.27,1.43-.82c.38-.55.58-1.64.58-3.28s-.19-2.75-.58-3.29c-.39-.54-.87-.81-1.44-.81s-1.02.24-1.35.72c-.42.61-.64,1.74-.64,3.38Z"/><path d="m341.49,28.9c0-1.19.12-2.14.37-2.86.24-.72.61-1.28,1.09-1.67.48-.39,1.09-.59,1.82-.59.54,0,1.01.11,1.42.33.41.22.74.53,1,.94.26.41.47.91.62,1.49.15.59.23,1.38.23,2.37,0,1.18-.12,2.12-.36,2.85-.24.72-.6,1.28-1.08,1.67-.48.39-1.09.59-1.82.59-.97,0-1.73-.35-2.28-1.04-.66-.83-.99-2.19-.99-4.07Zm1.26,0c0,1.64.19,2.74.58,3.29.38.54.86.82,1.42.82s1.04-.27,1.42-.82c.39-.55.58-1.64.58-3.28s-.19-2.75-.58-3.29c-.38-.54-.86-.81-1.44-.81s-1.02.24-1.35.72c-.42.61-.64,1.74-.64,3.38Z"/><path d="m349.27,28.9c0-1.19.12-2.14.37-2.86.24-.72.61-1.28,1.09-1.67.48-.39,1.09-.59,1.81-.59.54,0,1.01.11,1.42.33.41.22.74.53,1,.94.26.41.47.91.62,1.49.15.59.23,1.38.23,2.37,0,1.18-.12,2.12-.36,2.85-.24.72-.6,1.28-1.08,1.67-.48.39-1.09.59-1.82.59-.97,0-1.72-.35-2.28-1.04-.66-.83-.99-2.19-.99-4.07Zm1.26,0c0,1.64.19,2.74.58,3.29.39.54.86.82,1.43.82s1.04-.27,1.43-.82c.38-.55.58-1.64.58-3.28s-.19-2.75-.58-3.29c-.39-.54-.87-.81-1.44-.81s-1.02.24-1.35.72c-.42.61-.64,1.74-.64,3.38Z"/><path d="m361.45,33.84v-10.02h3.78c.67,0,1.17.03,1.52.1.49.08.91.24,1.24.47.33.23.6.55.8.97.2.42.3.87.3,1.37,0,.85-.27,1.57-.81,2.16-.54.59-1.52.89-2.94.89h-2.57v4.07h-1.33Zm1.33-5.26h2.59c.86,0,1.46-.16,1.83-.48s.54-.77.54-1.35c0-.42-.11-.78-.32-1.08-.21-.3-.49-.5-.84-.59-.22-.06-.64-.09-1.24-.09h-2.56v3.58Z"/><path d="m375.37,32.94c-.46.39-.89.66-1.32.82-.42.16-.88.24-1.36.24-.8,0-1.41-.19-1.84-.58-.43-.39-.64-.89-.64-1.49,0-.36.08-.68.24-.97.16-.29.37-.53.63-.71.26-.18.56-.31.89-.4.24-.06.61-.12,1.09-.18.99-.12,1.73-.26,2.19-.42,0-.17,0-.28,0-.32,0-.5-.12-.85-.35-1.06-.31-.28-.78-.42-1.4-.42-.58,0-1.01.1-1.28.3-.28.2-.48.56-.61,1.08l-1.2-.16c.11-.52.29-.93.54-1.25.25-.32.61-.56,1.09-.73.47-.17,1.02-.26,1.65-.26s1.12.07,1.51.22.67.33.85.55c.18.22.31.5.38.84.04.21.06.59.06,1.13v1.64c0,1.14.03,1.87.08,2.17.05.3.16.59.31.87h-1.29c-.13-.25-.21-.55-.25-.9Zm-.1-2.75c-.45.18-1.12.34-2.01.46-.51.07-.86.15-1.07.25s-.37.22-.49.4c-.11.17-.17.37-.17.58,0,.33.12.6.37.82.25.22.61.33,1.09.33s.9-.1,1.26-.31c.37-.21.64-.49.81-.85.13-.28.2-.69.2-1.23v-.45Z"/><line class="cls-1" x1="306" y1="20.5" x2="378" y2="20.5"/><path d="m479.66,13.84h-1.23v-7.84c-.3.28-.68.56-1.17.85s-.91.49-1.3.64v-1.19c.69-.32,1.29-.72,1.8-1.18.52-.46.88-.91,1.09-1.34h.79v10.06Z"/><path d="m482.81,8.9c0-1.19.12-2.14.37-2.86s.61-1.28,1.09-1.67,1.09-.59,1.82-.59c.54,0,1.01.11,1.41.32.41.22.74.53,1.01.94.26.41.47.9.62,1.49s.23,1.38.23,2.37c0,1.18-.12,2.12-.36,2.85-.24.72-.6,1.28-1.08,1.67s-1.09.59-1.82.59c-.97,0-1.73-.35-2.28-1.04-.66-.83-.99-2.19-.99-4.07Zm1.26,0c0,1.65.19,2.74.58,3.28s.86.82,1.43.82,1.04-.27,1.42-.82.58-1.64.58-3.28-.19-2.75-.58-3.29-.86-.81-1.44-.81-1.02.24-1.35.72c-.42.61-.64,1.74-.64,3.38Z"/><path d="m490.59,8.9c0-1.19.12-2.14.37-2.86s.61-1.28,1.09-1.67,1.09-.59,1.81-.59c.54,0,1.01.11,1.42.32.41.22.74.53,1,.94.26.41.47.9.62,1.49s.22,1.38.22,2.37c0,1.18-.12,2.12-.36,2.85-.24.72-.6,1.28-1.08,1.67s-1.09.59-1.82.59c-.97,0-1.72-.35-2.28-1.04-.66-.83-.99-2.19-.99-4.07Zm1.27,0c0,1.65.19,2.74.58,3.28s.86.82,1.42.82,1.04-.27,1.43-.82.58-1.64.58-3.28-.19-2.75-.58-3.29-.87-.81-1.44-.81-1.02.24-1.35.72c-.42.61-.63,1.74-.63,3.38Z"/><path d="m498.38,8.9c0-1.19.12-2.14.37-2.86s.61-1.28,1.09-1.67,1.09-.59,1.82-.59c.54,0,1.01.11,1.41.32.41.22.74.53,1.01.94.26.41.47.9.62,1.49s.23,1.38.23,2.37c0,1.18-.12,2.12-.36,2.85-.24.72-.6,1.28-1.08,1.67s-1.09.59-1.82.59c-.97,0-1.73-.35-2.28-1.04-.66-.83-.99-2.19-.99-4.07Zm1.26,0c0,1.65.19,2.74.58,3.28s.86.82,1.43.82,1.04-.27,1.42-.82.58-1.64.58-3.28-.19-2.75-.58-3.29-.86-.81-1.44-.81-1.02.24-1.35.72c-.42.61-.64,1.74-.64,3.38Z"/><path d="m510.4,13.84v-7.26h1.1v1.02c.23-.36.53-.64.91-.86.38-.22.81-.32,1.29-.32.54,0,.98.11,1.32.33s.59.54.73.94c.57-.85,1.32-1.27,2.24-1.27.72,0,1.27.2,1.66.6.39.4.58,1.01.58,1.84v4.98h-1.22v-4.57c0-.49-.04-.85-.12-1.06s-.22-.39-.43-.52c-.21-.13-.46-.2-.74-.2-.51,0-.93.17-1.27.51-.34.34-.51.88-.51,1.63v4.22h-1.23v-4.72c0-.55-.1-.96-.3-1.23-.2-.27-.53-.41-.98-.41-.35,0-.67.09-.96.27s-.51.45-.64.8c-.13.35-.2.86-.2,1.52v3.77h-1.23Z"/><path d="m523.2,13.84h-1.14V3.82h1.23v3.58c.52-.65,1.18-.98,1.99-.98.45,0,.87.09,1.27.27s.73.43.98.76.46.72.61,1.18c.15.46.22.95.22,1.48,0,1.24-.31,2.21-.92,2.88s-1.35,1.02-2.21,1.02-1.53-.36-2.02-1.07v.91Zm-.01-3.68c0,.87.12,1.5.36,1.89.39.63.91.95,1.57.95.54,0,1-.23,1.39-.7.39-.47.59-1.16.59-2.09s-.19-1.65-.56-2.1-.83-.68-1.36-.68-1,.23-1.39.7c-.39.47-.59,1.14-.59,2.03Z"/><path d="m493.62,33.84h-1.14v-10.02h1.23v3.58c.52-.65,1.18-.98,1.99-.98.45,0,.87.09,1.27.27.4.18.73.43.98.76.26.33.46.72.61,1.18.15.46.22.95.22,1.48,0,1.24-.31,2.21-.92,2.88s-1.35,1.02-2.21,1.02-1.53-.36-2.02-1.07v.91Zm-.01-3.68c0,.87.12,1.5.36,1.89.39.63.91.95,1.57.95.54,0,1-.23,1.39-.7.39-.47.59-1.16.59-2.09s-.19-1.65-.56-2.1-.83-.68-1.36-.68-1,.23-1.39.7c-.39.47-.59,1.14-.59,2.03Z"/><path d="m505.01,32.94c-.46.39-.89.66-1.32.82s-.87.24-1.36.24c-.8,0-1.41-.19-1.84-.58-.43-.39-.64-.89-.64-1.49,0-.36.08-.68.24-.97.16-.29.37-.53.64-.71s.56-.31.89-.4c.24-.06.61-.12,1.09-.18.99-.12,1.72-.26,2.19-.42,0-.17,0-.28,0-.32,0-.5-.12-.85-.35-1.06-.31-.28-.78-.42-1.4-.42-.58,0-1.01.1-1.28.3-.28.2-.48.56-.61,1.08l-1.2-.16c.11-.52.29-.93.54-1.25.25-.32.61-.56,1.09-.73.47-.17,1.02-.26,1.65-.26s1.12.07,1.51.22c.39.15.67.33.86.55.18.22.31.5.38.84.04.21.06.59.06,1.13v1.64c0,1.14.03,1.87.08,2.17.05.3.16.59.31.87h-1.29c-.13-.25-.21-.55-.25-.9Zm-.1-2.75c-.45.18-1.12.34-2.01.46-.51.07-.86.15-1.07.25-.21.09-.37.22-.49.4-.11.17-.17.37-.17.58,0,.33.12.6.37.82s.61.33,1.09.33.89-.1,1.26-.31c.37-.21.64-.49.81-.85.13-.28.2-.69.2-1.23v-.45Z"/><path d="m508.05,33.84v-7.26h1.11v1.1c.28-.52.54-.85.78-1.02s.5-.25.79-.25c.41,0,.84.13,1.26.4l-.42,1.14c-.3-.18-.6-.27-.9-.27-.27,0-.51.08-.72.24-.21.16-.37.39-.46.67-.14.44-.21.92-.21,1.44v3.8h-1.23Z"/><line class="cls-1" x1="474" y1="20.5" x2="528" y2="20.5"/><path d="m169.2,13.84V3.82h3.78c.67,0,1.17.03,1.52.1.49.08.9.24,1.24.47s.6.55.8.97.3.87.3,1.37c0,.85-.27,1.57-.81,2.16s-1.52.89-2.94.89h-2.57v4.07h-1.33Zm1.33-5.26h2.59c.86,0,1.47-.16,1.83-.48s.54-.77.54-1.35c0-.42-.11-.78-.32-1.08s-.49-.5-.84-.59c-.22-.06-.64-.09-1.24-.09h-2.56v3.58Z"/><path d="m183.12,12.94c-.46.39-.89.66-1.32.82s-.87.24-1.36.24c-.8,0-1.41-.19-1.84-.58s-.64-.89-.64-1.49c0-.36.08-.68.24-.97s.37-.53.64-.71.56-.31.89-.4c.24-.06.61-.13,1.09-.18.99-.12,1.73-.26,2.19-.42,0-.17,0-.28,0-.32,0-.5-.12-.85-.35-1.06-.31-.28-.78-.42-1.4-.42-.58,0-1.01.1-1.28.3s-.48.56-.61,1.08l-1.2-.16c.11-.52.29-.93.54-1.25s.61-.56,1.09-.73,1.02-.26,1.65-.26,1.12.07,1.51.22.67.33.85.55.31.5.38.84c.04.21.06.59.06,1.13v1.64c0,1.14.03,1.87.08,2.17s.16.59.31.87h-1.29c-.13-.26-.21-.55-.25-.9Zm-.1-2.75c-.45.18-1.12.34-2.01.46-.51.07-.86.15-1.07.25s-.37.22-.49.4-.17.37-.17.58c0,.33.12.6.37.82s.61.33,1.09.33.9-.1,1.26-.31.64-.49.81-.85c.13-.28.2-.69.2-1.23v-.45Z"/><path d="m163.22,25.23v-1.42h1.23v1.42h-1.23Zm0,8.61v-7.26h1.23v7.26h-1.23Z"/><path d="m166.32,33.84v-7.26h1.11v1.03c.53-.8,1.3-1.2,2.31-1.2.44,0,.84.08,1.21.24.37.16.64.36.82.62s.31.56.38.91c.05.23.07.63.07,1.2v4.46h-1.23v-4.42c0-.5-.05-.88-.14-1.12-.1-.25-.27-.45-.51-.6-.24-.15-.53-.22-.86-.22-.52,0-.98.17-1.36.5s-.57.96-.57,1.89v3.96h-1.23Z"/><path d="m174.3,33.84v-10.02h1.33v4.12h5.21v-4.12h1.33v10.02h-1.33v-4.72h-5.21v4.72h-1.33Z"/><path d="m183.99,34.44l1.2.18c.05.37.19.64.42.81.31.23.72.34,1.25.34.57,0,1.01-.11,1.32-.34s.52-.55.63-.96c.06-.25.09-.78.09-1.58-.54.63-1.21.95-2.01.95-1,0-1.77-.36-2.32-1.08s-.82-1.58-.82-2.59c0-.69.13-1.33.38-1.92.25-.58.61-1.04,1.09-1.36s1.04-.48,1.68-.48c.86,0,1.56.35,2.12,1.04v-.88h1.13v6.28c0,1.13-.12,1.93-.35,2.4-.23.47-.59.84-1.09,1.12s-1.11.41-1.84.41c-.87,0-1.57-.2-2.1-.58-.53-.39-.79-.98-.77-1.76Zm1.02-4.36c0,.95.19,1.65.57,2.08s.85.66,1.42.66,1.04-.22,1.42-.65c.38-.44.57-1.12.57-2.05s-.2-1.56-.59-2.01-.87-.68-1.43-.68-1.01.22-1.39.67c-.38.45-.57,1.1-.57,1.98Z"/><line class="cls-1" x1="161" y1="20.5" x2="192" y2="20.5"/><path d="m11.33,23.04v1.18h-6.62c0-.3.04-.58.14-.85.17-.45.44-.9.81-1.33.37-.44.91-.94,1.61-1.52,1.09-.89,1.83-1.6,2.21-2.12s.57-1.02.57-1.48c0-.49-.17-.9-.52-1.23-.35-.33-.8-.5-1.36-.5-.59,0-1.07.18-1.42.53s-.54.85-.54,1.48l-1.26-.13c.09-.94.41-1.66.98-2.16s1.32-.74,2.28-.74,1.72.27,2.28.8.84,1.19.84,1.98c0,.4-.08.8-.25,1.18s-.44.8-.82,1.22c-.38.43-1.01,1.02-1.9,1.76-.74.62-1.21,1.04-1.42,1.26-.21.22-.38.44-.52.67h4.92Z"/><path d="m12.65,19.28c0-1.19.12-2.14.37-2.86.24-.72.61-1.28,1.09-1.67.48-.39,1.09-.59,1.82-.59.54,0,1.01.11,1.42.32s.74.53,1,.94.47.9.62,1.49.23,1.38.23,2.37c0,1.18-.12,2.12-.36,2.85-.24.72-.6,1.28-1.08,1.67-.48.39-1.09.59-1.82.59-.97,0-1.72-.35-2.28-1.04-.66-.83-.99-2.19-.99-4.07Zm1.26,0c0,1.65.19,2.74.58,3.29.38.54.86.82,1.42.82s1.04-.27,1.42-.82c.39-.55.58-1.64.58-3.28s-.19-2.75-.58-3.29c-.38-.54-.86-.81-1.44-.81s-1.02.24-1.35.72c-.42.61-.64,1.74-.64,3.38Z"/><path d="m21.13,24.22v-1.4h1.4v1.4h-1.4Z"/><path d="m30.71,16.66l-1.22.1c-.11-.48-.26-.83-.46-1.05-.33-.35-.74-.53-1.23-.53-.39,0-.74.11-1.03.33-.39.28-.69.69-.92,1.24s-.34,1.31-.35,2.32c.3-.45.66-.79,1.09-1s.88-.33,1.35-.33c.82,0,1.52.3,2.1.91.58.6.86,1.38.86,2.34,0,.63-.14,1.21-.41,1.75-.27.54-.64.95-1.12,1.24s-1.01.43-1.61.43c-1.03,0-1.86-.38-2.51-1.13-.65-.75-.97-2-.97-3.73,0-1.94.36-3.35,1.07-4.22.62-.77,1.46-1.15,2.52-1.15.79,0,1.43.22,1.94.66.5.44.8,1.05.91,1.83Zm-5.02,4.32c0,.42.09.83.27,1.22.18.39.43.68.76.89.32.2.66.3,1.02.3.52,0,.97-.21,1.34-.63.37-.42.56-.99.56-1.71s-.18-1.24-.55-1.64-.83-.6-1.39-.6-1.03.2-1.42.6-.58.92-.58,1.57Z"/><path d="m32.2,15.52v-1.18h6.49v.96c-.64.68-1.27,1.58-1.9,2.71-.63,1.13-1.11,2.28-1.45,3.47-.25.84-.4,1.76-.47,2.75h-1.26c.01-.79.17-1.74.46-2.86.3-1.12.72-2.19,1.28-3.23.55-1.04,1.14-1.91,1.77-2.62h-4.91Z"/><path d="m44.14,15.62v-1.42h1.23v1.42h-1.23Zm0,8.61v-7.26h1.23v7.26h-1.23Z"/><path d="m47.24,24.22v-7.26h1.11v1.03c.53-.8,1.3-1.2,2.31-1.2.44,0,.84.08,1.21.24.37.16.64.36.82.62s.31.56.38.91c.05.23.07.63.07,1.2v4.46h-1.23v-4.42c0-.5-.05-.88-.14-1.12s-.27-.45-.51-.59c-.24-.15-.53-.22-.86-.22-.52,0-.98.17-1.36.5-.38.33-.57.96-.57,1.89v3.96h-1.23Z"/><path d="m55.23,24.22v-10.02h1.33v4.12h5.21v-4.12h1.33v10.02h-1.33v-4.72h-5.21v4.72h-1.33Z"/><path d="m64.91,24.83l1.2.18c.05.37.19.64.42.81.31.23.72.34,1.25.34.57,0,1.01-.11,1.32-.34s.52-.55.63-.96c.06-.25.09-.78.09-1.58-.54.63-1.21.95-2.01.95-1,0-1.77-.36-2.32-1.08-.55-.72-.82-1.58-.82-2.59,0-.69.12-1.33.38-1.92s.61-1.04,1.09-1.36c.48-.32,1.04-.48,1.68-.48.86,0,1.56.35,2.12,1.04v-.88h1.13v6.28c0,1.13-.12,1.93-.35,2.4-.23.47-.59.84-1.09,1.12-.5.27-1.11.41-1.84.41-.87,0-1.57-.19-2.1-.58-.53-.39-.79-.98-.77-1.76Zm1.02-4.36c0,.95.19,1.65.57,2.08s.85.66,1.42.66,1.04-.22,1.42-.65c.38-.44.57-1.12.57-2.05s-.2-1.56-.59-2.01c-.39-.45-.87-.68-1.42-.68s-1.01.22-1.39.67-.57,1.1-.57,1.98Z"/><path d="m75.99,24.22l2.65-3.77-2.45-3.49h1.54l1.11,1.7c.21.32.38.59.51.81.2-.3.38-.57.55-.8l1.22-1.72h1.47l-2.51,3.42,2.7,3.84h-1.51l-1.49-2.26-.4-.61-1.91,2.86h-1.49Z"/><path d="m87.37,21.58l1.23-.16c.14.7.38,1.2.72,1.51.34.31.75.46,1.24.46.58,0,1.07-.2,1.47-.6.4-.4.6-.9.6-1.49s-.18-1.03-.55-1.4-.84-.55-1.41-.55c-.23,0-.52.05-.87.14l.14-1.08c.08,0,.15.01.2.01.52,0,1-.14,1.42-.41s.63-.69.63-1.26c0-.45-.15-.82-.46-1.12s-.7-.44-1.18-.44-.88.15-1.2.45-.52.75-.62,1.35l-1.23-.22c.15-.82.49-1.46,1.03-1.92s1.2-.68,1.99-.68c.55,0,1.05.12,1.51.35s.81.55,1.06.96c.24.41.37.84.37,1.29s-.12.83-.35,1.18-.58.64-1.03.85c.59.14,1.05.42,1.38.85s.49.97.49,1.62c0,.88-.32,1.62-.96,2.23s-1.44.91-2.42.91c-.88,0-1.61-.26-2.19-.79-.58-.52-.91-1.2-.99-2.04Z"/><path d="m95.15,21.58l1.23-.16c.14.7.38,1.2.72,1.51.34.31.75.46,1.24.46.58,0,1.07-.2,1.47-.6.4-.4.6-.9.6-1.49s-.18-1.03-.55-1.4-.84-.55-1.41-.55c-.23,0-.52.05-.87.14l.14-1.08c.08,0,.15.01.2.01.52,0,1-.14,1.42-.41s.63-.69.63-1.26c0-.45-.15-.82-.46-1.12s-.7-.44-1.18-.44-.88.15-1.2.45-.52.75-.62,1.35l-1.23-.22c.15-.82.49-1.46,1.03-1.92s1.2-.68,1.99-.68c.55,0,1.05.12,1.51.35s.81.55,1.06.96c.24.41.37.84.37,1.29s-.12.83-.35,1.18-.58.64-1.03.85c.59.14,1.05.42,1.38.85s.49.97.49,1.62c0,.88-.32,1.62-.96,2.23s-1.44.91-2.42.91c-.88,0-1.61-.26-2.19-.79-.58-.52-.91-1.2-.99-2.04Z"/><path d="m104.83,18.79c-.51-.19-.89-.45-1.13-.8s-.37-.76-.37-1.24c0-.73.26-1.34.79-1.84s1.22-.75,2.09-.75,1.58.25,2.11.76.8,1.13.8,1.86c0,.46-.12.87-.37,1.21-.24.34-.61.61-1.11.8.62.2,1.08.52,1.41.97.32.45.48.98.48,1.6,0,.86-.3,1.58-.91,2.16-.61.58-1.4.88-2.39.88s-1.79-.29-2.39-.88c-.61-.59-.91-1.32-.91-2.19,0-.65.17-1.2.5-1.64.33-.44.8-.74,1.41-.9Zm-.64,2.54c0,.35.08.69.25,1.02.17.33.41.58.74.76.33.18.68.27,1.06.27.59,0,1.07-.19,1.46-.57.38-.38.57-.86.57-1.44s-.2-1.08-.59-1.47c-.39-.39-.89-.58-1.48-.58s-1.06.19-1.44.57c-.38.38-.57.86-.57,1.44Zm.4-4.63c0,.47.15.86.46,1.16s.7.45,1.19.45.86-.15,1.17-.45c.3-.3.46-.66.46-1.1s-.16-.83-.47-1.14c-.31-.31-.7-.46-1.17-.46s-.86.15-1.17.45-.46.66-.46,1.08Z"/><path d="m117.1,16.66l-1.22.1c-.11-.48-.26-.83-.46-1.05-.33-.35-.74-.53-1.23-.53-.39,0-.74.11-1.03.33-.39.28-.69.69-.92,1.24s-.34,1.31-.35,2.32c.3-.45.66-.79,1.09-1s.88-.33,1.35-.33c.82,0,1.52.3,2.1.91.58.6.86,1.38.86,2.34,0,.63-.14,1.21-.41,1.75-.27.54-.64.95-1.12,1.24s-1.01.43-1.61.43c-1.03,0-1.86-.38-2.51-1.13-.65-.75-.97-2-.97-3.73,0-1.94.36-3.35,1.07-4.22.62-.77,1.46-1.15,2.52-1.15.79,0,1.43.22,1.94.66.5.44.8,1.05.91,1.83Zm-5.02,4.32c0,.42.09.83.27,1.22.18.39.43.68.76.89.32.2.66.3,1.02.3.52,0,.97-.21,1.34-.63.37-.42.56-.99.56-1.71s-.18-1.24-.55-1.64-.83-.6-1.39-.6-1.03.2-1.42.6-.58.92-.58,1.57Z"/><path d="m119.2,24.22v-1.4h1.4v1.4h-1.4Z"/><path d="m122.4,21.58l1.23-.16c.14.7.38,1.2.72,1.51.34.31.75.46,1.24.46.58,0,1.07-.2,1.47-.6.4-.4.6-.9.6-1.49s-.18-1.03-.55-1.4-.84-.55-1.41-.55c-.23,0-.52.05-.87.14l.14-1.08c.08,0,.15.01.2.01.52,0,1-.14,1.42-.41s.63-.69.63-1.26c0-.45-.15-.82-.46-1.12s-.7-.44-1.18-.44-.88.15-1.2.45-.52.75-.62,1.35l-1.23-.22c.15-.82.49-1.46,1.03-1.92s1.2-.68,1.99-.68c.55,0,1.05.12,1.51.35s.81.55,1.06.96c.24.41.37.84.37,1.29s-.12.83-.35,1.18-.58.64-1.03.85c.59.14,1.05.42,1.38.85s.49.97.49,1.62c0,.88-.32,1.62-.96,2.23s-1.44.91-2.42.91c-.88,0-1.61-.26-2.19-.79-.58-.52-.91-1.2-.99-2.04Z"/><path d="m132.08,18.79c-.51-.19-.89-.45-1.13-.8s-.37-.76-.37-1.24c0-.73.26-1.34.79-1.84s1.22-.75,2.09-.75,1.58.25,2.11.76.8,1.13.8,1.86c0,.46-.12.87-.37,1.21-.24.34-.61.61-1.11.8.62.2,1.08.52,1.41.97.32.45.48.98.48,1.6,0,.86-.3,1.58-.91,2.16-.61.58-1.4.88-2.39.88s-1.79-.29-2.39-.88c-.61-.59-.91-1.32-.91-2.19,0-.65.17-1.2.5-1.64.33-.44.8-.74,1.41-.9Zm-.64,2.54c0,.35.08.69.25,1.02.17.33.41.58.74.76.33.18.68.27,1.06.27.59,0,1.07-.19,1.46-.57.38-.38.57-.86.57-1.44s-.2-1.08-.59-1.47c-.39-.39-.89-.58-1.48-.58s-1.06.19-1.44.57c-.38.38-.57.86-.57,1.44Zm.4-4.63c0,.47.15.86.46,1.16s.7.45,1.19.45.86-.15,1.17-.45c.3-.3.46-.66.46-1.1s-.16-.83-.47-1.14c-.31-.31-.7-.46-1.17-.46s-.86.15-1.17.45-.46.66-.46,1.08Z"/><path d="m138.15,21.91l1.18-.11c.1.56.29.96.57,1.21.28.25.64.38,1.09.38.38,0,.71-.09.99-.26.29-.17.52-.4.7-.69.18-.29.33-.68.46-1.17s.18-.99.18-1.5c0-.05,0-.14,0-.25-.25.39-.58.71-1.01.95-.43.24-.89.37-1.38.37-.83,0-1.53-.3-2.11-.9s-.86-1.39-.86-2.38.3-1.83.9-2.45c.6-.62,1.35-.93,2.25-.93.65,0,1.25.18,1.79.53.54.35.95.85,1.23,1.5.28.65.42,1.59.42,2.82s-.14,2.3-.42,3.06c-.28.76-.69,1.34-1.24,1.73-.55.4-1.19.59-1.93.59-.78,0-1.42-.22-1.92-.65-.5-.44-.79-1.05-.9-1.84Zm5.04-4.42c0-.71-.19-1.27-.56-1.68-.38-.41-.83-.62-1.36-.62s-1.02.22-1.43.67-.61,1.03-.61,1.74c0,.64.19,1.16.58,1.56.38.4.86.6,1.42.6s1.04-.2,1.41-.6c.37-.4.55-.95.55-1.66Z"/><path d="m145.61,16.04l.31-.97c.72.26,1.25.48,1.58.66-.09-.82-.13-1.39-.14-1.7h.99c-.01.45-.07,1.02-.16,1.7.47-.24,1.01-.46,1.61-.66l.31.97c-.58.19-1.15.32-1.7.38.28.24.67.67,1.18,1.29l-.82.58c-.26-.36-.58-.85-.94-1.47-.34.64-.63,1.13-.89,1.47l-.81-.58c.53-.65.91-1.08,1.13-1.29-.59-.11-1.15-.24-1.67-.38Z"/><path d="m207.84,19.5v-.84h7.23v.84h-7.23Zm0,2.75v-.84h7.23v.84h-7.23Z"/><path d="m219.26,15.52v-1.18h6.49v.96c-.64.68-1.27,1.58-1.9,2.71-.63,1.13-1.11,2.28-1.45,3.47-.25.84-.4,1.76-.47,2.75h-1.26c.01-.79.17-1.74.46-2.86.3-1.12.72-2.19,1.28-3.23.55-1.04,1.14-1.91,1.77-2.62h-4.91Z"/><path d="m226.96,19.28c0-1.19.12-2.14.37-2.86.24-.72.61-1.28,1.09-1.67.48-.39,1.09-.59,1.82-.59.54,0,1.01.11,1.42.32s.74.53,1,.94.47.9.62,1.49.23,1.38.23,2.37c0,1.18-.12,2.12-.36,2.85-.24.72-.6,1.28-1.08,1.67-.48.39-1.09.59-1.82.59-.97,0-1.72-.35-2.28-1.04-.66-.83-.99-2.19-.99-4.07Zm1.26,0c0,1.65.19,2.74.58,3.29.38.54.86.82,1.42.82s1.04-.27,1.42-.82c.39-.55.58-1.64.58-3.28s-.19-2.75-.58-3.29c-.38-.54-.86-.81-1.44-.81s-1.02.24-1.35.72c-.42.61-.64,1.74-.64,3.38Z"/><path d="m235.41,24.22v-1.4h1.4v1.4c0,.51-.09.93-.27,1.25-.18.32-.47.56-.87.73l-.34-.53c.26-.11.45-.28.57-.5.12-.22.19-.54.21-.95h-.7Z"/><path d="m238.64,19.28c0-1.19.12-2.14.37-2.86.24-.72.61-1.28,1.09-1.67.48-.39,1.09-.59,1.82-.59.54,0,1.01.11,1.42.32s.74.53,1,.94.47.9.62,1.49.23,1.38.23,2.37c0,1.18-.12,2.12-.36,2.85-.24.72-.6,1.28-1.08,1.67-.48.39-1.09.59-1.82.59-.97,0-1.72-.35-2.28-1.04-.66-.83-.99-2.19-.99-4.07Zm1.26,0c0,1.65.19,2.74.58,3.29.38.54.86.82,1.42.82s1.04-.27,1.42-.82c.39-.55.58-1.64.58-3.28s-.19-2.75-.58-3.29c-.38-.54-.86-.81-1.44-.81s-1.02.24-1.35.72c-.42.61-.64,1.74-.64,3.38Z"/><path d="m246.42,19.28c0-1.19.12-2.14.37-2.86.24-.72.61-1.28,1.09-1.67.48-.39,1.09-.59,1.82-.59.54,0,1.01.11,1.42.32s.74.53,1,.94.47.9.62,1.49.23,1.38.23,2.37c0,1.18-.12,2.12-.36,2.85-.24.72-.6,1.28-1.08,1.67-.48.39-1.09.59-1.82.59-.97,0-1.72-.35-2.28-1.04-.66-.83-.99-2.19-.99-4.07Zm1.26,0c0,1.65.19,2.74.58,3.29.38.54.86.82,1.42.82s1.04-.27,1.42-.82c.39-.55.58-1.64.58-3.28s-.19-2.75-.58-3.29c-.38-.54-.86-.81-1.44-.81s-1.02.24-1.35.72c-.42.61-.64,1.74-.64,3.38Z"/><path d="m254.21,19.28c0-1.19.12-2.14.37-2.86.24-.72.61-1.28,1.09-1.67.48-.39,1.09-.59,1.82-.59.54,0,1.01.11,1.42.32s.74.53,1,.94.47.9.62,1.49.23,1.38.23,2.37c0,1.18-.12,2.12-.36,2.85-.24.72-.6,1.28-1.08,1.67-.48.39-1.09.59-1.82.59-.97,0-1.72-.35-2.28-1.04-.66-.83-.99-2.19-.99-4.07Zm1.26,0c0,1.65.19,2.74.58,3.29.38.54.86.82,1.42.82s1.04-.27,1.42-.82c.39-.55.58-1.64.58-3.28s-.19-2.75-.58-3.29c-.38-.54-.86-.81-1.44-.81s-1.02.24-1.35.72c-.42.61-.64,1.74-.64,3.38Z"/><path d="m266.39,24.22v-10.02h3.78c.67,0,1.17.03,1.52.1.49.08.9.24,1.24.47s.6.55.8.97c.2.41.3.87.3,1.37,0,.85-.27,1.57-.81,2.16s-1.52.89-2.94.89h-2.57v4.07h-1.33Zm1.33-5.26h2.59c.86,0,1.46-.16,1.83-.48s.54-.77.54-1.35c0-.42-.11-.78-.32-1.08-.21-.3-.49-.5-.84-.59-.22-.06-.64-.09-1.24-.09h-2.56v3.58Z"/><path d="m280.3,23.33c-.46.39-.89.66-1.32.82-.42.16-.87.24-1.36.24-.8,0-1.41-.19-1.84-.58s-.64-.89-.64-1.49c0-.36.08-.68.24-.97.16-.29.37-.53.64-.71.26-.18.56-.31.88-.4.24-.06.61-.13,1.09-.18.99-.12,1.72-.26,2.19-.42,0-.17,0-.28,0-.32,0-.5-.12-.85-.35-1.06-.31-.28-.78-.42-1.4-.42-.58,0-1.01.1-1.28.3-.28.2-.48.56-.61,1.08l-1.2-.16c.11-.52.29-.93.54-1.25s.61-.56,1.09-.73,1.02-.26,1.65-.26,1.12.07,1.51.22.67.33.85.55.31.5.38.84c.04.21.06.59.06,1.13v1.64c0,1.14.03,1.87.08,2.17.05.3.16.59.31.87h-1.29c-.13-.25-.21-.55-.25-.9Zm-.1-2.75c-.45.18-1.12.34-2.01.46-.51.07-.86.15-1.07.25s-.37.22-.49.4-.17.37-.17.58c0,.33.12.6.37.82.25.22.61.33,1.09.33s.9-.1,1.26-.31c.37-.21.64-.49.81-.85.13-.28.2-.69.2-1.23v-.45Z"/><path d="m290.31,24.22l2.65-3.77-2.45-3.49h1.54l1.11,1.7c.21.32.38.59.51.81.2-.3.38-.57.55-.8l1.22-1.72h1.47l-2.51,3.42,2.7,3.84h-1.51l-1.49-2.26-.4-.61-1.91,2.86h-1.49Z"/><path d="m396.68,18.33h-6.62v-1.15h6.62v1.15Zm0,3.04h-6.62v-1.15h6.62v1.15Z"/><path d="m405.82,19.28c0-1.19.12-2.14.37-2.86.24-.72.61-1.28,1.09-1.67.48-.39,1.09-.59,1.82-.59.54,0,1.01.11,1.42.32s.74.53,1,.94.47.9.62,1.49.23,1.38.23,2.37c0,1.18-.12,2.12-.36,2.85-.24.72-.6,1.28-1.08,1.67-.48.39-1.09.59-1.82.59-.97,0-1.72-.35-2.28-1.04-.66-.83-.99-2.19-.99-4.07Zm1.26,0c0,1.65.19,2.74.58,3.29.38.54.86.82,1.42.82s1.04-.27,1.42-.82c.39-.55.58-1.64.58-3.28s-.19-2.75-.58-3.29c-.38-.54-.86-.81-1.44-.81s-1.02.24-1.35.72c-.42.61-.64,1.74-.64,3.38Z"/><path d="m414.3,24.22v-1.4h1.4v1.4h-1.4Z"/><path d="m417.58,15.52v-1.18h6.49v.96c-.64.68-1.27,1.58-1.9,2.71-.63,1.13-1.11,2.28-1.45,3.47-.25.84-.4,1.76-.47,2.75h-1.26c.01-.79.17-1.74.46-2.86.3-1.12.72-2.19,1.28-3.23.55-1.04,1.14-1.91,1.77-2.62h-4.91Z"/><path d="m430.65,24.22h-1.14v-10.02h1.23v3.58c.52-.65,1.18-.98,1.99-.98.45,0,.87.09,1.27.27.4.18.73.43.98.76.26.33.46.72.6,1.18s.22.95.22,1.48c0,1.24-.31,2.21-.92,2.88-.62.68-1.35,1.02-2.21,1.02s-1.53-.36-2.02-1.07v.91Zm-.01-3.68c0,.87.12,1.5.36,1.89.39.63.91.95,1.57.95.54,0,1-.23,1.39-.7.39-.47.59-1.16.59-2.09s-.19-1.65-.56-2.1c-.38-.45-.83-.68-1.36-.68s-1,.23-1.39.7-.59,1.14-.59,2.03Z"/><path d="m442.04,23.33c-.46.39-.89.66-1.32.82-.42.16-.87.24-1.36.24-.8,0-1.41-.19-1.84-.58s-.64-.89-.64-1.49c0-.36.08-.68.24-.97.16-.29.37-.53.64-.71.26-.18.56-.31.88-.4.24-.06.61-.13,1.09-.18.99-.12,1.72-.26,2.19-.42,0-.17,0-.28,0-.32,0-.5-.12-.85-.35-1.06-.31-.28-.78-.42-1.4-.42-.58,0-1.01.1-1.28.3-.28.2-.48.56-.61,1.08l-1.2-.16c.11-.52.29-.93.54-1.25s.61-.56,1.09-.73,1.02-.26,1.65-.26,1.12.07,1.51.22.67.33.85.55.31.5.38.84c.04.21.06.59.06,1.13v1.64c0,1.14.03,1.87.08,2.17.05.3.16.59.31.87h-1.29c-.13-.25-.21-.55-.25-.9Zm-.1-2.75c-.45.18-1.12.34-2.01.46-.51.07-.86.15-1.07.25s-.37.22-.49.4-.17.37-.17.58c0,.33.12.6.37.82.25.22.61.33,1.09.33s.9-.1,1.26-.31c.37-.21.64-.49.81-.85.13-.28.2-.69.2-1.23v-.45Z"/><path d="m445.07,24.22v-7.26h1.11v1.1c.28-.52.54-.85.78-1.02.24-.16.5-.25.79-.25.42,0,.84.13,1.26.4l-.42,1.14c-.3-.18-.6-.27-.9-.27-.27,0-.51.08-.72.24s-.37.39-.46.67c-.14.44-.21.92-.21,1.44v3.8h-1.23Z"/><path d="m456.71,24.22l2.65-3.77-2.45-3.49h1.54l1.11,1.7c.21.32.38.59.51.81.2-.3.38-.57.55-.8l1.22-1.72h1.47l-2.51,3.42,2.7,3.84h-1.51l-1.49-2.26-.4-.61-1.91,2.86h-1.49Z"/><path d="m549.68,18.33h-6.62v-1.15h6.62v1.15Zm0,3.04h-6.62v-1.15h6.62v1.15Z"/><path d="m558.9,15.52v-1.18h6.49v.96c-.64.68-1.27,1.58-1.9,2.71-.63,1.13-1.11,2.28-1.45,3.47-.25.84-.4,1.76-.47,2.75h-1.26c.01-.79.17-1.74.46-2.86.3-1.12.72-2.19,1.28-3.23.55-1.04,1.14-1.91,1.77-2.62h-4.91Z"/><path d="m566.61,19.28c0-1.19.12-2.14.37-2.86.24-.72.61-1.28,1.09-1.67.48-.39,1.09-.59,1.82-.59.54,0,1.01.11,1.42.32s.74.53,1,.94.47.9.62,1.49.23,1.38.23,2.37c0,1.18-.12,2.12-.36,2.85-.24.72-.6,1.28-1.08,1.67-.48.39-1.09.59-1.82.59-.97,0-1.72-.35-2.28-1.04-.66-.83-.99-2.19-.99-4.07Zm1.26,0c0,1.65.19,2.74.58,3.29.38.54.86.82,1.42.82s1.04-.27,1.42-.82c.39-.55.58-1.64.58-3.28s-.19-2.75-.58-3.29c-.38-.54-.86-.81-1.44-.81s-1.02.24-1.35.72c-.42.61-.64,1.74-.64,3.38Z"/><path d="m574.39,19.28c0-1.19.12-2.14.37-2.86.24-.72.61-1.28,1.09-1.67.48-.39,1.09-.59,1.82-.59.54,0,1.01.11,1.42.32s.74.53,1,.94.47.9.62,1.49.23,1.38.23,2.37c0,1.18-.12,2.12-.36,2.85-.24.72-.6,1.28-1.08,1.67-.48.39-1.09.59-1.82.59-.97,0-1.72-.35-2.28-1.04-.66-.83-.99-2.19-.99-4.07Zm1.26,0c0,1.65.19,2.74.58,3.29.38.54.86.82,1.42.82s1.04-.27,1.42-.82c.39-.55.58-1.64.58-3.28s-.19-2.75-.58-3.29c-.38-.54-.86-.81-1.44-.81s-1.02.24-1.35.72c-.42.61-.64,1.74-.64,3.38Z"/><path d="m586.41,24.22v-7.26h1.1v1.02c.23-.36.53-.64.91-.86s.81-.32,1.29-.32c.54,0,.98.11,1.32.33.34.22.59.54.73.94.57-.85,1.32-1.27,2.24-1.27.72,0,1.27.2,1.66.6s.58,1.01.58,1.84v4.98h-1.22v-4.57c0-.49-.04-.85-.12-1.06-.08-.22-.22-.39-.43-.52s-.46-.2-.74-.2c-.51,0-.93.17-1.27.51s-.51.88-.51,1.63v4.22h-1.23v-4.72c0-.55-.1-.96-.3-1.23s-.53-.41-.98-.41c-.35,0-.67.09-.96.27-.29.18-.51.45-.64.8s-.2.86-.2,1.52v3.77h-1.23Z"/><path d="m599.21,24.22h-1.14v-10.02h1.23v3.58c.52-.65,1.18-.98,1.99-.98.45,0,.87.09,1.27.27.4.18.73.43.98.76.26.33.46.72.6,1.18s.22.95.22,1.48c0,1.24-.31,2.21-.92,2.88-.62.68-1.35,1.02-2.21,1.02s-1.53-.36-2.02-1.07v.91Zm-.01-3.68c0,.87.12,1.5.36,1.89.39.63.91.95,1.57.95.54,0,1-.23,1.39-.7.39-.47.59-1.16.59-2.09s-.19-1.65-.56-2.1c-.38-.45-.83-.68-1.36-.68s-1,.23-1.39.7-.59,1.14-.59,2.03Z"/><path d="m208.04,16.58v-1.4c.48-.55,1.12-.82,1.9-.82.27,0,.56.04.86.12s.73.24,1.29.48c.31.13.55.22.71.26s.32.06.48.06c.3,0,.6-.09.92-.27s.6-.4.84-.67v1.45c-.29.27-.59.47-.89.59s-.63.18-1.01.18c-.27,0-.53-.03-.78-.1s-.64-.22-1.18-.46-.99-.36-1.35-.36c-.29,0-.57.06-.82.19s-.58.37-.96.74Z"/></svg>