<?xml version="1.0" encoding="UTF-8"?><svg id="b.4.1d" xmlns="http://www.w3.org/2000/svg" viewBox="0 0 49 40"><defs><style>.cls-1{fill:none;stroke:#000;stroke-miterlimit:10;}</style></defs><path d="m3.86,12.21l1.29-.11c.1.63.32,1.1.67,1.42s.77.48,1.26.48c.59,0,1.09-.22,1.5-.67s.62-1.04.62-1.78-.2-1.26-.59-1.66-.91-.61-1.55-.61c-.4,0-.75.09-1.07.27s-.57.41-.75.7l-1.16-.15.97-5.15h4.98v1.18h-4l-.54,2.69c.6-.42,1.23-.63,1.89-.63.88,0,1.61.3,2.21.91s.9,1.39.9,2.34-.26,1.69-.79,2.35c-.64.81-1.52,1.22-2.63,1.22-.91,0-1.66-.26-2.23-.77s-.91-1.19-.99-2.03Z"/><path d="m18.11,13.66v1.18h-6.62c0-.3.04-.58.14-.85.17-.45.44-.9.81-1.33s.91-.94,1.61-1.52c1.09-.89,1.83-1.6,2.21-2.12s.57-1.02.57-1.48c0-.49-.17-.9-.52-1.23s-.8-.5-1.36-.5c-.59,0-1.07.18-1.42.53s-.54.85-.54,1.48l-1.26-.13c.09-.94.41-1.66.98-2.16s1.32-.74,2.28-.74,1.72.27,2.28.8.84,1.19.84,1.98c0,.4-.08.8-.25,1.18s-.44.8-.82,1.22-1.01,1.02-1.9,1.76c-.74.62-1.21,1.04-1.42,1.26s-.38.44-.52.67h4.92Z"/><path d="m21.32,9.4c-.51-.19-.89-.45-1.13-.8s-.37-.76-.37-1.24c0-.73.26-1.34.79-1.84s1.22-.75,2.09-.75,1.58.25,2.11.76.8,1.13.8,1.86c0,.46-.12.87-.37,1.21s-.61.61-1.11.8c.62.2,1.08.52,1.4.97s.48.98.48,1.6c0,.86-.3,1.58-.91,2.16s-1.4.88-2.39.88-1.79-.29-2.39-.88-.91-1.32-.91-2.19c0-.65.17-1.2.5-1.64s.8-.74,1.41-.9Zm-.64,2.54c0,.35.08.69.25,1.02s.41.58.74.76.68.27,1.06.27c.59,0,1.07-.19,1.46-.57s.57-.86.57-1.44-.2-1.08-.59-1.47-.89-.58-1.48-.58-1.06.19-1.44.57-.57.86-.57,1.44Zm.4-4.63c0,.47.15.86.46,1.16s.7.45,1.19.45.86-.15,1.17-.45.45-.66.45-1.1-.16-.83-.47-1.14-.7-.46-1.17-.46-.86.15-1.17.45-.46.66-.46,1.08Z"/><path d="m27.21,9.9c0-1.19.12-2.14.37-2.86s.61-1.28,1.09-1.67,1.09-.59,1.81-.59c.54,0,1.01.11,1.42.32s.74.53,1,.94.47.9.62,1.49.23,1.38.23,2.37c0,1.18-.12,2.12-.36,2.85s-.6,1.28-1.08,1.67-1.09.59-1.82.59c-.97,0-1.73-.35-2.28-1.04-.66-.83-.99-2.19-.99-4.07Zm1.26,0c0,1.65.19,2.74.58,3.28s.86.82,1.43.82,1.04-.27,1.43-.82.58-1.64.58-3.28-.19-2.75-.58-3.29-.86-.81-1.44-.81-1.02.24-1.35.72c-.42.61-.64,1.74-.64,3.38Z"/><path d="m39.53,14.84v-6.3h-1.09v-.96h1.09v-.77c0-.49.04-.85.13-1.09.12-.32.33-.58.63-.78s.72-.3,1.25-.3c.35,0,.73.04,1.15.12l-.18,1.07c-.26-.05-.5-.07-.72-.07-.37,0-.64.08-.79.24s-.23.46-.23.9v.67h1.42v.96h-1.42v6.3h-1.22Z"/><path d="m45.81,13.74l.18,1.09c-.35.07-.66.11-.93.11-.45,0-.79-.07-1.04-.21s-.42-.33-.52-.56-.15-.71-.15-1.45v-4.18h-.9v-.96h.9v-1.8l1.22-.74v2.54h1.24v.96h-1.24v4.25c0,.35.02.58.06.68s.11.18.21.24.24.09.42.09c.14,0,.32-.02.54-.05Z"/><path d="m16.67,34.84h-1.23v-7.84c-.3.28-.68.56-1.17.85s-.91.49-1.3.64v-1.19c.69-.32,1.29-.72,1.8-1.18s.88-.91,1.09-1.34h.79v10.06Z"/><path d="m24.06,34.84v-7.26h1.1v1.02c.23-.36.53-.64.91-.86.38-.22.81-.33,1.29-.33.54,0,.98.11,1.32.33s.59.54.73.94c.57-.85,1.32-1.27,2.24-1.27.72,0,1.27.2,1.66.6.39.4.58,1.01.58,1.84v4.98h-1.22v-4.57c0-.49-.04-.85-.12-1.06-.08-.22-.22-.39-.43-.52s-.46-.2-.74-.2c-.51,0-.93.17-1.27.51-.34.34-.51.88-.51,1.63v4.22h-1.23v-4.72c0-.55-.1-.96-.3-1.23s-.53-.41-.98-.41c-.35,0-.67.09-.96.27s-.51.45-.64.8-.2.86-.2,1.52v3.77h-1.23Z"/><path d="m35.73,26.23v-1.42h1.23v1.42h-1.23Zm0,8.61v-7.26h1.23v7.26h-1.23Z"/><line class="cls-1" x1="4" y1="20.5" x2="45" y2="20.5"/></svg>