<?xml version="1.0" encoding="UTF-8"?><svg id="b.4.1e" xmlns="http://www.w3.org/2000/svg" viewBox="0 0 49 40"><defs><style>.cls-1{fill:none;stroke:#000;stroke-miterlimit:10;}</style></defs><path d="m18.42,7.27l-1.22.1c-.11-.48-.26-.83-.46-1.05-.33-.35-.74-.53-1.23-.53-.39,0-.74.11-1.03.33-.39.28-.69.69-.92,1.24s-.34,1.31-.35,2.32c.3-.45.66-.79,1.09-1s.88-.33,1.35-.33c.82,0,1.52.3,2.1.91s.86,1.38.86,2.34c0,.63-.14,1.21-.41,1.75s-.64.95-1.12,1.24-1.01.43-1.61.43c-1.03,0-1.86-.38-2.51-1.13s-.97-2-.97-3.73c0-1.94.36-3.35,1.07-4.22.62-.77,1.47-1.15,2.52-1.15.79,0,1.43.22,1.94.66s.81,1.05.91,1.83Zm-5.02,4.32c0,.42.09.83.27,1.22s.43.68.76.89.66.3,1.02.3c.52,0,.97-.21,1.34-.63s.56-.99.56-1.71-.18-1.24-.55-1.64-.83-.6-1.39-.6-1.03.2-1.42.6-.58.92-.58,1.57Z"/><path d="m19.82,9.9c0-1.19.12-2.14.37-2.86s.61-1.28,1.09-1.67,1.09-.59,1.81-.59c.54,0,1.01.11,1.42.32s.74.53,1,.94.47.9.62,1.49.23,1.38.23,2.37c0,1.18-.12,2.12-.36,2.85s-.6,1.28-1.08,1.67-1.09.59-1.82.59c-.97,0-1.73-.35-2.28-1.04-.66-.83-.99-2.19-.99-4.07Zm1.26,0c0,1.65.19,2.74.58,3.28s.86.82,1.43.82,1.04-.27,1.43-.82.58-1.64.58-3.28-.19-2.75-.58-3.29-.86-.81-1.44-.81-1.02.24-1.35.72c-.42.61-.64,1.74-.64,3.38Z"/><path d="m31.34,12.67l1.22-.19c.07.49.26.86.57,1.12s.75.39,1.31.39.98-.12,1.26-.35.41-.5.41-.81c0-.28-.12-.5-.36-.66-.17-.11-.59-.25-1.26-.42-.9-.23-1.53-.42-1.88-.59s-.61-.4-.79-.69-.27-.62-.27-.97c0-.32.07-.62.22-.9s.35-.5.6-.69c.19-.14.45-.26.78-.36s.68-.15,1.06-.15c.57,0,1.07.08,1.5.25s.75.39.95.67.35.66.42,1.12l-1.2.16c-.05-.37-.21-.67-.48-.88s-.63-.31-1.11-.31c-.56,0-.97.09-1.21.28s-.36.41-.36.66c0,.16.05.3.15.43.1.13.26.24.47.33.12.05.49.15,1.09.31.87.23,1.48.42,1.82.57s.61.36.81.65.29.63.29,1.05-.12.8-.36,1.16-.58.64-1.04.84-.96.3-1.53.3c-.94,0-1.66-.2-2.16-.59s-.81-.97-.95-1.74Z"/><path d="m12.78,34.84h-1.23v-7.84c-.3.28-.68.56-1.17.85s-.91.49-1.3.64v-1.19c.69-.32,1.29-.72,1.8-1.18s.88-.91,1.09-1.34h.79v10.06Z"/><path d="m20.16,34.84v-7.26h1.1v1.02c.23-.36.53-.64.91-.86.38-.22.81-.33,1.29-.33.54,0,.98.11,1.32.33s.59.54.73.94c.57-.85,1.32-1.27,2.24-1.27.72,0,1.27.2,1.66.6.39.4.58,1.01.58,1.84v4.98h-1.22v-4.57c0-.49-.04-.85-.12-1.06-.08-.22-.22-.39-.43-.52s-.46-.2-.74-.2c-.51,0-.93.17-1.27.51-.34.34-.51.88-.51,1.63v4.22h-1.23v-4.72c0-.55-.1-.96-.3-1.23s-.53-.41-.98-.41c-.35,0-.67.09-.96.27s-.51.45-.64.8-.2.86-.2,1.52v3.77h-1.23Z"/><path d="m31.83,26.23v-1.42h1.23v1.42h-1.23Zm0,8.61v-7.26h1.23v7.26h-1.23Z"/><path d="m34.94,34.84v-7.26h1.11v1.03c.53-.8,1.3-1.2,2.31-1.2.44,0,.84.08,1.21.24.37.16.64.36.82.62s.31.56.38.91c.05.23.07.63.07,1.2v4.46h-1.23v-4.42c0-.5-.05-.88-.14-1.12-.1-.25-.27-.45-.51-.6-.24-.15-.53-.22-.86-.22-.52,0-.98.17-1.36.5s-.57.96-.57,1.89v3.96h-1.23Z"/><line class="cls-1" x1="4" y1="20.5" x2="45" y2="20.5"/></svg>