<?xml version="1.0" encoding="UTF-8"?><svg id="b.5a" xmlns="http://www.w3.org/2000/svg" viewBox="0 0 308 40"><defs><style>.cls-1{fill:none;stroke:#000;stroke-miterlimit:10;}</style></defs><path d="m114.8,14.84v-7.26h1.1v1.02c.23-.36.53-.64.91-.86s.81-.32,1.29-.32c.54,0,.98.11,1.32.33s.59.54.73.94c.57-.85,1.32-1.27,2.24-1.27.72,0,1.27.2,1.66.6s.58,1.01.58,1.84v4.98h-1.22v-4.57c0-.49-.04-.85-.12-1.06s-.22-.39-.43-.52-.46-.2-.74-.2c-.51,0-.93.17-1.27.51s-.51.88-.51,1.63v4.22h-1.23v-4.72c0-.55-.1-.96-.3-1.23s-.53-.41-.98-.41c-.35,0-.67.09-.96.27s-.51.45-.64.8-.2.86-.2,1.52v3.77h-1.23Z"/><path d="m131.2,13.94c-.46.39-.89.66-1.32.82s-.87.24-1.36.24c-.8,0-1.41-.19-1.84-.58s-.64-.89-.64-1.49c0-.36.08-.68.24-.97s.37-.53.64-.71.56-.31.89-.4c.24-.06.61-.13,1.09-.18.99-.12,1.73-.26,2.19-.42,0-.17,0-.28,0-.32,0-.5-.12-.85-.35-1.06-.31-.28-.78-.42-1.4-.42-.58,0-1.01.1-1.28.3s-.48.56-.61,1.08l-1.2-.16c.11-.52.29-.93.54-1.25s.61-.56,1.09-.73,1.02-.26,1.65-.26,1.12.07,1.51.22.67.33.85.55.31.5.38.84c.04.21.06.59.06,1.13v1.64c0,1.14.03,1.87.08,2.17s.16.59.31.87h-1.29c-.13-.26-.21-.55-.25-.9Zm-.1-2.75c-.45.18-1.12.34-2.01.46-.51.07-.86.15-1.07.25s-.37.22-.49.4-.17.37-.17.58c0,.33.12.6.37.82s.61.33,1.09.33.9-.1,1.26-.31.64-.49.81-.85c.13-.28.2-.69.2-1.23v-.45Z"/><path d="m133.76,12.67l1.22-.19c.07.49.26.86.57,1.12s.75.39,1.31.39.98-.12,1.26-.35.41-.5.41-.81c0-.28-.12-.5-.36-.66-.17-.11-.59-.25-1.26-.42-.9-.23-1.53-.42-1.88-.59s-.61-.4-.79-.69-.27-.62-.27-.97c0-.32.07-.62.22-.9s.35-.5.6-.69c.19-.14.45-.26.78-.36s.68-.15,1.06-.15c.57,0,1.07.08,1.5.25s.75.39.95.67.35.66.42,1.12l-1.2.16c-.05-.37-.21-.67-.48-.88s-.63-.31-1.11-.31c-.56,0-.97.09-1.21.28s-.36.41-.36.66c0,.16.05.3.15.43.1.13.26.24.47.33.12.05.49.15,1.09.31.87.23,1.48.42,1.82.57s.61.36.81.65.29.63.29,1.05-.12.8-.36,1.16-.58.64-1.04.84-.96.3-1.53.3c-.94,0-1.66-.2-2.16-.59s-.81-.97-.95-1.74Z"/><path d="m140.76,12.67l1.22-.19c.07.49.26.86.57,1.12s.75.39,1.31.39.98-.12,1.26-.35.41-.5.41-.81c0-.28-.12-.5-.36-.66-.17-.11-.59-.25-1.26-.42-.9-.23-1.53-.42-1.88-.59s-.61-.4-.79-.69-.27-.62-.27-.97c0-.32.07-.62.22-.9s.35-.5.6-.69c.19-.14.45-.26.78-.36s.68-.15,1.06-.15c.57,0,1.07.08,1.5.25s.75.39.95.67.35.66.42,1.12l-1.2.16c-.05-.37-.21-.67-.48-.88s-.63-.31-1.11-.31c-.56,0-.97.09-1.21.28s-.36.41-.36.66c0,.16.05.3.15.43.1.13.26.24.47.33.12.05.49.15,1.09.31.87.23,1.48.42,1.82.57s.61.36.81.65.29.63.29,1.05-.12.8-.36,1.16-.58.64-1.04.84-.96.3-1.53.3c-.94,0-1.66-.2-2.16-.59s-.81-.97-.95-1.74Z"/><path d="m151.68,11.21c0-1.34.37-2.34,1.12-2.99.62-.54,1.39-.81,2.28-.81,1,0,1.81.33,2.45.98s.95,1.56.95,2.71c0,.93-.14,1.67-.42,2.2s-.69.95-1.22,1.25-1.12.44-1.75.44c-1.02,0-1.84-.33-2.46-.98s-.94-1.59-.94-2.82Zm1.26,0c0,.93.2,1.63.61,2.09s.92.69,1.53.69,1.12-.23,1.52-.7.61-1.17.61-2.13c0-.9-.2-1.58-.61-2.04s-.92-.69-1.52-.69-1.13.23-1.53.69-.61,1.16-.61,2.08Z"/><path d="m160.22,14.84v-6.3h-1.09v-.96h1.09v-.77c0-.49.04-.85.13-1.09.12-.32.33-.58.63-.78s.72-.3,1.25-.3c.35,0,.73.04,1.15.12l-.18,1.07c-.26-.05-.5-.07-.72-.07-.37,0-.64.08-.79.24s-.23.46-.23.9v.67h1.42v.96h-1.42v6.3h-1.22Z"/><path d="m167.21,12.67l1.22-.19c.07.49.26.86.57,1.12s.75.39,1.31.39.98-.12,1.26-.35.41-.5.41-.81c0-.28-.12-.5-.36-.66-.17-.11-.59-.25-1.26-.42-.9-.23-1.53-.42-1.88-.59s-.61-.4-.79-.69-.27-.62-.27-.97c0-.32.07-.62.22-.9s.35-.5.6-.69c.19-.14.45-.26.78-.36s.68-.15,1.06-.15c.57,0,1.07.08,1.5.25s.75.39.95.67.35.66.42,1.12l-1.2.16c-.05-.37-.21-.67-.48-.88s-.63-.31-1.11-.31c-.56,0-.97.09-1.21.28s-.36.41-.36.66c0,.16.05.3.15.43.1.13.26.24.47.33.12.05.49.15,1.09.31.87.23,1.48.42,1.82.57s.61.36.81.65.29.63.29,1.05-.12.8-.36,1.16-.58.64-1.04.84-.96.3-1.53.3c-.94,0-1.66-.2-2.16-.59s-.81-.97-.95-1.74Z"/><path d="m174.71,14.84v-7.26h1.11v1.03c.53-.8,1.3-1.2,2.31-1.2.44,0,.84.08,1.21.24s.64.36.82.62.31.56.38.91c.05.23.07.63.07,1.2v4.46h-1.23v-4.42c0-.5-.05-.88-.14-1.12s-.27-.45-.51-.59-.53-.22-.86-.22c-.52,0-.98.17-1.36.5s-.57.96-.57,1.89v3.96h-1.23Z"/><path d="m182.03,11.21c0-1.34.37-2.34,1.12-2.99.62-.54,1.39-.81,2.28-.81,1,0,1.81.33,2.45.98s.95,1.56.95,2.71c0,.93-.14,1.67-.42,2.2s-.69.95-1.22,1.25-1.12.44-1.75.44c-1.02,0-1.84-.33-2.46-.98s-.94-1.59-.94-2.82Zm1.26,0c0,.93.2,1.63.61,2.09s.92.69,1.53.69,1.12-.23,1.52-.7.61-1.17.61-2.13c0-.9-.2-1.58-.61-2.04s-.92-.69-1.52-.69-1.13.23-1.53.69-.61,1.16-.61,2.08Z"/><path d="m191.62,14.84l-2.22-7.26h1.27l1.16,4.19.43,1.56c.02-.08.14-.58.38-1.5l1.16-4.25h1.26l1.09,4.21.36,1.39.42-1.4,1.24-4.2h1.2l-2.27,7.26h-1.28l-1.16-4.35-.28-1.24-1.47,5.58h-1.29Z"/><path d="m203.79,12.67l1.22-.19c.07.49.26.86.57,1.12s.75.39,1.31.39.98-.12,1.26-.35.41-.5.41-.81c0-.28-.12-.5-.36-.66-.17-.11-.59-.25-1.26-.42-.9-.23-1.53-.42-1.88-.59s-.61-.4-.79-.69-.27-.62-.27-.97c0-.32.07-.62.22-.9s.35-.5.6-.69c.19-.14.45-.26.78-.36s.68-.15,1.06-.15c.57,0,1.07.08,1.5.25s.75.39.95.67.35.66.42,1.12l-1.2.16c-.05-.37-.21-.67-.48-.88s-.63-.31-1.11-.31c-.56,0-.97.09-1.21.28s-.36.41-.36.66c0,.16.05.3.15.43.1.13.26.24.47.33.12.05.49.15,1.09.31.87.23,1.48.42,1.82.57s.61.36.81.65.29.63.29,1.05-.12.8-.36,1.16-.58.64-1.04.84-.96.3-1.53.3c-.94,0-1.66-.2-2.16-.59s-.81-.97-.95-1.74Z"/><path d="m216.01,13.94c-.46.39-.89.66-1.32.82s-.87.24-1.36.24c-.8,0-1.41-.19-1.84-.58s-.64-.89-.64-1.49c0-.36.08-.68.24-.97s.37-.53.64-.71.56-.31.89-.4c.24-.06.61-.13,1.09-.18.99-.12,1.73-.26,2.19-.42,0-.17,0-.28,0-.32,0-.5-.12-.85-.35-1.06-.31-.28-.78-.42-1.4-.42-.58,0-1.01.1-1.28.3s-.48.56-.61,1.08l-1.2-.16c.11-.52.29-.93.54-1.25s.61-.56,1.09-.73,1.02-.26,1.65-.26,1.12.07,1.51.22.67.33.85.55.31.5.38.84c.04.21.06.59.06,1.13v1.64c0,1.14.03,1.87.08,2.17s.16.59.31.87h-1.29c-.13-.26-.21-.55-.25-.9Zm-.1-2.75c-.45.18-1.12.34-2.01.46-.51.07-.86.15-1.07.25s-.37.22-.49.4-.17.37-.17.58c0,.33.12.6.37.82s.61.33,1.09.33.9-.1,1.26-.31.64-.49.81-.85c.13-.28.2-.69.2-1.23v-.45Z"/><path d="m219.06,14.84v-7.26h1.1v1.02c.23-.36.53-.64.91-.86s.81-.32,1.29-.32c.54,0,.98.11,1.32.33s.59.54.73.94c.57-.85,1.32-1.27,2.24-1.27.72,0,1.27.2,1.66.6s.58,1.01.58,1.84v4.98h-1.22v-4.57c0-.49-.04-.85-.12-1.06s-.22-.39-.43-.52-.46-.2-.74-.2c-.51,0-.93.17-1.27.51s-.51.88-.51,1.63v4.22h-1.23v-4.72c0-.55-.1-.96-.3-1.23s-.53-.41-.98-.41c-.35,0-.67.09-.96.27s-.51.45-.64.8-.2.86-.2,1.52v3.77h-1.23Z"/><path d="m230.73,17.62V7.58h1.12v.94c.26-.37.56-.65.9-.83s.74-.28,1.21-.28c.62,0,1.17.16,1.64.48s.83.77,1.07,1.35.36,1.22.36,1.91c0,.74-.13,1.41-.4,2.01-.27.59-.65,1.05-1.16,1.37-.51.32-1.04.48-1.6.48-.41,0-.78-.09-1.1-.26-.33-.17-.59-.39-.8-.66v3.53h-1.23Zm1.11-6.37c0,.93.19,1.62.57,2.07s.84.67,1.37.67,1.02-.23,1.4-.69c.39-.46.58-1.18.58-2.15s-.19-1.62-.57-2.08c-.38-.46-.83-.69-1.36-.69s-.99.25-1.39.73c-.4.49-.61,1.2-.61,2.14Z"/><path d="m238.48,14.84V4.82h1.23v10.02h-1.23Z"/><path d="m246.59,12.5l1.27.16c-.2.74-.57,1.32-1.11,1.73s-1.24.62-2.08.62c-1.06,0-1.9-.33-2.53-.98-.62-.65-.93-1.57-.93-2.75s.31-2.17.94-2.84,1.44-1.01,2.45-1.01,1.76.33,2.38.99.92,1.59.92,2.79c0,.07,0,.18,0,.33h-5.41c.05.8.27,1.41.68,1.83s.91.64,1.52.64c.45,0,.84-.12,1.16-.36s.57-.62.76-1.13Zm-4.04-1.99h4.05c-.05-.61-.21-1.07-.46-1.37-.39-.47-.9-.71-1.52-.71-.57,0-1.04.19-1.42.57-.39.38-.6.88-.64,1.52Z"/><path d="m255.65,17.79c-.68-.86-1.25-1.86-1.72-3.01s-.7-2.34-.7-3.57c0-1.08.18-2.12.53-3.12.41-1.15,1.04-2.3,1.9-3.45h.88c-.55.95-.92,1.62-1.09,2.03-.28.63-.5,1.29-.66,1.97-.2.85-.29,1.71-.29,2.57,0,2.19.68,4.38,2.04,6.57h-.88Z"/><path d="m257.73,15.44l1.2.18c.05.37.19.64.42.81.3.23.72.34,1.25.34.57,0,1.01-.11,1.32-.34s.52-.55.63-.96c.06-.25.09-.78.09-1.58-.54.63-1.21.95-2.01.95-1,0-1.77-.36-2.32-1.08s-.82-1.58-.82-2.59c0-.69.12-1.33.38-1.92s.61-1.04,1.09-1.36c.48-.32,1.04-.48,1.68-.48.86,0,1.56.35,2.12,1.04v-.88h1.13v6.28c0,1.13-.12,1.93-.35,2.4-.23.47-.59.84-1.09,1.12-.5.27-1.11.41-1.84.41-.87,0-1.57-.19-2.1-.58s-.79-.98-.77-1.76Zm1.02-4.36c0,.95.19,1.65.57,2.08s.85.66,1.42.66,1.04-.22,1.42-.65.57-1.12.57-2.05-.2-1.56-.59-2.01c-.39-.45-.87-.68-1.42-.68s-1.01.22-1.39.67-.57,1.1-.57,1.98Z"/><path d="m266.55,17.79h-.88c1.36-2.19,2.04-4.38,2.04-6.57,0-.86-.1-1.71-.29-2.55-.16-.68-.37-1.34-.65-1.97-.18-.41-.54-1.09-1.1-2.05h.88c.86,1.14,1.49,2.29,1.9,3.45.35.99.53,2.03.53,3.12,0,1.23-.24,2.42-.71,3.57-.47,1.15-1.04,2.15-1.72,3.01Z"/><path d="m117.26,33.94c-.46.39-.89.66-1.32.82s-.87.24-1.36.24c-.8,0-1.41-.19-1.84-.58-.43-.39-.64-.89-.64-1.49,0-.36.08-.68.24-.97.16-.29.37-.53.64-.71s.56-.31.89-.4c.24-.06.61-.12,1.09-.18.99-.12,1.73-.26,2.19-.42,0-.17,0-.28,0-.32,0-.5-.12-.85-.35-1.06-.31-.28-.78-.42-1.4-.42-.58,0-1.01.1-1.28.3-.28.2-.48.56-.61,1.08l-1.2-.16c.11-.52.29-.93.54-1.25.25-.32.61-.56,1.09-.73.47-.17,1.02-.26,1.65-.26s1.12.07,1.51.22.67.33.85.55c.18.22.31.5.38.84.04.21.06.59.06,1.13v1.64c0,1.14.03,1.87.08,2.17.05.3.16.59.31.87h-1.29c-.13-.25-.21-.55-.25-.9Zm-.1-2.75c-.45.18-1.12.34-2.01.46-.51.07-.86.15-1.07.25s-.37.22-.49.4c-.11.17-.17.37-.17.58,0,.33.12.6.37.82s.61.33,1.09.33.9-.1,1.26-.31c.37-.21.64-.49.81-.85.13-.28.2-.69.2-1.23v-.45Z"/><path d="m120.3,34.84v-7.26h1.11v1.1c.28-.52.54-.85.78-1.02s.5-.25.79-.25c.41,0,.84.13,1.26.4l-.42,1.14c-.3-.18-.6-.27-.9-.27-.27,0-.51.08-.72.24-.21.16-.37.39-.46.67-.14.44-.21.92-.21,1.44v3.8h-1.23Z"/><path d="m129.94,32.5l1.27.16c-.2.74-.57,1.32-1.11,1.73s-1.23.62-2.08.62c-1.06,0-1.9-.33-2.53-.98-.62-.65-.93-1.57-.93-2.75s.31-2.17.94-2.84,1.44-1.01,2.45-1.01,1.76.33,2.38.99.92,1.59.92,2.79c0,.07,0,.18,0,.33h-5.41c.05.8.27,1.41.68,1.83s.91.64,1.52.64c.45,0,.84-.12,1.16-.36s.57-.62.76-1.13Zm-4.04-1.99h4.05c-.05-.61-.21-1.07-.46-1.37-.39-.47-.9-.71-1.52-.71-.56,0-1.04.19-1.43.57s-.6.88-.64,1.52Z"/><path d="m137.5,33.94c-.46.39-.89.66-1.32.82s-.87.24-1.36.24c-.8,0-1.41-.19-1.84-.58-.43-.39-.64-.89-.64-1.49,0-.36.08-.68.24-.97.16-.29.37-.53.64-.71s.56-.31.89-.4c.24-.06.61-.12,1.09-.18.99-.12,1.73-.26,2.19-.42,0-.17,0-.28,0-.32,0-.5-.12-.85-.35-1.06-.31-.28-.78-.42-1.4-.42-.58,0-1.01.1-1.28.3-.28.2-.48.56-.61,1.08l-1.2-.16c.11-.52.29-.93.54-1.25.25-.32.61-.56,1.09-.73.47-.17,1.02-.26,1.65-.26s1.12.07,1.51.22.67.33.85.55c.18.22.31.5.38.84.04.21.06.59.06,1.13v1.64c0,1.14.03,1.87.08,2.17.05.3.16.59.31.87h-1.29c-.13-.25-.21-.55-.25-.9Zm-.1-2.75c-.45.18-1.12.34-2.01.46-.51.07-.86.15-1.07.25s-.37.22-.49.4c-.11.17-.17.37-.17.58,0,.33.12.6.37.82s.61.33,1.09.33.9-.1,1.26-.31c.37-.21.64-.49.81-.85.13-.28.2-.69.2-1.23v-.45Z"/><path d="m143.98,31.21c0-1.34.37-2.34,1.12-2.99.62-.54,1.39-.81,2.28-.81,1,0,1.81.33,2.45.98.63.65.95,1.56.95,2.71,0,.93-.14,1.67-.42,2.2-.28.54-.69.95-1.22,1.25s-1.12.44-1.75.44c-1.02,0-1.84-.33-2.46-.98s-.94-1.59-.94-2.82Zm1.26,0c0,.93.2,1.63.61,2.09.41.46.92.69,1.53.69s1.12-.23,1.52-.7.61-1.17.61-2.13c0-.9-.2-1.58-.61-2.04-.41-.46-.92-.69-1.52-.69s-1.13.23-1.53.69-.61,1.16-.61,2.08Z"/><path d="m152.52,34.84v-6.3h-1.09v-.96h1.09v-.77c0-.49.04-.85.13-1.09.12-.32.33-.58.63-.78.3-.2.72-.3,1.25-.3.35,0,.73.04,1.15.12l-.18,1.07c-.26-.05-.5-.07-.72-.07-.37,0-.64.08-.79.24s-.23.46-.23.9v.67h1.42v.96h-1.42v6.3h-1.22Z"/><path d="m159.51,32.67l1.22-.19c.07.49.26.86.57,1.12s.75.39,1.31.39.98-.12,1.26-.34c.27-.23.41-.5.41-.81,0-.28-.12-.5-.36-.66-.17-.11-.59-.25-1.26-.42-.9-.23-1.53-.42-1.88-.59-.35-.17-.61-.4-.79-.69-.18-.29-.27-.62-.27-.97,0-.32.07-.62.22-.9.15-.28.35-.5.6-.69.19-.14.45-.26.78-.36.33-.1.68-.15,1.06-.15.57,0,1.07.08,1.5.25s.75.39.95.67c.21.28.35.65.42,1.12l-1.2.16c-.05-.37-.21-.67-.48-.88s-.63-.31-1.11-.31c-.56,0-.97.09-1.21.28s-.36.41-.36.66c0,.16.05.3.15.43.1.13.26.24.47.33.12.05.49.15,1.09.31.87.23,1.48.42,1.82.57.34.15.61.36.81.65s.29.63.29,1.05-.12.8-.36,1.16c-.24.36-.58.64-1.04.84-.45.2-.96.3-1.53.3-.94,0-1.66-.2-2.16-.59s-.81-.97-.95-1.74Z"/><path d="m171.74,33.94c-.46.39-.89.66-1.32.82s-.87.24-1.36.24c-.8,0-1.41-.19-1.84-.58-.43-.39-.64-.89-.64-1.49,0-.36.08-.68.24-.97.16-.29.37-.53.64-.71s.56-.31.89-.4c.24-.06.61-.12,1.09-.18.99-.12,1.73-.26,2.19-.42,0-.17,0-.28,0-.32,0-.5-.12-.85-.35-1.06-.31-.28-.78-.42-1.4-.42-.58,0-1.01.1-1.28.3-.28.2-.48.56-.61,1.08l-1.2-.16c.11-.52.29-.93.54-1.25.25-.32.61-.56,1.09-.73.47-.17,1.02-.26,1.65-.26s1.12.07,1.51.22.67.33.85.55c.18.22.31.5.38.84.04.21.06.59.06,1.13v1.64c0,1.14.03,1.87.08,2.17.05.3.16.59.31.87h-1.29c-.13-.25-.21-.55-.25-.9Zm-.1-2.75c-.45.18-1.12.34-2.01.46-.51.07-.86.15-1.07.25s-.37.22-.49.4c-.11.17-.17.37-.17.58,0,.33.12.6.37.82s.61.33,1.09.33.9-.1,1.26-.31c.37-.21.64-.49.81-.85.13-.28.2-.69.2-1.23v-.45Z"/><path d="m174.79,34.84v-7.26h1.1v1.02c.23-.36.53-.64.91-.86.38-.22.81-.33,1.29-.33.54,0,.98.11,1.32.33s.59.54.73.94c.57-.85,1.32-1.27,2.24-1.27.72,0,1.27.2,1.66.6.39.4.58,1.01.58,1.84v4.98h-1.22v-4.57c0-.49-.04-.85-.12-1.06-.08-.22-.22-.39-.43-.52s-.46-.2-.74-.2c-.51,0-.93.17-1.27.51-.34.34-.51.88-.51,1.63v4.22h-1.23v-4.72c0-.55-.1-.96-.3-1.23s-.53-.41-.98-.41c-.35,0-.67.09-.96.27s-.51.45-.64.8-.2.86-.2,1.52v3.77h-1.23Z"/><path d="m186.45,37.62v-10.04h1.12v.94c.26-.37.56-.65.9-.83.33-.18.74-.28,1.21-.28.62,0,1.17.16,1.64.48s.83.77,1.07,1.35c.24.58.36,1.22.36,1.91,0,.74-.13,1.41-.4,2.01-.27.6-.65,1.05-1.16,1.37-.51.32-1.04.48-1.6.48-.41,0-.78-.09-1.1-.26s-.59-.39-.8-.66v3.53h-1.23Zm1.11-6.37c0,.93.19,1.62.57,2.07s.84.67,1.37.67,1.02-.23,1.4-.69c.39-.46.58-1.18.58-2.15s-.19-1.62-.57-2.08-.83-.69-1.36-.69-.99.25-1.39.73c-.4.49-.6,1.2-.6,2.14Z"/><path d="m194.21,34.84v-10.02h1.23v10.02h-1.23Z"/><path d="m202.32,32.5l1.27.16c-.2.74-.57,1.32-1.11,1.73s-1.23.62-2.08.62c-1.06,0-1.9-.33-2.53-.98-.62-.65-.93-1.57-.93-2.75s.31-2.17.94-2.84,1.44-1.01,2.45-1.01,1.76.33,2.38.99.92,1.59.92,2.79c0,.07,0,.18,0,.33h-5.41c.05.8.27,1.41.68,1.83s.91.64,1.52.64c.45,0,.84-.12,1.16-.36s.57-.62.76-1.13Zm-4.04-1.99h4.05c-.05-.61-.21-1.07-.46-1.37-.39-.47-.9-.71-1.52-.71-.56,0-1.04.19-1.43.57s-.6.88-.64,1.52Z"/><path d="m211.71,33.74l.18,1.09c-.35.07-.66.11-.93.11-.45,0-.79-.07-1.04-.21s-.42-.33-.52-.56c-.1-.23-.15-.71-.15-1.45v-4.18h-.9v-.96h.9v-1.8l1.22-.74v2.54h1.24v.96h-1.24v4.25c0,.35.02.58.06.68s.11.18.21.24.24.09.42.09c.14,0,.32-.02.54-.05Z"/><path d="m217.67,34.84v-1.07c-.56.82-1.33,1.23-2.3,1.23-.43,0-.83-.08-1.2-.25s-.65-.37-.83-.62c-.18-.25-.31-.55-.38-.91-.05-.24-.08-.62-.08-1.15v-4.5h1.23v4.03c0,.64.02,1.08.08,1.3.08.32.24.58.49.76.25.19.56.28.93.28s.72-.09,1.04-.28c.32-.19.55-.45.69-.77.13-.33.2-.8.2-1.42v-3.89h1.23v7.26h-1.1Z"/><path d="m221.83,34.84h-1.14v-10.02h1.23v3.58c.52-.65,1.18-.98,1.99-.98.45,0,.87.09,1.27.27.4.18.73.43.98.76.26.33.46.72.6,1.18s.22.95.22,1.48c0,1.24-.31,2.21-.92,2.88s-1.35,1.02-2.21,1.02-1.53-.36-2.02-1.07v.91Zm-.01-3.68c0,.87.12,1.5.36,1.89.39.63.91.95,1.57.95.54,0,1-.23,1.39-.7.39-.47.59-1.16.59-2.09s-.19-1.65-.56-2.1-.83-.68-1.36-.68-1,.23-1.39.7c-.39.47-.59,1.14-.59,2.03Z"/><path d="m233.45,32.5l1.27.16c-.2.74-.57,1.32-1.11,1.73s-1.24.62-2.08.62c-1.06,0-1.9-.33-2.53-.98-.62-.65-.93-1.57-.93-2.75s.31-2.17.94-2.84,1.44-1.01,2.45-1.01,1.76.33,2.38.99.92,1.59.92,2.79c0,.07,0,.18,0,.33h-5.41c.05.8.27,1.41.68,1.83s.91.64,1.52.64c.45,0,.84-.12,1.16-.36s.57-.62.76-1.13Zm-4.04-1.99h4.05c-.05-.61-.21-1.07-.46-1.37-.39-.47-.9-.71-1.52-.71-.57,0-1.04.19-1.42.57-.39.38-.6.88-.64,1.52Z"/><path d="m242.51,37.79c-.68-.86-1.25-1.86-1.72-3.01s-.7-2.34-.7-3.57c0-1.08.18-2.12.53-3.12.41-1.15,1.04-2.3,1.9-3.45h.88c-.55.95-.92,1.62-1.09,2.03-.28.63-.5,1.29-.66,1.97-.2.85-.29,1.71-.29,2.57,0,2.19.68,4.38,2.04,6.57h-.88Z"/><path d="m249.56,32.18l1.21.16c-.13.83-.47,1.49-1.01,1.96-.54.47-1.21.71-2.01.71-.99,0-1.79-.33-2.4-.97-.6-.65-.91-1.58-.91-2.79,0-.78.13-1.47.39-2.06s.66-1.03,1.19-1.32c.53-.29,1.11-.44,1.73-.44.79,0,1.43.2,1.93.6.5.4.82.96.96,1.7l-1.2.18c-.11-.49-.32-.85-.6-1.1-.29-.25-.64-.37-1.05-.37-.62,0-1.12.22-1.51.67-.39.44-.58,1.15-.58,2.11s.19,1.68.56,2.13.86.66,1.46.66c.48,0,.89-.15,1.21-.44s.53-.75.62-1.37Z"/><path d="m251.82,34.84v-7.26h1.1v1.02c.23-.36.53-.64.91-.86.38-.22.81-.33,1.29-.33.54,0,.98.11,1.32.33.34.22.59.54.73.94.57-.85,1.32-1.27,2.24-1.27.72,0,1.27.2,1.66.6.39.4.58,1.01.58,1.84v4.98h-1.22v-4.57c0-.49-.04-.85-.12-1.06-.08-.22-.22-.39-.43-.52s-.46-.2-.74-.2c-.51,0-.93.17-1.27.51-.34.34-.51.88-.51,1.63v4.22h-1.23v-4.72c0-.55-.1-.96-.3-1.23s-.53-.41-.98-.41c-.35,0-.67.09-.96.27-.29.18-.51.45-.64.8s-.2.86-.2,1.52v3.77h-1.23Z"/><path d="m266.67,29.49v.69h-3.86c0-.17.02-.34.08-.5.1-.26.26-.52.47-.78s.53-.55.94-.88c.63-.52,1.06-.93,1.29-1.24.22-.3.33-.59.33-.86s-.1-.52-.3-.72-.47-.29-.79-.29c-.35,0-.62.1-.83.31-.21.21-.31.49-.31.86l-.74-.08c.05-.55.24-.97.57-1.26.33-.29.77-.43,1.33-.43s1,.16,1.33.47c.33.31.49.7.49,1.16,0,.23-.05.46-.14.69-.1.23-.25.46-.48.71-.22.25-.59.59-1.11,1.03-.43.36-.71.61-.83.74-.12.13-.22.26-.3.39h2.87Z"/><path d="m268.83,37.79h-.88c1.36-2.19,2.04-4.38,2.04-6.57,0-.86-.1-1.71-.29-2.55-.15-.68-.37-1.34-.65-1.97-.18-.41-.54-1.09-1.1-2.05h.88c.86,1.14,1.49,2.29,1.9,3.45.35.99.53,2.03.53,3.12,0,1.23-.24,2.42-.71,3.57-.47,1.15-1.04,2.15-1.72,3.01Z"/><line class="cls-1" x1="111" y1="20.5" x2="273" y2="20.5"/><path d="m2.87,24.22l2.1-10.02h1.33l-.87,4.16h5.2l.87-4.16h1.34l-2.09,10.02h-1.34l.98-4.72h-5.19l-.99,4.72h-1.34Z"/><path d="m13.08,24.22l2.1-10.02h1.3l1.69,3.76c.51,1.15.92,2.11,1.22,2.9.17.46.37,1.07.6,1.85.12-.84.28-1.71.46-2.61l1.23-5.89h1.31l-2.09,10.02h-1.33l-2.49-5.79c-.44-1.02-.79-1.92-1.03-2.7-.07.65-.2,1.45-.4,2.4l-1.27,6.09h-1.31Z"/><path d="m23.33,24.22c.13-.6.3-1.1.53-1.5.23-.4.53-.79.9-1.15s1.09-.97,2.16-1.82c.65-.52,1.09-.9,1.33-1.14.34-.36.59-.7.75-1.05.1-.23.16-.49.16-.76,0-.46-.16-.85-.49-1.17-.33-.32-.73-.48-1.2-.48s-.88.16-1.23.49-.6.85-.75,1.57l-1.21-.18c.12-.89.46-1.59,1.04-2.1.57-.51,1.28-.77,2.14-.77.57,0,1.09.12,1.55.36.46.24.81.57,1.04,1s.35.87.35,1.33c0,.67-.24,1.31-.71,1.92-.29.38-1.15,1.14-2.57,2.26-.61.48-1.07.88-1.36,1.19-.3.31-.52.6-.67.88h4.48l-.24,1.13h-5.97Z"/><path d="m34.47,24.22l.54-2.56h-4.09l.26-1.22,5.61-6.24h1.01l-1.33,6.37h1.41l-.23,1.09h-1.41l-.54,2.56h-1.24Zm.77-3.65l.88-4.18-3.73,4.18h2.86Z"/><path d="m40.44,24.22l-.62-10.02h1.36l.23,4.96c.01.24.04.88.07,1.93,0,.29.01.5.01.62,0,.08,0,.3,0,.68.56-1.14.96-1.94,1.2-2.41l3.05-5.77h1.38l.33,5.86c.04.67.06,1.48.08,2.42.08-.23.23-.58.44-1.04.33-.74.58-1.27.74-1.59l2.86-5.65h1.37l-5.1,10.02h-1.44l-.33-6.07c-.03-.52-.06-1.16-.08-1.91-.28.63-.51,1.13-.7,1.48l-3.47,6.51h-1.38Z"/><path d="m58.46,27.17c-.68-.86-1.25-1.86-1.72-3.01s-.7-2.34-.7-3.57c0-1.08.18-2.12.53-3.12.41-1.15,1.04-2.3,1.9-3.45h.88c-.55.95-.92,1.62-1.09,2.03-.28.63-.5,1.29-.66,1.97-.2.85-.29,1.71-.29,2.57,0,2.19.68,4.38,2.04,6.57h-.88Z"/><path d="m60.77,24.22v-7.26h1.1v1.02c.23-.36.53-.64.91-.86s.81-.32,1.29-.32c.54,0,.98.11,1.32.33.34.22.59.54.73.94.57-.85,1.32-1.27,2.24-1.27.72,0,1.27.2,1.66.6s.58,1.01.58,1.84v4.98h-1.22v-4.57c0-.49-.04-.85-.12-1.06-.08-.22-.22-.39-.43-.52s-.46-.2-.74-.2c-.51,0-.93.17-1.27.51s-.51.88-.51,1.63v4.22h-1.23v-4.72c0-.55-.1-.96-.3-1.23s-.53-.41-.98-.41c-.35,0-.67.09-.96.27-.29.18-.51.45-.64.8s-.2.86-.2,1.52v3.77h-1.23Z"/><path d="m72.43,24.22v-7.26h1.1v1.02c.23-.36.53-.64.91-.86s.81-.32,1.29-.32c.54,0,.98.11,1.32.33.34.22.59.54.73.94.57-.85,1.32-1.27,2.24-1.27.72,0,1.27.2,1.66.6s.58,1.01.58,1.84v4.98h-1.22v-4.57c0-.49-.04-.85-.12-1.06-.08-.22-.22-.39-.43-.52s-.46-.2-.74-.2c-.51,0-.93.17-1.27.51s-.51.88-.51,1.63v4.22h-1.23v-4.72c0-.55-.1-.96-.3-1.23s-.53-.41-.98-.41c-.35,0-.67.09-.96.27-.29.18-.51.45-.64.8s-.2.86-.2,1.52v3.77h-1.23Z"/><path d="m84.9,27.17h-.88c1.36-2.19,2.04-4.38,2.04-6.57,0-.86-.1-1.71-.29-2.55-.16-.68-.37-1.34-.65-1.97-.18-.41-.54-1.09-1.1-2.05h.88c.86,1.14,1.49,2.29,1.9,3.45.35.99.53,2.03.53,3.12,0,1.23-.24,2.42-.71,3.57-.47,1.15-1.04,2.15-1.72,3.01Z"/><path d="m99.12,18.33h-6.62v-1.15h6.62v1.15Zm0,3.04h-6.62v-1.15h6.62v1.15Z"/><path d="m281.39,24.22l2.65-3.77-2.45-3.49h1.54l1.11,1.7c.21.32.38.59.51.81.2-.3.38-.57.55-.8l1.22-1.72h1.47l-2.51,3.42,2.7,3.84h-1.51l-1.49-2.26-.4-.61-1.91,2.86h-1.49Z"/><path d="m297.39,24.22h-1.23v-7.84c-.3.28-.68.56-1.17.85-.48.28-.91.49-1.3.64v-1.19c.69-.32,1.29-.72,1.8-1.18s.88-.91,1.09-1.34h.79v10.06Z"/><path d="m300.54,19.28c0-1.19.12-2.14.37-2.86.24-.72.61-1.28,1.09-1.67.48-.39,1.09-.59,1.82-.59.54,0,1.01.11,1.42.32s.74.53,1,.94.47.9.62,1.49.23,1.38.23,2.37c0,1.18-.12,2.12-.36,2.85-.24.72-.6,1.28-1.08,1.67-.48.39-1.09.59-1.82.59-.97,0-1.72-.35-2.28-1.04-.66-.83-.99-2.19-.99-4.07Zm1.26,0c0,1.65.19,2.74.58,3.29.38.54.86.82,1.42.82s1.04-.27,1.42-.82c.39-.55.58-1.64.58-3.28s-.19-2.75-.58-3.29c-.38-.54-.86-.81-1.44-.81s-1.02.24-1.35.72c-.42.61-.64,1.74-.64,3.38Z"/></svg>