<?xml version="1.0" encoding="UTF-8"?><svg id="b.5c" xmlns="http://www.w3.org/2000/svg" viewBox="0 0 218 40"><defs><style>.cls-1{stroke-width:1.07px;}.cls-1,.cls-2{fill:none;stroke:#000;stroke-miterlimit:10;}</style></defs><path d="m5.33,27.01h-1.24l1.22-5.68c.24-1.11.5-1.95.79-2.53.29-.58.7-1.05,1.24-1.43.54-.38,1.17-.57,1.9-.57.83,0,1.52.28,2.05.83s.8,1.27.8,2.16c0,1.23-.36,2.3-1.08,3.22-.72.92-1.61,1.38-2.67,1.38-.95,0-1.69-.34-2.21-1.03l-.8,3.65Zm1.29-5.47c0,.62.16,1.08.48,1.38.32.31.7.46,1.15.46s.9-.17,1.32-.52c.42-.34.74-.81.97-1.4s.35-1.15.35-1.7-.15-1.01-.45-1.39c-.3-.37-.71-.56-1.21-.56-.76,0-1.38.4-1.87,1.19-.48.79-.73,1.63-.73,2.53Z"/><path d="m73.68,18.33h-6.62v-1.15h6.62v1.15Zm0,3.04h-6.62v-1.15h6.62v1.15Z"/><path d="m20.79,34.33c-1.46-1.84-2.69-3.98-3.69-6.45s-1.51-5.01-1.51-7.65c0-2.32.38-4.55,1.13-6.68.88-2.47,2.24-4.93,4.07-7.38h1.89c-1.18,2.03-1.96,3.48-2.34,4.35-.6,1.35-1.06,2.75-1.41,4.22-.42,1.83-.63,3.66-.63,5.51,0,4.7,1.46,9.39,4.38,14.08h-1.89Z"/><path d="m52.47,34.33h-1.89c2.92-4.69,4.38-9.38,4.38-14.08,0-1.84-.21-3.66-.63-5.46-.33-1.46-.8-2.87-1.39-4.22-.38-.88-1.17-2.34-2.36-4.39h1.89c1.84,2.45,3.19,4.91,4.07,7.38.75,2.13,1.13,4.36,1.13,6.68,0,2.64-.51,5.19-1.52,7.65s-2.24,4.61-3.68,6.45Z"/><path d="m30.22,13.84V3.82h1.23v5.71l2.91-2.95h1.59l-2.78,2.69,3.06,4.57h-1.52l-2.4-3.71-.87.83v2.88h-1.23Z"/><path d="m36.99,14.44l1.2.18c.05.37.19.64.42.81.31.23.72.34,1.25.34.57,0,1.01-.11,1.32-.34s.52-.55.63-.96c.06-.25.09-.78.09-1.58-.54.63-1.21.95-2.01.95-1,0-1.77-.36-2.32-1.08s-.82-1.58-.82-2.59c0-.69.13-1.33.38-1.92s.61-1.04,1.09-1.36,1.04-.48,1.68-.48c.86,0,1.56.35,2.12,1.04v-.88h1.13v6.28c0,1.13-.12,1.93-.35,2.4s-.59.84-1.09,1.12-1.11.41-1.84.41c-.87,0-1.57-.19-2.1-.58s-.79-.98-.77-1.76Zm1.02-4.36c0,.95.19,1.65.57,2.08s.85.66,1.42.66,1.04-.22,1.42-.65.57-1.12.57-2.05-.2-1.56-.59-2.01-.87-.68-1.43-.68-1.01.22-1.39.67-.57,1.1-.57,1.98Z"/><path d="m29.5,33.84v-7.26h1.1v1.02c.23-.36.53-.64.91-.86.38-.22.81-.33,1.29-.33.54,0,.98.11,1.32.33s.59.54.73.94c.57-.85,1.32-1.27,2.24-1.27.72,0,1.27.2,1.66.6.39.4.58,1.01.58,1.84v4.98h-1.22v-4.57c0-.49-.04-.85-.12-1.06-.08-.22-.22-.39-.43-.52s-.46-.2-.74-.2c-.51,0-.93.17-1.27.51-.34.34-.51.88-.51,1.63v4.22h-1.23v-4.72c0-.55-.1-.96-.3-1.23s-.53-.41-.98-.41c-.35,0-.67.09-.96.27s-.51.45-.64.8-.2.86-.2,1.52v3.77h-1.23Z"/><path d="m40.59,27.63l.72-.1c.08.41.22.7.42.88.2.18.44.27.72.27.34,0,.62-.12.85-.35s.35-.52.35-.87-.11-.6-.32-.81c-.21-.21-.49-.32-.82-.32-.14,0-.3.03-.51.08l.08-.63s.09,0,.12,0c.31,0,.58-.08.83-.24.24-.16.37-.41.37-.74,0-.26-.09-.48-.27-.65-.18-.17-.41-.26-.69-.26s-.51.09-.7.26c-.19.17-.31.44-.36.79l-.72-.13c.09-.48.29-.85.6-1.12.31-.26.7-.4,1.16-.4.32,0,.61.07.88.21s.47.32.62.56c.14.24.21.49.21.75s-.07.48-.2.69c-.14.21-.34.37-.6.49.35.08.61.25.81.5s.29.57.29.94c0,.51-.19.94-.56,1.3-.37.36-.84.53-1.41.53-.51,0-.94-.15-1.28-.46-.34-.31-.53-.7-.58-1.19Z"/><line class="cls-2" x1="25" y1="20" x2="48" y2="20"/><path d="m182.39,24.22l2.65-3.77-2.45-3.49h1.54l1.11,1.7c.21.32.38.59.51.81.2-.3.38-.57.55-.8l1.22-1.72h1.47l-2.51,3.42,2.7,3.84h-1.51l-1.49-2.26-.4-.61-1.91,2.86h-1.49Z"/><path d="m198.39,24.22h-1.23v-7.84c-.3.28-.68.56-1.17.85-.48.28-.91.49-1.3.64v-1.19c.69-.32,1.29-.72,1.8-1.18s.88-.91,1.09-1.34h.79v10.06Z"/><path d="m201.54,19.28c0-1.19.12-2.14.37-2.86.24-.72.61-1.28,1.09-1.67.48-.39,1.09-.59,1.82-.59.54,0,1.01.11,1.42.32s.74.53,1,.94.47.9.62,1.49.23,1.38.23,2.37c0,1.18-.12,2.12-.36,2.85-.24.72-.6,1.28-1.08,1.67-.48.39-1.09.59-1.82.59-.97,0-1.72-.35-2.28-1.04-.66-.83-.99-2.19-.99-4.07Zm1.26,0c0,1.65.19,2.74.58,3.29.38.54.86.82,1.42.82s1.04-.27,1.42-.82c.39-.55.58-1.64.58-3.28s-.19-2.75-.58-3.29c-.38-.54-.86-.81-1.44-.81s-1.02.24-1.35.72c-.42.61-.64,1.74-.64,3.38Z"/><path d="m209.33,19.28c0-1.19.12-2.14.37-2.86.24-.72.61-1.28,1.09-1.67.48-.39,1.09-.59,1.82-.59.54,0,1.01.11,1.42.32s.74.53,1,.94.47.9.62,1.49.23,1.38.23,2.37c0,1.18-.12,2.12-.36,2.85-.24.72-.6,1.28-1.08,1.67-.48.39-1.09.59-1.82.59-.97,0-1.72-.35-2.28-1.04-.66-.83-.99-2.19-.99-4.07Zm1.26,0c0,1.65.19,2.74.58,3.29.38.54.86.82,1.42.82s1.04-.27,1.42-.82c.39-.55.58-1.64.58-3.28s-.19-2.75-.58-3.29c-.38-.54-.86-.81-1.44-.81s-1.02.24-1.35.72c-.42.61-.64,1.74-.64,3.38Z"/><path d="m88.5,13.84l2.1-10.02h1.33l-.87,4.16h5.2l.87-4.16h1.34l-2.09,10.02h-1.34l.98-4.72h-5.19l-.99,4.72h-1.34Z"/><path d="m98.7,13.84l2.1-10.02h1.3l1.69,3.76c.52,1.15.92,2.11,1.22,2.9.17.46.37,1.07.6,1.85.12-.84.28-1.71.46-2.61l1.23-5.89h1.31l-2.09,10.02h-1.33l-2.49-5.79c-.44-1.02-.79-1.92-1.03-2.7-.07.65-.2,1.45-.4,2.4l-1.27,6.09h-1.31Z"/><path d="m108.95,13.84c.13-.6.3-1.1.53-1.5s.53-.79.9-1.15,1.09-.97,2.16-1.82c.65-.52,1.09-.9,1.33-1.14.34-.36.59-.7.75-1.05.1-.23.16-.49.16-.76,0-.46-.16-.85-.49-1.17s-.73-.48-1.2-.48-.88.16-1.23.49-.6.85-.75,1.57l-1.21-.18c.12-.89.46-1.59,1.04-2.1s1.28-.77,2.14-.77c.57,0,1.09.12,1.55.36s.81.57,1.04,1,.35.87.35,1.33c0,.67-.24,1.31-.71,1.92-.29.38-1.15,1.14-2.57,2.26-.61.48-1.07.88-1.36,1.19s-.52.6-.67.88h4.48l-.24,1.13h-5.97Z"/><path d="m120.1,13.84l.54-2.56h-4.09l.26-1.22,5.61-6.24h1.01l-1.33,6.37h1.41l-.23,1.09h-1.41l-.54,2.56h-1.24Zm.77-3.65l.88-4.18-3.73,4.18h2.86Z"/><path d="m126.07,13.84l-.62-10.02h1.36l.23,4.96c.01.24.04.88.07,1.93,0,.29.01.5.01.62,0,.08,0,.3,0,.68.56-1.14.96-1.94,1.2-2.41l3.05-5.77h1.38l.33,5.86c.04.67.06,1.48.08,2.42.08-.23.23-.58.44-1.04.33-.74.58-1.27.74-1.59l2.86-5.65h1.37l-5.1,10.02h-1.44l-.33-6.07c-.03-.52-.06-1.16-.08-1.91-.28.63-.51,1.13-.7,1.48l-3.47,6.51h-1.38Z"/><path d="m144.08,16.79c-.68-.86-1.25-1.86-1.72-3.01s-.7-2.34-.7-3.57c0-1.08.18-2.12.53-3.12.41-1.15,1.04-2.3,1.9-3.45h.88c-.55.95-.92,1.62-1.09,2.03-.28.63-.5,1.29-.66,1.97-.2.85-.29,1.71-.29,2.57,0,2.19.68,4.38,2.04,6.57h-.88Z"/><path d="m146.39,13.84v-7.26h1.1v1.02c.23-.36.53-.64.91-.86s.81-.32,1.29-.32c.54,0,.98.11,1.32.33s.59.54.73.94c.57-.85,1.32-1.27,2.24-1.27.72,0,1.27.2,1.66.6s.58,1.01.58,1.84v4.98h-1.22v-4.57c0-.49-.04-.85-.12-1.06s-.22-.39-.43-.52-.46-.2-.74-.2c-.51,0-.93.17-1.27.51s-.51.88-.51,1.63v4.22h-1.23v-4.72c0-.55-.1-.96-.3-1.23s-.53-.41-.98-.41c-.35,0-.67.09-.96.27s-.51.45-.64.8-.2.86-.2,1.52v3.77h-1.23Z"/><path d="m158.05,13.84v-7.26h1.1v1.02c.23-.36.53-.64.91-.86s.81-.32,1.29-.32c.54,0,.98.11,1.32.33s.59.54.73.94c.57-.85,1.32-1.27,2.24-1.27.72,0,1.27.2,1.66.6s.58,1.01.58,1.84v4.98h-1.22v-4.57c0-.49-.04-.85-.12-1.06s-.22-.39-.43-.52-.46-.2-.74-.2c-.51,0-.93.17-1.27.51s-.51.88-.51,1.63v4.22h-1.23v-4.72c0-.55-.1-.96-.3-1.23s-.53-.41-.98-.41c-.35,0-.67.09-.96.27s-.51.45-.64.8-.2.86-.2,1.52v3.77h-1.23Z"/><path d="m170.52,16.79h-.88c1.36-2.19,2.04-4.38,2.04-6.57,0-.86-.1-1.71-.29-2.55-.15-.68-.37-1.34-.65-1.97-.18-.41-.54-1.09-1.1-2.05h.88c.86,1.14,1.49,2.29,1.9,3.45.35.99.53,2.03.53,3.12,0,1.23-.24,2.42-.71,3.57s-1.04,2.15-1.72,3.01Z"/><path d="m101.33,33.84l2.1-10.02h1.33l-.87,4.16h5.2l.87-4.16h1.34l-2.09,10.02h-1.34l.98-4.72h-5.19l-.99,4.72h-1.34Z"/><path d="m111.67,33.84c.13-.6.3-1.1.53-1.5.23-.4.53-.79.9-1.15.37-.36,1.09-.97,2.16-1.82.65-.51,1.09-.9,1.33-1.14.34-.36.59-.7.75-1.05.1-.23.16-.49.16-.76,0-.46-.16-.85-.49-1.17-.33-.32-.73-.48-1.2-.48s-.88.16-1.23.49c-.35.33-.6.85-.75,1.57l-1.21-.18c.12-.89.46-1.59,1.04-2.1.57-.51,1.28-.77,2.14-.77.57,0,1.09.12,1.55.36s.81.57,1.04,1,.35.87.35,1.33c0,.67-.24,1.31-.71,1.92-.29.38-1.15,1.14-2.57,2.26-.61.48-1.07.88-1.36,1.19s-.52.6-.67.88h4.48l-.24,1.13h-5.97Z"/><path d="m119.26,33.84l2.09-10.02h3.02c.72,0,1.28.05,1.66.16.55.14,1.01.39,1.4.76.39.36.68.81.88,1.36s.29,1.15.29,1.83c0,.81-.12,1.54-.37,2.21-.24.66-.56,1.25-.96,1.75-.39.5-.81.9-1.24,1.18-.43.29-.94.5-1.53.63-.45.11-1,.16-1.65.16h-3.61Zm1.58-1.13h1.59c.72,0,1.35-.07,1.91-.2.35-.08.64-.2.89-.36.32-.21.62-.48.88-.81.35-.45.62-.96.83-1.53.21-.57.31-1.22.31-1.95,0-.81-.14-1.43-.42-1.87-.28-.43-.64-.72-1.08-.86-.32-.1-.83-.16-1.51-.16h-1.77l-1.62,7.75Z"/><path d="m135.91,36.79c-.68-.86-1.25-1.86-1.72-3.01s-.7-2.34-.7-3.57c0-1.08.18-2.12.53-3.12.41-1.15,1.04-2.3,1.9-3.45h.88c-.55.95-.92,1.62-1.09,2.03-.28.63-.5,1.29-.66,1.97-.2.85-.29,1.71-.29,2.57,0,2.19.68,4.38,2.04,6.57h-.88Z"/><path d="m142.96,31.18l1.21.16c-.13.83-.47,1.49-1.02,1.96-.54.47-1.21.71-2.01.71-.99,0-1.79-.33-2.4-.97-.6-.65-.91-1.58-.91-2.79,0-.78.13-1.47.39-2.06s.66-1.03,1.19-1.32c.53-.29,1.11-.44,1.73-.44.79,0,1.43.2,1.93.6.5.4.82.96.96,1.7l-1.2.18c-.11-.49-.32-.85-.6-1.1s-.64-.37-1.05-.37c-.62,0-1.12.22-1.51.67-.39.44-.58,1.15-.58,2.11s.19,1.68.56,2.13.86.66,1.46.66c.48,0,.89-.15,1.21-.44s.53-.75.62-1.37Z"/><path d="m145.22,33.84v-7.26h1.1v1.02c.23-.36.53-.64.91-.86.38-.22.81-.33,1.29-.33.54,0,.98.11,1.32.33s.59.54.73.94c.57-.85,1.32-1.27,2.24-1.27.72,0,1.27.2,1.66.6.39.4.58,1.01.58,1.84v4.98h-1.22v-4.57c0-.49-.04-.85-.12-1.06-.08-.22-.22-.39-.43-.52s-.46-.2-.74-.2c-.51,0-.93.17-1.27.51-.34.34-.51.88-.51,1.63v4.22h-1.23v-4.72c0-.55-.1-.96-.3-1.23s-.53-.41-.98-.41c-.35,0-.67.09-.96.27s-.51.45-.64.8-.2.86-.2,1.52v3.77h-1.23Z"/><path d="m157.69,36.79h-.88c1.36-2.19,2.04-4.38,2.04-6.57,0-.86-.1-1.71-.29-2.55-.15-.68-.37-1.34-.65-1.97-.18-.41-.54-1.09-1.1-2.05h.88c.86,1.14,1.49,2.29,1.9,3.45.35.99.53,2.03.53,3.12,0,1.23-.24,2.42-.71,3.57s-1.04,2.15-1.72,3.01Z"/><line class="cls-1" x1="87" y1="20.5" x2="174" y2="20.5"/></svg>