<?xml version="1.0" encoding="UTF-8"?><svg id="MFpc" xmlns="http://www.w3.org/2000/svg" viewBox="0 0 40 40"><defs><style>.cls-1{fill:none;stroke:#000;stroke-linecap:round;stroke-linejoin:round;stroke-width:4px;}</style></defs><path class="cls-1" d="m35.5,12.5c0-4.42-3.58-8-8-8-3.45,0-6.37,2.18-7.5,5.24-1.13-3.05-4.05-5.24-7.5-5.24-4.42,0-8,3.58-8,8s3.58,8,8,8c.46,0,.92-.05,1.36-.12-1.16,1.39-1.86,3.17-1.86,5.12,0,4.42,3.58,8,8,8s8-3.58,8-8c0-1.95-.7-3.74-1.86-5.12.44.08.89.12,1.36.12,4.42,0,8-3.58,8-8Z"/></svg>