<?xml version="1.0" encoding="UTF-8"?><svg id="MFcr" xmlns="http://www.w3.org/2000/svg" viewBox="0 0 40 40"><path d="m27.89,11.55c4.66,0,8.45,3.79,8.45,8.45s-3.79,8.45-8.45,8.45c-3.6,0-6.67-2.26-7.89-5.44-1.22,3.18-4.29,5.44-7.89,5.44-4.66,0-8.45-3.79-8.45-8.45s3.79-8.45,8.45-8.45c3.6,0,6.67,2.26,7.89,5.44,1.22-3.18,4.29-5.44,7.89-5.44m0-2c-3.06,0-5.93,1.37-7.89,3.62-1.95-2.25-4.82-3.62-7.89-3.62-5.76,0-10.45,4.69-10.45,10.45s4.69,10.45,10.45,10.45c3.06,0,5.93-1.37,7.89-3.62,1.95,2.25,4.82,3.62,7.89,3.62,5.76,0,10.45-4.69,10.45-10.45s-4.69-10.45-10.45-10.45h0Z"/><path d="m12.11,17.28c1.5,0,2.72,1.22,2.72,2.72s-1.22,2.72-2.72,2.72-2.72-1.22-2.72-2.72,1.22-2.72,2.72-2.72m0-2c-2.6,0-4.72,2.12-4.72,4.72s2.12,4.72,4.72,4.72,4.72-2.12,4.72-4.72-2.12-4.72-4.72-4.72h0Z"/><path d="m27.82,17.28c1.5,0,2.72,1.22,2.72,2.72s-1.22,2.72-2.72,2.72-2.72-1.22-2.72-2.72,1.22-2.72,2.72-2.72m0-2c-2.6,0-4.72,2.12-4.72,4.72s2.12,4.72,4.72,4.72,4.72-2.12,4.72-4.72-2.12-4.72-4.72-4.72h0Z"/></svg>