<?xml version="1.0" encoding="UTF-8"?><svg id="Layer_1" xmlns="http://www.w3.org/2000/svg" viewBox="0 0 352 40"><defs><style>.cls-1{stroke-width:1.07px;}.cls-1,.cls-2{fill:none;stroke:#000;stroke-miterlimit:10;}</style></defs><path d="m4.89,24.22l2.1-10.02h4.18c.72,0,1.27.08,1.63.25.36.17.66.45.9.85s.36.86.36,1.36c0,.41-.08.84-.25,1.26s-.38.78-.64,1.06c-.26.28-.52.49-.78.63s-.55.25-.85.31c-.64.15-1.29.23-1.95.23h-2.51l-.85,4.07h-1.34Zm2.43-5.2h2.21c.86,0,1.49-.09,1.89-.28s.72-.47.96-.84.36-.78.36-1.2c0-.33-.06-.6-.19-.8s-.31-.36-.54-.46-.68-.15-1.34-.15h-2.57l-.78,3.73Z"/><path d="m14.42,24.22l2.1-10.02h1.33l-2.09,10.02h-1.34Z"/><path d="m97.62,19.17h-5.67v-.98h5.67v.98Zm0,2.61h-5.67v-.98h5.67v.98Z"/><path d="m29.79,34.33c-1.46-1.84-2.69-3.98-3.69-6.45s-1.51-5.01-1.51-7.65c0-2.32.38-4.55,1.13-6.68.88-2.47,2.24-4.93,4.07-7.38h1.89c-1.18,2.03-1.96,3.48-2.34,4.35-.6,1.35-1.06,2.75-1.41,4.22-.42,1.83-.63,3.66-.63,5.51,0,4.7,1.46,9.39,4.38,14.08h-1.89Z"/><path d="m78.14,34.33h-1.89c2.92-4.69,4.38-9.38,4.38-14.08,0-1.84-.21-3.66-.63-5.46-.33-1.46-.8-2.87-1.39-4.22-.38-.88-1.17-2.34-2.36-4.39h1.89c1.84,2.45,3.19,4.91,4.07,7.38.75,2.13,1.13,4.36,1.13,6.68,0,2.64-.51,5.19-1.52,7.65s-2.24,4.61-3.68,6.45Z"/><path d="m41.94,13.84v-7.26h1.1v1.02c.23-.36.53-.64.91-.86s.81-.32,1.29-.32c.54,0,.98.11,1.32.33s.59.54.73.94c.57-.85,1.32-1.27,2.24-1.27.72,0,1.27.2,1.66.6s.58,1.01.58,1.84v4.98h-1.22v-4.57c0-.49-.04-.85-.12-1.06s-.22-.39-.43-.52-.46-.2-.74-.2c-.51,0-.93.17-1.27.51s-.51.88-.51,1.63v4.22h-1.23v-4.72c0-.55-.1-.96-.3-1.23s-.53-.41-.98-.41c-.35,0-.67.09-.96.27s-.51.45-.64.8-.2.86-.2,1.52v3.77h-1.23Z"/><path d="m53.6,13.84v-7.26h1.1v1.02c.23-.36.53-.64.91-.86s.81-.32,1.29-.32c.54,0,.98.11,1.32.33s.59.54.73.94c.57-.85,1.32-1.27,2.24-1.27.72,0,1.27.2,1.66.6s.58,1.01.58,1.84v4.98h-1.22v-4.57c0-.49-.04-.85-.12-1.06s-.22-.39-.43-.52-.46-.2-.74-.2c-.51,0-.93.17-1.27.51s-.51.88-.51,1.63v4.22h-1.23v-4.72c0-.55-.1-.96-.3-1.23s-.53-.41-.98-.41c-.35,0-.67.09-.96.27s-.51.45-.64.8-.2.86-.2,1.52v3.77h-1.23Z"/><path d="m47.38,33.84v-10.02h1.23v3.6c.57-.67,1.3-1,2.17-1,.54,0,1,.11,1.4.32.4.21.68.51.85.88s.26.92.26,1.63v4.6h-1.23v-4.6c0-.62-.13-1.06-.4-1.34-.27-.28-.64-.42-1.13-.42-.36,0-.71.09-1.03.28-.32.19-.55.45-.69.77s-.21.77-.21,1.34v3.97h-1.23Z"/><path d="m55.15,33.84v-7.26h1.11v1.1c.28-.52.54-.85.78-1.02s.5-.25.79-.25c.41,0,.84.13,1.26.4l-.42,1.14c-.3-.18-.6-.27-.9-.27-.27,0-.51.08-.72.24-.21.16-.37.39-.46.67-.14.44-.21.92-.21,1.44v3.8h-1.23Z"/><path d="m108.23,13.84l-2.22-7.26h1.27l1.16,4.19.43,1.56c.02-.08.14-.58.38-1.5l1.16-4.25h1.26l1.09,4.21.36,1.39.42-1.4,1.24-4.2h1.2l-2.27,7.26h-1.28l-1.16-4.35-.28-1.24-1.47,5.58h-1.29Z"/><path d="m121.74,12.94c-.46.39-.89.66-1.32.82s-.87.24-1.36.24c-.8,0-1.41-.19-1.84-.58s-.64-.89-.64-1.49c0-.36.08-.68.24-.97s.37-.53.64-.71.56-.31.89-.4c.24-.06.61-.13,1.09-.18.99-.12,1.73-.26,2.19-.42,0-.17,0-.28,0-.32,0-.5-.12-.85-.35-1.06-.31-.28-.78-.42-1.4-.42-.58,0-1.01.1-1.28.3s-.48.56-.61,1.08l-1.2-.16c.11-.52.29-.93.54-1.25s.61-.56,1.09-.73,1.02-.26,1.65-.26,1.12.07,1.51.22.67.33.85.55.31.5.38.84c.04.21.06.59.06,1.13v1.64c0,1.14.03,1.87.08,2.17s.16.59.31.87h-1.29c-.13-.26-.21-.55-.25-.9Zm-.1-2.75c-.45.18-1.12.34-2.01.46-.51.07-.86.15-1.07.25s-.37.22-.49.4-.17.37-.17.58c0,.33.12.6.37.82s.61.33,1.09.33.9-.1,1.26-.31.64-.49.81-.85c.13-.28.2-.69.2-1.23v-.45Z"/><path d="m127.47,12.74l.18,1.09c-.35.07-.66.11-.93.11-.45,0-.79-.07-1.04-.21s-.42-.33-.52-.56-.15-.71-.15-1.45v-4.18h-.9v-.96h.9v-1.8l1.22-.74v2.54h1.24v.96h-1.24v4.25c0,.35.02.58.06.68s.11.18.21.24.24.09.42.09c.14,0,.32-.02.54-.05Z"/><path d="m133.64,11.5l1.27.16c-.2.74-.57,1.32-1.11,1.73s-1.23.62-2.08.62c-1.06,0-1.9-.33-2.53-.98s-.93-1.57-.93-2.75.31-2.17.94-2.84,1.44-1.01,2.45-1.01,1.76.33,2.38.99.92,1.59.92,2.79c0,.07,0,.18,0,.33h-5.41c.05.8.27,1.41.68,1.83s.91.64,1.52.64c.45,0,.84-.12,1.16-.36s.57-.62.76-1.13Zm-4.04-1.99h4.05c-.05-.61-.21-1.07-.46-1.37-.39-.47-.9-.71-1.52-.71-.56,0-1.04.19-1.43.57s-.6.88-.64,1.52Z"/><path d="m136.45,13.84v-7.26h1.11v1.1c.28-.52.54-.85.78-1.02s.5-.25.79-.25c.41,0,.84.13,1.26.4l-.42,1.14c-.3-.18-.6-.27-.9-.27-.27,0-.51.08-.72.24s-.37.39-.46.67c-.14.44-.21.92-.21,1.44v3.8h-1.23Z"/><path d="m149.98,11.5l1.27.16c-.2.74-.57,1.32-1.11,1.73s-1.23.62-2.08.62c-1.06,0-1.9-.33-2.53-.98s-.93-1.57-.93-2.75.31-2.17.94-2.84,1.44-1.01,2.45-1.01,1.76.33,2.38.99.92,1.59.92,2.79c0,.07,0,.18,0,.33h-5.41c.05.8.27,1.41.68,1.83s.91.64,1.52.64c.45,0,.84-.12,1.16-.36s.57-.62.76-1.13Zm-4.04-1.99h4.05c-.05-.61-.21-1.07-.46-1.37-.39-.47-.9-.71-1.52-.71-.56,0-1.04.19-1.43.57s-.6.88-.64,1.52Z"/><path d="m157.43,16.62v-3.55c-.19.27-.46.49-.8.67s-.71.27-1.1.27c-.86,0-1.6-.34-2.23-1.03s-.93-1.63-.93-2.83c0-.73.13-1.38.38-1.96s.62-1.02,1.1-1.32,1.01-.45,1.58-.45c.9,0,1.6.38,2.12,1.13v-.97h1.11v10.04h-1.23Zm-3.79-6.43c0,.93.2,1.63.59,2.1s.86.7,1.41.7.98-.22,1.35-.67.57-1.12.57-2.03c0-.97-.2-1.69-.6-2.18s-.87-.73-1.4-.73-.99.23-1.36.68-.56,1.16-.56,2.12Z"/><path d="m165.34,13.84v-1.07c-.56.82-1.33,1.23-2.3,1.23-.43,0-.83-.08-1.2-.25s-.65-.37-.83-.62-.31-.55-.38-.91c-.05-.24-.08-.62-.08-1.15v-4.5h1.23v4.03c0,.64.02,1.08.08,1.3.08.32.24.58.49.76s.56.28.93.28.72-.09,1.04-.28.55-.45.69-.77.2-.8.2-1.42v-3.89h1.23v7.26h-1.1Z"/><path d="m168.38,5.23v-1.42h1.23v1.42h-1.23Zm0,8.61v-7.26h1.23v7.26h-1.23Z"/><path d="m173.5,13.84l-2.76-7.26h1.3l1.56,4.35c.17.47.32.96.46,1.46.11-.38.26-.84.46-1.38l1.61-4.43h1.26l-2.75,7.26h-1.15Z"/><path d="m183.22,12.94c-.46.39-.89.66-1.32.82s-.87.24-1.36.24c-.8,0-1.41-.19-1.84-.58s-.64-.89-.64-1.49c0-.36.08-.68.24-.97s.37-.53.64-.71.56-.31.89-.4c.24-.06.61-.13,1.09-.18.99-.12,1.73-.26,2.19-.42,0-.17,0-.28,0-.32,0-.5-.12-.85-.35-1.06-.31-.28-.78-.42-1.4-.42-.58,0-1.01.1-1.28.3s-.48.56-.61,1.08l-1.2-.16c.11-.52.29-.93.54-1.25s.61-.56,1.09-.73,1.02-.26,1.65-.26,1.12.07,1.51.22.67.33.85.55.31.5.38.84c.04.21.06.59.06,1.13v1.64c0,1.14.03,1.87.08,2.17s.16.59.31.87h-1.29c-.13-.26-.21-.55-.25-.9Zm-.1-2.75c-.45.18-1.12.34-2.01.46-.51.07-.86.15-1.07.25s-.37.22-.49.4-.17.37-.17.58c0,.33.12.6.37.82s.61.33,1.09.33.9-.1,1.26-.31.64-.49.81-.85c.13-.28.2-.69.2-1.23v-.45Z"/><path d="m186.24,13.84V3.82h1.23v10.02h-1.23Z"/><path d="m194.35,11.5l1.27.16c-.2.74-.57,1.32-1.11,1.73s-1.23.62-2.08.62c-1.06,0-1.9-.33-2.53-.98s-.93-1.57-.93-2.75.31-2.17.94-2.84,1.44-1.01,2.45-1.01,1.76.33,2.38.99.92,1.59.92,2.79c0,.07,0,.18,0,.33h-5.41c.05.8.27,1.41.68,1.83s.91.64,1.52.64c.45,0,.84-.12,1.16-.36s.57-.62.76-1.13Zm-4.04-1.99h4.05c-.05-.61-.21-1.07-.46-1.37-.39-.47-.9-.71-1.52-.71-.56,0-1.04.19-1.43.57s-.6.88-.64,1.52Z"/><path d="m197.16,13.84v-7.26h1.11v1.03c.53-.8,1.3-1.2,2.31-1.2.44,0,.84.08,1.21.24s.64.36.82.62.31.56.38.91c.05.23.07.63.07,1.2v4.46h-1.23v-4.42c0-.5-.05-.88-.14-1.12s-.27-.45-.51-.59-.53-.22-.86-.22c-.52,0-.98.17-1.36.5s-.57.96-.57,1.89v3.96h-1.23Z"/><path d="m207.64,12.74l.18,1.09c-.35.07-.66.11-.93.11-.45,0-.79-.07-1.04-.21s-.42-.33-.52-.56-.15-.71-.15-1.45v-4.18h-.9v-.96h.9v-1.8l1.22-.74v2.54h1.24v.96h-1.24v4.25c0,.35.02.58.06.68s.11.18.21.24.24.09.42.09c.14,0,.32-.02.54-.05Z"/><path d="m212.27,10.21c0-1.34.37-2.34,1.12-2.99.62-.54,1.39-.81,2.28-.81,1,0,1.81.33,2.45.98s.95,1.56.95,2.71c0,.93-.14,1.67-.42,2.2s-.69.95-1.22,1.25-1.12.44-1.75.44c-1.02,0-1.84-.33-2.46-.98s-.94-1.59-.94-2.82Zm1.26,0c0,.93.2,1.63.61,2.09s.92.69,1.53.69,1.12-.23,1.52-.7.61-1.17.61-2.13c0-.9-.2-1.58-.61-2.04s-.92-.69-1.52-.69-1.13.23-1.53.69-.61,1.16-.61,2.08Z"/><path d="m220.81,13.84v-6.3h-1.09v-.96h1.09v-.77c0-.49.04-.85.13-1.09.12-.32.33-.58.63-.78s.72-.3,1.25-.3c.35,0,.73.04,1.15.12l-.18,1.07c-.26-.05-.5-.07-.72-.07-.37,0-.64.08-.79.24s-.23.46-.23.9v.67h1.42v.96h-1.42v6.3h-1.22Z"/><path d="m228.29,16.62V6.58h1.12v.94c.26-.37.56-.65.89-.83.33-.18.74-.28,1.21-.28.62,0,1.17.16,1.64.48.47.32.83.77,1.07,1.35.24.58.36,1.22.36,1.91,0,.74-.13,1.41-.4,2.01s-.65,1.05-1.16,1.37-1.04.48-1.6.48c-.41,0-.78-.09-1.1-.26s-.59-.39-.8-.66v3.53h-1.23Zm1.11-6.37c0,.93.19,1.62.57,2.07.38.45.84.67,1.37.67s1.02-.23,1.41-.69.58-1.18.58-2.15-.19-1.62-.57-2.08-.83-.69-1.36-.69-.99.25-1.39.73-.61,1.2-.61,2.14Z"/><path d="m236.07,13.84v-7.26h1.11v1.1c.28-.52.54-.85.78-1.02s.5-.25.79-.25c.42,0,.84.13,1.27.4l-.42,1.14c-.3-.18-.6-.27-.9-.27-.27,0-.51.08-.72.24-.21.16-.37.39-.46.67-.14.44-.21.92-.21,1.44v3.8h-1.23Z"/><path d="m245.71,11.5l1.27.16c-.2.74-.57,1.32-1.12,1.73-.54.41-1.23.62-2.08.62-1.06,0-1.9-.33-2.53-.98s-.93-1.57-.93-2.75.31-2.17.94-2.84,1.45-1.01,2.45-1.01,1.76.33,2.38.99.92,1.59.92,2.79c0,.07,0,.18,0,.33h-5.41c.05.8.27,1.41.68,1.83.41.42.91.64,1.52.64.45,0,.84-.12,1.15-.36.32-.24.57-.62.76-1.13Zm-4.04-1.99h4.05c-.05-.61-.21-1.07-.46-1.37-.39-.47-.9-.71-1.53-.71-.56,0-1.04.19-1.42.57s-.6.88-.64,1.52Z"/><path d="m253.27,11.18l1.21.16c-.13.83-.47,1.49-1.02,1.96s-1.21.71-2.01.71c-.99,0-1.79-.32-2.4-.97s-.91-1.58-.91-2.79c0-.78.13-1.47.39-2.06s.65-1.03,1.19-1.32,1.11-.44,1.73-.44c.79,0,1.43.2,1.94.6.5.4.82.96.96,1.7l-1.2.18c-.11-.49-.32-.85-.61-1.1s-.64-.37-1.05-.37c-.62,0-1.12.22-1.51.67-.39.44-.58,1.15-.58,2.11s.19,1.68.56,2.13c.37.44.86.66,1.46.66.48,0,.89-.15,1.21-.44.32-.3.53-.75.62-1.37Z"/><path d="m255.54,5.23v-1.42h1.23v1.42h-1.23Zm0,8.61v-7.26h1.23v7.26h-1.23Z"/><path d="m258.64,16.62V6.58h1.12v.94c.26-.37.56-.65.9-.83.33-.18.74-.28,1.21-.28.62,0,1.17.16,1.64.48.47.32.83.77,1.07,1.35.24.58.36,1.22.36,1.91,0,.74-.13,1.41-.4,2.01s-.65,1.05-1.16,1.37-1.04.48-1.6.48c-.41,0-.78-.09-1.1-.26s-.59-.39-.8-.66v3.53h-1.23Zm1.12-6.37c0,.93.19,1.62.57,2.07.38.45.84.67,1.38.67s1.01-.23,1.4-.69.58-1.18.58-2.15-.19-1.62-.57-2.08-.83-.69-1.36-.69-.99.25-1.39.73-.6,1.2-.6,2.14Z"/><path d="m266.43,5.23v-1.42h1.23v1.42h-1.23Zm0,8.61v-7.26h1.23v7.26h-1.23Z"/><path d="m272.22,12.74l.18,1.09c-.35.07-.66.11-.93.11-.45,0-.79-.07-1.04-.21s-.42-.33-.52-.56c-.1-.23-.15-.71-.15-1.45v-4.18h-.9v-.96h.9v-1.8l1.22-.74v2.54h1.24v.96h-1.24v4.25c0,.35.02.58.07.68s.11.18.21.24.24.09.42.09c.14,0,.32-.02.54-.05Z"/><path d="m278.16,12.94c-.46.39-.89.66-1.32.82s-.87.24-1.36.24c-.8,0-1.41-.19-1.84-.58-.43-.39-.64-.89-.64-1.49,0-.36.08-.68.24-.97s.37-.53.64-.71.56-.31.88-.4c.24-.06.61-.13,1.09-.18.99-.12,1.73-.26,2.2-.42,0-.17,0-.28,0-.32,0-.5-.12-.85-.35-1.06-.31-.28-.78-.42-1.4-.42-.58,0-1.01.1-1.28.3s-.48.56-.61,1.08l-1.2-.16c.11-.52.29-.93.54-1.25.25-.32.61-.56,1.09-.73.47-.17,1.02-.26,1.65-.26s1.12.07,1.51.22c.39.15.67.33.85.55.18.22.31.5.38.84.04.21.06.59.06,1.13v1.64c0,1.14.03,1.87.08,2.17s.16.59.31.87h-1.29c-.13-.26-.21-.55-.25-.9Zm-.1-2.75c-.45.18-1.12.34-2.01.46-.51.07-.86.15-1.07.25-.21.09-.37.22-.48.4-.11.18-.17.37-.17.58,0,.33.12.6.37.82s.61.33,1.09.33.9-.1,1.27-.31.64-.49.81-.85c.13-.28.2-.69.2-1.23v-.45Z"/><path d="m283.9,12.74l.18,1.09c-.35.07-.66.11-.93.11-.45,0-.79-.07-1.04-.21s-.42-.33-.52-.56c-.1-.23-.15-.71-.15-1.45v-4.18h-.9v-.96h.9v-1.8l1.22-.74v2.54h1.24v.96h-1.24v4.25c0,.35.02.58.07.68s.11.18.21.24.24.09.42.09c.14,0,.32-.02.54-.05Z"/><path d="m285.11,5.23v-1.42h1.23v1.42h-1.23Zm0,8.61v-7.26h1.23v7.26h-1.23Z"/><path d="m287.75,10.21c0-1.34.37-2.34,1.12-2.99.62-.54,1.38-.81,2.28-.81,1,0,1.81.33,2.45.98.63.65.95,1.56.95,2.71,0,.93-.14,1.67-.42,2.2s-.69.95-1.22,1.25-1.12.44-1.75.44c-1.02,0-1.84-.33-2.46-.98s-.94-1.59-.94-2.82Zm1.26,0c0,.93.2,1.63.61,2.09.41.46.92.69,1.53.69s1.12-.23,1.52-.7c.41-.46.61-1.17.61-2.13,0-.9-.21-1.58-.61-2.04s-.92-.69-1.52-.69-1.13.23-1.53.69c-.41.46-.61,1.16-.61,2.08Z"/><path d="m296,13.84v-7.26h1.11v1.03c.53-.8,1.3-1.2,2.31-1.2.44,0,.84.08,1.21.24s.64.36.82.62c.18.26.31.56.38.91.05.23.07.63.07,1.2v4.46h-1.23v-4.42c0-.5-.05-.88-.14-1.12s-.27-.45-.51-.59-.53-.22-.86-.22c-.52,0-.98.17-1.36.5s-.57.96-.57,1.89v3.96h-1.23Z"/><path d="m310.03,16.79c-.68-.86-1.25-1.86-1.72-3.01-.47-1.15-.71-2.34-.71-3.57,0-1.08.18-2.12.53-3.12.41-1.15,1.04-2.3,1.9-3.45h.88c-.55.95-.92,1.62-1.09,2.03-.28.63-.5,1.29-.66,1.97-.2.85-.29,1.71-.29,2.57,0,2.19.68,4.38,2.04,6.57h-.88Z"/><path d="m312.34,13.84v-7.26h1.1v1.02c.23-.36.53-.64.91-.86.38-.22.81-.32,1.29-.32.54,0,.98.11,1.32.33s.59.54.73.94c.57-.85,1.32-1.27,2.24-1.27.72,0,1.27.2,1.66.6.39.4.58,1.01.58,1.84v4.98h-1.22v-4.57c0-.49-.04-.85-.12-1.06s-.22-.39-.43-.52c-.21-.13-.46-.2-.74-.2-.51,0-.93.17-1.27.51-.34.34-.51.88-.51,1.63v4.22h-1.23v-4.72c0-.55-.1-.96-.3-1.23-.2-.27-.53-.41-.98-.41-.35,0-.67.09-.96.27s-.51.45-.64.8c-.13.35-.2.86-.2,1.52v3.77h-1.23Z"/><path d="m324,13.84v-7.26h1.1v1.02c.23-.36.53-.64.91-.86.38-.22.81-.32,1.29-.32.54,0,.98.11,1.32.33s.59.54.73.94c.57-.85,1.32-1.27,2.24-1.27.72,0,1.27.2,1.66.6.39.4.58,1.01.58,1.84v4.98h-1.22v-4.57c0-.49-.04-.85-.12-1.06s-.22-.39-.43-.52c-.21-.13-.46-.2-.74-.2-.51,0-.93.17-1.27.51-.34.34-.51.88-.51,1.63v4.22h-1.23v-4.72c0-.55-.1-.96-.3-1.23-.2-.27-.53-.41-.98-.41-.35,0-.67.09-.96.27s-.51.45-.64.8c-.13.35-.2.86-.2,1.52v3.77h-1.23Z"/><path d="m336.47,16.79h-.88c1.36-2.19,2.04-4.38,2.04-6.57,0-.86-.1-1.71-.29-2.55-.15-.68-.37-1.34-.65-1.97-.18-.41-.54-1.09-1.1-2.05h.88c.86,1.14,1.49,2.29,1.9,3.45.35.99.53,2.03.53,3.12,0,1.23-.24,2.42-.71,3.57s-1.04,2.15-1.72,3.01Z"/><path d="m118.21,33.84v-.92c-.46.72-1.14,1.08-2.03,1.08-.58,0-1.11-.16-1.6-.48s-.86-.76-1.13-1.34c-.27-.57-.4-1.23-.4-1.97s.12-1.38.36-1.97c.24-.59.6-1.04,1.09-1.36s1.02-.47,1.62-.47c.44,0,.83.09,1.17.28.34.19.62.43.83.72v-3.6h1.22v10.02h-1.14Zm-3.89-3.62c0,.93.2,1.62.59,2.08s.85.69,1.39.69.99-.22,1.37-.66c.38-.44.56-1.11.56-2.01,0-.99-.19-1.72-.57-2.19s-.85-.7-1.42-.7-1,.22-1.37.67-.55,1.15-.55,2.11Z"/><path d="m126.04,33.84v-1.07c-.56.82-1.33,1.23-2.3,1.23-.43,0-.83-.08-1.2-.25s-.65-.37-.83-.62c-.18-.25-.31-.55-.38-.91-.05-.24-.08-.62-.08-1.15v-4.5h1.23v4.03c0,.64.02,1.08.08,1.3.08.32.24.58.49.76.25.19.56.28.93.28s.72-.09,1.04-.28c.32-.19.55-.45.69-.77.13-.33.2-.8.2-1.42v-3.89h1.23v7.26h-1.1Z"/><path d="m129.05,33.84v-7.26h1.11v1.1c.28-.52.54-.85.78-1.02s.5-.25.79-.25c.41,0,.84.13,1.26.4l-.42,1.14c-.3-.18-.6-.27-.9-.27-.27,0-.51.08-.72.24-.21.16-.37.39-.46.67-.14.44-.21.92-.21,1.44v3.8h-1.23Z"/><path d="m138.47,32.94c-.46.39-.89.66-1.32.82s-.87.24-1.36.24c-.8,0-1.41-.19-1.84-.58-.43-.39-.64-.89-.64-1.49,0-.36.08-.68.24-.97.16-.29.37-.53.64-.71s.56-.31.89-.4c.24-.06.61-.12,1.09-.18.99-.12,1.73-.26,2.19-.42,0-.17,0-.28,0-.32,0-.5-.12-.85-.35-1.06-.31-.28-.78-.42-1.4-.42-.58,0-1.01.1-1.28.3-.28.2-.48.56-.61,1.08l-1.2-.16c.11-.52.29-.93.54-1.25.25-.32.61-.56,1.09-.73.47-.17,1.02-.26,1.65-.26s1.12.07,1.51.22.67.33.85.55c.18.22.31.5.38.84.04.21.06.59.06,1.13v1.64c0,1.14.03,1.87.08,2.17.05.3.16.59.31.87h-1.29c-.13-.25-.21-.55-.25-.9Zm-.1-2.75c-.45.18-1.12.34-2.01.46-.51.07-.86.15-1.07.25s-.37.22-.49.4c-.11.17-.17.37-.17.58,0,.33.12.6.37.82s.61.33,1.09.33.9-.1,1.26-.31c.37-.21.64-.49.81-.85.13-.28.2-.69.2-1.23v-.45Z"/><path d="m144.2,32.74l.18,1.09c-.35.07-.66.11-.93.11-.45,0-.79-.07-1.04-.21s-.42-.33-.52-.56c-.1-.23-.15-.71-.15-1.45v-4.18h-.9v-.96h.9v-1.8l1.22-.74v2.54h1.24v.96h-1.24v4.25c0,.35.02.58.06.68s.11.18.21.24.24.09.42.09c.14,0,.32-.02.54-.05Z"/><path d="m145.41,25.23v-1.42h1.23v1.42h-1.23Zm0,8.61v-7.26h1.23v7.26h-1.23Z"/><path d="m148.06,30.21c0-1.34.37-2.34,1.12-2.99.62-.54,1.39-.81,2.28-.81,1,0,1.81.33,2.45.98.63.65.95,1.56.95,2.71,0,.93-.14,1.67-.42,2.2-.28.54-.69.95-1.22,1.25s-1.12.44-1.75.44c-1.02,0-1.84-.33-2.46-.98s-.94-1.59-.94-2.82Zm1.26,0c0,.93.2,1.63.61,2.09.41.46.92.69,1.53.69s1.12-.23,1.52-.7.61-1.17.61-2.13c0-.9-.2-1.58-.61-2.04-.41-.46-.92-.69-1.52-.69s-1.13.23-1.53.69-.61,1.16-.61,2.08Z"/><path d="m156.3,33.84v-7.26h1.11v1.03c.53-.8,1.3-1.2,2.31-1.2.44,0,.84.08,1.21.24.37.16.64.36.82.62s.31.56.38.91c.05.23.07.63.07,1.2v4.46h-1.23v-4.42c0-.5-.05-.88-.14-1.12-.1-.25-.27-.45-.51-.6-.24-.15-.53-.22-.86-.22-.52,0-.98.17-1.36.5s-.57.96-.57,1.89v3.96h-1.23Z"/><path d="m167.52,30.21c0-1.34.37-2.34,1.12-2.99.62-.54,1.39-.81,2.28-.81,1,0,1.81.33,2.45.98.63.65.95,1.56.95,2.71,0,.93-.14,1.67-.42,2.2-.28.54-.69.95-1.22,1.25s-1.12.44-1.75.44c-1.02,0-1.84-.33-2.46-.98s-.94-1.59-.94-2.82Zm1.26,0c0,.93.2,1.63.61,2.09.41.46.92.69,1.53.69s1.12-.23,1.52-.7.61-1.17.61-2.13c0-.9-.2-1.58-.61-2.04-.41-.46-.92-.69-1.52-.69s-1.13.23-1.53.69-.61,1.16-.61,2.08Z"/><path d="m176.06,33.84v-6.3h-1.09v-.96h1.09v-.77c0-.49.04-.85.13-1.09.12-.32.33-.58.63-.78.3-.2.72-.3,1.25-.3.35,0,.73.04,1.15.12l-.18,1.07c-.26-.05-.5-.07-.72-.07-.37,0-.64.08-.79.24s-.23.46-.23.9v.67h1.42v.96h-1.42v6.3h-1.22Z"/><path d="m183.54,33.84v-7.26h1.1v1.02c.23-.36.53-.64.91-.86.38-.22.81-.33,1.29-.33.54,0,.98.11,1.32.33s.59.54.73.94c.57-.85,1.32-1.27,2.24-1.27.72,0,1.27.2,1.66.6.39.4.58,1.01.58,1.84v4.98h-1.22v-4.57c0-.49-.04-.85-.12-1.06-.08-.22-.22-.39-.43-.52s-.46-.2-.74-.2c-.51,0-.93.17-1.27.51-.34.34-.51.88-.51,1.63v4.22h-1.23v-4.72c0-.55-.1-.96-.3-1.23s-.53-.41-.98-.41c-.35,0-.67.09-.96.27s-.51.45-.64.8-.2.86-.2,1.52v3.77h-1.23Z"/><path d="m200.17,31.5l1.27.16c-.2.74-.57,1.32-1.11,1.73s-1.23.62-2.08.62c-1.06,0-1.9-.33-2.53-.98-.62-.65-.93-1.57-.93-2.75s.31-2.17.94-2.84,1.44-1.01,2.45-1.01,1.76.33,2.38.99.92,1.59.92,2.79c0,.07,0,.18,0,.33h-5.41c.05.8.27,1.41.68,1.83s.91.64,1.52.64c.45,0,.84-.12,1.16-.36s.57-.62.76-1.13Zm-4.04-1.99h4.05c-.05-.61-.21-1.07-.46-1.37-.39-.47-.9-.71-1.52-.71-.56,0-1.04.19-1.43.57s-.6.88-.64,1.52Z"/><path d="m207.73,32.94c-.46.39-.89.66-1.32.82s-.87.24-1.36.24c-.8,0-1.41-.19-1.84-.58-.43-.39-.64-.89-.64-1.49,0-.36.08-.68.24-.97.16-.29.37-.53.64-.71s.56-.31.89-.4c.24-.06.61-.12,1.09-.18.99-.12,1.73-.26,2.19-.42,0-.17,0-.28,0-.32,0-.5-.12-.85-.35-1.06-.31-.28-.78-.42-1.4-.42-.58,0-1.01.1-1.28.3-.28.2-.48.56-.61,1.08l-1.2-.16c.11-.52.29-.93.54-1.25.25-.32.61-.56,1.09-.73.47-.17,1.02-.26,1.65-.26s1.12.07,1.51.22.67.33.85.55c.18.22.31.5.38.84.04.21.06.59.06,1.13v1.64c0,1.14.03,1.87.08,2.17.05.3.16.59.31.87h-1.29c-.13-.25-.21-.55-.25-.9Zm-.1-2.75c-.45.18-1.12.34-2.01.46-.51.07-.86.15-1.07.25s-.37.22-.49.4c-.11.17-.17.37-.17.58,0,.33.12.6.37.82s.61.33,1.09.33.9-.1,1.26-.31c.37-.21.64-.49.81-.85.13-.28.2-.69.2-1.23v-.45Z"/><path d="m210.29,31.67l1.22-.19c.07.49.26.86.57,1.12s.75.39,1.31.39.98-.12,1.26-.34c.27-.23.41-.5.41-.81,0-.28-.12-.5-.36-.66-.17-.11-.59-.25-1.26-.42-.9-.23-1.53-.42-1.88-.59-.35-.17-.61-.4-.79-.69-.18-.29-.27-.62-.27-.97,0-.32.07-.62.22-.9.15-.28.35-.5.6-.69.19-.14.45-.26.78-.36.33-.1.68-.15,1.06-.15.57,0,1.07.08,1.5.25s.75.39.95.67c.21.28.35.65.42,1.12l-1.2.16c-.05-.37-.21-.67-.48-.88s-.63-.31-1.11-.31c-.56,0-.97.09-1.21.28s-.36.41-.36.66c0,.16.05.3.15.43.1.13.26.24.47.33.12.05.49.15,1.09.31.87.23,1.48.42,1.82.57.34.15.61.36.81.65s.29.63.29,1.05-.12.8-.36,1.16c-.24.36-.58.64-1.04.84-.45.2-.96.3-1.53.3-.94,0-1.66-.2-2.16-.59s-.81-.97-.95-1.74Z"/><path d="m222.54,33.84v-1.07c-.56.82-1.33,1.23-2.3,1.23-.43,0-.83-.08-1.2-.25s-.65-.37-.83-.62c-.18-.25-.31-.55-.38-.91-.05-.24-.08-.62-.08-1.15v-4.5h1.23v4.03c0,.64.02,1.08.08,1.3.08.32.24.58.49.76.25.19.56.28.93.28s.72-.09,1.04-.28c.32-.19.55-.45.69-.77.13-.33.2-.8.2-1.42v-3.89h1.23v7.26h-1.1Z"/><path d="m225.55,33.84v-7.26h1.11v1.1c.28-.52.54-.85.78-1.02s.5-.25.79-.25c.41,0,.84.13,1.26.4l-.42,1.14c-.3-.18-.6-.27-.9-.27-.27,0-.51.08-.72.24-.21.16-.37.39-.46.67-.14.44-.21.92-.21,1.44v3.8h-1.23Z"/><path d="m235.2,31.5l1.27.16c-.2.74-.57,1.32-1.11,1.73s-1.24.62-2.08.62c-1.06,0-1.9-.33-2.53-.98-.62-.65-.93-1.57-.93-2.75s.31-2.17.94-2.84,1.44-1.01,2.45-1.01,1.76.33,2.38.99.92,1.59.92,2.79c0,.07,0,.18,0,.33h-5.41c.05.8.27,1.41.68,1.83s.91.64,1.52.64c.45,0,.84-.12,1.16-.36s.57-.62.76-1.13Zm-4.04-1.99h4.05c-.05-.61-.21-1.07-.46-1.37-.39-.47-.9-.71-1.52-.71-.57,0-1.04.19-1.42.57-.39.38-.6.88-.64,1.52Z"/><path d="m238.01,33.84v-7.26h1.1v1.02c.23-.36.53-.64.91-.86.38-.22.81-.33,1.29-.33.54,0,.98.11,1.32.33.34.22.59.54.73.94.57-.85,1.32-1.27,2.24-1.27.72,0,1.27.2,1.66.6.39.4.58,1.01.58,1.84v4.98h-1.22v-4.57c0-.49-.04-.85-.12-1.06-.08-.22-.22-.39-.43-.52s-.46-.2-.74-.2c-.51,0-.93.17-1.27.51-.34.34-.51.88-.51,1.63v4.22h-1.23v-4.72c0-.55-.1-.96-.3-1.23s-.53-.41-.98-.41c-.35,0-.67.09-.96.27-.29.18-.51.45-.64.8s-.2.86-.2,1.52v3.77h-1.23Z"/><path d="m254.64,31.5l1.27.16c-.2.74-.57,1.32-1.11,1.73s-1.23.62-2.08.62c-1.06,0-1.9-.33-2.53-.98-.62-.65-.93-1.57-.93-2.75s.31-2.17.94-2.84,1.45-1.01,2.45-1.01,1.76.33,2.38.99.92,1.59.92,2.79c0,.07,0,.18,0,.33h-5.41c.04.8.27,1.41.68,1.83s.91.64,1.52.64c.45,0,.84-.12,1.16-.36s.57-.62.76-1.13Zm-4.04-1.99h4.05c-.05-.61-.21-1.07-.46-1.37-.39-.47-.9-.71-1.52-.71-.56,0-1.04.19-1.43.57-.38.38-.6.88-.64,1.52Z"/><path d="m257.46,33.84v-7.26h1.11v1.03c.53-.8,1.3-1.2,2.31-1.2.44,0,.84.08,1.21.24.37.16.64.36.82.62s.31.56.38.91c.04.23.07.63.07,1.2v4.46h-1.23v-4.42c0-.5-.05-.88-.14-1.12-.1-.25-.27-.45-.51-.6-.24-.15-.53-.22-.86-.22-.52,0-.98.17-1.36.5-.38.33-.57.96-.57,1.89v3.96h-1.23Z"/><path d="m267.93,32.74l.18,1.09c-.35.07-.66.11-.93.11-.45,0-.79-.07-1.04-.21s-.42-.33-.52-.56c-.1-.23-.15-.71-.15-1.45v-4.18h-.9v-.96h.9v-1.8l1.22-.74v2.54h1.24v.96h-1.24v4.25c0,.35.02.58.06.68.04.1.11.18.21.24.1.06.24.09.42.09.14,0,.32-.02.54-.05Z"/><path d="m273.03,36.62v-10.04h1.12v.94c.26-.37.56-.65.9-.83.33-.18.74-.28,1.21-.28.62,0,1.17.16,1.64.48s.83.77,1.07,1.35c.24.58.36,1.22.36,1.91,0,.74-.13,1.41-.4,2.01-.27.6-.65,1.05-1.16,1.37-.51.32-1.04.48-1.6.48-.41,0-.78-.09-1.1-.26-.33-.17-.59-.39-.8-.66v3.53h-1.23Zm1.11-6.37c0,.93.19,1.62.57,2.07s.84.67,1.37.67,1.01-.23,1.41-.69c.39-.46.58-1.18.58-2.15s-.19-1.62-.57-2.08c-.38-.46-.84-.69-1.36-.69s-.99.25-1.39.73c-.4.49-.6,1.2-.6,2.14Z"/><path d="m285.78,31.5l1.27.16c-.2.74-.57,1.32-1.11,1.73s-1.24.62-2.08.62c-1.06,0-1.9-.33-2.53-.98-.62-.65-.93-1.57-.93-2.75s.31-2.17.94-2.84,1.44-1.01,2.45-1.01,1.76.33,2.38.99.92,1.59.92,2.79c0,.07,0,.18,0,.33h-5.41c.05.8.27,1.41.68,1.83s.91.64,1.52.64c.45,0,.84-.12,1.16-.36s.57-.62.76-1.13Zm-4.04-1.99h4.05c-.05-.61-.21-1.07-.46-1.37-.39-.47-.9-.71-1.52-.71-.57,0-1.04.19-1.42.57-.39.38-.6.88-.64,1.52Z"/><path d="m288.58,33.84v-7.26h1.11v1.1c.28-.52.54-.85.78-1.02.24-.16.5-.25.79-.25.41,0,.84.13,1.26.4l-.42,1.14c-.3-.18-.6-.27-.9-.27-.27,0-.51.08-.72.24-.21.16-.37.39-.46.67-.14.44-.21.92-.21,1.44v3.8h-1.23Z"/><path d="m293.27,25.23v-1.42h1.23v1.42h-1.23Zm0,8.61v-7.26h1.23v7.26h-1.23Z"/><path d="m295.91,30.21c0-1.34.37-2.34,1.12-2.99.62-.54,1.38-.81,2.28-.81,1,0,1.81.33,2.45.98.63.65.95,1.56.95,2.71,0,.93-.14,1.67-.42,2.2-.28.54-.69.95-1.22,1.25-.54.3-1.12.44-1.75.44-1.02,0-1.84-.33-2.46-.98-.63-.65-.94-1.59-.94-2.82Zm1.26,0c0,.93.2,1.63.61,2.09.41.46.92.69,1.53.69s1.12-.23,1.52-.7.61-1.17.61-2.13c0-.9-.2-1.58-.61-2.04-.41-.46-.92-.69-1.52-.69s-1.12.23-1.53.69-.61,1.16-.61,2.08Z"/><path d="m308.87,33.84v-.92c-.46.72-1.14,1.08-2.03,1.08-.58,0-1.11-.16-1.6-.48-.49-.32-.86-.76-1.13-1.34-.27-.57-.4-1.23-.4-1.97s.12-1.38.36-1.97c.24-.59.6-1.04,1.09-1.36s1.02-.47,1.62-.47c.44,0,.83.09,1.17.28.34.19.62.43.83.72v-3.6h1.22v10.02h-1.14Zm-3.89-3.62c0,.93.2,1.62.59,2.08s.85.69,1.39.69,1-.22,1.37-.66c.38-.44.56-1.11.56-2.01,0-.99-.19-1.72-.57-2.19s-.85-.7-1.42-.7-1,.22-1.37.67c-.37.45-.55,1.15-.55,2.11Z"/><path d="m318.18,36.79c-.68-.86-1.25-1.86-1.72-3.01s-.7-2.34-.7-3.57c0-1.08.17-2.12.53-3.12.41-1.15,1.04-2.3,1.9-3.45h.88c-.55.95-.92,1.62-1.09,2.03-.28.63-.5,1.29-.66,1.97-.2.85-.29,1.71-.29,2.57,0,2.19.68,4.38,2.04,6.57h-.88Z"/><path d="m320.49,33.84v-10.02h1.23v3.6c.57-.67,1.3-1,2.17-1,.54,0,1,.11,1.4.32.4.21.68.51.85.88.17.37.26.92.26,1.63v4.6h-1.23v-4.6c0-.62-.13-1.06-.4-1.34-.27-.28-.64-.42-1.13-.42-.36,0-.71.09-1.03.28-.32.19-.55.45-.69.77s-.21.77-.21,1.34v3.97h-1.23Z"/><path d="m328.27,33.84v-7.26h1.11v1.1c.28-.52.54-.85.78-1.02.24-.16.5-.25.79-.25.42,0,.84.13,1.26.4l-.42,1.14c-.3-.18-.6-.27-.9-.27-.27,0-.51.08-.72.24-.21.16-.37.39-.46.67-.14.44-.21.92-.21,1.44v3.8h-1.23Z"/><path d="m333.75,36.79h-.88c1.36-2.19,2.04-4.38,2.04-6.57,0-.86-.1-1.71-.29-2.55-.15-.68-.37-1.34-.65-1.97-.18-.41-.54-1.09-1.1-2.05h.88c.86,1.14,1.49,2.29,1.9,3.45.35.99.53,2.03.53,3.12,0,1.23-.24,2.42-.71,3.57-.47,1.15-1.04,2.15-1.72,3.01Z"/><line class="cls-2" x1="36" y1="20" x2="69" y2="20"/><line class="cls-1" x1="104" y1="20.5" x2="349" y2="20.5"/></svg>