<?xml version="1.0" encoding="UTF-8"?><svg id="a" xmlns="http://www.w3.org/2000/svg" viewBox="0 0 330 40"><defs><style>.cls-1{stroke-width:1.07px;}.cls-1,.cls-2{fill:none;stroke:#000;stroke-miterlimit:10;}</style></defs><path d="m5.33,27.01h-1.24l1.22-5.68c.24-1.11.5-1.95.79-2.53.29-.58.7-1.05,1.24-1.43.54-.38,1.17-.57,1.9-.57.83,0,1.52.28,2.05.83s.8,1.27.8,2.16c0,1.23-.36,2.3-1.08,3.22-.72.92-1.61,1.38-2.67,1.38-.95,0-1.69-.34-2.21-1.03l-.8,3.65Zm1.29-5.47c0,.62.16,1.08.48,1.38.32.31.7.46,1.15.46s.9-.17,1.32-.52c.42-.34.74-.81.97-1.4s.35-1.15.35-1.7-.15-1.01-.45-1.39c-.3-.37-.71-.56-1.21-.56-.76,0-1.38.4-1.87,1.19-.48.79-.73,1.63-.73,2.53Z"/><path d="m73.68,18.33h-6.62v-1.15h6.62v1.15Zm0,3.04h-6.62v-1.15h6.62v1.15Z"/><path d="m20.79,34.33c-1.46-1.84-2.69-3.98-3.69-6.45s-1.51-5.01-1.51-7.65c0-2.32.38-4.55,1.13-6.68.88-2.47,2.24-4.93,4.07-7.38h1.89c-1.18,2.03-1.96,3.48-2.34,4.35-.6,1.35-1.06,2.75-1.41,4.22-.42,1.83-.63,3.66-.63,5.51,0,4.7,1.46,9.39,4.38,14.08h-1.89Z"/><path d="m52.47,34.33h-1.89c2.92-4.69,4.38-9.38,4.38-14.08,0-1.84-.21-3.66-.63-5.46-.33-1.46-.8-2.87-1.39-4.22-.38-.88-1.17-2.34-2.36-4.39h1.89c1.84,2.45,3.19,4.91,4.07,7.38.75,2.13,1.13,4.36,1.13,6.68,0,2.64-.51,5.19-1.52,7.65s-2.24,4.61-3.68,6.45Z"/><path d="m30.22,13.84V3.82h1.23v5.71l2.91-2.95h1.59l-2.78,2.69,3.06,4.57h-1.52l-2.4-3.71-.87.83v2.88h-1.23Z"/><path d="m36.99,14.44l1.2.18c.05.37.19.64.42.81.31.23.72.34,1.25.34.57,0,1.01-.11,1.32-.34s.52-.55.63-.96c.06-.25.09-.78.09-1.58-.54.63-1.21.95-2.01.95-1,0-1.77-.36-2.32-1.08s-.82-1.58-.82-2.59c0-.69.13-1.33.38-1.92s.61-1.04,1.09-1.36,1.04-.48,1.68-.48c.86,0,1.56.35,2.12,1.04v-.88h1.13v6.28c0,1.13-.12,1.93-.35,2.4s-.59.84-1.09,1.12-1.11.41-1.84.41c-.87,0-1.57-.19-2.1-.58s-.79-.98-.77-1.76Zm1.02-4.36c0,.95.19,1.65.57,2.08s.85.66,1.42.66,1.04-.22,1.42-.65.57-1.12.57-2.05-.2-1.56-.59-2.01-.87-.68-1.43-.68-1.01.22-1.39.67-.57,1.1-.57,1.98Z"/><path d="m29.5,33.84v-7.26h1.1v1.02c.23-.36.53-.64.91-.86.38-.22.81-.33,1.29-.33.54,0,.98.11,1.32.33s.59.54.73.94c.57-.85,1.32-1.27,2.24-1.27.72,0,1.27.2,1.66.6.39.4.58,1.01.58,1.84v4.98h-1.22v-4.57c0-.49-.04-.85-.12-1.06-.08-.22-.22-.39-.43-.52s-.46-.2-.74-.2c-.51,0-.93.17-1.27.51-.34.34-.51.88-.51,1.63v4.22h-1.23v-4.72c0-.55-.1-.96-.3-1.23s-.53-.41-.98-.41c-.35,0-.67.09-.96.27s-.51.45-.64.8-.2.86-.2,1.52v3.77h-1.23Z"/><path d="m40.59,27.63l.72-.1c.08.41.22.7.42.88.2.18.44.27.72.27.34,0,.62-.12.85-.35s.35-.52.35-.87-.11-.6-.32-.81c-.21-.21-.49-.32-.82-.32-.14,0-.3.03-.51.08l.08-.63s.09,0,.12,0c.31,0,.58-.08.83-.24.24-.16.37-.41.37-.74,0-.26-.09-.48-.27-.65-.18-.17-.41-.26-.69-.26s-.51.09-.7.26c-.19.17-.31.44-.36.79l-.72-.13c.09-.48.29-.85.6-1.12.31-.26.7-.4,1.16-.4.32,0,.61.07.88.21s.47.32.62.56c.14.24.21.49.21.75s-.07.48-.2.69c-.14.21-.34.37-.6.49.35.08.61.25.81.5s.29.57.29.94c0,.51-.19.94-.56,1.3-.37.36-.84.53-1.41.53-.51,0-.94-.15-1.28-.46-.34-.31-.53-.7-.58-1.19Z"/><line class="cls-2" x1="25" y1="20" x2="48" y2="20"/><path d="m256.39,24.22l2.65-3.77-2.45-3.49h1.54l1.11,1.7c.21.32.38.59.51.81.2-.3.38-.57.55-.8l1.22-1.72h1.47l-2.51,3.42,2.7,3.84h-1.51l-1.49-2.26-.4-.61-1.91,2.86h-1.49Z"/><path d="m268.5,24.22h-1.23v-7.84c-.3.28-.68.56-1.17.85-.48.28-.91.49-1.3.64v-1.19c.69-.32,1.29-.72,1.8-1.18s.88-.91,1.09-1.34h.79v10.06Z"/><path d="m271.65,19.28c0-1.19.12-2.14.37-2.86.24-.72.61-1.28,1.09-1.67.48-.39,1.09-.59,1.82-.59.54,0,1.01.11,1.42.32s.74.53,1,.94.47.9.62,1.49.23,1.38.23,2.37c0,1.18-.12,2.12-.36,2.85-.24.72-.6,1.28-1.08,1.67-.48.39-1.09.59-1.82.59-.97,0-1.72-.35-2.28-1.04-.66-.83-.99-2.19-.99-4.07Zm1.26,0c0,1.65.19,2.74.58,3.29.38.54.86.82,1.42.82s1.04-.27,1.42-.82c.39-.55.58-1.64.58-3.28s-.19-2.75-.58-3.29c-.38-.54-.86-.81-1.44-.81s-1.02.24-1.35.72c-.42.61-.64,1.74-.64,3.38Z"/><path d="m279.44,19.28c0-1.19.12-2.14.37-2.86.24-.72.61-1.28,1.09-1.67.48-.39,1.09-.59,1.82-.59.54,0,1.01.11,1.42.32s.74.53,1,.94.47.9.62,1.49.23,1.38.23,2.37c0,1.18-.12,2.12-.36,2.85-.24.72-.6,1.28-1.08,1.67-.48.39-1.09.59-1.82.59-.97,0-1.72-.35-2.28-1.04-.66-.83-.99-2.19-.99-4.07Zm1.26,0c0,1.65.19,2.74.58,3.29.38.54.86.82,1.42.82s1.04-.27,1.42-.82c.39-.55.58-1.64.58-3.28s-.19-2.75-.58-3.29c-.38-.54-.86-.81-1.44-.81s-1.02.24-1.35.72c-.42.61-.64,1.74-.64,3.38Z"/><path d="m287.22,19.28c0-1.19.12-2.14.37-2.86.24-.72.61-1.28,1.09-1.67.48-.39,1.09-.59,1.82-.59.54,0,1.01.11,1.42.32s.74.53,1,.94.47.9.62,1.49.23,1.38.23,2.37c0,1.18-.12,2.12-.36,2.85-.24.72-.6,1.28-1.08,1.67-.48.39-1.09.59-1.82.59-.97,0-1.72-.35-2.28-1.04-.66-.83-.99-2.19-.99-4.07Zm1.26,0c0,1.65.19,2.74.58,3.29.38.54.86.82,1.42.82s1.04-.27,1.42-.82c.39-.55.58-1.64.58-3.28s-.19-2.75-.58-3.29c-.38-.54-.86-.81-1.44-.81s-1.02.24-1.35.72c-.42.61-.64,1.74-.64,3.38Z"/><path d="m88.8,13.84v-7.26h1.1v1.02c.23-.36.53-.64.91-.86s.81-.32,1.29-.32c.54,0,.98.11,1.32.33s.59.54.73.94c.57-.85,1.32-1.27,2.24-1.27.72,0,1.27.2,1.66.6s.58,1.01.58,1.84v4.98h-1.22v-4.57c0-.49-.04-.85-.12-1.06s-.22-.39-.43-.52-.46-.2-.74-.2c-.51,0-.93.17-1.27.51s-.51.88-.51,1.63v4.22h-1.23v-4.72c0-.55-.1-.96-.3-1.23s-.53-.41-.98-.41c-.35,0-.67.09-.96.27s-.51.45-.64.8-.2.86-.2,1.52v3.77h-1.23Z"/><path d="m105.2,12.94c-.46.39-.89.66-1.32.82s-.87.24-1.36.24c-.8,0-1.41-.19-1.84-.58s-.64-.89-.64-1.49c0-.36.08-.68.24-.97s.37-.53.64-.71.56-.31.89-.4c.24-.06.61-.13,1.09-.18.99-.12,1.73-.26,2.19-.42,0-.17,0-.28,0-.32,0-.5-.12-.85-.35-1.06-.31-.28-.78-.42-1.4-.42-.58,0-1.01.1-1.28.3s-.48.56-.61,1.08l-1.2-.16c.11-.52.29-.93.54-1.25s.61-.56,1.09-.73,1.02-.26,1.65-.26,1.12.07,1.51.22.67.33.85.55.31.5.38.84c.04.21.06.59.06,1.13v1.64c0,1.14.03,1.87.08,2.17s.16.59.31.87h-1.29c-.13-.26-.21-.55-.25-.9Zm-.1-2.75c-.45.18-1.12.34-2.01.46-.51.07-.86.15-1.07.25s-.37.22-.49.4-.17.37-.17.58c0,.33.12.6.37.82s.61.33,1.09.33.9-.1,1.26-.31.64-.49.81-.85c.13-.28.2-.69.2-1.23v-.45Z"/><path d="m107.76,11.67l1.22-.19c.07.49.26.86.57,1.12s.75.39,1.31.39.98-.12,1.26-.35.41-.5.41-.81c0-.28-.12-.5-.36-.66-.17-.11-.59-.25-1.26-.42-.9-.23-1.53-.42-1.88-.59s-.61-.4-.79-.69-.27-.62-.27-.97c0-.32.07-.62.22-.9s.35-.5.6-.69c.19-.14.45-.26.78-.36s.68-.15,1.06-.15c.57,0,1.07.08,1.5.25s.75.39.95.67.35.66.42,1.12l-1.2.16c-.05-.37-.21-.67-.48-.88s-.63-.31-1.11-.31c-.56,0-.97.09-1.21.28s-.36.41-.36.66c0,.16.05.3.15.43.1.13.26.24.47.33.12.05.49.15,1.09.31.87.23,1.48.42,1.82.57s.61.36.81.65.29.63.29,1.05-.12.8-.36,1.16-.58.64-1.04.84-.96.3-1.53.3c-.94,0-1.66-.2-2.16-.59s-.81-.97-.95-1.74Z"/><path d="m114.76,11.67l1.22-.19c.07.49.26.86.57,1.12s.75.39,1.31.39.98-.12,1.26-.35.41-.5.41-.81c0-.28-.12-.5-.36-.66-.17-.11-.59-.25-1.26-.42-.9-.23-1.53-.42-1.88-.59s-.61-.4-.79-.69-.27-.62-.27-.97c0-.32.07-.62.22-.9s.35-.5.6-.69c.19-.14.45-.26.78-.36s.68-.15,1.06-.15c.57,0,1.07.08,1.5.25s.75.39.95.67.35.66.42,1.12l-1.2.16c-.05-.37-.21-.67-.48-.88s-.63-.31-1.11-.31c-.56,0-.97.09-1.21.28s-.36.41-.36.66c0,.16.05.3.15.43.1.13.26.24.47.33.12.05.49.15,1.09.31.87.23,1.48.42,1.82.57s.61.36.81.65.29.63.29,1.05-.12.8-.36,1.16-.58.64-1.04.84-.96.3-1.53.3c-.94,0-1.66-.2-2.16-.59s-.81-.97-.95-1.74Z"/><path d="m125.68,10.21c0-1.34.37-2.34,1.12-2.99.62-.54,1.39-.81,2.28-.81,1,0,1.81.33,2.45.98s.95,1.56.95,2.71c0,.93-.14,1.67-.42,2.2s-.69.95-1.22,1.25-1.12.44-1.75.44c-1.02,0-1.84-.33-2.46-.98s-.94-1.59-.94-2.82Zm1.26,0c0,.93.2,1.63.61,2.09s.92.69,1.53.69,1.12-.23,1.52-.7.61-1.17.61-2.13c0-.9-.2-1.58-.61-2.04s-.92-.69-1.52-.69-1.13.23-1.53.69-.61,1.16-.61,2.08Z"/><path d="m134.22,13.84v-6.3h-1.09v-.96h1.09v-.77c0-.49.04-.85.13-1.09.12-.32.33-.58.63-.78s.72-.3,1.25-.3c.35,0,.73.04,1.15.12l-.18,1.07c-.26-.05-.5-.07-.72-.07-.37,0-.64.08-.79.24s-.23.46-.23.9v.67h1.42v.96h-1.42v6.3h-1.22Z"/><path d="m141.21,11.67l1.22-.19c.07.49.26.86.57,1.12s.75.39,1.31.39.98-.12,1.26-.35.41-.5.41-.81c0-.28-.12-.5-.36-.66-.17-.11-.59-.25-1.26-.42-.9-.23-1.53-.42-1.88-.59s-.61-.4-.79-.69-.27-.62-.27-.97c0-.32.07-.62.22-.9s.35-.5.6-.69c.19-.14.45-.26.78-.36s.68-.15,1.06-.15c.57,0,1.07.08,1.5.25s.75.39.95.67.35.66.42,1.12l-1.2.16c-.05-.37-.21-.67-.48-.88s-.63-.31-1.11-.31c-.56,0-.97.09-1.21.28s-.36.41-.36.66c0,.16.05.3.15.43.1.13.26.24.47.33.12.05.49.15,1.09.31.87.23,1.48.42,1.82.57s.61.36.81.65.29.63.29,1.05-.12.8-.36,1.16-.58.64-1.04.84-.96.3-1.53.3c-.94,0-1.66-.2-2.16-.59s-.81-.97-.95-1.74Z"/><path d="m148.71,13.84v-7.26h1.11v1.03c.53-.8,1.3-1.2,2.31-1.2.44,0,.84.08,1.21.24s.64.36.82.62.31.56.38.91c.05.23.07.63.07,1.2v4.46h-1.23v-4.42c0-.5-.05-.88-.14-1.12s-.27-.45-.51-.59-.53-.22-.86-.22c-.52,0-.98.17-1.36.5s-.57.96-.57,1.89v3.96h-1.23Z"/><path d="m156.03,10.21c0-1.34.37-2.34,1.12-2.99.62-.54,1.39-.81,2.28-.81,1,0,1.81.33,2.45.98s.95,1.56.95,2.71c0,.93-.14,1.67-.42,2.2s-.69.95-1.22,1.25-1.12.44-1.75.44c-1.02,0-1.84-.33-2.46-.98s-.94-1.59-.94-2.82Zm1.26,0c0,.93.2,1.63.61,2.09s.92.69,1.53.69,1.12-.23,1.52-.7.61-1.17.61-2.13c0-.9-.2-1.58-.61-2.04s-.92-.69-1.52-.69-1.13.23-1.53.69-.61,1.16-.61,2.08Z"/><path d="m165.62,13.84l-2.22-7.26h1.27l1.16,4.19.43,1.56c.02-.08.14-.58.38-1.5l1.16-4.25h1.26l1.09,4.21.36,1.39.42-1.4,1.24-4.2h1.2l-2.27,7.26h-1.28l-1.16-4.35-.28-1.24-1.47,5.58h-1.29Z"/><path d="m177.79,11.67l1.22-.19c.07.49.26.86.57,1.12s.75.39,1.31.39.98-.12,1.26-.35.41-.5.41-.81c0-.28-.12-.5-.36-.66-.17-.11-.59-.25-1.26-.42-.9-.23-1.53-.42-1.88-.59s-.61-.4-.79-.69-.27-.62-.27-.97c0-.32.07-.62.22-.9s.35-.5.6-.69c.19-.14.45-.26.78-.36s.68-.15,1.06-.15c.57,0,1.07.08,1.5.25s.75.39.95.67.35.66.42,1.12l-1.2.16c-.05-.37-.21-.67-.48-.88s-.63-.31-1.11-.31c-.56,0-.97.09-1.21.28s-.36.41-.36.66c0,.16.05.3.15.43.1.13.26.24.47.33.12.05.49.15,1.09.31.87.23,1.48.42,1.82.57s.61.36.81.65.29.63.29,1.05-.12.8-.36,1.16-.58.64-1.04.84-.96.3-1.53.3c-.94,0-1.66-.2-2.16-.59s-.81-.97-.95-1.74Z"/><path d="m190.01,12.94c-.46.39-.89.66-1.32.82s-.87.24-1.36.24c-.8,0-1.41-.19-1.84-.58s-.64-.89-.64-1.49c0-.36.08-.68.24-.97s.37-.53.64-.71.56-.31.89-.4c.24-.06.61-.13,1.09-.18.99-.12,1.73-.26,2.19-.42,0-.17,0-.28,0-.32,0-.5-.12-.85-.35-1.06-.31-.28-.78-.42-1.4-.42-.58,0-1.01.1-1.28.3s-.48.56-.61,1.08l-1.2-.16c.11-.52.29-.93.54-1.25s.61-.56,1.09-.73,1.02-.26,1.65-.26,1.12.07,1.51.22.67.33.85.55.31.5.38.84c.04.21.06.59.06,1.13v1.64c0,1.14.03,1.87.08,2.17s.16.59.31.87h-1.29c-.13-.26-.21-.55-.25-.9Zm-.1-2.75c-.45.18-1.12.34-2.01.46-.51.07-.86.15-1.07.25s-.37.22-.49.4-.17.37-.17.58c0,.33.12.6.37.82s.61.33,1.09.33.9-.1,1.26-.31.64-.49.81-.85c.13-.28.2-.69.2-1.23v-.45Z"/><path d="m193.06,13.84v-7.26h1.1v1.02c.23-.36.53-.64.91-.86s.81-.32,1.29-.32c.54,0,.98.11,1.32.33s.59.54.73.94c.57-.85,1.32-1.27,2.24-1.27.72,0,1.27.2,1.66.6s.58,1.01.58,1.84v4.98h-1.22v-4.57c0-.49-.04-.85-.12-1.06s-.22-.39-.43-.52-.46-.2-.74-.2c-.51,0-.93.17-1.27.51s-.51.88-.51,1.63v4.22h-1.23v-4.72c0-.55-.1-.96-.3-1.23s-.53-.41-.98-.41c-.35,0-.67.09-.96.27s-.51.45-.64.8-.2.86-.2,1.52v3.77h-1.23Z"/><path d="m204.73,16.62V6.58h1.12v.94c.26-.37.56-.65.9-.83s.74-.28,1.21-.28c.62,0,1.17.16,1.64.48s.83.77,1.07,1.35.36,1.22.36,1.91c0,.74-.13,1.41-.4,2.01s-.65,1.05-1.16,1.37-1.04.48-1.6.48c-.41,0-.78-.09-1.1-.26s-.59-.39-.8-.66v3.53h-1.23Zm1.11-6.37c0,.93.19,1.62.57,2.07s.84.67,1.37.67,1.02-.23,1.4-.69.58-1.18.58-2.15-.19-1.62-.57-2.08-.83-.69-1.36-.69-.99.25-1.39.73-.6,1.2-.6,2.14Z"/><path d="m212.48,13.84V3.82h1.23v10.02h-1.23Z"/><path d="m220.59,11.5l1.27.16c-.2.74-.57,1.32-1.11,1.73s-1.23.62-2.08.62c-1.06,0-1.9-.33-2.53-.98s-.93-1.57-.93-2.75.31-2.17.94-2.84,1.44-1.01,2.45-1.01,1.76.33,2.38.99.92,1.59.92,2.79c0,.07,0,.18,0,.33h-5.41c.05.8.27,1.41.68,1.83s.91.64,1.52.64c.45,0,.84-.12,1.16-.36s.57-.62.76-1.13Zm-4.04-1.99h4.05c-.05-.61-.21-1.07-.46-1.37-.39-.47-.9-.71-1.52-.71-.56,0-1.04.19-1.43.57s-.6.88-.64,1.52Z"/><path d="m229.65,16.79c-.68-.86-1.25-1.86-1.72-3.01s-.7-2.34-.7-3.57c0-1.08.18-2.12.53-3.12.41-1.15,1.04-2.3,1.9-3.45h.88c-.55.95-.92,1.62-1.09,2.03-.28.63-.5,1.29-.66,1.97-.2.85-.29,1.71-.29,2.57,0,2.19.68,4.38,2.04,6.57h-.88Z"/><path d="m231.73,14.44l1.2.18c.05.37.19.64.42.81.3.23.72.34,1.25.34.57,0,1.01-.11,1.32-.34s.52-.55.63-.96c.06-.25.09-.78.09-1.58-.54.63-1.21.95-2.01.95-1,0-1.77-.36-2.32-1.08s-.82-1.58-.82-2.59c0-.69.12-1.33.38-1.92s.61-1.04,1.09-1.36c.48-.32,1.04-.48,1.68-.48.86,0,1.56.35,2.12,1.04v-.88h1.13v6.28c0,1.13-.12,1.93-.35,2.4-.23.47-.59.84-1.09,1.12-.5.27-1.11.41-1.84.41-.87,0-1.57-.19-2.1-.58s-.79-.98-.77-1.76Zm1.02-4.36c0,.95.19,1.65.57,2.08s.85.66,1.42.66,1.04-.22,1.42-.65.57-1.12.57-2.05-.2-1.56-.59-2.01c-.39-.45-.87-.68-1.42-.68s-1.01.22-1.39.67-.57,1.1-.57,1.98Z"/><path d="m240.55,16.79h-.88c1.36-2.19,2.04-4.38,2.04-6.57,0-.86-.1-1.71-.29-2.55-.16-.68-.37-1.34-.65-1.97-.18-.41-.54-1.09-1.1-2.05h.88c.86,1.14,1.49,2.29,1.9,3.45.35.99.53,2.03.53,3.12,0,1.23-.24,2.42-.71,3.57-.47,1.15-1.04,2.15-1.72,3.01Z"/><path d="m108.78,32.94c-.46.39-.89.66-1.32.82s-.87.24-1.36.24c-.8,0-1.41-.19-1.84-.58-.43-.39-.64-.89-.64-1.49,0-.36.08-.68.24-.97.16-.29.37-.53.64-.71s.56-.31.89-.4c.24-.06.61-.12,1.09-.18.99-.12,1.73-.26,2.19-.42,0-.17,0-.28,0-.32,0-.5-.12-.85-.35-1.06-.31-.28-.78-.42-1.4-.42-.58,0-1.01.1-1.28.3-.28.2-.48.56-.61,1.08l-1.2-.16c.11-.52.29-.93.54-1.25.25-.32.61-.56,1.09-.73.47-.17,1.02-.26,1.65-.26s1.12.07,1.51.22.67.33.85.55c.18.22.31.5.38.84.04.21.06.59.06,1.13v1.64c0,1.14.03,1.87.08,2.17.05.3.16.59.31.87h-1.29c-.13-.25-.21-.55-.25-.9Zm-.1-2.75c-.45.18-1.12.34-2.01.46-.51.07-.86.15-1.07.25s-.37.22-.49.4c-.11.17-.17.37-.17.58,0,.33.12.6.37.82s.61.33,1.09.33.9-.1,1.26-.31c.37-.21.64-.49.81-.85.13-.28.2-.69.2-1.23v-.45Z"/><path d="m111.81,33.84v-7.26h1.11v1.1c.28-.52.54-.85.78-1.02s.5-.25.79-.25c.41,0,.84.13,1.26.4l-.42,1.14c-.3-.18-.6-.27-.9-.27-.27,0-.51.08-.72.24-.21.16-.37.39-.46.67-.14.44-.21.92-.21,1.44v3.8h-1.23Z"/><path d="m121.46,31.5l1.27.16c-.2.74-.57,1.32-1.11,1.73s-1.23.62-2.08.62c-1.06,0-1.9-.33-2.53-.98-.62-.65-.93-1.57-.93-2.75s.31-2.17.94-2.84,1.44-1.01,2.45-1.01,1.76.33,2.38.99.92,1.59.92,2.79c0,.07,0,.18,0,.33h-5.41c.05.8.27,1.41.68,1.83s.91.64,1.52.64c.45,0,.84-.12,1.16-.36s.57-.62.76-1.13Zm-4.04-1.99h4.05c-.05-.61-.21-1.07-.46-1.37-.39-.47-.9-.71-1.52-.71-.56,0-1.04.19-1.43.57s-.6.88-.64,1.52Z"/><path d="m129.01,32.94c-.46.39-.89.66-1.32.82s-.87.24-1.36.24c-.8,0-1.41-.19-1.84-.58-.43-.39-.64-.89-.64-1.49,0-.36.08-.68.24-.97.16-.29.37-.53.64-.71s.56-.31.89-.4c.24-.06.61-.12,1.09-.18.99-.12,1.73-.26,2.19-.42,0-.17,0-.28,0-.32,0-.5-.12-.85-.35-1.06-.31-.28-.78-.42-1.4-.42-.58,0-1.01.1-1.28.3-.28.2-.48.56-.61,1.08l-1.2-.16c.11-.52.29-.93.54-1.25.25-.32.61-.56,1.09-.73.47-.17,1.02-.26,1.65-.26s1.12.07,1.51.22.67.33.85.55c.18.22.31.5.38.84.04.21.06.59.06,1.13v1.64c0,1.14.03,1.87.08,2.17.05.3.16.59.31.87h-1.29c-.13-.25-.21-.55-.25-.9Zm-.1-2.75c-.45.18-1.12.34-2.01.46-.51.07-.86.15-1.07.25s-.37.22-.49.4c-.11.17-.17.37-.17.58,0,.33.12.6.37.82s.61.33,1.09.33.9-.1,1.26-.31c.37-.21.64-.49.81-.85.13-.28.2-.69.2-1.23v-.45Z"/><path d="m135.49,30.21c0-1.34.37-2.34,1.12-2.99.62-.54,1.39-.81,2.28-.81,1,0,1.81.33,2.45.98.63.65.95,1.56.95,2.71,0,.93-.14,1.67-.42,2.2-.28.54-.69.95-1.22,1.25s-1.12.44-1.75.44c-1.02,0-1.84-.33-2.46-.98s-.94-1.59-.94-2.82Zm1.26,0c0,.93.2,1.63.61,2.09.41.46.92.69,1.53.69s1.12-.23,1.52-.7.61-1.17.61-2.13c0-.9-.2-1.58-.61-2.04-.41-.46-.92-.69-1.52-.69s-1.13.23-1.53.69-.61,1.16-.61,2.08Z"/><path d="m144.03,33.84v-6.3h-1.09v-.96h1.09v-.77c0-.49.04-.85.13-1.09.12-.32.33-.58.63-.78.3-.2.72-.3,1.25-.3.35,0,.73.04,1.15.12l-.18,1.07c-.26-.05-.5-.07-.72-.07-.37,0-.64.08-.79.24s-.23.46-.23.9v.67h1.42v.96h-1.42v6.3h-1.22Z"/><path d="m153.53,33.84l-2.76-7.26h1.3l1.56,4.35c.17.47.32.96.46,1.46.11-.38.26-.84.46-1.38l1.61-4.43h1.26l-2.75,7.26h-1.15Z"/><path d="m158.06,30.21c0-1.34.37-2.34,1.12-2.99.62-.54,1.39-.81,2.28-.81,1,0,1.81.33,2.45.98.63.65.95,1.56.95,2.71,0,.93-.14,1.67-.42,2.2-.28.54-.69.95-1.22,1.25s-1.12.44-1.75.44c-1.02,0-1.84-.33-2.46-.98s-.94-1.59-.94-2.82Zm1.26,0c0,.93.2,1.63.61,2.09.41.46.92.69,1.53.69s1.12-.23,1.52-.7.61-1.17.61-2.13c0-.9-.2-1.58-.61-2.04-.41-.46-.92-.69-1.52-.69s-1.13.23-1.53.69-.61,1.16-.61,2.08Z"/><path d="m166.27,33.84v-10.02h1.23v10.02h-1.23Z"/><path d="m174.17,33.84v-1.07c-.56.82-1.33,1.23-2.3,1.23-.43,0-.83-.08-1.2-.25s-.65-.37-.83-.62c-.18-.25-.31-.55-.38-.91-.05-.24-.08-.62-.08-1.15v-4.5h1.23v4.03c0,.64.02,1.08.08,1.3.08.32.24.58.49.76.25.19.56.28.93.28s.72-.09,1.04-.28c.32-.19.55-.45.69-.77.13-.33.2-.8.2-1.42v-3.89h1.23v7.26h-1.1Z"/><path d="m177.2,33.84v-7.26h1.1v1.02c.23-.36.53-.64.91-.86.38-.22.81-.33,1.29-.33.54,0,.98.11,1.32.33s.59.54.73.94c.57-.85,1.32-1.27,2.24-1.27.72,0,1.27.2,1.66.6.39.4.58,1.01.58,1.84v4.98h-1.22v-4.57c0-.49-.04-.85-.12-1.06-.08-.22-.22-.39-.43-.52s-.46-.2-.74-.2c-.51,0-.93.17-1.27.51-.34.34-.51.88-.51,1.63v4.22h-1.23v-4.72c0-.55-.1-.96-.3-1.23s-.53-.41-.98-.41c-.35,0-.67.09-.96.27s-.51.45-.64.8-.2.86-.2,1.52v3.77h-1.23Z"/><path d="m193.83,31.5l1.27.16c-.2.74-.57,1.32-1.11,1.73s-1.23.62-2.08.62c-1.06,0-1.9-.33-2.53-.98-.62-.65-.93-1.57-.93-2.75s.31-2.17.94-2.84,1.44-1.01,2.45-1.01,1.76.33,2.38.99.92,1.59.92,2.79c0,.07,0,.18,0,.33h-5.41c.05.8.27,1.41.68,1.83s.91.64,1.52.64c.45,0,.84-.12,1.16-.36s.57-.62.76-1.13Zm-4.04-1.99h4.05c-.05-.61-.21-1.07-.46-1.37-.39-.47-.9-.71-1.52-.71-.56,0-1.04.19-1.43.57s-.6.88-.64,1.52Z"/><path d="m202.89,36.79c-.68-.86-1.25-1.86-1.72-3.01s-.7-2.34-.7-3.57c0-1.08.18-2.12.53-3.12.41-1.15,1.04-2.3,1.9-3.45h.88c-.55.95-.92,1.62-1.09,2.03-.28.63-.5,1.29-.66,1.97-.2.85-.29,1.71-.29,2.57,0,2.19.68,4.38,2.04,6.57h-.88Z"/><path d="m209.93,31.18l1.21.16c-.13.83-.47,1.49-1.02,1.96-.54.47-1.21.71-2.01.71-.99,0-1.79-.33-2.4-.97-.6-.65-.91-1.58-.91-2.79,0-.78.13-1.47.39-2.06s.66-1.03,1.19-1.32c.53-.29,1.11-.44,1.73-.44.79,0,1.43.2,1.93.6.5.4.82.96.96,1.7l-1.2.18c-.11-.49-.32-.85-.6-1.1s-.64-.37-1.05-.37c-.62,0-1.12.22-1.51.67-.39.44-.58,1.15-.58,2.11s.19,1.68.56,2.13.86.66,1.46.66c.48,0,.89-.15,1.21-.44s.53-.75.62-1.37Z"/><path d="m212.2,33.84v-7.26h1.1v1.02c.23-.36.53-.64.91-.86.38-.22.81-.33,1.29-.33.54,0,.98.11,1.32.33s.59.54.73.94c.57-.85,1.32-1.27,2.24-1.27.72,0,1.27.2,1.66.6.39.4.58,1.01.58,1.84v4.98h-1.22v-4.57c0-.49-.04-.85-.12-1.06-.08-.22-.22-.39-.43-.52s-.46-.2-.74-.2c-.51,0-.93.17-1.27.51-.34.34-.51.88-.51,1.63v4.22h-1.23v-4.72c0-.55-.1-.96-.3-1.23s-.53-.41-.98-.41c-.35,0-.67.09-.96.27s-.51.45-.64.8-.2.86-.2,1.52v3.77h-1.23Z"/><path d="m223.28,27.63l.72-.1c.08.41.22.7.42.88.2.18.44.27.72.27.34,0,.62-.12.85-.35s.35-.52.35-.87-.11-.6-.32-.81c-.21-.21-.49-.32-.82-.32-.14,0-.3.03-.51.08l.08-.63s.09,0,.12,0c.31,0,.58-.08.83-.24.24-.16.37-.41.37-.74,0-.26-.09-.48-.27-.65-.18-.17-.41-.26-.69-.26s-.51.09-.7.26c-.19.17-.31.44-.36.79l-.72-.13c.09-.48.29-.85.6-1.12.31-.26.7-.4,1.16-.4.32,0,.61.07.88.21s.47.32.62.56c.14.24.21.49.21.75s-.07.48-.2.69c-.14.21-.34.37-.6.49.35.08.61.25.81.5s.29.57.29.94c0,.51-.19.94-.56,1.3-.37.36-.84.53-1.41.53-.51,0-.94-.15-1.28-.46-.34-.31-.53-.7-.58-1.19Z"/><path d="m229.21,36.79h-.88c1.36-2.19,2.04-4.38,2.04-6.57,0-.86-.1-1.71-.29-2.55-.16-.68-.37-1.34-.65-1.97-.18-.41-.54-1.09-1.1-2.05h.88c.86,1.14,1.49,2.29,1.9,3.45.35.99.53,2.03.53,3.12,0,1.23-.24,2.42-.71,3.57-.47,1.15-1.04,2.15-1.72,3.01Z"/><line class="cls-1" x1="87" y1="20.5" x2="248" y2="20.5"/></svg>