<?xml version="1.0" encoding="UTF-8"?><svg id="d" xmlns="http://www.w3.org/2000/svg" viewBox="0 0 270 41"><defs><style>.cls-1{fill:none;stroke:#000;stroke-miterlimit:10;}</style></defs><path d="m160.52,11.86l1.24-.08c0,.36.05.66.16.91s.31.46.6.62.64.24,1.03.24c.55,0,.96-.11,1.23-.33s.41-.48.41-.77c0-.21-.08-.42-.25-.61-.17-.19-.58-.43-1.23-.71s-1.07-.48-1.25-.59c-.31-.19-.54-.41-.69-.66s-.23-.54-.23-.87c0-.57.23-1.07.68-1.48s1.09-.62,1.91-.62c.91,0,1.61.21,2.08.63s.72.98.74,1.66l-1.21.08c-.02-.44-.17-.78-.46-1.04s-.7-.38-1.24-.38c-.43,0-.76.1-1,.29s-.36.41-.36.64.1.43.31.6c.14.12.49.3,1.06.55.95.41,1.54.73,1.79.97.39.38.59.84.59,1.38,0,.36-.11.71-.33,1.06s-.56.62-1.01.83-.99.31-1.6.31c-.84,0-1.55-.21-2.14-.62s-.87-1.09-.83-2.02Z"/><path d="m167.4,14.34l2.09-10.02h1.24l-.8,3.85c.46-.45.89-.77,1.29-.96s.8-.29,1.22-.29c.6,0,1.07.16,1.4.48s.5.73.5,1.25c0,.26-.07.72-.22,1.41l-.9,4.29h-1.24l.92-4.4c.13-.64.2-1.04.2-1.2,0-.24-.08-.43-.25-.58s-.4-.23-.71-.23c-.45,0-.87.12-1.28.35s-.72.56-.95.96-.44,1.07-.63,1.97l-.65,3.12h-1.24Z"/><path d="m180.52,11.87l1.2.12c-.17.6-.57,1.16-1.19,1.7s-1.36.81-2.23.81c-.54,0-1.03-.12-1.48-.37s-.79-.61-1.03-1.08-.35-1.01-.35-1.62c0-.79.18-1.56.55-2.31s.84-1.3,1.43-1.66,1.21-.54,1.89-.54c.87,0,1.56.27,2.07.81s.78,1.27.78,2.2c0,.36-.03.72-.1,1.09h-5.35c-.02.14-.03.27-.03.38,0,.68.16,1.2.47,1.56s.69.54,1.15.54c.42,0,.84-.14,1.25-.42s.73-.68.96-1.2Zm-3.6-1.8h4.07c0-.13,0-.22,0-.27,0-.62-.15-1.09-.46-1.43s-.71-.5-1.2-.5c-.53,0-1.01.18-1.45.55s-.76.91-.97,1.65Z"/><path d="m187.87,13.44c-.43.37-.84.64-1.24.81s-.82.26-1.27.26c-.67,0-1.21-.2-1.62-.59s-.62-.9-.62-1.51c0-.41.09-.76.28-1.08s.43-.56.73-.75.68-.32,1.12-.41c.28-.05.81-.1,1.58-.13s1.33-.11,1.67-.25c.1-.34.14-.62.14-.84,0-.29-.1-.51-.31-.68-.29-.23-.71-.34-1.26-.34-.52,0-.94.12-1.27.35s-.57.56-.72.98l-1.25-.11c.26-.72.66-1.27,1.21-1.65s1.25-.57,2.1-.57c.9,0,1.61.21,2.13.64.4.32.6.73.6,1.24,0,.39-.06.84-.17,1.35l-.4,1.8c-.13.57-.19,1.04-.19,1.4,0,.23.05.56.15.98h-1.25c-.07-.24-.12-.54-.14-.9Zm.46-2.78c-.17.07-.36.12-.56.16s-.53.08-.99.12c-.72.06-1.23.14-1.52.24s-.52.25-.67.47-.23.45-.23.71c0,.35.12.63.36.85s.58.33,1.02.33c.41,0,.8-.11,1.18-.32s.68-.52.9-.91.39-.94.51-1.65Z"/><path d="m190.76,14.34l1.52-7.26h1.09l-.31,1.48c.37-.56.74-.98,1.1-1.24s.72-.4,1.1-.4c.25,0,.55.09.91.27l-.51,1.15c-.21-.15-.45-.23-.7-.23-.43,0-.88.24-1.33.72s-.81,1.35-1.07,2.6l-.62,2.91h-1.18Z"/><path d="m199.43,11.86l1.24-.08c0,.36.05.66.16.91s.31.46.6.62.64.24,1.03.24c.55,0,.96-.11,1.23-.33s.41-.48.41-.77c0-.21-.08-.42-.25-.61-.17-.19-.58-.43-1.23-.71s-1.07-.48-1.25-.59c-.31-.19-.54-.41-.69-.66s-.23-.54-.23-.87c0-.57.23-1.07.68-1.48s1.09-.62,1.91-.62c.91,0,1.61.21,2.08.63s.72.98.74,1.66l-1.21.08c-.02-.44-.17-.78-.46-1.04s-.7-.38-1.24-.38c-.43,0-.76.1-1,.29s-.36.41-.36.64.1.43.31.6c.14.12.49.3,1.06.55.95.41,1.54.73,1.79.97.39.38.59.84.59,1.38,0,.36-.11.71-.33,1.06s-.56.62-1.01.83-.99.31-1.6.31c-.84,0-1.55-.21-2.14-.62s-.87-1.09-.83-2.02Z"/><path d="m209.2,13.33l-.21,1.01c-.3.08-.58.12-.86.12-.49,0-.88-.12-1.18-.36-.22-.18-.33-.43-.33-.75,0-.16.06-.53.18-1.1l.88-4.22h-.98l.2-.96h.98l.38-1.78,1.42-.85-.55,2.64h1.22l-.21.96h-1.21l-.84,4.01c-.1.51-.16.82-.16.92,0,.15.04.26.13.33s.22.12.41.12c.27,0,.52-.03.73-.08Z"/><path d="m210.2,14.34l1.52-7.26h1.09l-.31,1.48c.37-.56.74-.98,1.1-1.24s.72-.4,1.1-.4c.25,0,.55.09.91.27l-.51,1.15c-.21-.15-.45-.23-.7-.23-.43,0-.88.24-1.33.72s-.81,1.35-1.07,2.6l-.62,2.91h-1.18Z"/><path d="m220.19,11.87l1.2.12c-.17.6-.57,1.16-1.19,1.7s-1.36.81-2.23.81c-.54,0-1.03-.12-1.48-.37s-.79-.61-1.03-1.08-.35-1.01-.35-1.62c0-.79.18-1.56.55-2.31s.84-1.3,1.43-1.66,1.21-.54,1.89-.54c.87,0,1.56.27,2.07.81s.78,1.27.78,2.2c0,.36-.03.72-.1,1.09h-5.35c-.02.14-.03.27-.03.38,0,.68.16,1.2.47,1.56s.69.54,1.15.54c.42,0,.84-.14,1.25-.42s.73-.68.96-1.2Zm-3.6-1.8h4.07c0-.13,0-.22,0-.27,0-.62-.15-1.09-.46-1.43s-.71-.5-1.2-.5c-.53,0-1.01.18-1.45.55s-.76.91-.97,1.65Z"/><path d="m222.65,14.34l1.52-7.26h1.12l-.27,1.26c.49-.5.94-.86,1.37-1.09s.86-.34,1.3-.34c.59,0,1.05.16,1.38.48s.5.75.5,1.28c0,.27-.06.69-.18,1.27l-.92,4.4h-1.24l.96-4.6c.1-.45.14-.78.14-.99,0-.24-.08-.44-.25-.59s-.41-.23-.72-.23c-.63,0-1.2.23-1.69.68s-.86,1.24-1.09,2.34l-.7,3.38h-1.24Z"/><path d="m230.37,15l1.25.12c0,.28.03.49.1.64.08.14.2.25.37.33.22.1.51.15.87.15.75,0,1.29-.19,1.61-.58.21-.26.41-.82.6-1.7l.12-.59c-.64.65-1.33.98-2.05.98s-1.35-.27-1.84-.81-.74-1.3-.74-2.29c0-.82.19-1.57.58-2.25s.85-1.2,1.39-1.55c.54-.35,1.09-.52,1.66-.52.95,0,1.69.45,2.2,1.35l.25-1.19h1.13l-1.46,7.01c-.16.77-.37,1.37-.63,1.8s-.62.76-1.08,1-1,.36-1.6.36-1.09-.08-1.51-.23-.74-.37-.94-.66-.31-.62-.31-.99c0-.11.01-.24.04-.37Zm1.54-3.87c0,.5.05.87.14,1.12.14.35.33.62.58.8s.53.28.84.28c.41,0,.81-.14,1.21-.43.4-.28.73-.73.97-1.32s.37-1.17.37-1.71c0-.6-.17-1.07-.5-1.43s-.74-.53-1.23-.53c-.3,0-.59.08-.88.24-.28.16-.55.41-.79.74s-.43.73-.55,1.19-.19.81-.19,1.05Z"/><path d="m241.11,13.33l-.21,1.01c-.3.08-.58.12-.86.12-.49,0-.88-.12-1.18-.36-.22-.18-.33-.43-.33-.75,0-.16.06-.53.18-1.1l.88-4.22h-.98l.2-.96h.98l.38-1.78,1.42-.85-.55,2.64h1.22l-.21.96h-1.21l-.84,4.01c-.1.51-.16.82-.16.92,0,.15.04.26.13.33s.22.12.41.12c.27,0,.52-.03.73-.08Z"/><path d="m242.11,14.34l2.09-10.02h1.24l-.8,3.85c.46-.45.89-.77,1.29-.96s.8-.29,1.22-.29c.6,0,1.07.16,1.4.48.33.32.5.73.5,1.25,0,.26-.07.72-.22,1.41l-.89,4.29h-1.24l.92-4.4c.13-.64.2-1.04.2-1.2,0-.24-.08-.43-.25-.58s-.4-.23-.71-.23c-.45,0-.87.12-1.28.35-.41.23-.72.56-.95.96s-.44,1.07-.63,1.97l-.65,3.12h-1.24Z"/><path d="m145.05,34.34l-.76-7.26h1.19l.33,3.26.13,1.83c0,.14.02.41.04.83.14-.46.25-.82.35-1.07.1-.25.25-.6.46-1.06l1.73-3.79h1.35l.24,3.63c.04.55.06,1.29.07,2.21.23-.61.6-1.46,1.11-2.54l1.56-3.29h1.24l-3.55,7.26h-1.29l-.27-4.26c-.02-.26-.03-.78-.04-1.54-.19.49-.41,1.01-.66,1.58l-1.92,4.22h-1.3Z"/><path d="m159.11,31.87l1.2.12c-.17.6-.57,1.16-1.19,1.7s-1.36.81-2.23.81c-.54,0-1.03-.12-1.48-.37-.45-.25-.79-.61-1.03-1.08s-.35-1.01-.35-1.62c0-.79.18-1.56.55-2.31.37-.74.84-1.3,1.43-1.66.58-.36,1.21-.54,1.89-.54.87,0,1.56.27,2.07.81s.78,1.27.78,2.2c0,.36-.03.72-.1,1.09h-5.35c-.02.14-.03.27-.03.38,0,.68.16,1.2.47,1.56.31.36.69.54,1.15.54.42,0,.84-.14,1.25-.42s.73-.68.96-1.2Zm-3.6-1.8h4.07c0-.13,0-.22,0-.27,0-.62-.15-1.09-.46-1.42-.31-.33-.71-.5-1.2-.5-.53,0-1.01.18-1.45.55s-.76.91-.97,1.65Z"/><path d="m161.51,34.34l1.52-7.26h1.24l-1.52,7.26h-1.24Zm1.8-8.62l.29-1.4h1.23l-.29,1.4h-1.23Z"/><path d="m164.6,35l1.25.12c0,.28.02.49.1.64s.2.25.37.33c.22.1.51.15.87.15.75,0,1.29-.19,1.61-.58.21-.26.41-.82.59-1.7l.12-.59c-.64.65-1.33.98-2.05.98s-1.35-.27-1.84-.81c-.49-.54-.74-1.3-.74-2.29,0-.82.19-1.57.58-2.25s.85-1.2,1.39-1.55c.54-.35,1.09-.52,1.66-.52.95,0,1.69.45,2.2,1.35l.25-1.19h1.13l-1.46,7.01c-.16.77-.37,1.37-.63,1.8-.26.43-.62.77-1.08,1s-1,.36-1.6.36-1.09-.08-1.51-.23-.74-.37-.94-.66c-.21-.29-.31-.62-.31-1,0-.11.01-.24.03-.37Zm1.54-3.87c0,.5.05.87.14,1.12.14.35.33.62.58.8.25.18.53.28.84.28.41,0,.81-.14,1.21-.43.4-.29.73-.73.97-1.32s.37-1.17.37-1.71c0-.6-.17-1.07-.5-1.42-.33-.35-.74-.53-1.23-.53-.3,0-.59.08-.88.24-.28.16-.55.41-.79.74-.24.33-.43.72-.55,1.19s-.19.81-.19,1.05Z"/><path d="m172.46,34.34l2.09-10.02h1.24l-.8,3.85c.46-.45.89-.77,1.29-.96.4-.19.8-.29,1.22-.29.6,0,1.07.16,1.4.48.33.32.5.73.5,1.25,0,.26-.07.72-.22,1.41l-.9,4.29h-1.24l.92-4.4c.13-.64.2-1.04.2-1.2,0-.24-.08-.43-.25-.58s-.4-.23-.71-.23c-.45,0-.87.12-1.28.35-.41.24-.72.56-.95.96-.23.41-.44,1.06-.63,1.97l-.65,3.12h-1.24Z"/><path d="m183.14,33.33l-.21,1.01c-.3.08-.58.12-.86.12-.49,0-.88-.12-1.18-.36-.22-.18-.33-.43-.33-.75,0-.16.06-.53.18-1.1l.88-4.22h-.98l.2-.96h.98l.38-1.78,1.42-.85-.55,2.64h1.22l-.21.96h-1.21l-.84,4.01c-.1.51-.16.82-.16.92,0,.15.04.26.13.33s.22.12.41.12c.27,0,.52-.03.73-.08Z"/><path d="m187.41,37.12l2.1-10.04h1.14l-.21,1.01c.42-.44.8-.75,1.14-.92.33-.17.69-.26,1.06-.26.69,0,1.27.25,1.72.75.46.5.68,1.22.68,2.16,0,.76-.13,1.45-.38,2.07-.25.62-.56,1.12-.92,1.5s-.73.66-1.11.83-.76.27-1.15.27c-.87,0-1.54-.44-2.02-1.33l-.82,3.94h-1.24Zm2.45-5.75c0,.54.04.92.12,1.13.11.3.3.54.56.72s.56.27.9.27c.71,0,1.29-.4,1.72-1.2.44-.8.66-1.62.66-2.45,0-.62-.15-1.09-.44-1.42-.29-.34-.66-.5-1.1-.5-.31,0-.61.08-.88.25-.27.17-.52.42-.75.75-.23.33-.42.73-.57,1.21s-.23.9-.23,1.25Z"/><path d="m201.14,31.87l1.2.12c-.17.6-.57,1.16-1.19,1.7s-1.36.81-2.23.81c-.54,0-1.03-.12-1.48-.37-.45-.25-.79-.61-1.03-1.08s-.35-1.01-.35-1.62c0-.79.18-1.56.55-2.31.37-.74.84-1.3,1.43-1.66.58-.36,1.21-.54,1.89-.54.87,0,1.56.27,2.07.81s.78,1.27.78,2.2c0,.36-.03.72-.1,1.09h-5.35c-.02.14-.03.27-.03.38,0,.68.16,1.2.47,1.56.31.36.69.54,1.15.54.42,0,.84-.14,1.25-.42s.73-.68.96-1.2Zm-3.6-1.8h4.07c0-.13,0-.22,0-.27,0-.62-.15-1.09-.46-1.42-.31-.33-.71-.5-1.2-.5-.53,0-1.01.18-1.45.55s-.76.91-.97,1.65Z"/><path d="m203.6,34.34l1.52-7.26h1.09l-.31,1.48c.37-.56.74-.97,1.1-1.24s.72-.4,1.1-.4c.25,0,.55.09.91.27l-.51,1.15c-.21-.15-.45-.23-.7-.23-.43,0-.88.24-1.33.72s-.81,1.35-1.07,2.6l-.62,2.91h-1.18Z"/><path d="m217.1,33.03c-.87.98-1.76,1.48-2.67,1.48-.56,0-1.01-.16-1.36-.48-.34-.32-.52-.71-.52-1.18,0-.3.08-.83.23-1.57l.88-4.19h1.24l-.97,4.64c-.08.39-.12.69-.12.9,0,.27.08.49.25.64.17.15.41.23.73.23.35,0,.68-.08,1.02-.25s.62-.4.85-.68.43-.63.58-1.02c.1-.25.22-.69.35-1.32l.66-3.14h1.24l-1.52,7.26h-1.14l.27-1.31Z"/><path d="m219.93,34.34l1.52-7.26h1.12l-.27,1.26c.49-.5.94-.86,1.37-1.09s.86-.34,1.3-.34c.59,0,1.05.16,1.38.48s.5.75.5,1.28c0,.27-.06.69-.18,1.27l-.92,4.4h-1.24l.96-4.6c.1-.45.14-.78.14-.99,0-.24-.08-.44-.25-.59s-.41-.23-.72-.23c-.63,0-1.2.23-1.69.68s-.86,1.24-1.09,2.34l-.7,3.38h-1.24Z"/><path d="m227.67,34.34l1.52-7.26h1.24l-1.52,7.26h-1.24Zm1.81-8.62l.29-1.4h1.23l-.29,1.4h-1.23Z"/><path d="m233.72,33.33l-.21,1.01c-.3.08-.58.12-.86.12-.49,0-.88-.12-1.18-.36-.22-.18-.33-.43-.33-.75,0-.16.06-.53.18-1.1l.88-4.22h-.98l.2-.96h.98l.38-1.78,1.41-.85-.55,2.64h1.22l-.21.96h-1.21l-.84,4.01c-.11.51-.16.82-.16.92,0,.15.04.26.13.33s.22.12.41.12c.27,0,.52-.03.73-.08Z"/><path d="m243.5,33.44c-.43.37-.84.64-1.24.81-.4.17-.82.26-1.27.26-.67,0-1.21-.2-1.62-.59-.41-.39-.62-.9-.62-1.51,0-.41.09-.76.28-1.08.18-.31.43-.56.74-.75.3-.19.68-.32,1.12-.41.28-.05.8-.1,1.58-.13s1.33-.11,1.67-.25c.1-.34.14-.62.14-.84,0-.29-.1-.51-.31-.68-.29-.23-.71-.34-1.26-.34-.52,0-.94.12-1.27.34-.33.23-.57.56-.72.98l-1.25-.11c.25-.72.66-1.27,1.21-1.65s1.25-.57,2.1-.57c.9,0,1.61.21,2.13.64.4.32.6.73.6,1.24,0,.39-.06.84-.17,1.35l-.4,1.8c-.13.57-.19,1.04-.19,1.4,0,.23.05.56.15.98h-1.25c-.07-.24-.12-.54-.14-.9Zm.46-2.78c-.17.07-.36.12-.56.16s-.53.08-.99.12c-.72.06-1.23.14-1.53.24-.3.1-.52.25-.67.47s-.22.45-.22.71c0,.35.12.63.36.85s.58.33,1.02.33c.41,0,.8-.11,1.18-.33.38-.22.68-.52.9-.91s.39-.94.51-1.65Z"/><path d="m246.39,34.34l1.52-7.26h1.09l-.31,1.48c.37-.56.74-.97,1.1-1.24s.72-.4,1.1-.4c.25,0,.55.09.91.27l-.51,1.15c-.21-.15-.45-.23-.71-.23-.43,0-.88.24-1.33.72-.46.48-.81,1.35-1.07,2.6l-.62,2.91h-1.18Z"/><path d="m256.39,31.87l1.2.12c-.17.6-.57,1.16-1.19,1.7s-1.36.81-2.23.81c-.54,0-1.03-.12-1.48-.37-.45-.25-.79-.61-1.03-1.08s-.35-1.01-.35-1.62c0-.79.18-1.56.55-2.31.37-.74.84-1.3,1.43-1.66.58-.36,1.21-.54,1.89-.54.87,0,1.56.27,2.08.81s.78,1.27.78,2.2c0,.36-.03.72-.1,1.09h-5.35c-.02.14-.03.27-.03.38,0,.68.16,1.2.47,1.56.31.36.69.54,1.15.54.42,0,.84-.14,1.25-.42s.73-.68.96-1.2Zm-3.6-1.8h4.07c0-.13,0-.22,0-.27,0-.62-.16-1.09-.46-1.42-.31-.33-.71-.5-1.2-.5-.53,0-1.01.18-1.45.55s-.76.91-.97,1.65Z"/><path d="m263.74,33.44c-.43.37-.84.64-1.24.81-.4.17-.82.26-1.27.26-.67,0-1.21-.2-1.62-.59-.41-.39-.62-.9-.62-1.51,0-.41.09-.76.28-1.08.18-.31.43-.56.74-.75.3-.19.68-.32,1.12-.41.28-.05.8-.1,1.58-.13s1.33-.11,1.67-.25c.1-.34.14-.62.14-.84,0-.29-.1-.51-.31-.68-.29-.23-.71-.34-1.26-.34-.52,0-.94.12-1.27.34-.33.23-.57.56-.72.98l-1.25-.11c.25-.72.66-1.27,1.21-1.65s1.25-.57,2.1-.57c.9,0,1.61.21,2.13.64.4.32.6.73.6,1.24,0,.39-.06.84-.17,1.35l-.4,1.8c-.13.57-.19,1.04-.19,1.4,0,.23.05.56.15.98h-1.25c-.07-.24-.12-.54-.14-.9Zm.46-2.78c-.17.07-.36.12-.56.16s-.53.08-.99.12c-.72.06-1.23.14-1.53.24-.3.1-.52.25-.67.47s-.22.45-.22.71c0,.35.12.63.36.85s.58.33,1.02.33c.41,0,.8-.11,1.18-.33.38-.22.68-.52.9-.91s.39-.94.51-1.65Z"/><line class="cls-1" x1="143" y1="21" x2="266" y2="21"/><path d="m5.27,20.98l1.31-.12v.35c-.01.39.08.74.25,1.06.18.32.47.57.88.75.41.17.9.26,1.46.26.8,0,1.41-.17,1.84-.53.42-.35.63-.75.63-1.2,0-.31-.11-.6-.33-.86-.23-.26-.85-.6-1.87-1.04-.79-.34-1.33-.6-1.61-.79-.45-.3-.78-.62-1-.97s-.32-.75-.32-1.19c0-.52.14-.98.42-1.39s.7-.73,1.24-.95c.54-.22,1.16-.33,1.84-.33.82,0,1.5.14,2.06.41s.97.64,1.22,1.09c.25.46.38.89.38,1.31,0,.04,0,.11,0,.21l-1.29.1c0-.28-.03-.5-.08-.66-.09-.28-.23-.51-.42-.7s-.46-.35-.79-.46c-.34-.12-.71-.17-1.12-.17-.73,0-1.3.16-1.7.49-.31.25-.46.58-.46,1,0,.25.06.47.19.66s.36.38.69.57c.24.13.8.39,1.69.79.72.32,1.22.57,1.49.75.36.24.64.53.84.88s.29.73.29,1.17c0,.54-.17,1.04-.5,1.5-.33.46-.79.81-1.37,1.06-.58.25-1.25.38-2,.38-1.13,0-2.06-.25-2.78-.74-.72-.5-1.08-1.38-1.08-2.67Z"/><path d="m16.98,23.22l-.21,1.01c-.3.08-.58.12-.86.12-.49,0-.88-.12-1.18-.36-.22-.18-.33-.43-.33-.75,0-.16.06-.53.18-1.1l.88-4.22h-.98l.2-.96h.98l.38-1.78,1.42-.85-.55,2.64h1.22l-.21.96h-1.21l-.84,4.01c-.1.51-.16.82-.16.92,0,.15.04.26.13.33.08.08.22.12.41.12.27,0,.52-.03.73-.08Z"/><path d="m22.87,23.32c-.43.37-.84.64-1.24.81-.4.17-.82.26-1.27.26-.67,0-1.21-.2-1.62-.59-.41-.39-.62-.9-.62-1.51,0-.41.09-.76.28-1.08.18-.31.43-.56.73-.75s.68-.32,1.12-.41c.28-.05.81-.1,1.58-.13.78-.03,1.33-.11,1.67-.25.1-.34.14-.62.14-.84,0-.29-.1-.51-.31-.68-.29-.23-.71-.34-1.26-.34-.52,0-.94.12-1.27.35-.33.23-.57.56-.72.98l-1.25-.11c.25-.72.66-1.27,1.21-1.65.55-.38,1.25-.57,2.1-.57.9,0,1.61.21,2.13.64.4.32.6.73.6,1.24,0,.39-.06.84-.17,1.35l-.4,1.8c-.13.57-.19,1.04-.19,1.4,0,.23.05.56.15.98h-1.25c-.07-.24-.12-.54-.14-.9Zm.46-2.78c-.17.07-.36.12-.56.16-.2.04-.53.08-.99.12-.72.06-1.23.14-1.52.24s-.52.25-.67.47-.23.45-.23.71c0,.35.12.63.36.85.24.22.58.33,1.02.33.41,0,.8-.11,1.18-.32.38-.22.68-.52.9-.91.22-.39.39-.94.51-1.65Z"/><path d="m25.76,24.22l2.09-10.02h1.24l-.75,3.58c.39-.36.75-.61,1.07-.76s.65-.22,1-.22c.68,0,1.25.25,1.7.76.45.51.68,1.24.68,2.21,0,.64-.09,1.23-.27,1.76s-.41.98-.68,1.34-.55.65-.83.87c-.29.22-.58.38-.88.49-.3.11-.59.16-.87.16-.48,0-.9-.13-1.26-.38-.36-.25-.65-.64-.85-1.16l-.29,1.37h-1.09Zm1.83-2.98v.23c0,.62.14,1.09.44,1.42.3.32.67.49,1.11.49s.83-.15,1.19-.45c.36-.3.66-.78.89-1.42s.35-1.23.35-1.78c0-.61-.15-1.08-.44-1.42-.29-.34-.66-.51-1.09-.51s-.86.17-1.23.52-.69.87-.94,1.59c-.19.53-.28.98-.28,1.34Z"/><path d="m33.5,24.22l1.52-7.26h1.24l-1.52,7.26h-1.24Zm1.8-8.62l.29-1.4h1.23l-.29,1.4h-1.23Z"/><path d="m36.56,24.22l2.09-10.02h1.24l-2.09,10.02h-1.24Z"/><path d="m39.72,24.22l1.52-7.26h1.24l-1.52,7.26h-1.24Zm1.8-8.62l.29-1.4h1.23l-.29,1.4h-1.23Z"/><path d="m45.77,23.22l-.21,1.01c-.3.08-.58.12-.86.12-.49,0-.88-.12-1.18-.36-.22-.18-.33-.43-.33-.75,0-.16.06-.53.18-1.1l.88-4.22h-.98l.2-.96h.98l.38-1.78,1.42-.85-.55,2.64h1.22l-.21.96h-1.21l-.84,4.01c-.1.51-.16.82-.16.92,0,.15.04.26.13.33.08.08.22.12.41.12.27,0,.52-.03.73-.08Z"/><path d="m46.3,27.03l.08-1.16c.25.07.5.11.75.11s.45-.06.61-.17c.2-.15.42-.43.66-.85l.4-.71-1.21-7.28h1.22l.55,3.67c.11.72.2,1.45.28,2.17l3.25-5.84h1.29l-4.63,8.22c-.45.8-.84,1.33-1.19,1.59s-.75.39-1.2.39c-.29,0-.57-.05-.84-.14Z"/><path d="m57.85,24.22l2.1-10.02h4.2c.83,0,1.46.07,1.89.21s.76.4,1.01.78c.24.38.37.87.37,1.45,0,.82-.27,1.49-.8,2.03s-1.39.89-2.58,1.05c.36.27.64.53.83.79.42.59.76,1.2,1.01,1.83l.77,1.89h-1.5l-.72-1.87c-.26-.67-.56-1.26-.89-1.75-.23-.34-.46-.57-.7-.67s-.62-.16-1.16-.16h-1.56l-.93,4.45h-1.34Zm2.5-5.54h1.85c.86,0,1.42-.01,1.67-.03.51-.05.92-.16,1.24-.34s.57-.42.75-.72.27-.62.27-.97c0-.29-.07-.55-.2-.76s-.31-.36-.52-.44-.58-.12-1.09-.12h-3.27l-.71,3.38Z"/><path d="m72.66,23.32c-.43.37-.84.64-1.24.81-.4.17-.82.26-1.27.26-.67,0-1.21-.2-1.62-.59-.41-.39-.62-.9-.62-1.51,0-.41.09-.76.28-1.08.18-.31.43-.56.73-.75s.68-.32,1.12-.41c.28-.05.81-.1,1.58-.13.78-.03,1.33-.11,1.67-.25.1-.34.14-.62.14-.84,0-.29-.1-.51-.31-.68-.29-.23-.71-.34-1.26-.34-.52,0-.94.12-1.27.35-.33.23-.57.56-.72.98l-1.25-.11c.25-.72.66-1.27,1.21-1.65.55-.38,1.25-.57,2.1-.57.9,0,1.61.21,2.13.64.4.32.6.73.6,1.24,0,.39-.06.84-.17,1.35l-.4,1.8c-.13.57-.19,1.04-.19,1.4,0,.23.05.56.15.98h-1.25c-.07-.24-.12-.54-.14-.9Zm.46-2.78c-.17.07-.36.12-.56.16-.2.04-.53.08-.99.12-.72.06-1.23.14-1.52.24s-.52.25-.67.47-.23.45-.23.71c0,.35.12.63.36.85.24.22.58.33,1.02.33.41,0,.8-.11,1.18-.32.38-.22.68-.52.9-.91.22-.39.39-.94.51-1.65Z"/><path d="m78.45,23.22l-.21,1.01c-.3.08-.58.12-.86.12-.49,0-.88-.12-1.18-.36-.22-.18-.33-.43-.33-.75,0-.16.06-.53.18-1.1l.88-4.22h-.98l.2-.96h.98l.38-1.78,1.42-.85-.55,2.64h1.22l-.21.96h-1.21l-.84,4.01c-.1.51-.16.82-.16.92,0,.15.04.26.13.33.08.08.22.12.41.12.27,0,.52-.03.73-.08Z"/><path d="m79.4,24.22l1.52-7.26h1.24l-1.52,7.26h-1.24Zm1.8-8.62l.29-1.4h1.23l-.29,1.4h-1.23Z"/><path d="m82.77,21.47c0-1.42.42-2.59,1.25-3.52.69-.77,1.59-1.15,2.71-1.15.88,0,1.58.27,2.12.82.54.55.8,1.29.8,2.21,0,.83-.17,1.61-.51,2.33-.34.72-.82,1.27-1.44,1.65-.62.38-1.28.57-1.96.57-.57,0-1.08-.12-1.54-.36-.46-.24-.82-.58-1.06-1.03-.24-.44-.37-.95-.37-1.53Zm1.24-.12c0,.68.16,1.2.49,1.56.33.35.75.53,1.25.53.26,0,.53-.05.79-.16.26-.11.5-.27.72-.49s.41-.47.57-.75c.16-.28.28-.58.38-.91.14-.45.21-.88.21-1.3,0-.66-.17-1.17-.5-1.53-.33-.36-.75-.54-1.25-.54-.39,0-.74.09-1.06.28s-.61.45-.86.81c-.26.36-.45.77-.57,1.24-.12.47-.18.89-.18,1.26Z"/><path d="m96.02,27.17c-.72-1.57-1.07-3.18-1.07-4.83,0-1.1.14-2.13.43-3.08.29-.95.73-1.89,1.32-2.82.39-.62,1.02-1.42,1.88-2.41h.96c-.53.57-1.1,1.37-1.69,2.41-.6,1.03-1.03,2.05-1.3,3.05s-.4,2-.4,3.01c0,1.5.26,3.06.79,4.68h-.92Z"/><path d="m99.41,20.98l1.31-.12v.35c-.01.39.08.74.25,1.06.18.32.47.57.88.75.41.17.9.26,1.46.26.8,0,1.41-.17,1.84-.53.42-.35.63-.75.63-1.2,0-.31-.11-.6-.33-.86-.23-.26-.85-.6-1.87-1.04-.79-.34-1.33-.6-1.61-.79-.45-.3-.78-.62-1-.97s-.32-.75-.32-1.19c0-.52.14-.98.42-1.39s.7-.73,1.24-.95c.54-.22,1.16-.33,1.84-.33.82,0,1.5.14,2.06.41s.97.64,1.22,1.09c.25.46.38.89.38,1.31,0,.04,0,.11,0,.21l-1.29.1c0-.28-.03-.5-.08-.66-.09-.28-.23-.51-.42-.7s-.46-.35-.79-.46c-.34-.12-.71-.17-1.12-.17-.73,0-1.3.16-1.7.49-.31.25-.46.58-.46,1,0,.25.06.47.19.66s.36.38.69.57c.24.13.8.39,1.69.79.72.32,1.22.57,1.49.75.36.24.64.53.84.88s.29.73.29,1.17c0,.54-.17,1.04-.5,1.5-.33.46-.79.81-1.37,1.06-.58.25-1.25.38-2,.38-1.13,0-2.06-.25-2.78-.74-.72-.5-1.08-1.38-1.08-2.67Z"/><path d="m108.42,24.22l2.1-10.02h4.2c.83,0,1.46.07,1.89.21s.76.4,1.01.78c.24.38.37.87.37,1.45,0,.82-.27,1.49-.8,2.03s-1.39.89-2.58,1.05c.36.27.64.53.83.79.42.59.76,1.2,1.01,1.83l.77,1.89h-1.5l-.72-1.87c-.26-.67-.56-1.26-.89-1.75-.23-.34-.46-.57-.7-.67s-.62-.16-1.16-.16h-1.56l-.93,4.45h-1.34Zm2.5-5.54h1.85c.86,0,1.42-.01,1.67-.03.51-.05.92-.16,1.24-.34s.57-.42.75-.72.27-.62.27-.97c0-.29-.07-.55-.2-.76s-.31-.36-.52-.44-.58-.12-1.09-.12h-3.27l-.71,3.38Z"/><path d="m120.65,14.03c.72,1.57,1.08,3.18,1.08,4.83,0,1.11-.14,2.14-.43,3.08-.29.95-.73,1.89-1.32,2.82-.4.62-1.02,1.42-1.88,2.41h-.96c.53-.57,1.09-1.38,1.69-2.41s1.03-2.05,1.29-3.05c.27-1,.4-2,.4-3.01,0-1.5-.26-3.06-.79-4.67h.92Z"/><path d="m134.3,18.33h-6.62v-1.15h6.62v1.15Zm0,3.04h-6.62v-1.15h6.62v1.15Z"/></svg>