<?xml version="1.0" encoding="UTF-8"?><svg id="c" xmlns="http://www.w3.org/2000/svg" viewBox="0 0 200 45"><path d="m11.46,14.22l1.85-8.88h-3.29l.24-1.14h7.89l-.24,1.14h-3.26l-1.85,8.88h-1.34Z"/><path d="m19.58,15.65c.28-.35.5-.58.65-.69.21-.15.44-.23.67-.23.28,0,.54.1.78.3.24.2.36.53.36.98,0,.31-.04.56-.14.74-.09.18-.23.32-.42.43-.19.11-.39.16-.59.16-.24,0-.46-.08-.67-.23-.16-.11-.38-.35-.65-.7-.36.45-.75.68-1.15.68-.27,0-.5-.1-.69-.31-.19-.2-.29-.46-.29-.76s.1-.55.29-.76c.19-.21.42-.31.69-.31.41,0,.79.23,1.15.68Zm-.28.38c-.21-.27-.38-.44-.51-.51-.13-.08-.25-.11-.37-.11-.15,0-.28.05-.38.16-.1.11-.15.26-.15.45s.05.34.16.45c.11.11.23.17.39.17.27,0,.56-.2.87-.61Zm.55,0c.23.36.44.6.63.74.12.09.26.13.41.13.2,0,.37-.08.51-.22s.21-.36.21-.63-.07-.5-.21-.65c-.14-.15-.31-.22-.52-.22-.13,0-.25.04-.37.11-.15.1-.38.35-.66.74Z"/><path d="m36.69,8.33h-6.62v-1.15h6.62v1.15Zm0,3.04h-6.62v-1.15h6.62v1.15Z"/><path d="m41.87,10.94c0-.85.13-1.71.38-2.58.25-.88.53-1.57.84-2.1.31-.52.63-.93.96-1.23.33-.3.66-.51.98-.65.32-.14.68-.21,1.07-.21.77,0,1.41.29,1.92.85.51.57.77,1.39.77,2.47s-.18,2.2-.53,3.29c-.42,1.29-1,2.25-1.75,2.89-.57.49-1.23.73-1.96.73s-1.39-.29-1.9-.88c-.52-.59-.78-1.45-.78-2.57Zm1.2.31c0,.62.1,1.1.31,1.44.28.48.69.72,1.24.72.48,0,.91-.22,1.31-.65.57-.61.99-1.5,1.27-2.68.29-1.18.43-2.14.43-2.89s-.14-1.24-.41-1.56c-.28-.32-.64-.48-1.09-.48-.33,0-.63.08-.92.25-.28.17-.56.46-.82.87-.37.58-.69,1.45-.96,2.6-.23.98-.35,1.78-.35,2.38Z"/><path d="m49.47,14.22l.29-1.4h1.4l-.3,1.4h-1.39Z"/><path d="m55.37,8.41c.35-.29.69-.5,1.04-.65.34-.14.69-.22,1.02-.22.76,0,1.39.26,1.89.78s.75,1.22.75,2.1c0,1.13-.37,2.11-1.11,2.92-.64.7-1.41,1.05-2.32,1.05-.83,0-1.52-.3-2.07-.91-.55-.61-.83-1.48-.83-2.6,0-1.01.18-2.05.53-3.12.27-.82.61-1.5,1.01-2.04.4-.54.83-.93,1.29-1.18.45-.25.97-.38,1.54-.38.68,0,1.24.21,1.67.64.43.43.68,1.04.74,1.83l-1.15.11c-.06-.54-.22-.93-.46-1.18-.24-.24-.54-.36-.89-.36-.37,0-.74.14-1.11.43s-.7.71-.96,1.28c-.27.56-.45,1.07-.55,1.51Zm-.43,2.99c0,.57.18,1.04.53,1.43.35.38.75.58,1.19.58.31,0,.64-.12.98-.35.35-.24.64-.59.88-1.07s.36-.95.36-1.43c0-.61-.17-1.1-.5-1.47-.34-.37-.74-.55-1.21-.55-.55,0-1.05.27-1.52.8-.47.54-.7,1.22-.7,2.06Z"/><path d="m61.32,11.36l1.26-.12c0,.18-.01.29-.01.32,0,.3.08.6.23.91.15.31.36.54.62.7.26.16.54.24.83.24.38,0,.77-.13,1.17-.4.4-.26.72-.65.96-1.16s.37-1.01.37-1.5c0-.56-.17-1.01-.5-1.35-.33-.34-.76-.51-1.3-.51-.36,0-.7.09-1.02.26-.32.17-.62.43-.9.78l-1.08-.08,1.51-5.13h4.89l-.24,1.13h-3.81l-.75,2.55c.28-.21.57-.36.87-.46.3-.1.61-.15.92-.15.77,0,1.39.25,1.89.76s.74,1.2.74,2.08c0,.77-.17,1.48-.51,2.13s-.8,1.15-1.39,1.5c-.59.35-1.23.52-1.91.52-.57,0-1.08-.13-1.52-.39s-.77-.62-.99-1.07c-.22-.46-.33-.91-.33-1.37,0-.04,0-.11,0-.21Z"/><path d="m71.3,14.22l1.85-8.88h-3.29l.24-1.14h7.89l-.24,1.14h-3.26l-1.85,8.88h-1.34Z"/><path d="m80.79,18.2v.69h-3.86c0-.17.02-.34.08-.5.1-.26.26-.52.47-.78.22-.25.53-.55.94-.88.64-.52,1.06-.93,1.29-1.24.22-.3.33-.59.33-.86,0-.29-.1-.52-.3-.72s-.47-.29-.79-.29c-.35,0-.62.1-.83.31-.21.21-.31.49-.31.86l-.74-.08c.05-.55.24-.97.57-1.26.33-.29.77-.43,1.33-.43s1,.16,1.33.47c.33.31.49.7.49,1.16,0,.23-.05.46-.14.69s-.25.46-.48.71c-.22.25-.59.59-1.11,1.03-.43.36-.71.61-.83.74-.12.13-.22.26-.3.39h2.87Z"/><path d="m81.56,17.36l.75-.06c.06.37.19.64.39.83.2.19.45.28.74.28.35,0,.64-.13.88-.39s.36-.61.36-1.04-.12-.73-.34-.97c-.23-.24-.53-.35-.9-.35-.23,0-.44.05-.63.16-.19.11-.33.24-.44.41l-.67-.09.57-3h2.91v.69h-2.33l-.32,1.57c.35-.25.72-.37,1.1-.37.51,0,.94.18,1.29.53s.53.81.53,1.36-.15.99-.46,1.37c-.37.47-.89.71-1.53.71-.53,0-.96-.15-1.3-.45-.34-.3-.53-.69-.58-1.18Z"/><path d="m86.09,16c0-.69.07-1.25.21-1.67.14-.42.35-.75.63-.97s.63-.34,1.06-.34c.31,0,.59.06.82.19s.43.31.59.55.28.53.36.87c.09.34.13.8.13,1.38,0,.69-.07,1.24-.21,1.66s-.35.75-.63.98-.63.34-1.06.34c-.56,0-1.01-.2-1.33-.61-.39-.49-.58-1.28-.58-2.38Zm.74,0c0,.96.11,1.6.34,1.92s.5.48.83.48.61-.16.83-.48c.22-.32.34-.96.34-1.91s-.11-1.6-.34-1.92c-.22-.32-.5-.47-.84-.47s-.59.14-.79.42c-.25.36-.37,1.01-.37,1.97Z"/><path d="m11.46,39.22l1.85-8.88h-3.29l.24-1.14h7.89l-.24,1.14h-3.26l-1.85,8.88h-1.34Z"/><path d="m19.58,40.65c.28-.35.5-.58.65-.69.21-.15.44-.23.67-.23.28,0,.54.1.78.3.24.2.36.53.36.98,0,.31-.04.56-.14.74-.09.18-.23.32-.42.43-.19.11-.39.16-.59.16-.24,0-.46-.08-.67-.23-.16-.11-.38-.35-.65-.7-.36.45-.75.68-1.15.68-.27,0-.5-.1-.69-.31-.19-.2-.29-.46-.29-.76s.1-.55.29-.76c.19-.21.42-.31.69-.31.41,0,.79.23,1.15.68Zm-.28.38c-.21-.27-.38-.44-.51-.51-.13-.08-.25-.11-.37-.11-.15,0-.28.05-.38.16-.1.11-.15.26-.15.45s.05.34.16.45c.11.11.23.17.39.17.27,0,.56-.2.87-.61Zm.55,0c.23.36.44.6.63.74.12.09.26.13.41.13.2,0,.37-.08.51-.22s.21-.36.21-.63-.07-.5-.21-.65c-.14-.15-.31-.22-.52-.22-.13,0-.25.04-.37.11-.15.1-.38.35-.66.74Z"/><path d="m36.69,33.33h-6.62v-1.15h6.62v1.15Zm0,3.04h-6.62v-1.15h6.62v1.15Z"/><path d="m41.87,35.94c0-.85.13-1.71.38-2.58.25-.88.53-1.57.84-2.1.31-.52.63-.93.96-1.23.33-.3.66-.51.98-.65.32-.14.68-.21,1.07-.21.77,0,1.41.29,1.92.85.51.57.77,1.39.77,2.47s-.18,2.2-.53,3.29c-.42,1.29-1,2.25-1.75,2.89-.57.49-1.23.73-1.96.73s-1.39-.29-1.9-.88c-.52-.59-.78-1.45-.78-2.57Zm1.2.31c0,.62.1,1.1.31,1.44.28.48.69.72,1.24.72.48,0,.91-.22,1.31-.65.57-.61.99-1.5,1.27-2.68.29-1.18.43-2.14.43-2.89s-.14-1.24-.41-1.56c-.28-.32-.64-.48-1.09-.48-.33,0-.63.08-.92.25-.28.17-.56.46-.82.87-.37.58-.69,1.45-.96,2.6-.23.98-.35,1.78-.35,2.38Z"/><path d="m49.47,39.22l.29-1.4h1.4l-.3,1.4h-1.39Z"/><path d="m53.53,36.36l1.26-.12c0,.18-.01.29-.01.32,0,.3.08.6.23.91.15.31.36.54.62.7.26.16.54.24.83.24.38,0,.77-.13,1.17-.4.4-.26.72-.65.96-1.16s.37-1.01.37-1.5c0-.56-.17-1.01-.5-1.35-.33-.34-.76-.51-1.3-.51-.36,0-.7.09-1.02.26-.32.17-.62.43-.9.78l-1.08-.08,1.51-5.13h4.89l-.24,1.13h-3.81l-.75,2.55c.28-.21.57-.36.87-.46.3-.1.61-.15.92-.15.77,0,1.39.25,1.89.76s.74,1.2.74,2.08c0,.77-.17,1.48-.51,2.13s-.8,1.15-1.39,1.5c-.59.35-1.23.52-1.91.52-.57,0-1.08-.13-1.52-.39s-.77-.62-.99-1.07c-.22-.46-.33-.91-.33-1.37,0-.04,0-.11,0-.21Z"/><path d="m63.16,33.41c.35-.29.69-.5,1.04-.65.34-.14.69-.22,1.02-.22.76,0,1.39.26,1.89.78s.75,1.22.75,2.1c0,1.13-.37,2.11-1.11,2.92-.64.7-1.41,1.05-2.32,1.05-.83,0-1.52-.3-2.07-.91-.55-.61-.83-1.48-.83-2.6,0-1.01.18-2.05.53-3.12.27-.82.61-1.5,1.01-2.04.4-.54.83-.93,1.29-1.18.45-.25.97-.38,1.54-.38.68,0,1.24.21,1.67.64.43.43.68,1.04.74,1.83l-1.15.11c-.06-.54-.22-.93-.46-1.18-.24-.24-.54-.36-.89-.36-.37,0-.74.14-1.11.43s-.7.71-.96,1.28c-.27.56-.45,1.07-.55,1.51Zm-.43,2.99c0,.57.18,1.04.53,1.43.35.38.75.58,1.19.58.31,0,.64-.12.98-.35.35-.24.64-.59.88-1.07s.36-.95.36-1.43c0-.61-.17-1.1-.5-1.47-.34-.37-.74-.55-1.21-.55-.55,0-1.05.27-1.52.8-.47.54-.7,1.22-.7,2.06Z"/><path d="m71.3,39.22l1.85-8.88h-3.29l.24-1.14h7.89l-.24,1.14h-3.26l-1.85,8.88h-1.34Z"/><path d="m79.72,43.89h-.72v-4.57c-.17.17-.4.33-.68.49s-.53.29-.75.37v-.69c.4-.19.75-.42,1.05-.68.3-.27.51-.53.64-.78h.46v5.87Z"/><path d="m81.56,41c0-.69.07-1.25.21-1.67.14-.42.35-.75.63-.97s.63-.34,1.06-.34c.31,0,.59.06.82.19s.43.31.59.55.28.53.36.87c.09.34.13.8.13,1.38,0,.69-.07,1.24-.21,1.66s-.35.75-.63.98-.63.34-1.06.34c-.56,0-1.01-.2-1.33-.61-.39-.49-.58-1.28-.58-2.38Zm.74,0c0,.96.11,1.6.34,1.92s.5.48.83.48.61-.16.83-.48c.22-.32.34-.96.34-1.91s-.11-1.6-.34-1.92c-.22-.32-.5-.47-.84-.47s-.59.14-.79.42c-.25.36-.37,1.01-.37,1.97Z"/><path d="m86.09,41c0-.69.07-1.25.21-1.67.14-.42.35-.75.63-.97s.63-.34,1.06-.34c.31,0,.59.06.82.19s.43.31.59.55.28.53.36.87c.09.34.13.8.13,1.38,0,.69-.07,1.24-.21,1.66s-.35.75-.63.98-.63.34-1.06.34c-.56,0-1.01-.2-1.33-.61-.39-.49-.58-1.28-.58-2.38Zm.74,0c0,.96.11,1.6.34,1.92s.5.48.83.48.61-.16.83-.48c.22-.32.34-.96.34-1.91s-.11-1.6-.34-1.92c-.22-.32-.5-.47-.84-.47s-.59.14-.79.42c-.25.36-.37,1.01-.37,1.97Z"/></svg>