<?xml version="1.0" encoding="UTF-8"?><svg id="b" xmlns="http://www.w3.org/2000/svg" viewBox="0 0 200 70"><defs><style>.cls-1{fill:none;stroke:#000;stroke-miterlimit:10;}</style></defs><path d="m11.46,39.22l1.85-8.88h-3.29l.24-1.14h7.89l-.24,1.14h-3.26l-1.85,8.88h-1.34Z"/><path d="m17.54,43.89v-3.67h-.63v-.56h.63v-.45c0-.28.03-.5.08-.63.07-.19.19-.34.36-.45.17-.12.42-.17.73-.17.2,0,.42.02.67.07l-.11.63c-.15-.03-.29-.04-.42-.04-.22,0-.37.05-.46.14-.09.09-.14.27-.14.52v.39h.83v.56h-.83v3.67h-.71Z"/><path d="m19.63,43.89v-4.23h.65v.64c.17-.3.32-.5.46-.59s.29-.14.46-.14c.24,0,.49.08.74.23l-.25.67c-.17-.1-.35-.16-.53-.16-.16,0-.3.05-.42.14s-.21.23-.27.39c-.08.25-.12.53-.12.84v2.22h-.72Z"/><path d="m25.12,43.36c-.27.23-.52.39-.77.48-.25.09-.51.14-.79.14-.46,0-.82-.11-1.07-.34-.25-.23-.38-.52-.38-.87,0-.21.05-.4.14-.57.09-.17.22-.31.37-.41.15-.1.33-.18.52-.23.14-.04.35-.07.64-.11.58-.07,1.01-.15,1.28-.25,0-.1,0-.16,0-.19,0-.29-.07-.5-.2-.62-.18-.16-.46-.24-.82-.24-.34,0-.59.06-.75.18s-.28.33-.36.63l-.7-.09c.06-.3.17-.54.31-.73.15-.18.36-.33.63-.43s.6-.15.96-.15.66.04.88.13c.23.09.39.19.5.32s.18.29.22.49c.02.12.04.34.04.66v.96c0,.67.01,1.09.05,1.27.03.18.09.35.18.51h-.75c-.07-.15-.12-.32-.14-.52Zm-.06-1.6c-.26.11-.65.2-1.17.27-.29.04-.5.09-.63.14-.12.05-.22.13-.28.23s-.1.22-.1.34c0,.19.07.35.22.48.14.13.36.19.64.19s.52-.06.74-.18c.21-.12.37-.29.47-.5.08-.16.12-.4.12-.72v-.26Z"/><path d="m26.9,43.89v-4.23h.64v.59c.13-.21.31-.37.53-.5.22-.13.47-.19.75-.19.31,0,.57.06.77.2.2.13.34.31.42.55.33-.49.77-.74,1.31-.74.42,0,.74.12.97.35.23.23.34.59.34,1.07v2.91h-.71v-2.67c0-.29-.02-.49-.07-.62-.05-.13-.13-.23-.25-.3-.12-.08-.27-.12-.43-.12-.3,0-.54.1-.74.3-.2.2-.29.51-.29.95v2.46h-.72v-2.75c0-.32-.06-.56-.18-.72-.12-.16-.31-.24-.57-.24-.2,0-.39.05-.56.16-.17.11-.29.26-.37.47-.08.21-.12.5-.12.88v2.2h-.72Z"/><path d="m36.6,42.52l.74.09c-.12.43-.33.77-.65,1.01-.32.24-.72.36-1.21.36-.62,0-1.11-.19-1.47-.57-.36-.38-.54-.92-.54-1.6s.18-1.26.55-1.66c.37-.39.84-.59,1.43-.59s1.03.19,1.39.58c.36.38.54.93.54,1.63,0,.04,0,.11,0,.19h-3.16c.03.46.16.82.39,1.07s.53.37.88.37c.26,0,.49-.07.67-.21.19-.14.33-.36.44-.66Zm-2.36-1.16h2.36c-.03-.36-.12-.62-.27-.8-.23-.28-.52-.41-.89-.41-.33,0-.61.11-.83.33-.22.22-.35.52-.37.88Z"/><path d="m68.92,25.22l2.09-10.02h6.51l-.24,1.14h-5.17l-.66,3.19h5.27l-.24,1.14h-5.27l-.95,4.55h-1.34Z"/><path d="m80.14,29.36c-.27.23-.52.39-.77.48-.25.09-.51.14-.79.14-.46,0-.82-.11-1.07-.34-.25-.23-.38-.52-.38-.87,0-.21.05-.4.14-.57.09-.17.22-.31.37-.41.15-.1.33-.18.52-.23.14-.04.35-.07.64-.11.58-.07,1.01-.15,1.28-.25,0-.1,0-.16,0-.19,0-.29-.07-.5-.2-.62-.18-.16-.46-.24-.82-.24-.34,0-.59.06-.75.18s-.28.33-.36.63l-.7-.09c.06-.3.17-.54.31-.73.15-.18.36-.33.63-.43s.6-.15.96-.15.66.04.88.13c.23.09.39.19.5.32s.18.29.22.49c.02.12.04.34.04.66v.96c0,.67.01,1.09.05,1.27.03.18.09.35.18.51h-.75c-.07-.15-.12-.32-.14-.52Zm-.06-1.6c-.26.11-.65.2-1.17.27-.29.04-.5.09-.63.14-.12.05-.22.13-.28.23s-.1.22-.1.34c0,.19.07.35.22.48.14.13.36.19.64.19s.52-.06.74-.18c.21-.12.37-.29.47-.5.08-.16.12-.4.12-.72v-.26Z"/><path d="m83.09,29.89l-1.61-4.23h.76l.91,2.53c.1.27.19.56.27.85.06-.22.15-.49.27-.81l.94-2.58h.74l-1.6,4.23h-.67Z"/><path d="m88.89,28.52l.74.09c-.12.43-.33.77-.65,1.01-.32.24-.72.36-1.21.36-.62,0-1.11-.19-1.47-.57-.36-.38-.54-.92-.54-1.6s.18-1.26.55-1.66c.37-.39.84-.59,1.43-.59s1.03.19,1.39.58c.36.38.54.93.54,1.63,0,.04,0,.11,0,.19h-3.16c.03.46.16.82.39,1.07s.53.37.88.37c.26,0,.49-.07.67-.21.19-.14.33-.36.44-.66Zm-2.36-1.16h2.36c-.03-.36-.12-.62-.27-.8-.23-.28-.52-.41-.89-.41-.33,0-.61.11-.83.33-.22.22-.35.52-.37.88Z"/><path d="m90.53,29.89v-4.23h.65v.64c.17-.3.32-.5.46-.59s.29-.14.46-.14c.24,0,.49.08.74.23l-.25.67c-.17-.1-.35-.16-.53-.16-.16,0-.3.05-.42.14s-.21.23-.27.39c-.08.25-.12.53-.12.84v2.22h-.72Z"/><path d="m96.01,29.36c-.27.23-.52.39-.77.48-.25.09-.51.14-.79.14-.46,0-.82-.11-1.07-.34-.25-.23-.38-.52-.38-.87,0-.21.05-.4.14-.57.09-.17.22-.31.37-.41.15-.1.33-.18.52-.23.14-.04.35-.07.64-.11.58-.07,1.01-.15,1.28-.25,0-.1,0-.16,0-.19,0-.29-.07-.5-.2-.62-.18-.16-.46-.24-.82-.24-.34,0-.59.06-.75.18s-.28.33-.36.63l-.7-.09c.06-.3.17-.54.31-.73.15-.18.36-.33.63-.43s.6-.15.96-.15.66.04.88.13c.23.09.39.19.5.32s.18.29.22.49c.02.12.04.34.04.66v.96c0,.67.01,1.09.05,1.27.03.18.09.35.18.51h-.75c-.07-.15-.12-.32-.14-.52Zm-.06-1.6c-.26.11-.65.2-1.17.27-.29.04-.5.09-.63.14-.12.05-.22.13-.28.23s-.1.22-.1.34c0,.19.07.35.22.48.14.13.36.19.64.19s.52-.06.74-.18c.21-.12.37-.29.47-.5.08-.16.12-.4.12-.72v-.26Z"/><path d="m97.66,30.24l.7.1c.03.22.11.37.24.47.18.13.42.2.73.2.33,0,.59-.07.77-.2s.3-.32.37-.56c.04-.15.05-.45.05-.92-.31.37-.7.55-1.17.55-.58,0-1.03-.21-1.35-.63-.32-.42-.48-.92-.48-1.51,0-.4.07-.78.22-1.12.15-.34.36-.61.64-.79.28-.19.6-.28.98-.28.5,0,.91.2,1.24.61v-.51h.66v3.66c0,.66-.07,1.13-.2,1.4-.13.27-.35.49-.64.65s-.65.24-1.07.24c-.5,0-.91-.11-1.22-.34-.31-.23-.46-.57-.45-1.03Zm.59-2.54c0,.56.11.96.33,1.22s.5.38.83.38.61-.13.83-.38c.22-.25.33-.65.33-1.19s-.12-.91-.34-1.17c-.23-.26-.51-.39-.83-.39s-.59.13-.81.39c-.22.26-.33.64-.33,1.15Z"/><path d="m105.23,28.52l.74.09c-.12.43-.33.77-.65,1.01-.32.24-.72.36-1.21.36-.62,0-1.11-.19-1.47-.57-.36-.38-.54-.92-.54-1.6s.18-1.26.55-1.66c.37-.39.84-.59,1.43-.59s1.03.19,1.39.58c.36.38.54.93.54,1.63,0,.04,0,.11,0,.19h-3.16c.03.46.16.82.39,1.07s.53.37.88.37c.26,0,.49-.07.67-.21.19-.14.33-.36.44-.66Zm-2.36-1.16h2.36c-.03-.36-.12-.62-.27-.8-.23-.28-.52-.41-.89-.41-.33,0-.61.11-.83.33-.22.22-.35.52-.37.88Z"/><path d="m68,51.22l5.68-10.02h1.58l1.65,10.02h-1.3l-.49-2.88h-4.05l-1.61,2.88h-1.47Zm3.65-3.92h3.32l-.39-2.52c-.15-1-.24-1.83-.28-2.5-.23.57-.56,1.26-1,2.04l-1.65,2.97Z"/><path d="m80.92,55.36c-.27.23-.52.39-.77.48-.25.09-.51.14-.79.14-.46,0-.82-.11-1.07-.34-.25-.23-.38-.52-.38-.87,0-.21.05-.4.14-.57.09-.17.22-.31.37-.41.15-.1.33-.18.52-.23.14-.04.35-.07.64-.11.58-.07,1.01-.15,1.28-.25,0-.1,0-.16,0-.19,0-.29-.07-.5-.2-.62-.18-.16-.46-.24-.82-.24-.34,0-.59.06-.75.18s-.28.33-.36.63l-.7-.09c.06-.3.17-.54.31-.73.15-.18.36-.33.63-.43s.6-.15.96-.15.66.04.88.13c.23.09.39.19.5.32s.18.29.22.49c.02.12.04.34.04.66v.96c0,.67.01,1.09.05,1.27.03.18.09.35.18.51h-.75c-.07-.15-.12-.32-.14-.52Zm-.06-1.6c-.26.11-.65.2-1.17.27-.29.04-.5.09-.63.14-.12.05-.22.13-.28.23s-.1.22-.1.34c0,.19.07.35.22.48.14.13.36.19.64.19s.52-.06.74-.18c.21-.12.37-.29.47-.5.08-.16.12-.4.12-.72v-.26Z"/><path d="m83.88,55.89l-1.61-4.23h.76l.91,2.53c.1.27.19.56.27.85.06-.22.15-.49.27-.81l.94-2.58h.74l-1.6,4.23h-.67Z"/><path d="m89.68,54.52l.74.09c-.12.43-.33.77-.65,1.01-.32.24-.72.36-1.21.36-.62,0-1.11-.19-1.47-.57-.36-.38-.54-.92-.54-1.6s.18-1.26.55-1.66c.37-.39.84-.59,1.43-.59s1.03.19,1.39.58c.36.38.54.93.54,1.63,0,.04,0,.11,0,.19h-3.16c.03.46.16.82.39,1.07s.53.37.88.37c.26,0,.49-.07.67-.21.19-.14.33-.36.44-.66Zm-2.36-1.16h2.36c-.03-.36-.12-.62-.27-.8-.23-.28-.52-.41-.89-.41-.33,0-.61.11-.83.33-.22.22-.35.52-.37.88Z"/><path d="m91.31,55.89v-4.23h.65v.64c.17-.3.32-.5.46-.59s.29-.14.46-.14c.24,0,.49.08.74.23l-.25.67c-.17-.1-.35-.16-.53-.16-.16,0-.3.05-.42.14s-.21.23-.27.39c-.08.25-.12.53-.12.84v2.22h-.72Z"/><path d="m96.8,55.36c-.27.23-.52.39-.77.48-.25.09-.51.14-.79.14-.46,0-.82-.11-1.07-.34-.25-.23-.38-.52-.38-.87,0-.21.05-.4.14-.57.09-.17.22-.31.37-.41.15-.1.33-.18.52-.23.14-.04.35-.07.64-.11.58-.07,1.01-.15,1.28-.25,0-.1,0-.16,0-.19,0-.29-.07-.5-.2-.62-.18-.16-.46-.24-.82-.24-.34,0-.59.06-.75.18s-.28.33-.36.63l-.7-.09c.06-.3.17-.54.31-.73.15-.18.36-.33.63-.43s.6-.15.96-.15.66.04.88.13c.23.09.39.19.5.32s.18.29.22.49c.02.12.04.34.04.66v.96c0,.67.01,1.09.05,1.27.03.18.09.35.18.51h-.75c-.07-.15-.12-.32-.14-.52Zm-.06-1.6c-.26.11-.65.2-1.17.27-.29.04-.5.09-.63.14-.12.05-.22.13-.28.23s-.1.22-.1.34c0,.19.07.35.22.48.14.13.36.19.64.19s.52-.06.74-.18c.21-.12.37-.29.47-.5.08-.16.12-.4.12-.72v-.26Z"/><path d="m98.45,56.24l.7.1c.03.22.11.37.24.47.18.13.42.2.73.2.33,0,.59-.07.77-.2s.3-.32.37-.56c.04-.15.05-.45.05-.92-.31.37-.7.55-1.17.55-.58,0-1.03-.21-1.35-.63-.32-.42-.48-.92-.48-1.51,0-.4.07-.78.22-1.12.15-.34.36-.61.64-.79.28-.19.6-.28.98-.28.5,0,.91.2,1.24.61v-.51h.66v3.66c0,.66-.07,1.13-.2,1.4-.13.27-.35.49-.64.65s-.65.24-1.07.24c-.5,0-.91-.11-1.22-.34-.31-.23-.46-.57-.45-1.03Zm.59-2.54c0,.56.11.96.33,1.22s.5.38.83.38.61-.13.83-.38c.22-.25.33-.65.33-1.19s-.12-.91-.34-1.17c-.23-.26-.51-.39-.83-.39s-.59.13-.81.39c-.22.26-.33.64-.33,1.15Z"/><path d="m106.01,54.52l.74.09c-.12.43-.33.77-.65,1.01-.32.24-.72.36-1.21.36-.62,0-1.11-.19-1.47-.57-.36-.38-.54-.92-.54-1.6s.18-1.26.55-1.66c.37-.39.84-.59,1.43-.59s1.03.19,1.39.58c.36.38.54.93.54,1.63,0,.04,0,.11,0,.19h-3.16c.03.46.16.82.39,1.07s.53.37.88.37c.26,0,.49-.07.67-.21.19-.14.33-.36.44-.66Zm-2.36-1.16h2.36c-.03-.36-.12-.62-.27-.8-.23-.28-.52-.41-.89-.41-.33,0-.61.11-.83.33-.22.22-.35.52-.37.88Z"/><path d="m52.16,33.33h-6.62v-1.15h6.62v1.15Zm0,3.04h-6.62v-1.15h6.62v1.15Z"/><line class="cls-1" x1="64" y1="35.5" x2="112" y2="35.5"/></svg>