<?xml version="1.0" encoding="UTF-8"?><svg id="a" xmlns="http://www.w3.org/2000/svg" viewBox="0 0 200 70"><defs><style>.cls-1{fill:none;stroke:#000;stroke-miterlimit:10;stroke-width:1.07px;}</style></defs><path d="m43.16,18.33h-6.62v-1.15h6.62v1.15Zm0,3.04h-6.62v-1.15h6.62v1.15Z"/><path d="m8.94,24.22l2.1-10.02h4.2c.83,0,1.46.07,1.89.21s.76.4,1.01.78c.24.38.37.87.37,1.45,0,.82-.27,1.49-.8,2.03s-1.39.89-2.58,1.05c.36.27.64.53.83.79.42.59.76,1.2,1.01,1.83l.77,1.89h-1.5l-.72-1.87c-.26-.67-.56-1.26-.89-1.75-.23-.34-.46-.57-.7-.67s-.62-.16-1.16-.16h-1.56l-.93,4.45h-1.34Zm2.5-5.54h1.85c.86,0,1.42-.01,1.67-.03.51-.05.92-.16,1.24-.34s.57-.42.75-.72.27-.62.27-.97c0-.29-.07-.55-.2-.76s-.31-.36-.52-.44-.58-.12-1.09-.12h-3.27l-.71,3.38Z"/><path d="m19.08,24.22l2.1-10.02h1.3l1.69,3.76c.51,1.15.92,2.11,1.22,2.9.17.46.37,1.07.6,1.85.12-.84.28-1.71.46-2.61l1.23-5.89h1.31l-2.09,10.02h-1.33l-2.49-5.79c-.44-1.02-.79-1.92-1.03-2.7-.07.65-.2,1.45-.4,2.4l-1.27,6.09h-1.31Z"/><path d="m53.46,24.22l1.85-8.88h-3.29l.24-1.14h7.89l-.24,1.14h-3.26l-1.85,8.88h-1.34Z"/><path d="m66.71,22.6v-2.75h-2.73v-1.15h2.73v-2.73h1.16v2.73h2.73v1.15h-2.73v2.75h-1.16Z"/><path d="m75.38,24.22l2.1-10.02h1.33l-.87,4.16h5.2l.87-4.16h1.34l-2.09,10.02h-1.34l.98-4.72h-5.19l-.99,4.72h-1.34Z"/><path d="m92.78,22.6v-2.75h-2.73v-1.15h2.73v-2.73h1.16v2.73h2.73v1.15h-2.73v2.75h-1.16Z"/><path d="m107.25,13.84l1.52-7.26h1.12l-.27,1.26c.49-.5.94-.86,1.37-1.09s.86-.34,1.3-.34c.59,0,1.05.16,1.38.48s.5.75.5,1.28c0,.27-.06.69-.18,1.27l-.92,4.4h-1.24l.96-4.6c.1-.45.14-.78.14-.99,0-.24-.08-.44-.25-.59s-.41-.23-.72-.23c-.63,0-1.2.23-1.69.68s-.86,1.24-1.09,2.34l-.7,3.38h-1.24Z"/><path d="m115.21,13.84l1.32-6.3h-1.11l.2-.96h1.11l.21-1.03c.11-.52.22-.89.34-1.11s.31-.42.57-.56.62-.22,1.07-.22c.31,0,.77.07,1.37.2l-.23,1.08c-.42-.11-.77-.16-1.05-.16-.24,0-.42.06-.55.18s-.23.41-.32.86l-.16.78h1.38l-.2.96h-1.38l-1.32,6.3h-1.24Z"/><path d="m119.05,13.84l2.1-10.02h1.33l-.87,4.16h5.2l.87-4.16h1.34l-2.09,10.02h-1.34l.98-4.72h-5.19l-.99,4.72h-1.34Z"/><path d="m116.66,36.62h-1.24l1.22-5.68c.24-1.11.5-1.95.79-2.53.29-.58.7-1.05,1.24-1.43s1.17-.57,1.9-.57c.83,0,1.52.28,2.05.83s.8,1.27.8,2.16c0,1.23-.36,2.3-1.08,3.22-.72.92-1.61,1.38-2.67,1.38-.95,0-1.69-.34-2.21-1.03l-.8,3.65Zm1.29-5.47c0,.62.16,1.08.48,1.38s.7.46,1.15.46.9-.17,1.32-.52c.42-.34.74-.81.97-1.39.23-.58.35-1.15.35-1.7s-.15-1.01-.45-1.39-.71-.56-1.21-.56c-.76,0-1.38.4-1.87,1.19-.49.79-.73,1.63-.73,2.53Z"/><line class="cls-1" x1="104" y1="20.5" x2="133" y2="20.5"/><path d="m43.16,56.33h-6.62v-1.15h6.62v1.15Zm0,3.04h-6.62v-1.15h6.62v1.15Z"/><path d="m8.94,62.22l2.1-10.02h4.2c.83,0,1.46.07,1.89.21.43.14.76.4,1.01.78.24.38.37.87.37,1.45,0,.82-.27,1.49-.8,2.03-.53.54-1.39.89-2.58,1.05.36.27.64.53.83.79.42.59.76,1.2,1.01,1.83l.77,1.89h-1.5l-.72-1.87c-.26-.67-.56-1.26-.89-1.75-.23-.34-.46-.57-.7-.67-.24-.11-.62-.16-1.16-.16h-1.56l-.93,4.45h-1.34Zm2.5-5.54h1.85c.86,0,1.42-.01,1.67-.03.51-.05.92-.16,1.24-.34s.57-.42.75-.72.27-.62.27-.97c0-.29-.07-.55-.2-.76-.13-.22-.31-.36-.52-.44-.21-.08-.58-.12-1.09-.12h-3.27l-.71,3.38Z"/><path d="m19.05,62.22l2.1-10.02h4.2c.83,0,1.46.07,1.89.21.43.14.76.4,1.01.78.24.38.37.87.37,1.45,0,.82-.27,1.49-.8,2.03-.53.54-1.39.89-2.58,1.05.36.27.64.53.83.79.42.59.76,1.2,1.01,1.83l.77,1.89h-1.5l-.72-1.87c-.26-.67-.56-1.26-.89-1.75-.23-.34-.46-.57-.7-.67-.24-.11-.62-.16-1.16-.16h-1.56l-.93,4.45h-1.34Zm2.5-5.54h1.85c.86,0,1.42-.01,1.67-.03.51-.05.92-.16,1.24-.34s.57-.42.75-.72.27-.62.27-.97c0-.29-.07-.55-.2-.76-.13-.22-.31-.36-.52-.44-.21-.08-.58-.12-1.09-.12h-3.27l-.71,3.38Z"/><path d="m50.94,62.22l2.1-10.02h4.2c.83,0,1.46.07,1.89.21.43.14.76.4,1.01.78.24.38.37.87.37,1.45,0,.82-.27,1.49-.8,2.03-.53.54-1.39.89-2.58,1.05.36.27.64.53.83.79.42.59.76,1.2,1.01,1.83l.77,1.89h-1.5l-.72-1.87c-.26-.67-.56-1.26-.89-1.75-.23-.34-.46-.57-.7-.67-.24-.11-.62-.16-1.16-.16h-1.56l-.93,4.45h-1.34Zm2.5-5.54h1.85c.86,0,1.42-.01,1.67-.03.51-.05.92-.16,1.24-.34s.57-.42.75-.72.27-.62.27-.97c0-.29-.07-.55-.2-.76-.13-.22-.31-.36-.52-.44-.21-.08-.58-.12-1.09-.12h-3.27l-.71,3.38Z"/><path d="m61.08,62.22l2.1-10.02h1.3l1.69,3.76c.51,1.15.92,2.12,1.22,2.9.17.46.37,1.07.6,1.85.12-.84.28-1.71.46-2.61l1.23-5.89h1.31l-2.09,10.02h-1.33l-2.49-5.79c-.44-1.02-.79-1.92-1.03-2.7-.07.65-.2,1.45-.4,2.4l-1.27,6.09h-1.31Z"/><path d="m74.37,62.22l3.16-3.68-1.81-3.58h1.37l.62,1.29c.23.48.43.95.62,1.39l2.09-2.68h1.51l-3.05,3.67,1.83,3.59h-1.37l-.72-1.48c-.16-.31-.33-.7-.53-1.17l-2.16,2.65h-1.55Z"/><path d="m88.65,62.22l1.59-7.57c-.68.54-1.65.97-2.88,1.29l.23-1.12c.62-.25,1.22-.57,1.82-.96.6-.4,1.05-.74,1.35-1.04.18-.18.36-.4.52-.66h.72l-2.1,10.06h-1.24Z"/><path d="m94.06,58.94c0-.85.13-1.71.38-2.58.25-.88.53-1.57.84-2.1.31-.52.63-.93.96-1.23.33-.3.66-.51.98-.65.32-.14.68-.21,1.07-.21.77,0,1.41.29,1.92.85.51.57.77,1.39.77,2.47s-.18,2.2-.53,3.29c-.42,1.29-1,2.25-1.75,2.89-.57.49-1.23.73-1.96.73s-1.39-.29-1.9-.88c-.52-.59-.78-1.45-.78-2.57Zm1.2.31c0,.62.1,1.1.31,1.44.28.48.69.72,1.24.72.48,0,.91-.22,1.31-.65.57-.61.99-1.5,1.27-2.68.29-1.18.43-2.14.43-2.89s-.14-1.24-.41-1.56c-.28-.32-.64-.48-1.09-.48-.33,0-.63.08-.92.25-.28.17-.56.46-.82.87-.37.58-.69,1.45-.96,2.6-.23.98-.35,1.78-.35,2.38Z"/></svg>