<?xml version="1.0" encoding="UTF-8"?><svg id="_3-6-11" xmlns="http://www.w3.org/2000/svg" viewBox="0 0 232 40"><defs><style>.cls-1{fill:none;stroke:#000;stroke-miterlimit:10;}</style></defs><path d="m11.35,16.96h1.32l-1.63,3.52v1.31c0,.77.03,1.58.1,2.43h-1.24l-.14-1.08c-.67.83-1.46,1.24-2.37,1.24-.51,0-.95-.12-1.29-.37s-.62-.57-.82-.98c-.2-.41-.3-.95-.3-1.61,0-1.29.36-2.38,1.07-3.28s1.56-1.35,2.55-1.35,1.66.49,2.15,1.48l.61-1.32Zm-5.15,4.56c0,.62.14,1.09.42,1.39.28.31.63.46,1.05.46.69,0,1.28-.39,1.77-1.16.49-.77.74-1.61.74-2.52,0-.54-.13-.99-.39-1.34-.26-.36-.63-.54-1.1-.54-.72,0-1.31.4-1.78,1.19s-.7,1.63-.7,2.52Z"/><path d="m11.35,16.96h1.32l-1.63,3.52v1.31c0,.77.03,1.58.1,2.43h-1.24l-.14-1.08c-.67.83-1.46,1.24-2.37,1.24-.51,0-.95-.12-1.29-.37s-.62-.57-.82-.98c-.2-.41-.3-.95-.3-1.61,0-1.29.36-2.38,1.07-3.28s1.56-1.35,2.55-1.35,1.66.49,2.15,1.48l.61-1.32Zm-5.15,4.56c0,.62.14,1.09.42,1.39.28.31.63.46,1.05.46.69,0,1.28-.39,1.77-1.16.49-.77.74-1.61.74-2.52,0-.54-.13-.99-.39-1.34-.26-.36-.63-.54-1.1-.54-.72,0-1.31.4-1.78,1.19s-.7,1.63-.7,2.52Z"/><path d="m29.16,18.33h-6.62v-1.15h6.62v1.15Zm0,3.04h-6.62v-1.15h6.62v1.15Z"/><path d="m136.16,18.33h-6.62v-1.15h6.62v1.15Zm0,3.04h-6.62v-1.15h6.62v1.15Z"/><path d="m44.64,23.32c-.43.37-.84.64-1.24.81-.4.17-.82.26-1.27.26-.67,0-1.21-.2-1.62-.59-.41-.39-.62-.9-.62-1.51,0-.41.09-.76.28-1.08.18-.31.43-.56.73-.75s.68-.32,1.12-.41c.28-.05.81-.1,1.58-.13.78-.03,1.33-.11,1.67-.25.1-.34.14-.62.14-.84,0-.29-.1-.51-.31-.68-.29-.23-.71-.34-1.26-.34-.52,0-.94.12-1.27.35-.33.23-.57.56-.72.98l-1.25-.11c.25-.72.66-1.27,1.21-1.65.55-.38,1.25-.57,2.1-.57.9,0,1.61.21,2.13.64.4.32.6.73.6,1.24,0,.39-.06.84-.17,1.35l-.4,1.8c-.13.57-.19,1.04-.19,1.4,0,.23.05.56.15.98h-1.25c-.07-.24-.12-.54-.14-.9Zm.46-2.78c-.17.07-.36.12-.56.16-.2.04-.53.08-.99.12-.72.06-1.23.14-1.52.24s-.52.25-.67.47-.23.45-.23.71c0,.35.12.63.36.85.24.22.58.33,1.02.33.41,0,.8-.11,1.18-.32.38-.22.68-.52.9-.91.22-.39.39-.94.51-1.65Z"/><path d="m47.54,24.22l1.52-7.26h1.09l-.31,1.48c.37-.56.74-.98,1.1-1.24.36-.27.72-.4,1.1-.4.25,0,.55.09.91.27l-.51,1.15c-.21-.15-.45-.23-.7-.23-.43,0-.88.24-1.33.72s-.81,1.35-1.07,2.6l-.62,2.91h-1.18Z"/><path d="m57.21,21.58l1.24.13c-.31.91-.75,1.58-1.32,2.02-.57.44-1.22.66-1.95.66-.79,0-1.43-.25-1.92-.77-.49-.51-.74-1.22-.74-2.14,0-.79.16-1.57.47-2.34s.76-1.35,1.35-1.75c.59-.4,1.25-.6,2.01-.6s1.4.22,1.85.66.68,1.02.68,1.75l-1.22.08c0-.46-.14-.82-.4-1.08-.26-.26-.61-.39-1.04-.39-.5,0-.93.16-1.29.47s-.65.79-.86,1.43c-.21.64-.31,1.26-.31,1.85s.14,1.08.41,1.39c.27.31.61.46,1.01.46s.79-.15,1.15-.46c.37-.3.65-.77.86-1.39Z"/><path d="m62.09,23.22l-.21,1.01c-.3.08-.58.12-.86.12-.49,0-.88-.12-1.18-.36-.22-.18-.33-.43-.33-.75,0-.16.06-.53.18-1.1l.88-4.22h-.98l.2-.96h.98l.38-1.78,1.42-.85-.55,2.64h1.22l-.21.96h-1.21l-.84,4.01c-.1.51-.16.82-.16.92,0,.15.04.26.13.33.08.08.22.12.41.12.27,0,.52-.03.73-.08Z"/><path d="m67.98,23.32c-.43.37-.84.64-1.24.81-.4.17-.82.26-1.27.26-.67,0-1.21-.2-1.62-.59-.41-.39-.62-.9-.62-1.51,0-.41.09-.76.28-1.08.18-.31.43-.56.73-.75s.68-.32,1.12-.41c.28-.05.81-.1,1.58-.13.78-.03,1.33-.11,1.67-.25.1-.34.14-.62.14-.84,0-.29-.1-.51-.31-.68-.29-.23-.71-.34-1.26-.34-.52,0-.94.12-1.27.35-.33.23-.57.56-.72.98l-1.25-.11c.25-.72.66-1.27,1.21-1.65.55-.38,1.25-.57,2.1-.57.9,0,1.61.21,2.13.64.4.32.6.73.6,1.24,0,.39-.06.84-.17,1.35l-.4,1.8c-.13.57-.19,1.04-.19,1.4,0,.23.05.56.15.98h-1.25c-.07-.24-.12-.54-.14-.9Zm.46-2.78c-.17.07-.36.12-.56.16-.2.04-.53.08-.99.12-.72.06-1.23.14-1.52.24s-.52.25-.67.47-.23.45-.23.71c0,.35.12.63.36.85.24.22.58.33,1.02.33.41,0,.8-.11,1.18-.32.38-.22.68-.52.9-.91.22-.39.39-.94.51-1.65Z"/><path d="m70.87,24.22l1.52-7.26h1.12l-.27,1.26c.49-.5.94-.86,1.37-1.09s.86-.34,1.3-.34c.59,0,1.05.16,1.38.48.34.32.5.75.5,1.28,0,.27-.06.69-.18,1.27l-.92,4.4h-1.24l.96-4.6c.1-.45.14-.78.14-.99,0-.24-.08-.44-.25-.59-.17-.15-.41-.23-.72-.23-.63,0-1.2.23-1.69.68-.49.46-.86,1.24-1.09,2.34l-.7,3.38h-1.24Z"/><path d="m90.79,34.33c-1.46-1.84-2.69-3.98-3.69-6.45s-1.51-5.01-1.51-7.65c0-2.32.38-4.55,1.13-6.68.88-2.47,2.24-4.93,4.07-7.38h1.89c-1.18,2.03-1.96,3.48-2.34,4.35-.6,1.35-1.06,2.75-1.41,4.22-.42,1.83-.63,3.66-.63,5.51,0,4.7,1.46,9.39,4.38,14.08h-1.89Z"/><path d="m114.14,34.33h-1.89c2.92-4.69,4.38-9.38,4.38-14.08,0-1.84-.21-3.66-.63-5.46-.33-1.46-.8-2.87-1.39-4.22-.38-.88-1.17-2.34-2.36-4.39h1.89c1.84,2.45,3.19,4.91,4.07,7.38.75,2.13,1.13,4.36,1.13,6.68,0,2.64-.51,5.19-1.52,7.65s-2.24,4.61-3.68,6.45Z"/><path d="m99.25,13.84l2.09-10.02h1.24l-.8,3.85c.46-.45.89-.77,1.29-.96s.8-.29,1.22-.29c.6,0,1.07.16,1.4.48s.5.73.5,1.25c0,.26-.07.72-.22,1.41l-.9,4.29h-1.24l.92-4.4c.13-.64.2-1.04.2-1.2,0-.24-.08-.43-.25-.58s-.4-.23-.71-.23c-.45,0-.87.12-1.28.35s-.72.56-.95.96-.44,1.07-.63,1.97l-.65,3.12h-1.24Z"/><path d="m101.5,33.84l2.09-10.02h1.24l-2.09,10.02h-1.24Z"/><line class="cls-1" x1="96" y1="20" x2="109" y2="20"/><path d="m147.64,23.72l-.21,1.01c-.3.08-.58.12-.86.12-.49,0-.88-.12-1.18-.36-.22-.18-.33-.43-.33-.75,0-.16.06-.53.18-1.1l.88-4.22h-.98l.2-.96h.98l.38-1.78,1.42-.85-.55,2.64h1.22l-.21.96h-1.21l-.84,4.01c-.1.51-.16.82-.16.92,0,.15.04.26.13.33.08.08.22.12.41.12.27,0,.52-.03.73-.08Z"/><path d="m153.53,23.82c-.43.37-.84.64-1.24.81-.4.17-.82.26-1.27.26-.67,0-1.21-.2-1.62-.59-.41-.39-.62-.9-.62-1.51,0-.41.09-.76.28-1.08.18-.31.43-.56.73-.75s.68-.32,1.12-.41c.28-.05.81-.1,1.58-.13.78-.03,1.33-.11,1.67-.25.1-.34.14-.62.14-.84,0-.29-.1-.51-.31-.68-.29-.23-.71-.34-1.26-.34-.52,0-.94.12-1.27.35-.33.23-.57.56-.72.98l-1.25-.11c.25-.72.66-1.27,1.21-1.65.55-.38,1.25-.57,2.1-.57.9,0,1.61.21,2.13.64.4.32.6.73.6,1.24,0,.39-.06.84-.17,1.35l-.4,1.8c-.13.57-.19,1.04-.19,1.4,0,.23.05.56.15.98h-1.25c-.07-.24-.12-.54-.14-.9Zm.46-2.78c-.17.07-.36.12-.56.16-.2.04-.53.08-.99.12-.72.06-1.23.14-1.52.24s-.52.25-.67.47c-.15.21-.23.45-.23.71,0,.35.12.63.36.85.24.22.58.33,1.02.33.41,0,.8-.11,1.18-.32.38-.22.68-.52.9-.91.22-.39.39-.94.51-1.65Z"/><path d="m156.42,24.72l1.52-7.26h1.12l-.27,1.26c.49-.5.94-.86,1.37-1.09s.86-.34,1.3-.34c.59,0,1.05.16,1.38.48.34.32.5.75.5,1.28,0,.27-.06.69-.18,1.27l-.92,4.4h-1.24l.96-4.6c.1-.45.14-.78.14-.99,0-.24-.08-.44-.25-.59-.17-.15-.41-.23-.72-.23-.63,0-1.2.23-1.69.68-.49.46-.86,1.24-1.09,2.34l-.7,3.38h-1.24Z"/><path d="m164.12,18.31l.15-.72h2.2l-.15.72h-2.2Z"/><path d="m168.43,20.06l.92-4.41c-.4.31-.96.56-1.68.75l.13-.65c.36-.14.71-.33,1.06-.56.35-.23.61-.43.79-.61.11-.11.21-.23.3-.39h.42l-1.22,5.87h-.73Z"/><path d="m181.79,34.83c-1.46-1.84-2.69-3.98-3.69-6.45s-1.51-5.01-1.51-7.65c0-2.32.38-4.55,1.13-6.68.88-2.47,2.24-4.93,4.07-7.38h1.89c-1.18,2.03-1.96,3.48-2.34,4.35-.6,1.35-1.06,2.75-1.41,4.22-.42,1.83-.63,3.66-.63,5.51,0,4.7,1.46,9.39,4.38,14.08h-1.89Z"/><path d="m205.14,34.83h-1.89c2.92-4.69,4.38-9.38,4.38-14.08,0-1.84-.21-3.66-.63-5.46-.33-1.46-.8-2.87-1.39-4.22-.38-.88-1.17-2.34-2.36-4.39h1.89c1.84,2.45,3.19,4.91,4.07,7.38.75,2.13,1.13,4.36,1.13,6.68,0,2.64-.51,5.19-1.52,7.65s-2.24,4.61-3.68,6.45Z"/><path d="m190.25,14.34l2.09-10.02h1.24l-.8,3.85c.46-.45.89-.77,1.29-.96s.8-.29,1.22-.29c.6,0,1.07.16,1.4.48s.5.73.5,1.25c0,.26-.07.72-.22,1.41l-.9,4.29h-1.24l.92-4.4c.13-.64.2-1.04.2-1.2,0-.24-.08-.43-.25-.58s-.4-.23-.71-.23c-.45,0-.87.12-1.28.35s-.72.56-.95.96-.44,1.07-.63,1.97l-.65,3.12h-1.24Z"/><path d="m192.5,34.34l2.09-10.02h1.24l-2.09,10.02h-1.24Z"/><line class="cls-1" x1="187" y1="20.5" x2="200" y2="20.5"/></svg>